%TF.GenerationSoftware,KiCad,Pcbnew,9.0.3*%
%TF.CreationDate,2025-07-19T15:21:00+03:00*%
%TF.ProjectId,KOMETA,4b4f4d45-5441-42e6-9b69-6361645f7063,rev?*%
%TF.SameCoordinates,Original*%
%TF.FileFunction,Legend,Top*%
%TF.FilePolarity,Positive*%
%FSLAX46Y46*%
G04 Gerber Fmt 4.6, Leading zero omitted, Abs format (unit mm)*
G04 Created by KiCad (PCBNEW 9.0.3) date 2025-07-19 15:21:00*
%MOMM*%
%LPD*%
G01*
G04 APERTURE LIST*
%ADD10C,0.250000*%
%ADD11C,0.100000*%
%ADD12C,0.000000*%
G04 APERTURE END LIST*
D10*
G36*
X189209007Y-151740000D02*
G01*
X189209007Y-150740375D01*
X189423208Y-150740375D01*
X189423208Y-151563595D01*
X189827796Y-151563595D01*
X189827796Y-151740000D01*
X189209007Y-151740000D01*
G37*
G36*
X190573958Y-151740000D02*
G01*
X189998583Y-151740000D01*
X189998583Y-150740375D01*
X190573958Y-150740375D01*
X190573958Y-150913970D01*
X190209975Y-150913970D01*
X190209975Y-151133789D01*
X190548740Y-151133789D01*
X190548740Y-151307384D01*
X190209975Y-151307384D01*
X190209975Y-151565000D01*
X190573958Y-151565000D01*
X190573958Y-151740000D01*
G37*
G36*
X190990697Y-151740000D02*
G01*
X190782114Y-151740000D01*
X190782114Y-150740375D01*
X191354680Y-150740375D01*
X191354680Y-150913970D01*
X190990697Y-150913970D01*
X190990697Y-151171585D01*
X191329462Y-151171585D01*
X191329462Y-151345181D01*
X190990697Y-151345181D01*
X190990697Y-151740000D01*
G37*
G36*
X191935001Y-151740000D02*
G01*
X191720800Y-151740000D01*
X191720800Y-150918183D01*
X191450607Y-150918183D01*
X191450607Y-150740375D01*
X192205195Y-150740375D01*
X192205195Y-150918183D01*
X191935001Y-150918183D01*
X191935001Y-151740000D01*
G37*
G36*
X193533815Y-151387191D02*
G01*
X193528583Y-151455088D01*
X193513324Y-151517041D01*
X193488264Y-151574098D01*
X193453268Y-151625184D01*
X193407970Y-151668884D01*
X193351060Y-151705683D01*
X193288126Y-151731441D01*
X193211817Y-151748019D01*
X193119396Y-151753982D01*
X193038070Y-151749262D01*
X192968810Y-151735980D01*
X192909831Y-151715139D01*
X192859612Y-151687290D01*
X192816962Y-151652500D01*
X192772313Y-151598680D01*
X192740237Y-151537146D01*
X192720363Y-151466399D01*
X192713403Y-151384382D01*
X192713403Y-150740375D01*
X192924795Y-150740375D01*
X192924795Y-151352203D01*
X192928748Y-151415518D01*
X192939322Y-151463535D01*
X192955048Y-151499436D01*
X192975170Y-151525799D01*
X193011916Y-151552595D01*
X193060639Y-151569832D01*
X193125013Y-151576174D01*
X193177016Y-151572159D01*
X193218047Y-151561161D01*
X193250311Y-151544218D01*
X193275467Y-151521585D01*
X193299853Y-151482304D01*
X193316225Y-151427095D01*
X193322423Y-151350799D01*
X193322423Y-150740375D01*
X193533815Y-150740375D01*
X193533815Y-151387191D01*
G37*
G36*
X194183612Y-150746453D02*
G01*
X194261623Y-150763023D01*
X194322921Y-150788179D01*
X194370652Y-150820914D01*
X194410232Y-150864145D01*
X194438816Y-150915304D01*
X194456702Y-150975983D01*
X194463037Y-151048426D01*
X194458933Y-151106381D01*
X194446800Y-151161231D01*
X194426645Y-151213595D01*
X194397665Y-151260830D01*
X194357823Y-151302222D01*
X194305561Y-151338220D01*
X194247088Y-151363217D01*
X194172094Y-151379716D01*
X194076645Y-151385786D01*
X193985664Y-151385786D01*
X193985664Y-151740000D01*
X193771463Y-151740000D01*
X193771463Y-151209382D01*
X193985664Y-151209382D01*
X194057044Y-151209382D01*
X194115010Y-151204971D01*
X194160601Y-151192916D01*
X194196324Y-151174394D01*
X194223660Y-151147183D01*
X194240998Y-151108834D01*
X194247431Y-151055387D01*
X194242454Y-151012449D01*
X194228568Y-150978638D01*
X194206154Y-150951828D01*
X194176387Y-150932822D01*
X194134934Y-150920150D01*
X194078049Y-150915375D01*
X193985664Y-150915375D01*
X193985664Y-151209382D01*
X193771463Y-151209382D01*
X193771463Y-150740375D01*
X194085071Y-150740375D01*
X194183612Y-150746453D01*
G37*
G36*
X219156545Y-150746528D02*
G01*
X219239242Y-150763085D01*
X219303904Y-150788107D01*
X219353906Y-150820418D01*
X219391805Y-150859775D01*
X219419143Y-150906904D01*
X219436287Y-150963417D01*
X219442385Y-151031642D01*
X219436149Y-151098001D01*
X219418605Y-151152763D01*
X219390544Y-151198277D01*
X219353345Y-151237997D01*
X219310604Y-151271508D01*
X219261767Y-151299088D01*
X219546005Y-151740069D01*
X219300968Y-151740069D01*
X219078402Y-151356485D01*
X218959395Y-151356485D01*
X218959395Y-151740069D01*
X218745194Y-151740069D01*
X218745194Y-151191255D01*
X218959395Y-151191255D01*
X219047566Y-151191255D01*
X219103606Y-151186787D01*
X219146517Y-151174697D01*
X219179152Y-151156267D01*
X219203811Y-151129583D01*
X219219543Y-151092515D01*
X219225375Y-151041473D01*
X219220190Y-150998694D01*
X219205832Y-150965896D01*
X219182694Y-150940662D01*
X219152227Y-150923380D01*
X219108620Y-150911585D01*
X219047566Y-150907078D01*
X218959395Y-150907078D01*
X218959395Y-151191255D01*
X218745194Y-151191255D01*
X218745194Y-150740444D01*
X219051780Y-150740444D01*
X219156545Y-150746528D01*
G37*
G36*
X220044322Y-151740069D02*
G01*
X219589358Y-151740069D01*
X219589358Y-151619657D01*
X219711113Y-151563664D01*
X219711113Y-150916848D01*
X219589358Y-150860855D01*
X219589358Y-150740444D01*
X220044322Y-150740444D01*
X220044322Y-150860855D01*
X219922566Y-150916848D01*
X219922566Y-151563664D01*
X220044322Y-151619657D01*
X220044322Y-151740069D01*
G37*
G36*
X220594112Y-151178676D02*
G01*
X220990335Y-151178676D01*
X220990335Y-151696654D01*
X220910735Y-151720368D01*
X220827181Y-151738664D01*
X220739574Y-151749973D01*
X220634718Y-151754051D01*
X220544251Y-151748119D01*
X220466321Y-151731299D01*
X220399000Y-151704609D01*
X220340705Y-151668426D01*
X220290274Y-151622466D01*
X220249303Y-151568776D01*
X220216289Y-151505316D01*
X220191457Y-151430523D01*
X220175577Y-151342459D01*
X220169923Y-151238882D01*
X220177151Y-151135810D01*
X220197777Y-151045976D01*
X220230801Y-150967284D01*
X220264803Y-150913016D01*
X220305368Y-150865622D01*
X220352863Y-150824538D01*
X220407938Y-150789475D01*
X220466592Y-150762897D01*
X220532759Y-150743190D01*
X220607523Y-150730800D01*
X220692115Y-150726461D01*
X220771337Y-150730671D01*
X220848919Y-150743252D01*
X220923605Y-150763233D01*
X220988931Y-150788071D01*
X220918894Y-150957453D01*
X220870626Y-150936141D01*
X220813931Y-150918252D01*
X220754158Y-150906766D01*
X220690710Y-150902865D01*
X220630317Y-150907790D01*
X220577325Y-150921939D01*
X220530426Y-150944875D01*
X220488856Y-150976438D01*
X220453982Y-151015578D01*
X220425401Y-151063211D01*
X220405337Y-151115291D01*
X220392754Y-151174815D01*
X220388338Y-151243095D01*
X220395322Y-151337713D01*
X220414899Y-151416691D01*
X220436614Y-151464384D01*
X220464569Y-151503416D01*
X220498919Y-151534966D01*
X220539240Y-151557913D01*
X220588440Y-151572441D01*
X220648700Y-151577647D01*
X220725026Y-151573495D01*
X220783095Y-151563664D01*
X220783095Y-151355081D01*
X220594112Y-151355081D01*
X220594112Y-151178676D01*
G37*
G36*
X222046808Y-151740069D02*
G01*
X221835415Y-151740069D01*
X221835415Y-151308858D01*
X221439253Y-151308858D01*
X221439253Y-151740069D01*
X221227861Y-151740069D01*
X221227861Y-150740444D01*
X221439253Y-150740444D01*
X221439253Y-151132453D01*
X221835415Y-151132453D01*
X221835415Y-150740444D01*
X222046808Y-150740444D01*
X222046808Y-151740069D01*
G37*
G36*
X222683610Y-151740069D02*
G01*
X222469409Y-151740069D01*
X222469409Y-150918252D01*
X222199215Y-150918252D01*
X222199215Y-150740444D01*
X222953803Y-150740444D01*
X222953803Y-150918252D01*
X222683610Y-150918252D01*
X222683610Y-151740069D01*
G37*
G36*
X224282423Y-151387260D02*
G01*
X224277192Y-151455157D01*
X224261932Y-151517110D01*
X224236872Y-151574167D01*
X224201876Y-151625253D01*
X224156579Y-151668953D01*
X224099669Y-151705752D01*
X224036735Y-151731510D01*
X223960426Y-151748088D01*
X223868004Y-151754051D01*
X223786678Y-151749331D01*
X223717418Y-151736049D01*
X223658439Y-151715208D01*
X223608221Y-151687359D01*
X223565571Y-151652569D01*
X223520922Y-151598749D01*
X223488846Y-151537215D01*
X223468971Y-151466468D01*
X223462012Y-151384451D01*
X223462012Y-150740444D01*
X223673404Y-150740444D01*
X223673404Y-151352272D01*
X223677356Y-151415587D01*
X223687930Y-151463604D01*
X223703657Y-151499505D01*
X223723779Y-151525868D01*
X223760524Y-151552664D01*
X223809247Y-151569901D01*
X223873622Y-151576243D01*
X223925624Y-151572228D01*
X223966655Y-151561230D01*
X223998919Y-151544287D01*
X224024076Y-151521654D01*
X224048462Y-151482373D01*
X224064834Y-151427164D01*
X224071031Y-151350868D01*
X224071031Y-150740444D01*
X224282423Y-150740444D01*
X224282423Y-151387260D01*
G37*
G36*
X224932220Y-150746522D02*
G01*
X225010231Y-150763092D01*
X225071530Y-150788248D01*
X225119260Y-150820983D01*
X225158841Y-150864214D01*
X225187425Y-150915373D01*
X225205310Y-150976052D01*
X225211645Y-151048495D01*
X225207542Y-151106450D01*
X225195408Y-151161300D01*
X225175253Y-151213664D01*
X225146273Y-151260899D01*
X225106432Y-151302291D01*
X225054170Y-151338289D01*
X224995696Y-151363286D01*
X224920702Y-151379785D01*
X224825253Y-151385855D01*
X224734273Y-151385855D01*
X224734273Y-151740069D01*
X224520072Y-151740069D01*
X224520072Y-151209451D01*
X224734273Y-151209451D01*
X224805653Y-151209451D01*
X224863618Y-151205040D01*
X224909210Y-151192985D01*
X224944932Y-151174463D01*
X224972269Y-151147252D01*
X224989607Y-151108903D01*
X224996040Y-151055456D01*
X224991062Y-151012518D01*
X224977176Y-150978707D01*
X224954763Y-150951897D01*
X224924995Y-150932891D01*
X224883543Y-150920219D01*
X224826658Y-150915444D01*
X224734273Y-150915444D01*
X224734273Y-151209451D01*
X224520072Y-151209451D01*
X224520072Y-150740444D01*
X224833680Y-150740444D01*
X224932220Y-150746522D01*
G37*
D11*
X227280951Y-173743533D02*
X226519047Y-173743533D01*
X226899999Y-173362580D02*
X226899999Y-174124485D01*
X218680951Y-173743533D02*
X217919047Y-173743533D01*
X195919048Y-173756466D02*
X196680953Y-173756466D01*
X187319048Y-173756466D02*
X188080953Y-173756466D01*
X187700000Y-174137419D02*
X187700000Y-173375514D01*
D12*
%TO.C,G\u002A\u002A\u002A*%
G36*
X146301844Y-136053698D02*
G01*
X146331460Y-136104060D01*
X146345220Y-136135361D01*
X146385829Y-136216237D01*
X146431786Y-136263797D01*
X146493752Y-136285716D01*
X146559882Y-136289951D01*
X146632959Y-136293512D01*
X146665823Y-136304736D01*
X146658543Y-136324429D01*
X146611186Y-136353397D01*
X146567024Y-136374044D01*
X146436224Y-136431797D01*
X146418307Y-136567546D01*
X146407440Y-136636172D01*
X146396261Y-136684953D01*
X146387306Y-136703206D01*
X146373217Y-136685643D01*
X146349322Y-136639882D01*
X146323255Y-136581546D01*
X146272287Y-136459975D01*
X146126916Y-136440479D01*
X145981545Y-136420983D01*
X146109433Y-136361487D01*
X146185854Y-136322000D01*
X146231091Y-136283969D01*
X146253202Y-136235866D01*
X146260246Y-136166165D01*
X146260587Y-136145280D01*
X146265857Y-136074373D01*
X146279793Y-136043824D01*
X146301844Y-136053698D01*
G37*
G36*
X147751313Y-141121471D02*
G01*
X147757933Y-141169067D01*
X147763456Y-141243243D01*
X147766831Y-141329245D01*
X147767101Y-141343083D01*
X147769833Y-141508421D01*
X147915406Y-141673071D01*
X147982274Y-141749994D01*
X148021641Y-141803267D01*
X148030949Y-141837305D01*
X148007640Y-141856527D01*
X147949157Y-141865349D01*
X147852943Y-141868186D01*
X147802165Y-141868644D01*
X147618066Y-141870097D01*
X147457846Y-142014767D01*
X147390791Y-142074509D01*
X147335516Y-142122245D01*
X147298844Y-142152171D01*
X147287695Y-142159438D01*
X147282427Y-142140198D01*
X147275786Y-142088063D01*
X147268690Y-142011407D01*
X147263095Y-141934896D01*
X147248427Y-141710355D01*
X147101705Y-141547386D01*
X146954983Y-141384418D01*
X147185836Y-141366701D01*
X147416690Y-141348984D01*
X147577474Y-141207091D01*
X147738258Y-141065197D01*
X147751313Y-141121471D01*
G37*
G36*
X145695599Y-130765051D02*
G01*
X145738860Y-130803061D01*
X145798728Y-130859574D01*
X145869127Y-130928999D01*
X145878640Y-130938584D01*
X146064214Y-131126030D01*
X146327730Y-131119422D01*
X146426618Y-131117734D01*
X146508583Y-131117841D01*
X146565883Y-131119621D01*
X146590776Y-131122953D01*
X146591236Y-131123579D01*
X146577371Y-131141338D01*
X146539486Y-131182156D01*
X146483142Y-131240215D01*
X146413896Y-131309701D01*
X146403582Y-131319918D01*
X146215936Y-131505492D01*
X146223336Y-131779332D01*
X146225281Y-131880275D01*
X146225410Y-131964445D01*
X146223825Y-132024248D01*
X146220627Y-132052089D01*
X146219671Y-132053173D01*
X146201749Y-132039376D01*
X146160583Y-132001637D01*
X146101965Y-131945430D01*
X146031689Y-131876229D01*
X146018295Y-131862862D01*
X145827984Y-131672551D01*
X145553422Y-131678280D01*
X145278860Y-131684009D01*
X145475199Y-131485834D01*
X145671537Y-131287658D01*
X145664256Y-131019398D01*
X145662849Y-130919573D01*
X145664162Y-130836595D01*
X145667887Y-130778133D01*
X145673715Y-130751859D01*
X145675020Y-130751138D01*
X145695599Y-130765051D01*
G37*
G36*
X144766648Y-134405489D02*
G01*
X144796655Y-134451400D01*
X144837361Y-134519014D01*
X144878067Y-134590073D01*
X144991094Y-134791578D01*
X145196979Y-134834536D01*
X145286929Y-134853670D01*
X145363486Y-134870630D01*
X145416399Y-134883109D01*
X145433172Y-134887695D01*
X145429410Y-134901232D01*
X145393023Y-134930419D01*
X145328260Y-134972229D01*
X145253998Y-135015472D01*
X145175329Y-135058978D01*
X145118348Y-135092261D01*
X145078389Y-135122809D01*
X145050787Y-135158107D01*
X145030878Y-135205642D01*
X145013996Y-135272900D01*
X144995478Y-135367367D01*
X144978189Y-135458095D01*
X144963303Y-135524614D01*
X144949072Y-135571244D01*
X144939318Y-135587265D01*
X144924279Y-135570343D01*
X144894032Y-135524443D01*
X144853177Y-135456867D01*
X144812837Y-135386573D01*
X144700178Y-135185880D01*
X144477452Y-135141457D01*
X144386433Y-135122544D01*
X144311259Y-135105493D01*
X144260689Y-135092383D01*
X144243687Y-135085995D01*
X144256067Y-135072288D01*
X144298068Y-135043531D01*
X144362842Y-135004130D01*
X144431970Y-134964853D01*
X144514501Y-134917298D01*
X144583553Y-134873829D01*
X144630883Y-134839866D01*
X144647574Y-134823164D01*
X144658192Y-134790051D01*
X144673457Y-134726786D01*
X144690932Y-134643941D01*
X144701308Y-134590073D01*
X144718342Y-134505062D01*
X144734173Y-134437776D01*
X144746624Y-134396885D01*
X144751900Y-134388567D01*
X144766648Y-134405489D01*
G37*
G36*
X155910063Y-135993988D02*
G01*
X155951973Y-136032936D01*
X156012779Y-136092007D01*
X156087546Y-136166420D01*
X156156601Y-136236337D01*
X156407990Y-136492731D01*
X156764580Y-136445600D01*
X156881052Y-136430700D01*
X156982602Y-136418650D01*
X157062444Y-136410178D01*
X157113795Y-136406013D01*
X157129935Y-136406364D01*
X157118607Y-136422415D01*
X157081774Y-136462133D01*
X157024024Y-136520846D01*
X156949943Y-136593883D01*
X156873221Y-136667881D01*
X156607743Y-136921503D01*
X156654559Y-137278915D01*
X156669240Y-137395620D01*
X156680904Y-137497499D01*
X156688865Y-137577751D01*
X156692440Y-137629571D01*
X156691551Y-137646151D01*
X156674937Y-137635127D01*
X156634981Y-137598446D01*
X156576437Y-137540770D01*
X156504055Y-137466761D01*
X156437222Y-137396640D01*
X156341458Y-137296557D01*
X156268543Y-137224211D01*
X156214360Y-137176017D01*
X156174789Y-137148388D01*
X156145711Y-137137737D01*
X156139368Y-137137306D01*
X156100412Y-137140082D01*
X156029362Y-137147716D01*
X155935035Y-137159166D01*
X155826250Y-137173393D01*
X155779744Y-137179756D01*
X155671982Y-137193889D01*
X155579304Y-137204524D01*
X155509127Y-137210929D01*
X155468869Y-137212372D01*
X155462355Y-137211091D01*
X155472847Y-137193917D01*
X155508811Y-137153089D01*
X155565713Y-137093379D01*
X155639017Y-137019561D01*
X155713754Y-136946469D01*
X155976268Y-136692961D01*
X155927510Y-136336452D01*
X155912415Y-136220825D01*
X155900735Y-136120848D01*
X155893124Y-136043079D01*
X155890234Y-135994077D01*
X155891983Y-135979942D01*
X155910063Y-135993988D01*
G37*
G36*
X143976221Y-138468171D02*
G01*
X143991566Y-138500362D01*
X143996415Y-138512140D01*
X144018176Y-138564294D01*
X144051744Y-138643003D01*
X144092281Y-138736989D01*
X144129138Y-138821684D01*
X144228511Y-139049023D01*
X144474678Y-139107815D01*
X144612275Y-139140775D01*
X144714526Y-139165691D01*
X144786313Y-139184036D01*
X144832514Y-139197281D01*
X144858009Y-139206899D01*
X144867678Y-139214361D01*
X144866401Y-139221138D01*
X144862978Y-139224932D01*
X144838445Y-139238960D01*
X144782914Y-139265705D01*
X144703503Y-139301890D01*
X144607327Y-139344234D01*
X144556252Y-139366233D01*
X144267655Y-139489638D01*
X144194576Y-139811831D01*
X144169081Y-139920766D01*
X144145772Y-140013957D01*
X144126462Y-140084637D01*
X144112965Y-140126036D01*
X144108212Y-140134038D01*
X144095226Y-140116265D01*
X144069784Y-140067900D01*
X144035597Y-139996395D01*
X143997550Y-139911879D01*
X143955502Y-139815383D01*
X143916552Y-139724991D01*
X143885509Y-139651925D01*
X143869245Y-139612600D01*
X143857220Y-139583385D01*
X143844057Y-139560816D01*
X143824041Y-139542584D01*
X143791456Y-139526377D01*
X143740587Y-139509884D01*
X143665720Y-139490792D01*
X143561141Y-139466792D01*
X143444243Y-139440723D01*
X143346409Y-139417981D01*
X143265066Y-139397263D01*
X143207718Y-139380618D01*
X143181870Y-139370091D01*
X143181138Y-139368945D01*
X143199134Y-139356782D01*
X143248881Y-139331619D01*
X143324022Y-139296460D01*
X143418197Y-139254309D01*
X143487866Y-139224042D01*
X143794593Y-139092309D01*
X143862137Y-138791659D01*
X143892539Y-138657988D01*
X143916048Y-138561087D01*
X143934417Y-138497305D01*
X143949400Y-138462992D01*
X143962750Y-138454497D01*
X143976221Y-138468171D01*
G37*
G36*
X151052461Y-134083745D02*
G01*
X151047516Y-134103278D01*
X151032467Y-134140979D01*
X151005622Y-134201632D01*
X150965285Y-134290021D01*
X150909761Y-134410930D01*
X150904826Y-134421684D01*
X150771110Y-134713141D01*
X150964702Y-135010700D01*
X151028158Y-135108997D01*
X151082905Y-135195261D01*
X151125256Y-135263565D01*
X151151526Y-135307982D01*
X151158488Y-135322322D01*
X151140973Y-135318498D01*
X151092281Y-135299154D01*
X151018386Y-135266886D01*
X150925264Y-135224290D01*
X150837373Y-135182818D01*
X150731594Y-135132581D01*
X150639052Y-135089235D01*
X150566052Y-135055686D01*
X150518898Y-135034836D01*
X150503992Y-135029251D01*
X150483159Y-135039682D01*
X150433836Y-135068412D01*
X150362432Y-135111591D01*
X150275356Y-135165372D01*
X150230251Y-135193587D01*
X150110491Y-135268213D01*
X150021567Y-135321990D01*
X149959782Y-135356779D01*
X149921436Y-135374441D01*
X149902829Y-135376838D01*
X149900263Y-135365830D01*
X149902795Y-135358347D01*
X149915250Y-135330060D01*
X149941680Y-135271484D01*
X149978785Y-135189885D01*
X150023267Y-135092525D01*
X150048602Y-135037245D01*
X150182420Y-134745566D01*
X149989776Y-134448708D01*
X149927236Y-134351028D01*
X149874264Y-134265778D01*
X149834335Y-134198757D01*
X149810921Y-134155765D01*
X149806428Y-134142557D01*
X149827198Y-134147889D01*
X149878938Y-134168488D01*
X149955391Y-134201653D01*
X150050301Y-134244687D01*
X150134601Y-134284071D01*
X150453480Y-134434880D01*
X150719112Y-134268055D01*
X150814804Y-134208564D01*
X150900557Y-134156380D01*
X150969167Y-134115802D01*
X151013426Y-134091132D01*
X151023632Y-134086306D01*
X151038825Y-134080043D01*
X151048999Y-134077594D01*
X151052461Y-134083745D01*
G37*
G36*
X144861694Y-132924680D02*
G01*
X144883165Y-132938498D01*
X144937237Y-132974266D01*
X145022222Y-133030850D01*
X145136431Y-133107118D01*
X145278177Y-133201937D01*
X145445772Y-133314176D01*
X145637526Y-133442700D01*
X145851753Y-133586379D01*
X146086763Y-133744079D01*
X146340868Y-133914667D01*
X146612380Y-134097011D01*
X146899612Y-134289978D01*
X147200874Y-134492436D01*
X147514478Y-134703253D01*
X147838737Y-134921295D01*
X148171962Y-135145430D01*
X148192784Y-135159437D01*
X148526270Y-135383717D01*
X148850781Y-135601832D01*
X149164638Y-135812659D01*
X149466161Y-136015073D01*
X149753671Y-136207952D01*
X150025489Y-136390173D01*
X150279935Y-136560612D01*
X150515330Y-136718147D01*
X150729996Y-136861654D01*
X150922252Y-136990009D01*
X151090419Y-137102090D01*
X151232818Y-137196774D01*
X151347770Y-137272936D01*
X151433595Y-137329455D01*
X151488615Y-137365206D01*
X151511150Y-137379067D01*
X151511467Y-137379188D01*
X151533251Y-137383220D01*
X151550274Y-137379506D01*
X151562517Y-137364435D01*
X151569962Y-137334397D01*
X151572591Y-137285779D01*
X151570384Y-137214969D01*
X151563324Y-137118358D01*
X151551392Y-136992332D01*
X151534569Y-136833280D01*
X151512837Y-136637591D01*
X151507424Y-136589514D01*
X151485598Y-136395138D01*
X151468270Y-136237742D01*
X151455189Y-136113243D01*
X151446107Y-136017559D01*
X151440775Y-135946609D01*
X151438943Y-135896310D01*
X151440363Y-135862581D01*
X151444786Y-135841340D01*
X151451962Y-135828504D01*
X151460513Y-135820805D01*
X151499491Y-135798993D01*
X151519151Y-135793937D01*
X151537838Y-135806333D01*
X151587349Y-135842558D01*
X151665800Y-135901174D01*
X151771304Y-135980742D01*
X151901977Y-136079821D01*
X152055932Y-136196971D01*
X152231284Y-136330755D01*
X152426148Y-136479731D01*
X152638638Y-136642460D01*
X152866868Y-136817503D01*
X153108952Y-137003420D01*
X153363007Y-137198771D01*
X153627144Y-137402117D01*
X153804094Y-137538473D01*
X154190594Y-137836732D01*
X154544089Y-138110182D01*
X154864614Y-138358848D01*
X155152205Y-138582758D01*
X155406895Y-138781939D01*
X155628720Y-138956420D01*
X155817714Y-139106226D01*
X155973913Y-139231387D01*
X156097351Y-139331929D01*
X156188062Y-139407879D01*
X156246083Y-139459265D01*
X156255469Y-139468262D01*
X156472284Y-139709934D01*
X156655934Y-139974158D01*
X156805467Y-140257585D01*
X156919929Y-140556867D01*
X156998369Y-140868655D01*
X157039835Y-141189598D01*
X157043372Y-141516349D01*
X157008030Y-141845559D01*
X156976758Y-142004434D01*
X156891050Y-142333913D01*
X156789571Y-142630134D01*
X156669089Y-142899225D01*
X156526372Y-143147313D01*
X156358187Y-143380527D01*
X156161302Y-143604995D01*
X156098852Y-143668852D01*
X155870176Y-143879783D01*
X155636451Y-144058126D01*
X155390229Y-144208105D01*
X155124064Y-144333945D01*
X154830509Y-144439872D01*
X154644692Y-144493869D01*
X154423075Y-144546057D01*
X154200026Y-144584906D01*
X153984467Y-144609499D01*
X153785323Y-144618920D01*
X153611517Y-144612253D01*
X153556077Y-144605623D01*
X153510408Y-144598944D01*
X153438719Y-144588488D01*
X153355894Y-144576425D01*
X153349405Y-144575480D01*
X153078249Y-144517132D01*
X152804492Y-144422446D01*
X152535455Y-144295212D01*
X152278461Y-144139216D01*
X152040830Y-143958248D01*
X151893249Y-143822069D01*
X151862587Y-143787833D01*
X151808886Y-143723732D01*
X151733620Y-143631656D01*
X151638261Y-143513495D01*
X151524282Y-143371137D01*
X151393156Y-143206473D01*
X151246356Y-143021392D01*
X151085355Y-142817783D01*
X150911625Y-142597537D01*
X150726640Y-142362542D01*
X150531872Y-142114687D01*
X150328795Y-141855864D01*
X150118880Y-141587960D01*
X150040462Y-141487754D01*
X151303352Y-141487754D01*
X151323211Y-141812574D01*
X151381356Y-142126388D01*
X151475632Y-142426612D01*
X151603889Y-142710665D01*
X151763974Y-142975965D01*
X151953734Y-143219930D01*
X152171018Y-143439978D01*
X152413673Y-143633527D01*
X152679548Y-143797995D01*
X152966489Y-143930800D01*
X153272344Y-144029361D01*
X153455346Y-144069415D01*
X153587471Y-144091531D01*
X153707100Y-144106400D01*
X153837963Y-144116817D01*
X153877997Y-144119212D01*
X153924715Y-144118661D01*
X154000801Y-144114326D01*
X154094544Y-144106978D01*
X154167337Y-144100162D01*
X154493972Y-144049294D01*
X154798808Y-143963826D01*
X155084387Y-143842564D01*
X155353253Y-143684315D01*
X155607949Y-143487884D01*
X155748004Y-143358136D01*
X155937072Y-143157965D01*
X156092954Y-142960226D01*
X156221959Y-142755153D01*
X156330395Y-142532978D01*
X156405013Y-142340790D01*
X156463003Y-142157512D01*
X156503302Y-141981603D01*
X156528077Y-141799460D01*
X156539494Y-141597479D01*
X156540868Y-141487754D01*
X156522023Y-141154134D01*
X156464761Y-140835759D01*
X156369146Y-140532781D01*
X156235237Y-140245355D01*
X156063098Y-139973634D01*
X155852791Y-139717770D01*
X155807426Y-139669828D01*
X155560736Y-139442678D01*
X155296623Y-139252925D01*
X155015806Y-139100877D01*
X154719005Y-138986839D01*
X154406939Y-138911118D01*
X154080329Y-138874020D01*
X153928087Y-138870008D01*
X153616101Y-138885531D01*
X153324022Y-138933467D01*
X153043874Y-139015713D01*
X152767683Y-139134169D01*
X152722796Y-139156884D01*
X152441959Y-139324527D01*
X152187765Y-139522275D01*
X151961988Y-139747213D01*
X151766401Y-139996429D01*
X151602778Y-140267009D01*
X151472893Y-140556042D01*
X151378520Y-140860614D01*
X151321433Y-141177813D01*
X151303352Y-141487754D01*
X150040462Y-141487754D01*
X149903602Y-141312867D01*
X149684432Y-141032472D01*
X149462845Y-140748666D01*
X149240311Y-140463337D01*
X149018306Y-140178377D01*
X148798301Y-139895674D01*
X148581768Y-139617117D01*
X148370183Y-139344597D01*
X148165016Y-139080002D01*
X147967741Y-138825223D01*
X147779831Y-138582148D01*
X147602758Y-138352667D01*
X147437996Y-138138671D01*
X147287017Y-137942047D01*
X147151295Y-137764687D01*
X147032302Y-137608479D01*
X146931511Y-137475312D01*
X146850394Y-137367077D01*
X146790426Y-137285663D01*
X146753078Y-137232959D01*
X146739827Y-137210877D01*
X146738484Y-137179828D01*
X146746145Y-137157300D01*
X146766838Y-137143512D01*
X146804588Y-137138680D01*
X146863421Y-137143022D01*
X146947365Y-137156757D01*
X147060446Y-137180103D01*
X147206691Y-137213278D01*
X147333203Y-137242998D01*
X147500319Y-137282045D01*
X147631452Y-137311402D01*
X147730623Y-137331794D01*
X147801849Y-137343945D01*
X147849149Y-137348580D01*
X147876543Y-137346423D01*
X147884767Y-137342453D01*
X147909725Y-137312701D01*
X147913929Y-137299591D01*
X147901781Y-137281043D01*
X147866312Y-137231388D01*
X147808986Y-137152602D01*
X147731266Y-137046658D01*
X147634614Y-136915529D01*
X147520495Y-136761191D01*
X147390371Y-136585616D01*
X147245707Y-136390779D01*
X147087963Y-136178654D01*
X146918606Y-135951214D01*
X146739096Y-135710434D01*
X146550898Y-135458288D01*
X146355476Y-135196750D01*
X146320879Y-135150479D01*
X146083170Y-134832432D01*
X145869228Y-134545840D01*
X145677929Y-134289158D01*
X145508151Y-134060839D01*
X145358772Y-133859339D01*
X145228670Y-133683111D01*
X145116721Y-133530609D01*
X145021803Y-133400287D01*
X144942794Y-133290599D01*
X144878572Y-133200001D01*
X144828013Y-133126945D01*
X144789995Y-133069886D01*
X144763397Y-133027278D01*
X144747094Y-132997576D01*
X144739965Y-132979232D01*
X144739659Y-132972890D01*
X144768086Y-132924476D01*
X144816062Y-132910366D01*
X144861694Y-132924680D01*
G37*
G36*
X252971844Y-136063698D02*
G01*
X253001460Y-136114060D01*
X253015220Y-136145361D01*
X253055829Y-136226237D01*
X253101786Y-136273797D01*
X253163752Y-136295716D01*
X253229882Y-136299951D01*
X253302959Y-136303512D01*
X253335823Y-136314736D01*
X253328543Y-136334429D01*
X253281186Y-136363397D01*
X253237024Y-136384044D01*
X253106224Y-136441797D01*
X253088307Y-136577546D01*
X253077440Y-136646172D01*
X253066261Y-136694953D01*
X253057306Y-136713206D01*
X253043217Y-136695643D01*
X253019322Y-136649882D01*
X252993255Y-136591546D01*
X252942287Y-136469975D01*
X252796916Y-136450479D01*
X252651545Y-136430983D01*
X252779433Y-136371487D01*
X252855854Y-136332000D01*
X252901091Y-136293969D01*
X252923202Y-136245866D01*
X252930246Y-136176165D01*
X252930587Y-136155280D01*
X252935857Y-136084373D01*
X252949793Y-136053824D01*
X252971844Y-136063698D01*
G37*
G36*
X254421313Y-141131471D02*
G01*
X254427933Y-141179067D01*
X254433456Y-141253243D01*
X254436831Y-141339245D01*
X254437101Y-141353083D01*
X254439833Y-141518421D01*
X254585406Y-141683071D01*
X254652274Y-141759994D01*
X254691641Y-141813267D01*
X254700949Y-141847305D01*
X254677640Y-141866527D01*
X254619157Y-141875349D01*
X254522943Y-141878186D01*
X254472165Y-141878644D01*
X254288066Y-141880097D01*
X254127846Y-142024767D01*
X254060791Y-142084509D01*
X254005516Y-142132245D01*
X253968844Y-142162171D01*
X253957695Y-142169438D01*
X253952427Y-142150198D01*
X253945786Y-142098063D01*
X253938690Y-142021407D01*
X253933095Y-141944896D01*
X253918427Y-141720355D01*
X253771705Y-141557386D01*
X253624983Y-141394418D01*
X253855836Y-141376701D01*
X254086690Y-141358984D01*
X254247474Y-141217091D01*
X254408258Y-141075197D01*
X254421313Y-141131471D01*
G37*
G36*
X252365599Y-130775051D02*
G01*
X252408860Y-130813061D01*
X252468728Y-130869574D01*
X252539127Y-130938999D01*
X252548640Y-130948584D01*
X252734214Y-131136030D01*
X252997730Y-131129422D01*
X253096618Y-131127734D01*
X253178583Y-131127841D01*
X253235883Y-131129621D01*
X253260776Y-131132953D01*
X253261236Y-131133579D01*
X253247371Y-131151338D01*
X253209486Y-131192156D01*
X253153142Y-131250215D01*
X253083896Y-131319701D01*
X253073582Y-131329918D01*
X252885936Y-131515492D01*
X252893336Y-131789332D01*
X252895281Y-131890275D01*
X252895410Y-131974445D01*
X252893825Y-132034248D01*
X252890627Y-132062089D01*
X252889671Y-132063173D01*
X252871749Y-132049376D01*
X252830583Y-132011637D01*
X252771965Y-131955430D01*
X252701689Y-131886229D01*
X252688295Y-131872862D01*
X252497984Y-131682551D01*
X252223422Y-131688280D01*
X251948860Y-131694009D01*
X252145199Y-131495834D01*
X252341537Y-131297658D01*
X252334256Y-131029398D01*
X252332849Y-130929573D01*
X252334162Y-130846595D01*
X252337887Y-130788133D01*
X252343715Y-130761859D01*
X252345020Y-130761138D01*
X252365599Y-130775051D01*
G37*
G36*
X251436648Y-134415489D02*
G01*
X251466655Y-134461400D01*
X251507361Y-134529014D01*
X251548067Y-134600073D01*
X251661094Y-134801578D01*
X251866979Y-134844536D01*
X251956929Y-134863670D01*
X252033486Y-134880630D01*
X252086399Y-134893109D01*
X252103172Y-134897695D01*
X252099410Y-134911232D01*
X252063023Y-134940419D01*
X251998260Y-134982229D01*
X251923998Y-135025472D01*
X251845329Y-135068978D01*
X251788348Y-135102261D01*
X251748389Y-135132809D01*
X251720787Y-135168107D01*
X251700878Y-135215642D01*
X251683996Y-135282900D01*
X251665478Y-135377367D01*
X251648189Y-135468095D01*
X251633303Y-135534614D01*
X251619072Y-135581244D01*
X251609318Y-135597265D01*
X251594279Y-135580343D01*
X251564032Y-135534443D01*
X251523177Y-135466867D01*
X251482837Y-135396573D01*
X251370178Y-135195880D01*
X251147452Y-135151457D01*
X251056433Y-135132544D01*
X250981259Y-135115493D01*
X250930689Y-135102383D01*
X250913687Y-135095995D01*
X250926067Y-135082288D01*
X250968068Y-135053531D01*
X251032842Y-135014130D01*
X251101970Y-134974853D01*
X251184501Y-134927298D01*
X251253553Y-134883829D01*
X251300883Y-134849866D01*
X251317574Y-134833164D01*
X251328192Y-134800051D01*
X251343457Y-134736786D01*
X251360932Y-134653941D01*
X251371308Y-134600073D01*
X251388342Y-134515062D01*
X251404173Y-134447776D01*
X251416624Y-134406885D01*
X251421900Y-134398567D01*
X251436648Y-134415489D01*
G37*
G36*
X262580063Y-136003988D02*
G01*
X262621973Y-136042936D01*
X262682779Y-136102007D01*
X262757546Y-136176420D01*
X262826601Y-136246337D01*
X263077990Y-136502731D01*
X263434580Y-136455600D01*
X263551052Y-136440700D01*
X263652602Y-136428650D01*
X263732444Y-136420178D01*
X263783795Y-136416013D01*
X263799935Y-136416364D01*
X263788607Y-136432415D01*
X263751774Y-136472133D01*
X263694024Y-136530846D01*
X263619943Y-136603883D01*
X263543221Y-136677881D01*
X263277743Y-136931503D01*
X263324559Y-137288915D01*
X263339240Y-137405620D01*
X263350904Y-137507499D01*
X263358865Y-137587751D01*
X263362440Y-137639571D01*
X263361551Y-137656151D01*
X263344937Y-137645127D01*
X263304981Y-137608446D01*
X263246437Y-137550770D01*
X263174055Y-137476761D01*
X263107222Y-137406640D01*
X263011458Y-137306557D01*
X262938543Y-137234211D01*
X262884360Y-137186017D01*
X262844789Y-137158388D01*
X262815711Y-137147737D01*
X262809368Y-137147306D01*
X262770412Y-137150082D01*
X262699362Y-137157716D01*
X262605035Y-137169166D01*
X262496250Y-137183393D01*
X262449744Y-137189756D01*
X262341982Y-137203889D01*
X262249304Y-137214524D01*
X262179127Y-137220929D01*
X262138869Y-137222372D01*
X262132355Y-137221091D01*
X262142847Y-137203917D01*
X262178811Y-137163089D01*
X262235713Y-137103379D01*
X262309017Y-137029561D01*
X262383754Y-136956469D01*
X262646268Y-136702961D01*
X262597510Y-136346452D01*
X262582415Y-136230825D01*
X262570735Y-136130848D01*
X262563124Y-136053079D01*
X262560234Y-136004077D01*
X262561983Y-135989942D01*
X262580063Y-136003988D01*
G37*
G36*
X250646221Y-138478171D02*
G01*
X250661566Y-138510362D01*
X250666415Y-138522140D01*
X250688176Y-138574294D01*
X250721744Y-138653003D01*
X250762281Y-138746989D01*
X250799138Y-138831684D01*
X250898511Y-139059023D01*
X251144678Y-139117815D01*
X251282275Y-139150775D01*
X251384526Y-139175691D01*
X251456313Y-139194036D01*
X251502514Y-139207281D01*
X251528009Y-139216899D01*
X251537678Y-139224361D01*
X251536401Y-139231138D01*
X251532978Y-139234932D01*
X251508445Y-139248960D01*
X251452914Y-139275705D01*
X251373503Y-139311890D01*
X251277327Y-139354234D01*
X251226252Y-139376233D01*
X250937655Y-139499638D01*
X250864576Y-139821831D01*
X250839081Y-139930766D01*
X250815772Y-140023957D01*
X250796462Y-140094637D01*
X250782965Y-140136036D01*
X250778212Y-140144038D01*
X250765226Y-140126265D01*
X250739784Y-140077900D01*
X250705597Y-140006395D01*
X250667550Y-139921879D01*
X250625502Y-139825383D01*
X250586552Y-139734991D01*
X250555509Y-139661925D01*
X250539245Y-139622600D01*
X250527220Y-139593385D01*
X250514057Y-139570816D01*
X250494041Y-139552584D01*
X250461456Y-139536377D01*
X250410587Y-139519884D01*
X250335720Y-139500792D01*
X250231141Y-139476792D01*
X250114243Y-139450723D01*
X250016409Y-139427981D01*
X249935066Y-139407263D01*
X249877718Y-139390618D01*
X249851870Y-139380091D01*
X249851138Y-139378945D01*
X249869134Y-139366782D01*
X249918881Y-139341619D01*
X249994022Y-139306460D01*
X250088197Y-139264309D01*
X250157866Y-139234042D01*
X250464593Y-139102309D01*
X250532137Y-138801659D01*
X250562539Y-138667988D01*
X250586048Y-138571087D01*
X250604417Y-138507305D01*
X250619400Y-138472992D01*
X250632750Y-138464497D01*
X250646221Y-138478171D01*
G37*
G36*
X257722461Y-134093745D02*
G01*
X257717516Y-134113278D01*
X257702467Y-134150979D01*
X257675622Y-134211632D01*
X257635285Y-134300021D01*
X257579761Y-134420930D01*
X257574826Y-134431684D01*
X257441110Y-134723141D01*
X257634702Y-135020700D01*
X257698158Y-135118997D01*
X257752905Y-135205261D01*
X257795256Y-135273565D01*
X257821526Y-135317982D01*
X257828488Y-135332322D01*
X257810973Y-135328498D01*
X257762281Y-135309154D01*
X257688386Y-135276886D01*
X257595264Y-135234290D01*
X257507373Y-135192818D01*
X257401594Y-135142581D01*
X257309052Y-135099235D01*
X257236052Y-135065686D01*
X257188898Y-135044836D01*
X257173992Y-135039251D01*
X257153159Y-135049682D01*
X257103836Y-135078412D01*
X257032432Y-135121591D01*
X256945356Y-135175372D01*
X256900251Y-135203587D01*
X256780491Y-135278213D01*
X256691567Y-135331990D01*
X256629782Y-135366779D01*
X256591436Y-135384441D01*
X256572829Y-135386838D01*
X256570263Y-135375830D01*
X256572795Y-135368347D01*
X256585250Y-135340060D01*
X256611680Y-135281484D01*
X256648785Y-135199885D01*
X256693267Y-135102525D01*
X256718602Y-135047245D01*
X256852420Y-134755566D01*
X256659776Y-134458708D01*
X256597236Y-134361028D01*
X256544264Y-134275778D01*
X256504335Y-134208757D01*
X256480921Y-134165765D01*
X256476428Y-134152557D01*
X256497198Y-134157889D01*
X256548938Y-134178488D01*
X256625391Y-134211653D01*
X256720301Y-134254687D01*
X256804601Y-134294071D01*
X257123480Y-134444880D01*
X257389112Y-134278055D01*
X257484804Y-134218564D01*
X257570557Y-134166380D01*
X257639167Y-134125802D01*
X257683426Y-134101132D01*
X257693632Y-134096306D01*
X257708825Y-134090043D01*
X257718999Y-134087594D01*
X257722461Y-134093745D01*
G37*
G36*
X251531694Y-132934680D02*
G01*
X251553165Y-132948498D01*
X251607237Y-132984266D01*
X251692222Y-133040850D01*
X251806431Y-133117118D01*
X251948177Y-133211937D01*
X252115772Y-133324176D01*
X252307526Y-133452700D01*
X252521753Y-133596379D01*
X252756763Y-133754079D01*
X253010868Y-133924667D01*
X253282380Y-134107011D01*
X253569612Y-134299978D01*
X253870874Y-134502436D01*
X254184478Y-134713253D01*
X254508737Y-134931295D01*
X254841962Y-135155430D01*
X254862784Y-135169437D01*
X255196270Y-135393717D01*
X255520781Y-135611832D01*
X255834638Y-135822659D01*
X256136161Y-136025073D01*
X256423671Y-136217952D01*
X256695489Y-136400173D01*
X256949935Y-136570612D01*
X257185330Y-136728147D01*
X257399996Y-136871654D01*
X257592252Y-137000009D01*
X257760419Y-137112090D01*
X257902818Y-137206774D01*
X258017770Y-137282936D01*
X258103595Y-137339455D01*
X258158615Y-137375206D01*
X258181150Y-137389067D01*
X258181467Y-137389188D01*
X258203251Y-137393220D01*
X258220274Y-137389506D01*
X258232517Y-137374435D01*
X258239962Y-137344397D01*
X258242591Y-137295779D01*
X258240384Y-137224969D01*
X258233324Y-137128358D01*
X258221392Y-137002332D01*
X258204569Y-136843280D01*
X258182837Y-136647591D01*
X258177424Y-136599514D01*
X258155598Y-136405138D01*
X258138270Y-136247742D01*
X258125189Y-136123243D01*
X258116107Y-136027559D01*
X258110775Y-135956609D01*
X258108943Y-135906310D01*
X258110363Y-135872581D01*
X258114786Y-135851340D01*
X258121962Y-135838504D01*
X258130513Y-135830805D01*
X258169491Y-135808993D01*
X258189151Y-135803937D01*
X258207838Y-135816333D01*
X258257349Y-135852558D01*
X258335800Y-135911174D01*
X258441304Y-135990742D01*
X258571977Y-136089821D01*
X258725932Y-136206971D01*
X258901284Y-136340755D01*
X259096148Y-136489731D01*
X259308638Y-136652460D01*
X259536868Y-136827503D01*
X259778952Y-137013420D01*
X260033007Y-137208771D01*
X260297144Y-137412117D01*
X260474094Y-137548473D01*
X260860594Y-137846732D01*
X261214089Y-138120182D01*
X261534614Y-138368848D01*
X261822205Y-138592758D01*
X262076895Y-138791939D01*
X262298720Y-138966420D01*
X262487714Y-139116226D01*
X262643913Y-139241387D01*
X262767351Y-139341929D01*
X262858062Y-139417879D01*
X262916083Y-139469265D01*
X262925469Y-139478262D01*
X263142284Y-139719934D01*
X263325934Y-139984158D01*
X263475467Y-140267585D01*
X263589929Y-140566867D01*
X263668369Y-140878655D01*
X263709835Y-141199598D01*
X263713372Y-141526349D01*
X263678030Y-141855559D01*
X263646758Y-142014434D01*
X263561050Y-142343913D01*
X263459571Y-142640134D01*
X263339089Y-142909225D01*
X263196372Y-143157313D01*
X263028187Y-143390527D01*
X262831302Y-143614995D01*
X262768852Y-143678852D01*
X262540176Y-143889783D01*
X262306451Y-144068126D01*
X262060229Y-144218105D01*
X261794064Y-144343945D01*
X261500509Y-144449872D01*
X261314692Y-144503869D01*
X261093075Y-144556057D01*
X260870026Y-144594906D01*
X260654467Y-144619499D01*
X260455323Y-144628920D01*
X260281517Y-144622253D01*
X260226077Y-144615623D01*
X260180408Y-144608944D01*
X260108719Y-144598488D01*
X260025894Y-144586425D01*
X260019405Y-144585480D01*
X259748249Y-144527132D01*
X259474492Y-144432446D01*
X259205455Y-144305212D01*
X258948461Y-144149216D01*
X258710830Y-143968248D01*
X258563249Y-143832069D01*
X258532587Y-143797833D01*
X258478886Y-143733732D01*
X258403620Y-143641656D01*
X258308261Y-143523495D01*
X258194282Y-143381137D01*
X258063156Y-143216473D01*
X257916356Y-143031392D01*
X257755355Y-142827783D01*
X257581625Y-142607537D01*
X257396640Y-142372542D01*
X257201872Y-142124687D01*
X256998795Y-141865864D01*
X256788880Y-141597960D01*
X256710462Y-141497754D01*
X257973352Y-141497754D01*
X257993211Y-141822574D01*
X258051356Y-142136388D01*
X258145632Y-142436612D01*
X258273889Y-142720665D01*
X258433974Y-142985965D01*
X258623734Y-143229930D01*
X258841018Y-143449978D01*
X259083673Y-143643527D01*
X259349548Y-143807995D01*
X259636489Y-143940800D01*
X259942344Y-144039361D01*
X260125346Y-144079415D01*
X260257471Y-144101531D01*
X260377100Y-144116400D01*
X260507963Y-144126817D01*
X260547997Y-144129212D01*
X260594715Y-144128661D01*
X260670801Y-144124326D01*
X260764544Y-144116978D01*
X260837337Y-144110162D01*
X261163972Y-144059294D01*
X261468808Y-143973826D01*
X261754387Y-143852564D01*
X262023253Y-143694315D01*
X262277949Y-143497884D01*
X262418004Y-143368136D01*
X262607072Y-143167965D01*
X262762954Y-142970226D01*
X262891959Y-142765153D01*
X263000395Y-142542978D01*
X263075013Y-142350790D01*
X263133003Y-142167512D01*
X263173302Y-141991603D01*
X263198077Y-141809460D01*
X263209494Y-141607479D01*
X263210868Y-141497754D01*
X263192023Y-141164134D01*
X263134761Y-140845759D01*
X263039146Y-140542781D01*
X262905237Y-140255355D01*
X262733098Y-139983634D01*
X262522791Y-139727770D01*
X262477426Y-139679828D01*
X262230736Y-139452678D01*
X261966623Y-139262925D01*
X261685806Y-139110877D01*
X261389005Y-138996839D01*
X261076939Y-138921118D01*
X260750329Y-138884020D01*
X260598087Y-138880008D01*
X260286101Y-138895531D01*
X259994022Y-138943467D01*
X259713874Y-139025713D01*
X259437683Y-139144169D01*
X259392796Y-139166884D01*
X259111959Y-139334527D01*
X258857765Y-139532275D01*
X258631988Y-139757213D01*
X258436401Y-140006429D01*
X258272778Y-140277009D01*
X258142893Y-140566042D01*
X258048520Y-140870614D01*
X257991433Y-141187813D01*
X257973352Y-141497754D01*
X256710462Y-141497754D01*
X256573602Y-141322867D01*
X256354432Y-141042472D01*
X256132845Y-140758666D01*
X255910311Y-140473337D01*
X255688306Y-140188377D01*
X255468301Y-139905674D01*
X255251768Y-139627117D01*
X255040183Y-139354597D01*
X254835016Y-139090002D01*
X254637741Y-138835223D01*
X254449831Y-138592148D01*
X254272758Y-138362667D01*
X254107996Y-138148671D01*
X253957017Y-137952047D01*
X253821295Y-137774687D01*
X253702302Y-137618479D01*
X253601511Y-137485312D01*
X253520394Y-137377077D01*
X253460426Y-137295663D01*
X253423078Y-137242959D01*
X253409827Y-137220877D01*
X253408484Y-137189828D01*
X253416145Y-137167300D01*
X253436838Y-137153512D01*
X253474588Y-137148680D01*
X253533421Y-137153022D01*
X253617365Y-137166757D01*
X253730446Y-137190103D01*
X253876691Y-137223278D01*
X254003203Y-137252998D01*
X254170319Y-137292045D01*
X254301452Y-137321402D01*
X254400623Y-137341794D01*
X254471849Y-137353945D01*
X254519149Y-137358580D01*
X254546543Y-137356423D01*
X254554767Y-137352453D01*
X254579725Y-137322701D01*
X254583929Y-137309591D01*
X254571781Y-137291043D01*
X254536312Y-137241388D01*
X254478986Y-137162602D01*
X254401266Y-137056658D01*
X254304614Y-136925529D01*
X254190495Y-136771191D01*
X254060371Y-136595616D01*
X253915707Y-136400779D01*
X253757963Y-136188654D01*
X253588606Y-135961214D01*
X253409096Y-135720434D01*
X253220898Y-135468288D01*
X253025476Y-135206750D01*
X252990879Y-135160479D01*
X252753170Y-134842432D01*
X252539228Y-134555840D01*
X252347929Y-134299158D01*
X252178151Y-134070839D01*
X252028772Y-133869339D01*
X251898670Y-133693111D01*
X251786721Y-133540609D01*
X251691803Y-133410287D01*
X251612794Y-133300599D01*
X251548572Y-133210001D01*
X251498013Y-133136945D01*
X251459995Y-133079886D01*
X251433397Y-133037278D01*
X251417094Y-133007576D01*
X251409965Y-132989232D01*
X251409659Y-132982890D01*
X251438086Y-132934476D01*
X251486062Y-132920366D01*
X251531694Y-132934680D01*
G37*
%TD*%
M02*
