%TF.GenerationSoftware,KiCad,Pcbnew,9.0.6*%
%TF.CreationDate,2025-12-03T13:22:54+03:00*%
%TF.ProjectId,KOMETA,4b4f4d45-5441-42e6-9b69-6361645f7063,rev?*%
%TF.SameCoordinates,Original*%
%TF.FileFunction,Profile,NP*%
%FSLAX46Y46*%
G04 Gerber Fmt 4.6, Leading zero omitted, Abs format (unit mm)*
G04 Created by KiCad (PCBNEW 9.0.6) date 2025-12-03 13:22:54*
%MOMM*%
%LPD*%
G01*
G04 APERTURE LIST*
%TA.AperFunction,Profile*%
%ADD10C,0.050000*%
%TD*%
G04 APERTURE END LIST*
D10*
X67700000Y-122500000D02*
X67700000Y-179500000D01*
X307300000Y-171600000D02*
X307300000Y-177125000D01*
X328700000Y-121700000D02*
G75*
G02*
X327900000Y-120900000I0J800000D01*
G01*
X212829575Y-113535000D02*
X215800042Y-113535000D01*
X201829575Y-113535000D02*
X198750000Y-113535000D01*
X250300000Y-113030106D02*
G75*
G02*
X249800106Y-113530100I-500000J6D01*
G01*
X270900000Y-171600000D02*
X270900000Y-189000000D01*
X189500000Y-144199195D02*
G75*
G02*
X190000000Y-143699200I500000J-5D01*
G01*
X188250000Y-125535000D02*
G75*
G02*
X187750000Y-125035000I0J500000D01*
G01*
X226800958Y-124964958D02*
X226800042Y-114034936D01*
X308100000Y-177925000D02*
G75*
G02*
X307300000Y-177125000I0J800000D01*
G01*
X224551000Y-143699195D02*
G75*
G02*
X225051005Y-144199195I0J-500005D01*
G01*
X327100000Y-119325000D02*
X309700000Y-119325000D01*
X308100000Y-112200000D02*
G75*
G02*
X308900000Y-113000000I0J-800000D01*
G01*
X67700000Y-122500000D02*
G75*
G02*
X68500000Y-121700000I800000J0D01*
G01*
X224551000Y-143699195D02*
X218551000Y-143699195D01*
X144500000Y-107450000D02*
X125500000Y-107450000D01*
X105700000Y-113000000D02*
G75*
G02*
X106500000Y-112200000I800000J0D01*
G01*
X269300000Y-111400000D02*
G75*
G02*
X268500000Y-112200000I-800000J0D01*
G01*
X180900000Y-192180000D02*
G75*
G02*
X181700000Y-192980000I0J-800000D01*
G01*
X202300000Y-165800000D02*
G75*
G02*
X207300000Y-160800000I5000000J0D01*
G01*
X187750000Y-125035000D02*
X187750000Y-114034254D01*
X89100000Y-177925000D02*
X106500000Y-177925000D01*
X327100000Y-180300000D02*
X346100000Y-180300000D01*
X86700000Y-120125000D02*
G75*
G02*
X87500000Y-119325000I800000J0D01*
G01*
X232900000Y-193475000D02*
X232900000Y-193750000D01*
X218051000Y-146199195D02*
X218051000Y-144199195D01*
X188250000Y-125535000D02*
X197750000Y-125535000D01*
X124700000Y-111400000D02*
G75*
G02*
X123900000Y-112200000I-800000J0D01*
G01*
X142900000Y-170800000D02*
G75*
G02*
X143700000Y-171600000I0J-800000D01*
G01*
X216300958Y-124965042D02*
X216300042Y-114034958D01*
X212300000Y-153624000D02*
X212300000Y-165800000D01*
X164799254Y-113500745D02*
X187250746Y-113534255D01*
X124700000Y-111400000D02*
X124700000Y-108250000D01*
X251900000Y-190600000D02*
X251900000Y-191380000D01*
X207300000Y-181500000D02*
G75*
G02*
X202300000Y-176500000I0J5000000D01*
G01*
X105700000Y-118525000D02*
X105700000Y-113000000D01*
X189500000Y-146199195D02*
X189500000Y-144199195D01*
X269300000Y-108250000D02*
G75*
G02*
X270100000Y-107450000I800000J0D01*
G01*
X190000000Y-146699195D02*
G75*
G02*
X189500005Y-146199195I0J499995D01*
G01*
X202300000Y-193750000D02*
X202300000Y-191750000D01*
X252700000Y-189800000D02*
X270100000Y-189800000D01*
X202300000Y-193750000D02*
G75*
G02*
X201500000Y-194550000I-800000J0D01*
G01*
X251900000Y-191380000D02*
G75*
G02*
X251100000Y-192180000I-800000J0D01*
G01*
X212300000Y-193750000D02*
X212300000Y-191750000D01*
X86700000Y-120900000D02*
X86700000Y-120125000D01*
X87500000Y-180300000D02*
X68500000Y-180300000D01*
X218051000Y-144199195D02*
G75*
G02*
X218551000Y-143699200I500000J-5D01*
G01*
X87500000Y-119325000D02*
X104900000Y-119325000D01*
X251100000Y-112200000D02*
X268500000Y-112200000D01*
X327100000Y-119325000D02*
G75*
G02*
X327900000Y-120125000I0J-800000D01*
G01*
X105700000Y-118525000D02*
G75*
G02*
X104900000Y-119325000I-800000J0D01*
G01*
X107300000Y-171600000D02*
X107300000Y-177125000D01*
X232900000Y-193475000D02*
G75*
G02*
X234200000Y-192175000I1300000J0D01*
G01*
X163500000Y-192175000D02*
G75*
G02*
X162700000Y-191375000I0J800000D01*
G01*
X212329575Y-114034575D02*
G75*
G02*
X212829575Y-113534975I500025J-425D01*
G01*
X226800958Y-124964958D02*
G75*
G02*
X226300958Y-125465058I-500058J-42D01*
G01*
X164799254Y-113500745D02*
G75*
G02*
X164300054Y-113000746I746J499945D01*
G01*
X144500000Y-189800000D02*
G75*
G02*
X143700000Y-189000000I0J800000D01*
G01*
X289900000Y-111400000D02*
X289900000Y-108250000D01*
X142900000Y-170800000D02*
X108100000Y-170800000D01*
X202300000Y-148824000D02*
X202329575Y-114035425D01*
X123900000Y-112200000D02*
X106500000Y-112200000D01*
X327900000Y-120900000D02*
X327900000Y-120125000D01*
X327100000Y-180300000D02*
G75*
G02*
X326300000Y-179500000I0J800000D01*
G01*
X146100000Y-112200000D02*
G75*
G02*
X145300000Y-111400000I0J800000D01*
G01*
X196000000Y-143699195D02*
X190000000Y-143699195D01*
X86700000Y-120900000D02*
G75*
G02*
X85900000Y-121700000I-800000J0D01*
G01*
X207300000Y-160800000D02*
G75*
G02*
X212300000Y-165800000I0J-5000000D01*
G01*
X180900000Y-192175000D02*
X163500000Y-192175000D01*
X88300000Y-178725000D02*
G75*
G02*
X89100000Y-177925000I800000J0D01*
G01*
X232100000Y-194550001D02*
X213100000Y-194550000D01*
X161900000Y-189800000D02*
G75*
G02*
X162700000Y-190600000I0J-800000D01*
G01*
X164300000Y-113000000D02*
X164300000Y-113000746D01*
X88300000Y-178725000D02*
X88300000Y-179500000D01*
X198250000Y-114035000D02*
X198250000Y-125035000D01*
X212300000Y-153624000D02*
X202300000Y-153624000D01*
X107300000Y-171600000D02*
G75*
G02*
X108100000Y-170800000I800000J0D01*
G01*
X270900000Y-189000000D02*
G75*
G02*
X270100000Y-189800000I-800000J0D01*
G01*
X212300000Y-148824000D02*
X202300000Y-148824000D01*
X325500000Y-177925000D02*
X308100000Y-177925000D01*
X202300000Y-186950000D02*
X202300000Y-176500000D01*
X225051000Y-146199195D02*
X225051000Y-144199195D01*
X250300000Y-113000000D02*
X250300000Y-113030106D01*
X143700000Y-171600000D02*
X143700000Y-189000000D01*
X162700000Y-190600000D02*
X162700000Y-191375000D01*
X181700000Y-192980000D02*
X181700000Y-193750000D01*
X88300000Y-179500000D02*
G75*
G02*
X87500000Y-180300000I-800000J0D01*
G01*
X216800958Y-125465000D02*
X226300958Y-125465000D01*
X226800042Y-114034936D02*
G75*
G02*
X227299936Y-113534842I500058J36D01*
G01*
X309700000Y-119325000D02*
G75*
G02*
X308900000Y-118525000I0J800000D01*
G01*
X198250000Y-125035000D02*
G75*
G02*
X197750000Y-125535000I-500000J0D01*
G01*
X124700000Y-108250000D02*
G75*
G02*
X125500000Y-107450000I800000J0D01*
G01*
X346900000Y-179500000D02*
G75*
G02*
X346100000Y-180300000I-800000J0D01*
G01*
X227299936Y-113534894D02*
X249800106Y-113530106D01*
X213100000Y-194550000D02*
G75*
G02*
X212300000Y-193750000I0J800000D01*
G01*
X215800042Y-113535000D02*
G75*
G02*
X216300000Y-114034958I-42J-500000D01*
G01*
X163500000Y-112200000D02*
G75*
G02*
X164300000Y-113000000I0J-800000D01*
G01*
X212300000Y-148824000D02*
X212329575Y-114034575D01*
X198250000Y-114035000D02*
G75*
G02*
X198750000Y-113535000I500000J0D01*
G01*
X201829575Y-113535000D02*
G75*
G02*
X202329600Y-114035425I25J-500000D01*
G01*
X326300000Y-178725000D02*
X326300000Y-179500000D01*
X182500000Y-194550001D02*
X201500000Y-194550000D01*
X251900000Y-190600000D02*
G75*
G02*
X252700000Y-189800000I800000J0D01*
G01*
X107300000Y-177125000D02*
G75*
G02*
X106500000Y-177925000I-800000J0D01*
G01*
X232900000Y-193750000D02*
G75*
G02*
X232100000Y-194550000I-800000J0D01*
G01*
X234200000Y-192175000D02*
X251100000Y-192175000D01*
X224551000Y-146699195D02*
X218551000Y-146699195D01*
X187250746Y-113534255D02*
G75*
G02*
X187749946Y-114034254I-746J-499945D01*
G01*
X85900000Y-121700000D02*
X68500000Y-121700000D01*
X68500000Y-180300000D02*
G75*
G02*
X67700000Y-179500000I0J800000D01*
G01*
X308900000Y-118525000D02*
X308900000Y-113000000D01*
X270100000Y-107450000D02*
X289100000Y-107450000D01*
X290700000Y-112200000D02*
X308100000Y-112200000D01*
X202300000Y-153624000D02*
X202300000Y-165800000D01*
X346100000Y-121700000D02*
G75*
G02*
X346900000Y-122500000I0J-800000D01*
G01*
X271700000Y-170800000D02*
X306500000Y-170800000D01*
X196500000Y-146199195D02*
G75*
G02*
X196000000Y-146699200I-500000J-5D01*
G01*
X145300000Y-111400000D02*
X145300000Y-108250000D01*
X346900000Y-122500000D02*
X346900000Y-179500000D01*
X212300000Y-191750000D02*
X202300000Y-191750000D01*
X306500000Y-170800000D02*
G75*
G02*
X307300000Y-171600000I0J-800000D01*
G01*
X212300000Y-186950000D02*
X202300000Y-186950000D01*
X196000000Y-143699195D02*
G75*
G02*
X196500005Y-144199195I0J-500005D01*
G01*
X325500000Y-177925000D02*
G75*
G02*
X326300000Y-178725000I0J-800000D01*
G01*
X269300000Y-111400000D02*
X269300000Y-108250000D01*
X225051000Y-146199195D02*
G75*
G02*
X224551000Y-146699200I-500000J-5D01*
G01*
X161900000Y-189800000D02*
X144500000Y-189800000D01*
X290700000Y-112200000D02*
G75*
G02*
X289900000Y-111400000I0J800000D01*
G01*
X182500000Y-194550000D02*
G75*
G02*
X181700000Y-193750000I0J800000D01*
G01*
X212300000Y-186950000D02*
X212300000Y-176500000D01*
X218551000Y-146699195D02*
G75*
G02*
X218051005Y-146199195I0J499995D01*
G01*
X250300000Y-113000000D02*
G75*
G02*
X251100000Y-112200000I800000J0D01*
G01*
X196000000Y-146699195D02*
X190000000Y-146699195D01*
X270900000Y-171600000D02*
G75*
G02*
X271700000Y-170800000I800000J0D01*
G01*
X328700000Y-121700000D02*
X346100000Y-121700000D01*
X289100000Y-107450000D02*
G75*
G02*
X289900000Y-108250000I0J-800000D01*
G01*
X216800958Y-125465000D02*
G75*
G02*
X216301000Y-124965042I42J500000D01*
G01*
X196500000Y-146199195D02*
X196500000Y-144199195D01*
X163500000Y-112200000D02*
X146100000Y-112200000D01*
X212300000Y-176500000D02*
G75*
G02*
X207300000Y-181500000I-5000000J0D01*
G01*
X144500000Y-107450000D02*
G75*
G02*
X145300000Y-108250000I0J-800000D01*
G01*
M02*
