M48
; DRILL file {KiCad 9.0.2} date 2025-05-22T20:02:38+0300
; FORMAT={-:-/ absolute / metric / decimal}
; #@! TF.CreationDate,2025-05-22T20:02:38+03:00
; #@! TF.GenerationSoftware,Kicad,Pcbnew,9.0.2
; #@! TF.FileFunction,Plated,1,2,PTH
FMAT,2
METRIC
; #@! TA.AperFunction,Plated,PTH,ViaDrill
T1C0.300
; #@! TA.AperFunction,Plated,PTH,ComponentDrill
T2C1.000
; #@! TA.AperFunction,Plated,PTH,ComponentDrill
T3C1.600
; #@! TA.AperFunction,Plated,PTH,ComponentDrill
T4C2.200
; #@! TA.AperFunction,Plated,PTH,ComponentDrill
T5C4.500
%
G90
G05
T1
X74.5Y-141.0
X76.75Y-138.5
X76.75Y-157.5
X76.75Y-176.5
X93.5Y-138.65
X95.75Y-136.125
X95.75Y-155.125
X95.75Y-174.125
X112.5Y-131.5
X114.75Y-129.0
X114.75Y-148.0
X114.75Y-167.0
X131.3Y-164.75
X131.5Y-145.75
X133.75Y-124.25
X133.75Y-143.25
X133.75Y-162.25
X150.5Y-150.5
X152.75Y-129.0
X152.75Y-148.0
X152.75Y-167.0
X152.75Y-186.0
X169.5Y-128.3
X171.75Y-131.375
X171.75Y-150.375
X171.75Y-169.375
X171.75Y-188.375
X190.75Y-190.751
X221.35Y-190.751
X240.35Y-131.375
X240.35Y-150.375
X240.35Y-169.375
X240.35Y-188.375
X257.1Y-150.5
X259.35Y-129.0
X259.35Y-148.0
X259.35Y-167.0
X259.35Y-186.0
X276.1Y-145.75
X278.35Y-124.25
X278.35Y-143.25
X278.35Y-162.25
X281.8Y-164.75
X295.1Y-131.5
X297.35Y-129.0
X297.35Y-148.0
X297.35Y-167.0
X314.1Y-138.6
X316.35Y-136.125
X316.35Y-155.125
X316.35Y-174.125
X333.1Y-141.0
X335.35Y-138.5
X335.35Y-157.5
X335.35Y-176.5
T2
X189.46Y-173.75
X194.54Y-173.75
X220.06Y-173.75
X225.14Y-173.75
T3
X185.38Y-117.335
X185.38Y-119.875
X185.38Y-122.415
X185.38Y-124.955
X185.38Y-127.495
X185.38Y-130.035
X185.38Y-132.575
X185.38Y-135.115
X185.38Y-137.655
X185.38Y-140.195
X185.38Y-142.735
X185.38Y-145.275
X200.62Y-117.335
X200.62Y-119.875
X200.62Y-122.415
X200.62Y-124.955
X200.62Y-127.495
X200.62Y-130.035
X200.62Y-132.575
X200.62Y-135.115
X200.62Y-137.655
X200.62Y-140.195
X200.62Y-142.735
X200.62Y-145.275
X213.931Y-117.335
X213.931Y-119.875
X213.931Y-122.415
X213.931Y-124.955
X213.931Y-127.495
X213.931Y-130.035
X213.931Y-132.575
X213.931Y-135.115
X213.931Y-137.655
X213.931Y-140.195
X213.931Y-142.735
X213.931Y-145.275
X229.171Y-117.335
X229.171Y-119.875
X229.171Y-122.415
X229.171Y-124.955
X229.171Y-127.495
X229.171Y-130.035
X229.171Y-132.575
X229.171Y-135.115
X229.171Y-137.655
X229.171Y-140.195
X229.171Y-142.735
X229.171Y-145.275
T4
X87.548Y-170.0
X87.55Y-131.5
X125.55Y-122.3
X125.55Y-161.2
X163.55Y-124.8
X163.55Y-164.5
X251.05Y-124.8
X251.05Y-164.5
X289.05Y-122.3
X289.05Y-161.2
X327.05Y-131.5
X327.05Y-170.0
T5
X207.3Y-165.7
M30
