%TF.GenerationSoftware,KiCad,Pcbnew,9.0.2*%
%TF.CreationDate,2025-05-22T20:03:01+03:00*%
%TF.ProjectId,KOMETA,4b4f4d45-5441-42e6-9b69-6361645f7063,rev?*%
%TF.SameCoordinates,Original*%
%TF.FileFunction,Soldermask,Top*%
%TF.FilePolarity,Negative*%
%FSLAX46Y46*%
G04 Gerber Fmt 4.6, Leading zero omitted, Abs format (unit mm)*
G04 Created by KiCad (PCBNEW 9.0.2) date 2025-05-22 20:03:01*
%MOMM*%
%LPD*%
G01*
G04 APERTURE LIST*
G04 Aperture macros list*
%AMRoundRect*
0 Rectangle with rounded corners*
0 $1 Rounding radius*
0 $2 $3 $4 $5 $6 $7 $8 $9 X,Y pos of 4 corners*
0 Add a 4 corners polygon primitive as box body*
4,1,4,$2,$3,$4,$5,$6,$7,$8,$9,$2,$3,0*
0 Add four circle primitives for the rounded corners*
1,1,$1+$1,$2,$3*
1,1,$1+$1,$4,$5*
1,1,$1+$1,$6,$7*
1,1,$1+$1,$8,$9*
0 Add four rect primitives between the rounded corners*
20,1,$1+$1,$2,$3,$4,$5,0*
20,1,$1+$1,$4,$5,$6,$7,0*
20,1,$1+$1,$6,$7,$8,$9,0*
20,1,$1+$1,$8,$9,$2,$3,0*%
%AMOutline5P*
0 Free polygon, 5 corners , with rotation*
0 The origin of the aperture is its center*
0 number of corners: always 5*
0 $1 to $10 corner X, Y*
0 $11 Rotation angle, in degrees counterclockwise*
0 create outline with 5 corners*
4,1,5,$1,$2,$3,$4,$5,$6,$7,$8,$9,$10,$1,$2,$11*%
%AMOutline6P*
0 Free polygon, 6 corners , with rotation*
0 The origin of the aperture is its center*
0 number of corners: always 6*
0 $1 to $12 corner X, Y*
0 $13 Rotation angle, in degrees counterclockwise*
0 create outline with 6 corners*
4,1,6,$1,$2,$3,$4,$5,$6,$7,$8,$9,$10,$11,$12,$1,$2,$13*%
%AMOutline7P*
0 Free polygon, 7 corners , with rotation*
0 The origin of the aperture is its center*
0 number of corners: always 7*
0 $1 to $14 corner X, Y*
0 $15 Rotation angle, in degrees counterclockwise*
0 create outline with 7 corners*
4,1,7,$1,$2,$3,$4,$5,$6,$7,$8,$9,$10,$11,$12,$13,$14,$1,$2,$15*%
%AMOutline8P*
0 Free polygon, 8 corners , with rotation*
0 The origin of the aperture is its center*
0 number of corners: always 8*
0 $1 to $16 corner X, Y*
0 $17 Rotation angle, in degrees counterclockwise*
0 create outline with 8 corners*
4,1,8,$1,$2,$3,$4,$5,$6,$7,$8,$9,$10,$11,$12,$13,$14,$15,$16,$1,$2,$17*%
G04 Aperture macros list end*
%ADD10C,2.500000*%
%ADD11C,1.600000*%
%ADD12C,3.050000*%
%ADD13C,5.050000*%
%ADD14C,0.500000*%
%ADD15C,0.700000*%
%ADD16C,1.800000*%
%ADD17RoundRect,0.200000X-0.700000X0.700000X-0.700000X-0.700000X0.700000X-0.700000X0.700000X0.700000X0*%
%ADD18Outline8P,-0.950000X0.380000X-0.380000X0.950000X0.380000X0.950000X0.950000X0.380000X0.950000X-0.380000X0.380000X-0.950000X-0.380000X-0.950000X-0.950000X-0.380000X0.000000*%
%ADD19RoundRect,0.250000X-0.700000X-0.700000X0.700000X-0.700000X0.700000X0.700000X-0.700000X0.700000X0*%
%ADD20C,5.000000*%
%ADD21RoundRect,0.200000X0.700000X-0.700000X0.700000X0.700000X-0.700000X0.700000X-0.700000X-0.700000X0*%
G04 APERTURE END LIST*
D10*
%TO.C,H4*%
X87548000Y-170000000D03*
%TD*%
D11*
%TO.C,SW8*%
X92000000Y-153775000D03*
D12*
X97000000Y-142725000D03*
D13*
X97000000Y-148625000D03*
D12*
X102000000Y-144825000D03*
%TD*%
D11*
%TO.C,SW15*%
X111000000Y-165650000D03*
D12*
X116000000Y-154600000D03*
D13*
X116000000Y-160500000D03*
D12*
X121000000Y-156700000D03*
%TD*%
D11*
%TO.C,SW4*%
X130000000Y-122900000D03*
D12*
X135000000Y-111850000D03*
D13*
X135000000Y-117750000D03*
D12*
X140000000Y-113950000D03*
%TD*%
D10*
%TO.C,H3*%
X289050000Y-122300000D03*
%TD*%
D11*
%TO.C,SW37*%
X293600000Y-165650000D03*
D12*
X298600000Y-154600000D03*
D13*
X298600000Y-160500000D03*
D12*
X303600000Y-156700000D03*
%TD*%
D11*
%TO.C,SW42*%
X255600000Y-184650000D03*
D12*
X260600000Y-173600000D03*
D13*
X260600000Y-179500000D03*
D12*
X265600000Y-175700000D03*
%TD*%
D11*
%TO.C,SW39*%
X331600000Y-175150000D03*
D12*
X336600000Y-164100000D03*
D13*
X336600000Y-170000000D03*
D12*
X341600000Y-166200000D03*
%TD*%
D11*
%TO.C,SW31*%
X293600000Y-146650000D03*
D12*
X298600000Y-135600000D03*
D13*
X298600000Y-141500000D03*
D12*
X303600000Y-137700000D03*
%TD*%
D11*
%TO.C,SW26*%
X312600000Y-134775000D03*
D12*
X317600000Y-123725000D03*
D13*
X317600000Y-129625000D03*
D12*
X322600000Y-125825000D03*
%TD*%
D14*
%TO.C,BH*%
X202300000Y-172500000D03*
X202300000Y-173300000D03*
X202300000Y-174100000D03*
X202300000Y-174900000D03*
X202300000Y-175700000D03*
X202300000Y-176500000D03*
X202300000Y-177300000D03*
%TD*%
D10*
%TO.C,H12*%
X251050000Y-164500000D03*
%TD*%
D11*
%TO.C,SW27*%
X331600000Y-137150000D03*
D12*
X336600000Y-126100000D03*
D13*
X336600000Y-132000000D03*
D12*
X341600000Y-128200000D03*
%TD*%
D11*
%TO.C,SW2*%
X92000000Y-134775000D03*
D12*
X97000000Y-123725000D03*
D13*
X97000000Y-129625000D03*
D12*
X102000000Y-125825000D03*
%TD*%
D11*
%TO.C,SW23*%
X255600000Y-127650000D03*
D12*
X260600000Y-116600000D03*
D13*
X260600000Y-122500000D03*
D12*
X265600000Y-118700000D03*
%TD*%
D11*
%TO.C,SW38*%
X312600000Y-172775000D03*
D12*
X317600000Y-161725000D03*
D13*
X317600000Y-167625000D03*
D12*
X322600000Y-163825000D03*
%TD*%
D11*
%TO.C,SW40*%
X217600000Y-189400000D03*
D12*
X222600000Y-178350000D03*
D13*
X222600000Y-184250000D03*
D12*
X227600000Y-180450000D03*
%TD*%
D11*
%TO.C,SW28*%
X236600000Y-149025000D03*
D12*
X241600000Y-137975000D03*
D13*
X241600000Y-143875000D03*
D12*
X246600000Y-140075000D03*
%TD*%
D14*
%TO.C,BH*%
X212300000Y-148824000D03*
X212300000Y-149624000D03*
X212300000Y-150424000D03*
X212300000Y-151224000D03*
X212300000Y-152024000D03*
X212300000Y-152824000D03*
X212300000Y-153624000D03*
%TD*%
%TO.C,BH*%
X202300000Y-165000000D03*
X202300000Y-165800000D03*
X202300000Y-166600000D03*
X202300000Y-167400000D03*
X202300000Y-168200000D03*
X202300000Y-169000000D03*
X202300000Y-169800000D03*
%TD*%
D11*
%TO.C,SW22*%
X236600000Y-130025000D03*
D12*
X241600000Y-118975000D03*
D13*
X241600000Y-124875000D03*
D12*
X246600000Y-121075000D03*
%TD*%
D11*
%TO.C,SW24*%
X274600000Y-122900000D03*
D12*
X279600000Y-111850000D03*
D13*
X279600000Y-117750000D03*
D12*
X284600000Y-113950000D03*
%TD*%
D14*
%TO.C,BH*%
X202300000Y-148824000D03*
X202300000Y-149624000D03*
X202300000Y-150424000D03*
X202300000Y-151224000D03*
X202300000Y-152024000D03*
X202300000Y-152824000D03*
X202300000Y-153624000D03*
%TD*%
%TO.C,*%
X212300000Y-170700000D03*
%TD*%
D11*
%TO.C,SW12*%
X168000000Y-149025000D03*
D12*
X173000000Y-137975000D03*
D13*
X173000000Y-143875000D03*
D12*
X178000000Y-140075000D03*
%TD*%
D11*
%TO.C,SW13*%
X73000000Y-175150000D03*
D12*
X78000000Y-164100000D03*
D13*
X78000000Y-170000000D03*
D12*
X83000000Y-166200000D03*
%TD*%
D11*
%TO.C,SW29*%
X255600000Y-146650000D03*
D12*
X260600000Y-135600000D03*
D13*
X260600000Y-141500000D03*
D12*
X265600000Y-137700000D03*
%TD*%
D10*
%TO.C,H11*%
X327050000Y-170000000D03*
%TD*%
D11*
%TO.C,SW6*%
X168000000Y-130025000D03*
D12*
X173000000Y-118975000D03*
D13*
X173000000Y-124875000D03*
D12*
X178000000Y-121075000D03*
%TD*%
D11*
%TO.C,SW41*%
X236600000Y-187025000D03*
D12*
X241600000Y-175975000D03*
D13*
X241600000Y-181875000D03*
D12*
X246600000Y-178075000D03*
%TD*%
D11*
%TO.C,SW1*%
X73000000Y-137150000D03*
D12*
X78000000Y-126100000D03*
D13*
X78000000Y-132000000D03*
D12*
X83000000Y-128200000D03*
%TD*%
D10*
%TO.C,H8*%
X327050000Y-131500000D03*
%TD*%
%TO.C,H2*%
X125550000Y-161200000D03*
%TD*%
D11*
%TO.C,SW14*%
X92000000Y-172775000D03*
D12*
X97000000Y-161725000D03*
D13*
X97000000Y-167625000D03*
D12*
X102000000Y-163825000D03*
%TD*%
D11*
%TO.C,SW18*%
X168000000Y-168025000D03*
D12*
X173000000Y-156975000D03*
D13*
X173000000Y-162875000D03*
D12*
X178000000Y-159075000D03*
%TD*%
D11*
%TO.C,SW32*%
X312600000Y-153775000D03*
D12*
X317600000Y-142725000D03*
D13*
X317600000Y-148625000D03*
D12*
X322600000Y-144825000D03*
%TD*%
D14*
%TO.C,BH*%
X212300000Y-165000000D03*
X212300000Y-165800000D03*
X212300000Y-166600000D03*
X212300000Y-167400000D03*
X212300000Y-168200000D03*
X212300000Y-169000000D03*
X212300000Y-169800000D03*
%TD*%
D10*
%TO.C,H7*%
X163550000Y-124800000D03*
%TD*%
D11*
%TO.C,SW25*%
X293600000Y-127650000D03*
D12*
X298600000Y-116600000D03*
D13*
X298600000Y-122500000D03*
D12*
X303600000Y-118700000D03*
%TD*%
D15*
%TO.C,PS_R1*%
X286800000Y-169350000D03*
X283800000Y-169350000D03*
%TD*%
D11*
%TO.C,SW10*%
X130000000Y-141900000D03*
D12*
X135000000Y-130850000D03*
D13*
X135000000Y-136750000D03*
D12*
X140000000Y-132950000D03*
%TD*%
D14*
%TO.C,BH*%
X202300000Y-186950000D03*
X202300000Y-187750000D03*
X202300000Y-188550000D03*
X202300000Y-189350000D03*
X202300000Y-190150000D03*
X202300000Y-190950000D03*
X202300000Y-191750000D03*
%TD*%
D16*
%TO.C,PW_R1*%
X225140000Y-173750000D03*
D17*
X220060000Y-173750000D03*
%TD*%
D14*
%TO.C,*%
X202300000Y-170750000D03*
%TD*%
D15*
%TO.C,PS_L1*%
X130800000Y-169350000D03*
X127800000Y-169350000D03*
%TD*%
D18*
%TO.C,SM_L1*%
X185380000Y-117335000D03*
X185380000Y-119875000D03*
D19*
X185380000Y-122415000D03*
X185380000Y-124955000D03*
D18*
X185380000Y-127495000D03*
X185380000Y-130035000D03*
X185380000Y-132575000D03*
X185380000Y-135115000D03*
X185380000Y-137655000D03*
X185380000Y-140195000D03*
X185380000Y-142735000D03*
X185380000Y-145275000D03*
X200620000Y-145275000D03*
X200620000Y-142735000D03*
X200620000Y-140195000D03*
X200620000Y-137655000D03*
X200620000Y-135115000D03*
X200620000Y-132575000D03*
X200620000Y-130035000D03*
X200620000Y-127495000D03*
X200620000Y-124955000D03*
X200620000Y-122415000D03*
D19*
X200620000Y-119875000D03*
D18*
X200620000Y-117335000D03*
%TD*%
D11*
%TO.C,SW36*%
X274600000Y-160900000D03*
D12*
X279600000Y-149850000D03*
D13*
X279600000Y-155750000D03*
D12*
X284600000Y-151950000D03*
%TD*%
D11*
%TO.C,SW7*%
X73000000Y-156150000D03*
D12*
X78000000Y-145100000D03*
D13*
X78000000Y-151000000D03*
D12*
X83000000Y-147200000D03*
%TD*%
D10*
%TO.C,H5*%
X163550000Y-164500000D03*
%TD*%
D14*
%TO.C,BH*%
X212300000Y-186950000D03*
X212300000Y-187750000D03*
X212300000Y-188550000D03*
X212300000Y-189350000D03*
X212300000Y-190150000D03*
X212300000Y-190950000D03*
X212300000Y-191750000D03*
%TD*%
D11*
%TO.C,SW5*%
X149000000Y-127650000D03*
D12*
X154000000Y-116600000D03*
D13*
X154000000Y-122500000D03*
D12*
X159000000Y-118700000D03*
%TD*%
D14*
%TO.C,*%
X212300000Y-171500000D03*
%TD*%
D20*
%TO.C,KeyChainHole1*%
X207299999Y-165700000D03*
%TD*%
D11*
%TO.C,SW30*%
X274600000Y-141900000D03*
D12*
X279600000Y-130850000D03*
D13*
X279600000Y-136750000D03*
D12*
X284600000Y-132950000D03*
%TD*%
D10*
%TO.C,H10*%
X125550000Y-122300000D03*
%TD*%
D11*
%TO.C,SW20*%
X168000000Y-187025000D03*
D12*
X173000000Y-175975000D03*
D13*
X173000000Y-181875000D03*
D12*
X178000000Y-178075000D03*
%TD*%
D10*
%TO.C,H9*%
X251050000Y-124800000D03*
%TD*%
D11*
%TO.C,SW17*%
X149000000Y-165650000D03*
D12*
X154000000Y-154600000D03*
D13*
X154000000Y-160500000D03*
D12*
X159000000Y-156700000D03*
%TD*%
D11*
%TO.C,SW19*%
X149000000Y-184650000D03*
D12*
X154000000Y-173600000D03*
D13*
X154000000Y-179500000D03*
D12*
X159000000Y-175700000D03*
%TD*%
D11*
%TO.C,SW35*%
X255600000Y-165650000D03*
D12*
X260600000Y-154600000D03*
D13*
X260600000Y-160500000D03*
D12*
X265600000Y-156700000D03*
%TD*%
D11*
%TO.C,SW33*%
X331600000Y-156150000D03*
D12*
X336600000Y-145100000D03*
D13*
X336600000Y-151000000D03*
D12*
X341600000Y-147200000D03*
%TD*%
D14*
%TO.C,BH*%
X212300000Y-172500000D03*
X212300000Y-173300000D03*
X212300000Y-174100000D03*
X212300000Y-174900000D03*
X212300000Y-175700000D03*
X212300000Y-176500000D03*
X212300000Y-177300000D03*
%TD*%
D11*
%TO.C,SW11*%
X148920000Y-146650000D03*
D12*
X153920000Y-135600000D03*
D13*
X153920000Y-141500000D03*
D12*
X158920000Y-137700000D03*
%TD*%
D11*
%TO.C,SW3*%
X111000000Y-127650000D03*
D12*
X116000000Y-116600000D03*
D13*
X116000000Y-122500000D03*
D12*
X121000000Y-118700000D03*
%TD*%
D10*
%TO.C,H1*%
X87550000Y-131500000D03*
%TD*%
D11*
%TO.C,SW9*%
X111000000Y-146650000D03*
D12*
X116000000Y-135600000D03*
D13*
X116000000Y-141500000D03*
D12*
X121000000Y-137700000D03*
%TD*%
D11*
%TO.C,SW16*%
X130000000Y-160900000D03*
D12*
X135000000Y-149850000D03*
D13*
X135000000Y-155750000D03*
D12*
X140000000Y-151950000D03*
%TD*%
D10*
%TO.C,H6*%
X289050000Y-161200000D03*
%TD*%
D18*
%TO.C,SM_R1*%
X213931000Y-117335000D03*
X213931000Y-119875000D03*
D19*
X213931000Y-122415000D03*
X213931000Y-124955000D03*
D18*
X213931000Y-127495000D03*
X213931000Y-130035000D03*
X213931000Y-132575000D03*
X213931000Y-135115000D03*
X213931000Y-137655000D03*
X213931000Y-140195000D03*
X213931000Y-142735000D03*
X213931000Y-145275000D03*
X229171000Y-145275000D03*
X229171000Y-142735000D03*
X229171000Y-140195000D03*
X229171000Y-137655000D03*
X229171000Y-135115000D03*
X229171000Y-132575000D03*
X229171000Y-130035000D03*
X229171000Y-127495000D03*
X229171000Y-124955000D03*
X229171000Y-122415000D03*
D19*
X229171000Y-119875000D03*
D18*
X229171000Y-117335000D03*
%TD*%
D11*
%TO.C,SW34*%
X236600000Y-168025000D03*
D12*
X241600000Y-156975000D03*
D13*
X241600000Y-162875000D03*
D12*
X246600000Y-159075000D03*
%TD*%
D16*
%TO.C,PW_L1*%
X189460000Y-173750000D03*
D21*
X194540000Y-173750000D03*
%TD*%
D11*
%TO.C,SW21*%
X187000000Y-189400000D03*
D12*
X192000000Y-178350000D03*
D13*
X192000000Y-184250000D03*
D12*
X197000000Y-180450000D03*
%TD*%
D14*
%TO.C,*%
X202300000Y-171550000D03*
%TD*%
M02*
