%TF.GenerationSoftware,KiCad,Pcbnew,9.0.2*%
%TF.CreationDate,2025-06-05T15:14:06+03:00*%
%TF.ProjectId,KOMETA,4b4f4d45-5441-42e6-9b69-6361645f7063,rev?*%
%TF.SameCoordinates,Original*%
%TF.FileFunction,Soldermask,Bot*%
%TF.FilePolarity,Negative*%
%FSLAX46Y46*%
G04 Gerber Fmt 4.6, Leading zero omitted, Abs format (unit mm)*
G04 Created by KiCad (PCBNEW 9.0.2) date 2025-06-05 15:14:06*
%MOMM*%
%LPD*%
G01*
G04 APERTURE LIST*
G04 Aperture macros list*
%AMRoundRect*
0 Rectangle with rounded corners*
0 $1 Rounding radius*
0 $2 $3 $4 $5 $6 $7 $8 $9 X,Y pos of 4 corners*
0 Add a 4 corners polygon primitive as box body*
4,1,4,$2,$3,$4,$5,$6,$7,$8,$9,$2,$3,0*
0 Add four circle primitives for the rounded corners*
1,1,$1+$1,$2,$3*
1,1,$1+$1,$4,$5*
1,1,$1+$1,$6,$7*
1,1,$1+$1,$8,$9*
0 Add four rect primitives between the rounded corners*
20,1,$1+$1,$2,$3,$4,$5,0*
20,1,$1+$1,$4,$5,$6,$7,0*
20,1,$1+$1,$6,$7,$8,$9,0*
20,1,$1+$1,$8,$9,$2,$3,0*%
G04 Aperture macros list end*
%ADD10RoundRect,0.200000X-1.000000X-1.050000X1.000000X-1.050000X1.000000X1.050000X-1.000000X1.050000X0*%
%ADD11C,3.050000*%
%ADD12C,5.050000*%
%ADD13C,1.600000*%
%ADD14O,1.900000X1.900000*%
%ADD15RoundRect,0.250000X-0.700000X-0.700000X0.700000X-0.700000X0.700000X0.700000X-0.700000X0.700000X0*%
%ADD16C,0.500000*%
%ADD17RoundRect,0.200000X0.700000X-0.700000X0.700000X0.700000X-0.700000X0.700000X-0.700000X-0.700000X0*%
%ADD18C,1.800000*%
%ADD19RoundRect,0.200000X0.300000X0.300000X-0.300000X0.300000X-0.300000X-0.300000X0.300000X-0.300000X0*%
%ADD20O,1.000000X1.000000*%
%ADD21C,2.500000*%
%ADD22RoundRect,0.200000X0.400000X0.700000X-0.400000X0.700000X-0.400000X-0.700000X0.400000X-0.700000X0*%
%ADD23RoundRect,0.199800X0.300200X0.100200X-0.300200X0.100200X-0.300200X-0.100200X0.300200X-0.100200X0*%
%ADD24C,0.700000*%
%ADD25RoundRect,0.199800X0.100200X-0.300200X0.100200X0.300200X-0.100200X0.300200X-0.100200X-0.300200X0*%
%ADD26RoundRect,0.200000X-0.700000X0.700000X-0.700000X-0.700000X0.700000X-0.700000X0.700000X0.700000X0*%
%ADD27C,5.000000*%
%ADD28RoundRect,0.200000X-0.400000X-0.700000X0.400000X-0.700000X0.400000X0.700000X-0.400000X0.700000X0*%
G04 APERTURE END LIST*
D10*
%TO.C,SW40*%
X219100000Y-178250000D03*
X231100000Y-180450000D03*
D11*
X227600000Y-180450000D03*
D12*
X222600000Y-184250000D03*
D11*
X222600000Y-178350000D03*
D13*
X217600000Y-189400000D03*
%TD*%
%TO.C,SW28*%
X236600000Y-149025000D03*
D11*
X241600000Y-137975000D03*
D12*
X241600000Y-143875000D03*
D11*
X246600000Y-140075000D03*
D10*
X250100000Y-140075000D03*
X238100000Y-137875000D03*
%TD*%
D14*
%TO.C,SM_R1*%
X213931000Y-117335000D03*
X213931000Y-119875000D03*
D15*
X213931000Y-122415000D03*
X213931000Y-124955000D03*
D14*
X213931000Y-127495000D03*
X213931000Y-130035000D03*
X213931000Y-132575000D03*
X213931000Y-135115000D03*
X213931000Y-137655000D03*
X213931000Y-140195000D03*
X213931000Y-142735000D03*
X213931000Y-145275000D03*
X229171000Y-145275000D03*
X229171000Y-142735000D03*
X229171000Y-140195000D03*
X229171000Y-137655000D03*
X229171000Y-135115000D03*
X229171000Y-132575000D03*
X229171000Y-130035000D03*
X229171000Y-127495000D03*
X229171000Y-124955000D03*
X229171000Y-122415000D03*
D15*
X229171000Y-119875000D03*
D14*
X229171000Y-117335000D03*
%TD*%
D13*
%TO.C,SW6*%
X168000000Y-130025000D03*
D11*
X173000000Y-118975000D03*
D12*
X173000000Y-124875000D03*
D11*
X178000000Y-121075000D03*
D10*
X181500000Y-121075000D03*
X169500000Y-118875000D03*
%TD*%
D14*
%TO.C,SM_L1*%
X185380000Y-117335000D03*
X185380000Y-119875000D03*
D15*
X185380000Y-122415000D03*
X185380000Y-124955000D03*
D14*
X185380000Y-127495000D03*
X185380000Y-130035000D03*
X185380000Y-132575000D03*
X185380000Y-135115000D03*
X185380000Y-137655000D03*
X185380000Y-140195000D03*
X185380000Y-142735000D03*
X185380000Y-145275000D03*
X200620000Y-145275000D03*
X200620000Y-142735000D03*
X200620000Y-140195000D03*
X200620000Y-137655000D03*
X200620000Y-135115000D03*
X200620000Y-132575000D03*
X200620000Y-130035000D03*
X200620000Y-127495000D03*
X200620000Y-124955000D03*
X200620000Y-122415000D03*
D15*
X200620000Y-119875000D03*
D14*
X200620000Y-117335000D03*
%TD*%
D10*
%TO.C,SW12*%
X169500000Y-137875000D03*
X181500000Y-140075000D03*
D11*
X178000000Y-140075000D03*
D12*
X173000000Y-143875000D03*
D11*
X173000000Y-137975000D03*
D13*
X168000000Y-149025000D03*
%TD*%
D10*
%TO.C,SW21*%
X188500000Y-178250000D03*
X200500000Y-180450000D03*
D11*
X197000000Y-180450000D03*
D12*
X192000000Y-184250000D03*
D11*
X192000000Y-178350000D03*
D13*
X187000000Y-189400000D03*
%TD*%
D10*
%TO.C,SW7*%
X74500000Y-145000000D03*
X86500000Y-147200000D03*
D11*
X83000000Y-147200000D03*
D12*
X78000000Y-151000000D03*
D11*
X78000000Y-145100000D03*
D13*
X73000000Y-156150000D03*
%TD*%
D16*
%TO.C,BH*%
X202300000Y-148824000D03*
X202300000Y-149624000D03*
X202300000Y-150424000D03*
X202300000Y-151224000D03*
X202300000Y-152024000D03*
X202300000Y-152824000D03*
X202300000Y-153624000D03*
%TD*%
%TO.C,BH*%
X212300000Y-148824000D03*
X212300000Y-149624000D03*
X212300000Y-150424000D03*
X212300000Y-151224000D03*
X212300000Y-152024000D03*
X212300000Y-152824000D03*
X212300000Y-153624000D03*
%TD*%
%TO.C,BH*%
X202300000Y-169800000D03*
X202300000Y-169000000D03*
X202300000Y-168200000D03*
X202300000Y-167400000D03*
X202300000Y-166600000D03*
X202300000Y-165800000D03*
X202300000Y-165000000D03*
%TD*%
%TO.C,BH*%
X202300000Y-177300000D03*
X202300000Y-176500000D03*
X202300000Y-175700000D03*
X202300000Y-174900000D03*
X202300000Y-174100000D03*
X202300000Y-173300000D03*
X202300000Y-172500000D03*
%TD*%
%TO.C,BH*%
X202300000Y-191750000D03*
X202300000Y-190950000D03*
X202300000Y-190150000D03*
X202300000Y-189350000D03*
X202300000Y-188550000D03*
X202300000Y-187750000D03*
X202300000Y-186950000D03*
%TD*%
D10*
%TO.C,SW22*%
X238100000Y-118875000D03*
X250100000Y-121075000D03*
D11*
X246600000Y-121075000D03*
D12*
X241600000Y-124875000D03*
D11*
X241600000Y-118975000D03*
D13*
X236600000Y-130025000D03*
%TD*%
%TO.C,SW1*%
X73000000Y-137150000D03*
D11*
X78000000Y-126100000D03*
D12*
X78000000Y-132000000D03*
D11*
X83000000Y-128200000D03*
D10*
X86500000Y-128200000D03*
X74500000Y-126000000D03*
%TD*%
D13*
%TO.C,SW2*%
X92000000Y-134775000D03*
D11*
X97000000Y-123725000D03*
D12*
X97000000Y-129625000D03*
D11*
X102000000Y-125825000D03*
D10*
X105500000Y-125825000D03*
X93500000Y-123625000D03*
%TD*%
%TO.C,SW3*%
X112500000Y-116500000D03*
X124500000Y-118700000D03*
D11*
X121000000Y-118700000D03*
D12*
X116000000Y-122500000D03*
D11*
X116000000Y-116600000D03*
D13*
X111000000Y-127650000D03*
%TD*%
%TO.C,SW4*%
X130000000Y-122900000D03*
D11*
X135000000Y-111850000D03*
D12*
X135000000Y-117750000D03*
D11*
X140000000Y-113950000D03*
D10*
X143500000Y-113950000D03*
X131500000Y-111750000D03*
%TD*%
D13*
%TO.C,SW5*%
X149000000Y-127650000D03*
D11*
X154000000Y-116600000D03*
D12*
X154000000Y-122500000D03*
D11*
X159000000Y-118700000D03*
D10*
X162500000Y-118700000D03*
X150500000Y-116500000D03*
%TD*%
D17*
%TO.C,PW_L1*%
X194540000Y-173750000D03*
D18*
X189460000Y-173750000D03*
%TD*%
D19*
%TO.C,D3*%
X114750000Y-127500000D03*
D20*
X117250000Y-127500000D03*
%TD*%
D19*
%TO.C,D41*%
X240350000Y-186875000D03*
D20*
X242850000Y-186875000D03*
%TD*%
D19*
%TO.C,D24*%
X278350000Y-122750000D03*
D20*
X280850000Y-122750000D03*
%TD*%
D21*
%TO.C,H4*%
X87548000Y-170000000D03*
%TD*%
D19*
%TO.C,D19*%
X152750000Y-184500000D03*
D20*
X155250000Y-184500000D03*
%TD*%
D19*
%TO.C,D15*%
X114750000Y-165500000D03*
D20*
X117250000Y-165500000D03*
%TD*%
D19*
%TO.C,D39*%
X335350000Y-175000000D03*
D20*
X337850000Y-175000000D03*
%TD*%
D13*
%TO.C,SW8*%
X92000000Y-153775000D03*
D11*
X97000000Y-142725000D03*
D12*
X97000000Y-148625000D03*
D11*
X102000000Y-144825000D03*
D10*
X105500000Y-144825000D03*
X93500000Y-142625000D03*
%TD*%
D19*
%TO.C,D11*%
X152750000Y-146500000D03*
D20*
X155250000Y-146500000D03*
%TD*%
D13*
%TO.C,SW15*%
X111000000Y-165650000D03*
D11*
X116000000Y-154600000D03*
D12*
X116000000Y-160500000D03*
D11*
X121000000Y-156700000D03*
D10*
X124500000Y-156700000D03*
X112500000Y-154500000D03*
%TD*%
D19*
%TO.C,D33*%
X335350000Y-156000000D03*
D20*
X337850000Y-156000000D03*
%TD*%
D21*
%TO.C,H3*%
X289050000Y-122300000D03*
%TD*%
D19*
%TO.C,D17*%
X152750000Y-165500000D03*
D20*
X155250000Y-165500000D03*
%TD*%
D13*
%TO.C,SW37*%
X293600000Y-165650000D03*
D11*
X298600000Y-154600000D03*
D12*
X298600000Y-160500000D03*
D11*
X303600000Y-156700000D03*
D10*
X307100000Y-156700000D03*
X295100000Y-154500000D03*
%TD*%
D19*
%TO.C,D14*%
X95750000Y-172625000D03*
D20*
X98250000Y-172625000D03*
%TD*%
D13*
%TO.C,SW42*%
X255600000Y-184650000D03*
D11*
X260600000Y-173600000D03*
D12*
X260600000Y-179500000D03*
D11*
X265600000Y-175700000D03*
D10*
X269100000Y-175700000D03*
X257100000Y-173500000D03*
%TD*%
D19*
%TO.C,D12*%
X171750000Y-148875000D03*
D20*
X174250000Y-148875000D03*
%TD*%
D13*
%TO.C,SW39*%
X331600000Y-175150000D03*
D11*
X336600000Y-164100000D03*
D12*
X336600000Y-170000000D03*
D11*
X341600000Y-166200000D03*
D10*
X345100000Y-166200000D03*
X333100000Y-164000000D03*
%TD*%
D13*
%TO.C,SW31*%
X293600000Y-146650000D03*
D11*
X298600000Y-135600000D03*
D12*
X298600000Y-141500000D03*
D11*
X303600000Y-137700000D03*
D10*
X307100000Y-137700000D03*
X295100000Y-135500000D03*
%TD*%
D13*
%TO.C,SW26*%
X312600000Y-134775000D03*
D11*
X317600000Y-123725000D03*
D12*
X317600000Y-129625000D03*
D11*
X322600000Y-125825000D03*
D10*
X326100000Y-125825000D03*
X314100000Y-123625000D03*
%TD*%
D19*
%TO.C,D30*%
X278350000Y-141750000D03*
D20*
X280850000Y-141750000D03*
%TD*%
D19*
%TO.C,D20*%
X171750000Y-186875000D03*
D20*
X174250000Y-186875000D03*
%TD*%
D21*
%TO.C,H12*%
X251050000Y-164500000D03*
%TD*%
D13*
%TO.C,SW27*%
X331600000Y-137150000D03*
D11*
X336600000Y-126100000D03*
D12*
X336600000Y-132000000D03*
D11*
X341600000Y-128200000D03*
D10*
X345100000Y-128200000D03*
X333100000Y-126000000D03*
%TD*%
D19*
%TO.C,D1*%
X76750000Y-137000000D03*
D20*
X79250000Y-137000000D03*
%TD*%
D19*
%TO.C,D9*%
X114750000Y-146500000D03*
D20*
X117250000Y-146500000D03*
%TD*%
D19*
%TO.C,D22*%
X240350000Y-129875000D03*
D20*
X242850000Y-129875000D03*
%TD*%
D13*
%TO.C,SW23*%
X255600000Y-127650000D03*
D11*
X260600000Y-116600000D03*
D12*
X260600000Y-122500000D03*
D11*
X265600000Y-118700000D03*
D10*
X269100000Y-118700000D03*
X257100000Y-116500000D03*
%TD*%
D19*
%TO.C,D42*%
X259350000Y-184500000D03*
D20*
X261850000Y-184500000D03*
%TD*%
D19*
%TO.C,D5*%
X152750000Y-127500000D03*
D20*
X155250000Y-127500000D03*
%TD*%
D13*
%TO.C,SW38*%
X312600000Y-172775000D03*
D11*
X317600000Y-161725000D03*
D12*
X317600000Y-167625000D03*
D11*
X322600000Y-163825000D03*
D10*
X326100000Y-163825000D03*
X314100000Y-161625000D03*
%TD*%
D19*
%TO.C,D40*%
X221350000Y-189000000D03*
D20*
X223850000Y-189000000D03*
%TD*%
D19*
%TO.C,D13*%
X76750000Y-175000000D03*
D20*
X79250000Y-175000000D03*
%TD*%
D19*
%TO.C,D16*%
X133750000Y-160750000D03*
D20*
X136250000Y-160750000D03*
%TD*%
D19*
%TO.C,D27*%
X335350000Y-137000000D03*
D20*
X337850000Y-137000000D03*
%TD*%
D22*
%TO.C,R_L1*%
X142100000Y-168600000D03*
X137300000Y-168600000D03*
%TD*%
D13*
%TO.C,SW24*%
X274600000Y-122900000D03*
D11*
X279600000Y-111850000D03*
D12*
X279600000Y-117750000D03*
D11*
X284600000Y-113950000D03*
D10*
X288100000Y-113950000D03*
X276100000Y-111750000D03*
%TD*%
D19*
%TO.C,D2*%
X95750000Y-134625000D03*
D20*
X98250000Y-134625000D03*
%TD*%
D19*
%TO.C,D6*%
X171750000Y-129875000D03*
D20*
X174250000Y-129875000D03*
%TD*%
D13*
%TO.C,SW13*%
X73000000Y-175150000D03*
D11*
X78000000Y-164100000D03*
D12*
X78000000Y-170000000D03*
D11*
X83000000Y-166200000D03*
D10*
X86500000Y-166200000D03*
X74500000Y-164000000D03*
%TD*%
D13*
%TO.C,SW29*%
X255600000Y-146650000D03*
D11*
X260600000Y-135600000D03*
D12*
X260600000Y-141500000D03*
D11*
X265600000Y-137700000D03*
D10*
X269100000Y-137700000D03*
X257100000Y-135500000D03*
%TD*%
D21*
%TO.C,H11*%
X327050000Y-170000000D03*
%TD*%
D19*
%TO.C,D21*%
X190750000Y-189250000D03*
D20*
X193250000Y-189250000D03*
%TD*%
D19*
%TO.C,D7*%
X76750000Y-156000000D03*
D20*
X79250000Y-156000000D03*
%TD*%
D13*
%TO.C,SW41*%
X236600000Y-187025000D03*
D11*
X241600000Y-175975000D03*
D12*
X241600000Y-181875000D03*
D11*
X246600000Y-178075000D03*
D10*
X250100000Y-178075000D03*
X238100000Y-175875000D03*
%TD*%
D19*
%TO.C,D25*%
X297350000Y-127500000D03*
D20*
X299850000Y-127500000D03*
%TD*%
D19*
%TO.C,D23*%
X259350000Y-127500000D03*
D20*
X261850000Y-127500000D03*
%TD*%
D21*
%TO.C,H8*%
X327050000Y-131500000D03*
%TD*%
D19*
%TO.C,D36*%
X278350000Y-160750000D03*
D20*
X280850000Y-160750000D03*
%TD*%
D19*
%TO.C,D4*%
X133750000Y-122750000D03*
D20*
X136250000Y-122750000D03*
%TD*%
D21*
%TO.C,H2*%
X125550000Y-161200000D03*
%TD*%
D13*
%TO.C,SW14*%
X92000000Y-172775000D03*
D11*
X97000000Y-161725000D03*
D12*
X97000000Y-167625000D03*
D11*
X102000000Y-163825000D03*
D10*
X105500000Y-163825000D03*
X93500000Y-161625000D03*
%TD*%
D13*
%TO.C,SW18*%
X168000000Y-168025000D03*
D11*
X173000000Y-156975000D03*
D12*
X173000000Y-162875000D03*
D11*
X178000000Y-159075000D03*
D10*
X181500000Y-159075000D03*
X169500000Y-156875000D03*
%TD*%
D13*
%TO.C,SW32*%
X312600000Y-153775000D03*
D11*
X317600000Y-142725000D03*
D12*
X317600000Y-148625000D03*
D11*
X322600000Y-144825000D03*
D10*
X326100000Y-144825000D03*
X314100000Y-142625000D03*
%TD*%
D16*
%TO.C,BH*%
X212300000Y-165000000D03*
X212300000Y-165800000D03*
X212300000Y-166600000D03*
X212300000Y-167400000D03*
X212300000Y-168200000D03*
X212300000Y-169000000D03*
X212300000Y-169800000D03*
%TD*%
D21*
%TO.C,H7*%
X163550000Y-124800000D03*
%TD*%
D13*
%TO.C,SW25*%
X293600000Y-127650000D03*
D11*
X298600000Y-116600000D03*
D12*
X298600000Y-122500000D03*
D11*
X303600000Y-118700000D03*
D10*
X307100000Y-118700000D03*
X295100000Y-116500000D03*
%TD*%
D23*
%TO.C,PS_R1*%
X288900000Y-170443000D03*
X288900000Y-168207000D03*
D24*
X286800000Y-169350000D03*
X283800000Y-169350000D03*
D23*
X281700000Y-170443000D03*
X281700000Y-168207000D03*
D25*
X287550000Y-167500000D03*
X284550000Y-167500000D03*
X283050000Y-167500000D03*
%TD*%
D13*
%TO.C,SW10*%
X130000000Y-141900000D03*
D11*
X135000000Y-130850000D03*
D12*
X135000000Y-136750000D03*
D11*
X140000000Y-132950000D03*
D10*
X143500000Y-132950000D03*
X131500000Y-130750000D03*
%TD*%
D18*
%TO.C,PW_R1*%
X225140000Y-173750000D03*
D26*
X220060000Y-173750000D03*
%TD*%
D23*
%TO.C,PS_L1*%
X132900000Y-170443000D03*
X132900000Y-168207000D03*
D24*
X130800000Y-169350000D03*
X127800000Y-169350000D03*
D23*
X125700000Y-170443000D03*
X125700000Y-168207000D03*
D25*
X131550000Y-167500000D03*
X128550000Y-167500000D03*
X127050000Y-167500000D03*
%TD*%
D13*
%TO.C,SW36*%
X274600000Y-160900000D03*
D11*
X279600000Y-149850000D03*
D12*
X279600000Y-155750000D03*
D11*
X284600000Y-151950000D03*
D10*
X288100000Y-151950000D03*
X276100000Y-149750000D03*
%TD*%
D21*
%TO.C,H5*%
X163550000Y-164500000D03*
%TD*%
D16*
%TO.C,BH*%
X212300000Y-186950000D03*
X212300000Y-187750000D03*
X212300000Y-188550000D03*
X212300000Y-189350000D03*
X212300000Y-190150000D03*
X212300000Y-190950000D03*
X212300000Y-191750000D03*
%TD*%
D19*
%TO.C,D32*%
X316350000Y-153625000D03*
D20*
X318850000Y-153625000D03*
%TD*%
D19*
%TO.C,D38*%
X316350000Y-172625000D03*
D20*
X318850000Y-172625000D03*
%TD*%
D27*
%TO.C,KeyChainHole1*%
X207299999Y-165700000D03*
%TD*%
D13*
%TO.C,SW30*%
X274600000Y-141900000D03*
D11*
X279600000Y-130850000D03*
D12*
X279600000Y-136750000D03*
D11*
X284600000Y-132950000D03*
D10*
X288100000Y-132950000D03*
X276100000Y-130750000D03*
%TD*%
D19*
%TO.C,D37*%
X297350000Y-165500000D03*
D20*
X299850000Y-165500000D03*
%TD*%
D21*
%TO.C,H10*%
X125550000Y-122300000D03*
%TD*%
D13*
%TO.C,SW20*%
X168000000Y-187025000D03*
D11*
X173000000Y-175975000D03*
D12*
X173000000Y-181875000D03*
D11*
X178000000Y-178075000D03*
D10*
X181500000Y-178075000D03*
X169500000Y-175875000D03*
%TD*%
D21*
%TO.C,H9*%
X251050000Y-124800000D03*
%TD*%
D13*
%TO.C,SW17*%
X149000000Y-165650000D03*
D11*
X154000000Y-154600000D03*
D12*
X154000000Y-160500000D03*
D11*
X159000000Y-156700000D03*
D10*
X162500000Y-156700000D03*
X150500000Y-154500000D03*
%TD*%
D13*
%TO.C,SW19*%
X149000000Y-184650000D03*
D11*
X154000000Y-173600000D03*
D12*
X154000000Y-179500000D03*
D11*
X159000000Y-175700000D03*
D10*
X162500000Y-175700000D03*
X150500000Y-173500000D03*
%TD*%
D13*
%TO.C,SW35*%
X255600000Y-165650000D03*
D11*
X260600000Y-154600000D03*
D12*
X260600000Y-160500000D03*
D11*
X265600000Y-156700000D03*
D10*
X269100000Y-156700000D03*
X257100000Y-154500000D03*
%TD*%
D19*
%TO.C,D34*%
X240350000Y-167875000D03*
D20*
X242850000Y-167875000D03*
%TD*%
D13*
%TO.C,SW33*%
X331600000Y-156150000D03*
D11*
X336600000Y-145100000D03*
D12*
X336600000Y-151000000D03*
D11*
X341600000Y-147200000D03*
D10*
X345100000Y-147200000D03*
X333100000Y-145000000D03*
%TD*%
D16*
%TO.C,BH*%
X212300000Y-172500000D03*
X212300000Y-173300000D03*
X212300000Y-174100000D03*
X212300000Y-174900000D03*
X212300000Y-175700000D03*
X212300000Y-176500000D03*
X212300000Y-177300000D03*
%TD*%
D13*
%TO.C,SW11*%
X148920000Y-146650000D03*
D11*
X153920000Y-135600000D03*
D12*
X153920000Y-141500000D03*
D11*
X158920000Y-137700000D03*
D10*
X162420000Y-137700000D03*
X150420000Y-135500000D03*
%TD*%
D19*
%TO.C,D29*%
X259350000Y-146500000D03*
D20*
X261850000Y-146500000D03*
%TD*%
D19*
%TO.C,D31*%
X297350000Y-146500000D03*
D20*
X299850000Y-146500000D03*
%TD*%
D19*
%TO.C,D8*%
X95750000Y-153625000D03*
D20*
X98250000Y-153625000D03*
%TD*%
D21*
%TO.C,H1*%
X87550000Y-131500000D03*
%TD*%
D19*
%TO.C,D28*%
X240350000Y-148875000D03*
D20*
X242850000Y-148875000D03*
%TD*%
D13*
%TO.C,SW9*%
X111000000Y-146650000D03*
D11*
X116000000Y-135600000D03*
D12*
X116000000Y-141500000D03*
D11*
X121000000Y-137700000D03*
D10*
X124500000Y-137700000D03*
X112500000Y-135500000D03*
%TD*%
D13*
%TO.C,SW16*%
X130000000Y-160900000D03*
D11*
X135000000Y-149850000D03*
D12*
X135000000Y-155750000D03*
D11*
X140000000Y-151950000D03*
D10*
X143500000Y-151950000D03*
X131500000Y-149750000D03*
%TD*%
D21*
%TO.C,H6*%
X289050000Y-161200000D03*
%TD*%
D19*
%TO.C,D10*%
X133750000Y-141750000D03*
D20*
X136250000Y-141750000D03*
%TD*%
D19*
%TO.C,D26*%
X316350000Y-134625000D03*
D20*
X318850000Y-134625000D03*
%TD*%
D13*
%TO.C,SW34*%
X236600000Y-168025000D03*
D11*
X241600000Y-156975000D03*
D12*
X241600000Y-162875000D03*
D11*
X246600000Y-159075000D03*
D10*
X250100000Y-159075000D03*
X238100000Y-156875000D03*
%TD*%
D19*
%TO.C,D35*%
X259350000Y-165500000D03*
D20*
X261850000Y-165500000D03*
%TD*%
D28*
%TO.C,R_R1*%
X272500000Y-168600000D03*
X277300000Y-168600000D03*
%TD*%
D19*
%TO.C,D18*%
X171750000Y-167875000D03*
D20*
X174250000Y-167875000D03*
%TD*%
M02*
