%TF.GenerationSoftware,KiCad,Pcbnew,9.0.6*%
%TF.CreationDate,2025-12-03T13:22:57+03:00*%
%TF.ProjectId,KOMETA,4b4f4d45-5441-42e6-9b69-6361645f7063,rev?*%
%TF.SameCoordinates,Original*%
%TF.FileFunction,NonPlated,1,2,NPTH,Drill*%
%TF.FilePolarity,Positive*%
%FSLAX46Y46*%
G04 Gerber Fmt 4.6, Leading zero omitted, Abs format (unit mm)*
G04 Created by KiCad (PCBNEW 9.0.6) date 2025-12-03 13:22:57*
%MOMM*%
%LPD*%
G01*
G04 APERTURE LIST*
%TA.AperFunction,ComponentDrill*%
%ADD10C,0.500000*%
%TD*%
%TA.AperFunction,ComponentDrill*%
%ADD11C,0.600000*%
%TD*%
%TA.AperFunction,ComponentDrill*%
%ADD12C,0.700000*%
%TD*%
%TA.AperFunction,ComponentDrill*%
%ADD13C,1.700000*%
%TD*%
%TA.AperFunction,ComponentDrill*%
%ADD14C,1.900000*%
%TD*%
%TA.AperFunction,ComponentDrill*%
%ADD15C,3.010000*%
%TD*%
%TA.AperFunction,ComponentDrill*%
%ADD16C,5.050000*%
%TD*%
G04 APERTURE END LIST*
D10*
%TO.C,BH*%
X202300000Y-148824000D03*
X202300000Y-149624000D03*
X202300000Y-150424000D03*
X202300000Y-151224000D03*
X202300000Y-152024000D03*
X202300000Y-152824000D03*
X202300000Y-153624000D03*
X202300000Y-165000000D03*
X202300000Y-165800000D03*
X202300000Y-166600000D03*
X202300000Y-167400000D03*
X202300000Y-168200000D03*
X202300000Y-169000000D03*
X202300000Y-169800000D03*
%TO.C,*%
X202300000Y-170700000D03*
X202300000Y-171600000D03*
%TO.C,BH*%
X202300000Y-172500000D03*
X202300000Y-173300000D03*
X202300000Y-174100000D03*
X202300000Y-174900000D03*
X202300000Y-175700000D03*
X202300000Y-176500000D03*
X202300000Y-177300000D03*
X202300000Y-186950000D03*
X202300000Y-187750000D03*
X202300000Y-188550000D03*
X202300000Y-189350000D03*
X202300000Y-190150000D03*
X202300000Y-190950000D03*
X202300000Y-191750000D03*
X212300000Y-148824000D03*
X212300000Y-149624000D03*
X212300000Y-150424000D03*
X212300000Y-151224000D03*
X212300000Y-152024000D03*
X212300000Y-152824000D03*
X212300000Y-153624000D03*
X212300000Y-165000000D03*
X212300000Y-165800000D03*
X212300000Y-166600000D03*
X212300000Y-167400000D03*
X212300000Y-168200000D03*
X212300000Y-169000000D03*
X212300000Y-169800000D03*
%TO.C,*%
X212300000Y-170700000D03*
X212300000Y-171600000D03*
%TO.C,BH*%
X212300000Y-172500000D03*
X212300000Y-173300000D03*
X212300000Y-174100000D03*
X212300000Y-174900000D03*
X212300000Y-175700000D03*
X212300000Y-176500000D03*
X212300000Y-177300000D03*
X212300000Y-186950000D03*
X212300000Y-187750000D03*
X212300000Y-188550000D03*
X212300000Y-189350000D03*
X212300000Y-190150000D03*
X212300000Y-190950000D03*
X212300000Y-191750000D03*
D11*
%TO.C,R_L1*%
X139380000Y-167700000D03*
X139380000Y-169500000D03*
%TO.C,R_R1*%
X275170000Y-167690000D03*
X275170000Y-169490000D03*
D12*
%TO.C,PS_L1*%
X127800000Y-169350000D03*
X130800000Y-169350000D03*
%TO.C,PS_R1*%
X283800000Y-169350000D03*
X286800000Y-169350000D03*
D13*
%TO.C,SW1*%
X72500000Y-132000000D03*
%TO.C,SW7*%
X72500000Y-151000000D03*
%TO.C,SW13*%
X72500000Y-170000000D03*
%TO.C,SW1*%
X73000000Y-137150000D03*
%TO.C,SW7*%
X73000000Y-156150000D03*
%TO.C,SW13*%
X73000000Y-175150000D03*
%TO.C,SW2*%
X91500000Y-129625000D03*
%TO.C,SW8*%
X91500000Y-148625000D03*
%TO.C,SW14*%
X91500000Y-167625000D03*
%TO.C,SW2*%
X92000000Y-134775000D03*
%TO.C,SW8*%
X92000000Y-153775000D03*
%TO.C,SW14*%
X92000000Y-172775000D03*
%TO.C,SW3*%
X110500000Y-122500000D03*
%TO.C,SW9*%
X110500000Y-141500000D03*
%TO.C,SW15*%
X110500000Y-160500000D03*
%TO.C,SW3*%
X111000000Y-127650000D03*
%TO.C,SW9*%
X111000000Y-146650000D03*
%TO.C,SW15*%
X111000000Y-165650000D03*
%TO.C,SW4*%
X129500000Y-117750000D03*
%TO.C,SW10*%
X129500000Y-136750000D03*
%TO.C,SW16*%
X129500000Y-155750000D03*
%TO.C,SW4*%
X130000000Y-122900000D03*
%TO.C,SW10*%
X130000000Y-141900000D03*
%TO.C,SW16*%
X130000000Y-160900000D03*
%TO.C,SW11*%
X148420000Y-141500000D03*
%TO.C,SW5*%
X148500000Y-122500000D03*
%TO.C,SW17*%
X148500000Y-160500000D03*
%TO.C,SW19*%
X148500000Y-179500000D03*
%TO.C,SW11*%
X148920000Y-146650000D03*
%TO.C,SW5*%
X149000000Y-127650000D03*
%TO.C,SW17*%
X149000000Y-165650000D03*
%TO.C,SW19*%
X149000000Y-184650000D03*
%TO.C,SW6*%
X167500000Y-124875000D03*
%TO.C,SW12*%
X167500000Y-143875000D03*
%TO.C,SW18*%
X167500000Y-162875000D03*
%TO.C,SW20*%
X167500000Y-181875000D03*
%TO.C,SW6*%
X168000000Y-130025000D03*
%TO.C,SW12*%
X168000000Y-149025000D03*
%TO.C,SW18*%
X168000000Y-168025000D03*
%TO.C,SW20*%
X168000000Y-187025000D03*
%TO.C,SW21*%
X186500000Y-184250000D03*
X187000000Y-189400000D03*
%TO.C,SW40*%
X217100000Y-184250000D03*
X217600000Y-189400000D03*
%TO.C,SW22*%
X236100000Y-124875000D03*
%TO.C,SW28*%
X236100000Y-143875000D03*
%TO.C,SW34*%
X236100000Y-162875000D03*
%TO.C,SW41*%
X236100000Y-181875000D03*
%TO.C,SW22*%
X236600000Y-130025000D03*
%TO.C,SW28*%
X236600000Y-149025000D03*
%TO.C,SW34*%
X236600000Y-168025000D03*
%TO.C,SW41*%
X236600000Y-187025000D03*
%TO.C,SW23*%
X255100000Y-122500000D03*
%TO.C,SW29*%
X255100000Y-141500000D03*
%TO.C,SW35*%
X255100000Y-160500000D03*
%TO.C,SW42*%
X255100000Y-179500000D03*
%TO.C,SW23*%
X255600000Y-127650000D03*
%TO.C,SW29*%
X255600000Y-146650000D03*
%TO.C,SW35*%
X255600000Y-165650000D03*
%TO.C,SW42*%
X255600000Y-184650000D03*
%TO.C,SW24*%
X274100000Y-117750000D03*
%TO.C,SW30*%
X274100000Y-136750000D03*
%TO.C,SW36*%
X274100000Y-155750000D03*
%TO.C,SW24*%
X274600000Y-122900000D03*
%TO.C,SW30*%
X274600000Y-141900000D03*
%TO.C,SW36*%
X274600000Y-160900000D03*
%TO.C,SW25*%
X293100000Y-122500000D03*
%TO.C,SW31*%
X293100000Y-141500000D03*
%TO.C,SW37*%
X293100000Y-160500000D03*
%TO.C,SW25*%
X293600000Y-127650000D03*
%TO.C,SW31*%
X293600000Y-146650000D03*
%TO.C,SW37*%
X293600000Y-165650000D03*
%TO.C,SW26*%
X312100000Y-129625000D03*
%TO.C,SW32*%
X312100000Y-148625000D03*
%TO.C,SW38*%
X312100000Y-167625000D03*
%TO.C,SW26*%
X312600000Y-134775000D03*
%TO.C,SW32*%
X312600000Y-153775000D03*
%TO.C,SW38*%
X312600000Y-172775000D03*
%TO.C,SW27*%
X331100000Y-132000000D03*
%TO.C,SW33*%
X331100000Y-151000000D03*
%TO.C,SW39*%
X331100000Y-170000000D03*
%TO.C,SW27*%
X331600000Y-137150000D03*
%TO.C,SW33*%
X331600000Y-156150000D03*
%TO.C,SW39*%
X331600000Y-175150000D03*
D14*
%TO.C,SW1*%
X83500000Y-132000000D03*
%TO.C,SW7*%
X83500000Y-151000000D03*
%TO.C,SW13*%
X83500000Y-170000000D03*
%TO.C,SW2*%
X102500000Y-129625000D03*
%TO.C,SW8*%
X102500000Y-148625000D03*
%TO.C,SW14*%
X102500000Y-167625000D03*
%TO.C,SW3*%
X121500000Y-122500000D03*
%TO.C,SW9*%
X121500000Y-141500000D03*
%TO.C,SW15*%
X121500000Y-160500000D03*
%TO.C,SW4*%
X140500000Y-117750000D03*
%TO.C,SW10*%
X140500000Y-136750000D03*
%TO.C,SW16*%
X140500000Y-155750000D03*
%TO.C,SW11*%
X159420000Y-141500000D03*
%TO.C,SW5*%
X159500000Y-122500000D03*
%TO.C,SW17*%
X159500000Y-160500000D03*
%TO.C,SW19*%
X159500000Y-179500000D03*
%TO.C,SW6*%
X178500000Y-124875000D03*
%TO.C,SW12*%
X178500000Y-143875000D03*
%TO.C,SW18*%
X178500000Y-162875000D03*
%TO.C,SW20*%
X178500000Y-181875000D03*
%TO.C,SW21*%
X197500000Y-184250000D03*
%TO.C,SW40*%
X228100000Y-184250000D03*
%TO.C,SW22*%
X247100000Y-124875000D03*
%TO.C,SW28*%
X247100000Y-143875000D03*
%TO.C,SW34*%
X247100000Y-162875000D03*
%TO.C,SW41*%
X247100000Y-181875000D03*
%TO.C,SW23*%
X266100000Y-122500000D03*
%TO.C,SW29*%
X266100000Y-141500000D03*
%TO.C,SW35*%
X266100000Y-160500000D03*
%TO.C,SW42*%
X266100000Y-179500000D03*
%TO.C,SW24*%
X285100000Y-117750000D03*
%TO.C,SW30*%
X285100000Y-136750000D03*
%TO.C,SW36*%
X285100000Y-155750000D03*
%TO.C,SW25*%
X304100000Y-122500000D03*
%TO.C,SW31*%
X304100000Y-141500000D03*
%TO.C,SW37*%
X304100000Y-160500000D03*
%TO.C,SW26*%
X323100000Y-129625000D03*
%TO.C,SW32*%
X323100000Y-148625000D03*
%TO.C,SW38*%
X323100000Y-167625000D03*
%TO.C,SW27*%
X342100000Y-132000000D03*
%TO.C,SW33*%
X342100000Y-151000000D03*
%TO.C,SW39*%
X342100000Y-170000000D03*
D15*
%TO.C,SW1*%
X78000000Y-126100000D03*
%TO.C,SW7*%
X78000000Y-145100000D03*
%TO.C,SW13*%
X78000000Y-164100000D03*
%TO.C,SW1*%
X83000000Y-128200000D03*
%TO.C,SW7*%
X83000000Y-147200000D03*
%TO.C,SW13*%
X83000000Y-166200000D03*
%TO.C,SW2*%
X97000000Y-123725000D03*
%TO.C,SW8*%
X97000000Y-142725000D03*
%TO.C,SW14*%
X97000000Y-161725000D03*
%TO.C,SW2*%
X102000000Y-125825000D03*
%TO.C,SW8*%
X102000000Y-144825000D03*
%TO.C,SW14*%
X102000000Y-163825000D03*
%TO.C,SW3*%
X116000000Y-116600000D03*
%TO.C,SW9*%
X116000000Y-135600000D03*
%TO.C,SW15*%
X116000000Y-154600000D03*
%TO.C,SW3*%
X121000000Y-118700000D03*
%TO.C,SW9*%
X121000000Y-137700000D03*
%TO.C,SW15*%
X121000000Y-156700000D03*
%TO.C,SW4*%
X135000000Y-111850000D03*
%TO.C,SW10*%
X135000000Y-130850000D03*
%TO.C,SW16*%
X135000000Y-149850000D03*
%TO.C,SW4*%
X140000000Y-113950000D03*
%TO.C,SW10*%
X140000000Y-132950000D03*
%TO.C,SW16*%
X140000000Y-151950000D03*
%TO.C,SW11*%
X153920000Y-135600000D03*
%TO.C,SW5*%
X154000000Y-116600000D03*
%TO.C,SW17*%
X154000000Y-154600000D03*
%TO.C,SW19*%
X154000000Y-173600000D03*
%TO.C,SW11*%
X158920000Y-137700000D03*
%TO.C,SW5*%
X159000000Y-118700000D03*
%TO.C,SW17*%
X159000000Y-156700000D03*
%TO.C,SW19*%
X159000000Y-175700000D03*
%TO.C,SW6*%
X173000000Y-118975000D03*
%TO.C,SW12*%
X173000000Y-137975000D03*
%TO.C,SW18*%
X173000000Y-156975000D03*
%TO.C,SW20*%
X173000000Y-175975000D03*
%TO.C,SW6*%
X178000000Y-121075000D03*
%TO.C,SW12*%
X178000000Y-140075000D03*
%TO.C,SW18*%
X178000000Y-159075000D03*
%TO.C,SW20*%
X178000000Y-178075000D03*
%TO.C,SW21*%
X192000000Y-178350000D03*
X197000000Y-180450000D03*
%TO.C,SW40*%
X222600000Y-178350000D03*
X227600000Y-180450000D03*
%TO.C,SW22*%
X241600000Y-118975000D03*
%TO.C,SW28*%
X241600000Y-137975000D03*
%TO.C,SW34*%
X241600000Y-156975000D03*
%TO.C,SW41*%
X241600000Y-175975000D03*
%TO.C,SW22*%
X246600000Y-121075000D03*
%TO.C,SW28*%
X246600000Y-140075000D03*
%TO.C,SW34*%
X246600000Y-159075000D03*
%TO.C,SW41*%
X246600000Y-178075000D03*
%TO.C,SW23*%
X260600000Y-116600000D03*
%TO.C,SW29*%
X260600000Y-135600000D03*
%TO.C,SW35*%
X260600000Y-154600000D03*
%TO.C,SW42*%
X260600000Y-173600000D03*
%TO.C,SW23*%
X265600000Y-118700000D03*
%TO.C,SW29*%
X265600000Y-137700000D03*
%TO.C,SW35*%
X265600000Y-156700000D03*
%TO.C,SW42*%
X265600000Y-175700000D03*
%TO.C,SW24*%
X279600000Y-111850000D03*
%TO.C,SW30*%
X279600000Y-130850000D03*
%TO.C,SW36*%
X279600000Y-149850000D03*
%TO.C,SW24*%
X284600000Y-113950000D03*
%TO.C,SW30*%
X284600000Y-132950000D03*
%TO.C,SW36*%
X284600000Y-151950000D03*
%TO.C,SW25*%
X298600000Y-116600000D03*
%TO.C,SW31*%
X298600000Y-135600000D03*
%TO.C,SW37*%
X298600000Y-154600000D03*
%TO.C,SW25*%
X303600000Y-118700000D03*
%TO.C,SW31*%
X303600000Y-137700000D03*
%TO.C,SW37*%
X303600000Y-156700000D03*
%TO.C,SW26*%
X317600000Y-123725000D03*
%TO.C,SW32*%
X317600000Y-142725000D03*
%TO.C,SW38*%
X317600000Y-161725000D03*
%TO.C,SW26*%
X322600000Y-125825000D03*
%TO.C,SW32*%
X322600000Y-144825000D03*
%TO.C,SW38*%
X322600000Y-163825000D03*
%TO.C,SW27*%
X336600000Y-126100000D03*
%TO.C,SW33*%
X336600000Y-145100000D03*
%TO.C,SW39*%
X336600000Y-164100000D03*
%TO.C,SW27*%
X341600000Y-128200000D03*
%TO.C,SW33*%
X341600000Y-147200000D03*
%TO.C,SW39*%
X341600000Y-166200000D03*
D16*
%TO.C,SW1*%
X78000000Y-132000000D03*
%TO.C,SW7*%
X78000000Y-151000000D03*
%TO.C,SW13*%
X78000000Y-170000000D03*
%TO.C,SW2*%
X97000000Y-129625000D03*
%TO.C,SW8*%
X97000000Y-148625000D03*
%TO.C,SW14*%
X97000000Y-167625000D03*
%TO.C,SW3*%
X116000000Y-122500000D03*
%TO.C,SW9*%
X116000000Y-141500000D03*
%TO.C,SW15*%
X116000000Y-160500000D03*
%TO.C,SW4*%
X135000000Y-117750000D03*
%TO.C,SW10*%
X135000000Y-136750000D03*
%TO.C,SW16*%
X135000000Y-155750000D03*
%TO.C,SW11*%
X153920000Y-141500000D03*
%TO.C,SW5*%
X154000000Y-122500000D03*
%TO.C,SW17*%
X154000000Y-160500000D03*
%TO.C,SW19*%
X154000000Y-179500000D03*
%TO.C,SW6*%
X173000000Y-124875000D03*
%TO.C,SW12*%
X173000000Y-143875000D03*
%TO.C,SW18*%
X173000000Y-162875000D03*
%TO.C,SW20*%
X173000000Y-181875000D03*
%TO.C,SW21*%
X192000000Y-184250000D03*
%TO.C,SW40*%
X222600000Y-184250000D03*
%TO.C,SW22*%
X241600000Y-124875000D03*
%TO.C,SW28*%
X241600000Y-143875000D03*
%TO.C,SW34*%
X241600000Y-162875000D03*
%TO.C,SW41*%
X241600000Y-181875000D03*
%TO.C,SW23*%
X260600000Y-122500000D03*
%TO.C,SW29*%
X260600000Y-141500000D03*
%TO.C,SW35*%
X260600000Y-160500000D03*
%TO.C,SW42*%
X260600000Y-179500000D03*
%TO.C,SW24*%
X279600000Y-117750000D03*
%TO.C,SW30*%
X279600000Y-136750000D03*
%TO.C,SW36*%
X279600000Y-155750000D03*
%TO.C,SW25*%
X298600000Y-122500000D03*
%TO.C,SW31*%
X298600000Y-141500000D03*
%TO.C,SW37*%
X298600000Y-160500000D03*
%TO.C,SW26*%
X317600000Y-129625000D03*
%TO.C,SW32*%
X317600000Y-148625000D03*
%TO.C,SW38*%
X317600000Y-167625000D03*
%TO.C,SW27*%
X336600000Y-132000000D03*
%TO.C,SW33*%
X336600000Y-151000000D03*
%TO.C,SW39*%
X336600000Y-170000000D03*
M02*
