%TF.GenerationSoftware,KiCad,Pcbnew,9.0.4*%
%TF.CreationDate,2025-09-13T00:46:45+03:00*%
%TF.ProjectId,KOMETA,4b4f4d45-5441-42e6-9b69-6361645f7063,rev?*%
%TF.SameCoordinates,Original*%
%TF.FileFunction,Drillmap*%
%TF.FilePolarity,Positive*%
%FSLAX45Y45*%
G04 Gerber Fmt 4.5, Leading zero omitted, Abs format (unit mm)*
G04 Created by KiCad (PCBNEW 9.0.4) date 2025-09-13 00:46:45*
%MOMM*%
%LPD*%
G01*
G04 APERTURE LIST*
%ADD10C,0.050000*%
%ADD11C,0.200000*%
%ADD12C,0.100000*%
%ADD13C,0.160000*%
%ADD14C,0.170180*%
%ADD15C,0.301000*%
%ADD16C,0.505000*%
G04 APERTURE END LIST*
D10*
X21230000Y-14882400D02*
X20230000Y-14882400D01*
X21230000Y-15362400D02*
X20230000Y-15362400D01*
X18870000Y-12150000D02*
X19730000Y-12150000D01*
X22505100Y-14619919D02*
X22505100Y-14419919D01*
X6770000Y-12250000D02*
X6770000Y-17950000D01*
X30730000Y-17160000D02*
X30730000Y-17712500D01*
X32870000Y-12170000D02*
G75*
G02*
X32790000Y-12090000I0J80000D01*
G01*
X22635100Y-12100000D02*
X22635100Y-11400000D01*
X27090000Y-17160000D02*
X27090000Y-18900000D01*
X18950000Y-14419919D02*
G75*
G02*
X19000000Y-14369920I50000J-1D01*
G01*
X30810000Y-17792500D02*
G75*
G02*
X30730000Y-17712500I0J80000D01*
G01*
X20230000Y-11430000D02*
X20230000Y-14882400D01*
X22455100Y-14369919D02*
G75*
G02*
X22505100Y-14419919I0J-50001D01*
G01*
X32710000Y-11932500D02*
X30970000Y-11932500D01*
X30810000Y-11220000D02*
G75*
G02*
X30890000Y-11300000I0J-80000D01*
G01*
X6770000Y-12250000D02*
G75*
G02*
X6850000Y-12170000I80000J0D01*
G01*
X22455100Y-14369919D02*
X21855100Y-14369919D01*
X14450000Y-10745000D02*
X12550000Y-10745000D01*
X10570000Y-11300000D02*
G75*
G02*
X10650000Y-11220000I80000J0D01*
G01*
X25030000Y-11350000D02*
X22685100Y-11350000D01*
X26930000Y-11140000D02*
G75*
G02*
X26850000Y-11220000I-80000J0D01*
G01*
X18090000Y-19218000D02*
G75*
G02*
X18170000Y-19298000I0J-80000D01*
G01*
X20230000Y-16580000D02*
G75*
G02*
X20730000Y-16080000I500000J0D01*
G01*
X8910000Y-17792500D02*
X10650000Y-17792500D01*
X32710000Y-18030000D02*
X34610000Y-18030000D01*
X8670000Y-12012500D02*
G75*
G02*
X8750000Y-11932500I80000J0D01*
G01*
X23290000Y-19347500D02*
X23290000Y-19375000D01*
X21805100Y-14619919D02*
X21805100Y-14419919D01*
X12470000Y-11140000D02*
G75*
G02*
X12390000Y-11220000I-80000J0D01*
G01*
X14290000Y-17080000D02*
G75*
G02*
X14370000Y-17160000I0J-80000D01*
G01*
X22635100Y-11400000D02*
G75*
G02*
X22685100Y-11350000I50000J0D01*
G01*
X21230000Y-15362400D02*
X21230000Y-16580000D01*
X25030000Y-11300000D02*
X25030000Y-11350000D01*
X18770000Y-11350000D02*
G75*
G02*
X18820000Y-11400000I0J-50000D01*
G01*
X12470000Y-11140000D02*
X12470000Y-10825000D01*
X25190000Y-19060000D02*
X25190000Y-19138000D01*
X21675100Y-12100000D02*
X21675100Y-11400000D01*
X22635100Y-12100000D02*
G75*
G02*
X22585100Y-12150000I-50000J0D01*
G01*
X20730000Y-18150000D02*
G75*
G02*
X20230000Y-17650000I0J500000D01*
G01*
X21725100Y-12150000D02*
G75*
G02*
X21675100Y-12100000I0J50000D01*
G01*
X10570000Y-11852500D02*
X10570000Y-11300000D01*
X18950000Y-14619919D02*
X18950000Y-14419919D01*
X26930000Y-10825000D02*
G75*
G02*
X27010000Y-10745000I80000J0D01*
G01*
X19000000Y-14669919D02*
G75*
G02*
X18950001Y-14619919I0J50000D01*
G01*
X21230000Y-11430000D02*
G75*
G02*
X21310000Y-11350000I80000J0D01*
G01*
X20230000Y-19375000D02*
X20230000Y-19175000D01*
X25270000Y-18980000D02*
X27010000Y-18980000D01*
X20230000Y-19375000D02*
G75*
G02*
X20150000Y-19455000I-80000J0D01*
G01*
X25190000Y-19138000D02*
G75*
G02*
X25110000Y-19218000I-80000J0D01*
G01*
X21230000Y-19375000D02*
X21230000Y-19175000D01*
X8670000Y-12090000D02*
X8670000Y-12012500D01*
X8750000Y-18030000D02*
X6850000Y-18030000D01*
X21805100Y-14419919D02*
G75*
G02*
X21855100Y-14369920I50000J-1D01*
G01*
X8750000Y-11932500D02*
X10490000Y-11932500D01*
X25110000Y-11220000D02*
X26850000Y-11220000D01*
X32710000Y-11932500D02*
G75*
G02*
X32790000Y-12012500I0J-80000D01*
G01*
X10570000Y-11852500D02*
G75*
G02*
X10490000Y-11932500I-80000J0D01*
G01*
X20150000Y-11350000D02*
X19830000Y-11350000D01*
X10730000Y-17160000D02*
X10730000Y-17712500D01*
X18770000Y-11350000D02*
X16430000Y-11350000D01*
X23290000Y-19347500D02*
G75*
G02*
X23420000Y-19217500I130000J0D01*
G01*
X16350000Y-19217500D02*
G75*
G02*
X16270000Y-19137500I0J80000D01*
G01*
X14450000Y-18980000D02*
G75*
G02*
X14370000Y-18900000I0J80000D01*
G01*
X19780000Y-12100000D02*
G75*
G02*
X19730000Y-12150000I-50000J0D01*
G01*
X28990000Y-11140000D02*
X28990000Y-10825000D01*
X14290000Y-17080000D02*
X10810000Y-17080000D01*
X12390000Y-11220000D02*
X10650000Y-11220000D01*
X32790000Y-12090000D02*
X32790000Y-12012500D01*
X32710000Y-18030000D02*
G75*
G02*
X32630000Y-17950000I0J80000D01*
G01*
X14610000Y-11220000D02*
G75*
G02*
X14530000Y-11140000I0J80000D01*
G01*
X19600000Y-14369919D02*
X19000000Y-14369919D01*
X8670000Y-12090000D02*
G75*
G02*
X8590000Y-12170000I-80000J0D01*
G01*
X20730000Y-16080000D02*
G75*
G02*
X21230000Y-16580000I0J-500000D01*
G01*
X18090000Y-19217500D02*
X16350000Y-19217500D01*
X8830000Y-17872500D02*
G75*
G02*
X8910000Y-17792500I80000J0D01*
G01*
X23210000Y-19455000D02*
X21310000Y-19455000D01*
X16190000Y-18980000D02*
G75*
G02*
X16270000Y-19060000I0J-80000D01*
G01*
X18820000Y-12100000D02*
X18820000Y-11400000D01*
X16430000Y-11300000D02*
X16430000Y-11350000D01*
X8830000Y-17872500D02*
X8830000Y-17950000D01*
X10730000Y-17160000D02*
G75*
G02*
X10810000Y-17080000I80000J0D01*
G01*
X27090000Y-18900000D02*
G75*
G02*
X27010000Y-18980000I-80000J0D01*
G01*
X32550000Y-17792500D02*
X30810000Y-17792500D01*
X20230000Y-18695000D02*
X20230000Y-17650000D01*
X14370000Y-17160000D02*
X14370000Y-18900000D01*
X16270000Y-19060000D02*
X16270000Y-19137500D01*
X18170000Y-19298000D02*
X18170000Y-19375000D01*
X8830000Y-17950000D02*
G75*
G02*
X8750000Y-18030000I-80000J0D01*
G01*
X30970000Y-11932500D02*
G75*
G02*
X30890000Y-11852500I0J80000D01*
G01*
X12470000Y-10825000D02*
G75*
G02*
X12550000Y-10745000I80000J0D01*
G01*
X21725100Y-12150000D02*
X22585100Y-12150000D01*
X34690000Y-17950000D02*
G75*
G02*
X34610000Y-18030000I-80000J0D01*
G01*
X21310000Y-19455000D02*
G75*
G02*
X21230000Y-19375000I0J80000D01*
G01*
X16350000Y-11220000D02*
G75*
G02*
X16430000Y-11300000I0J-80000D01*
G01*
X19780000Y-12100000D02*
X19780000Y-11400000D01*
X32630000Y-17872500D02*
X32630000Y-17950000D01*
X18250000Y-19455000D02*
X20150000Y-19455000D01*
X25190000Y-19060000D02*
G75*
G02*
X25270000Y-18980000I80000J0D01*
G01*
X10730000Y-17712500D02*
G75*
G02*
X10650000Y-17792500I-80000J0D01*
G01*
X23290000Y-19375000D02*
G75*
G02*
X23210000Y-19455000I-80000J0D01*
G01*
X23420000Y-19217500D02*
X25110000Y-19217500D01*
X22455100Y-14669919D02*
X21855100Y-14669919D01*
X8590000Y-12170000D02*
X6850000Y-12170000D01*
X6850000Y-18030000D02*
G75*
G02*
X6770000Y-17950000I0J80000D01*
G01*
X30890000Y-11852500D02*
X30890000Y-11300000D01*
X27010000Y-10745000D02*
X28910000Y-10745000D01*
X29070000Y-11220000D02*
X30810000Y-11220000D01*
X21625100Y-11350000D02*
G75*
G02*
X21675100Y-11400000I0J-50000D01*
G01*
X20230000Y-15362400D02*
X20230000Y-16580000D01*
X34610000Y-12170000D02*
G75*
G02*
X34690000Y-12250000I0J-80000D01*
G01*
X27170000Y-17080000D02*
X30650000Y-17080000D01*
X19650000Y-14619919D02*
G75*
G02*
X19600000Y-14669920I-50000J-1D01*
G01*
X20150000Y-11350000D02*
G75*
G02*
X20230000Y-11430000I0J-80000D01*
G01*
X18870000Y-12150000D02*
G75*
G02*
X18820000Y-12100000I0J50000D01*
G01*
X14530000Y-11140000D02*
X14530000Y-10825000D01*
X34690000Y-12250000D02*
X34690000Y-17950000D01*
X21230000Y-19175000D02*
X20230000Y-19175000D01*
X30650000Y-17080000D02*
G75*
G02*
X30730000Y-17160000I0J-80000D01*
G01*
X21230000Y-18695000D02*
X20230000Y-18695000D01*
X19600000Y-14369919D02*
G75*
G02*
X19650001Y-14419919I0J-50001D01*
G01*
X32550000Y-17792500D02*
G75*
G02*
X32630000Y-17872500I0J-80000D01*
G01*
X26930000Y-11140000D02*
X26930000Y-10825000D01*
X21230000Y-11430000D02*
X21230000Y-14882400D01*
X22505100Y-14619919D02*
G75*
G02*
X22455100Y-14669920I-50000J-1D01*
G01*
X16190000Y-18980000D02*
X14450000Y-18980000D01*
X29070000Y-11220000D02*
G75*
G02*
X28990000Y-11140000I0J80000D01*
G01*
X18250000Y-19455000D02*
G75*
G02*
X18170000Y-19375000I0J80000D01*
G01*
X21230000Y-18695000D02*
X21230000Y-17650000D01*
X21855100Y-14669919D02*
G75*
G02*
X21805101Y-14619919I0J50000D01*
G01*
X25030000Y-11300000D02*
G75*
G02*
X25110000Y-11220000I80000J0D01*
G01*
X19600000Y-14669919D02*
X19000000Y-14669919D01*
X27090000Y-17160000D02*
G75*
G02*
X27170000Y-17080000I80000J0D01*
G01*
X32870000Y-12170000D02*
X34610000Y-12170000D01*
X28910000Y-10745000D02*
G75*
G02*
X28990000Y-10825000I0J-80000D01*
G01*
X19650000Y-14619919D02*
X19650000Y-14419919D01*
X21625100Y-11350000D02*
X21310000Y-11350000D01*
X16350000Y-11220000D02*
X14610000Y-11220000D01*
X19780000Y-11400000D02*
G75*
G02*
X19830000Y-11350000I50000J0D01*
G01*
X21230000Y-17650000D02*
G75*
G02*
X20730000Y-18150000I-500000J0D01*
G01*
X14450000Y-10745000D02*
G75*
G02*
X14530000Y-10825000I0J-80000D01*
G01*
D11*
D12*
X20205000Y-14857400D02*
X20255000Y-14907400D01*
X20255000Y-14857400D02*
X20205000Y-14907400D01*
X20205000Y-14937400D02*
X20255000Y-14987400D01*
X20255000Y-14937400D02*
X20205000Y-14987400D01*
X20205000Y-15017400D02*
X20255000Y-15067400D01*
X20255000Y-15017400D02*
X20205000Y-15067400D01*
X20205000Y-15097400D02*
X20255000Y-15147400D01*
X20255000Y-15097400D02*
X20205000Y-15147400D01*
X20205000Y-15177400D02*
X20255000Y-15227400D01*
X20255000Y-15177400D02*
X20205000Y-15227400D01*
X20205000Y-15257400D02*
X20255000Y-15307400D01*
X20255000Y-15257400D02*
X20205000Y-15307400D01*
X20205000Y-15337400D02*
X20255000Y-15387400D01*
X20255000Y-15337400D02*
X20205000Y-15387400D01*
X20205000Y-16475000D02*
X20255000Y-16525000D01*
X20255000Y-16475000D02*
X20205000Y-16525000D01*
X20205000Y-16555000D02*
X20255000Y-16605000D01*
X20255000Y-16555000D02*
X20205000Y-16605000D01*
X20205000Y-16635000D02*
X20255000Y-16685000D01*
X20255000Y-16635000D02*
X20205000Y-16685000D01*
X20205000Y-16715000D02*
X20255000Y-16765000D01*
X20255000Y-16715000D02*
X20205000Y-16765000D01*
X20205000Y-16795000D02*
X20255000Y-16845000D01*
X20255000Y-16795000D02*
X20205000Y-16845000D01*
X20205000Y-16875000D02*
X20255000Y-16925000D01*
X20255000Y-16875000D02*
X20205000Y-16925000D01*
X20205000Y-16955000D02*
X20255000Y-17005000D01*
X20255000Y-16955000D02*
X20205000Y-17005000D01*
X20205000Y-17045000D02*
X20255000Y-17095000D01*
X20255000Y-17045000D02*
X20205000Y-17095000D01*
X20205000Y-17135000D02*
X20255000Y-17185000D01*
X20255000Y-17135000D02*
X20205000Y-17185000D01*
X20205000Y-17225000D02*
X20255000Y-17275000D01*
X20255000Y-17225000D02*
X20205000Y-17275000D01*
X20205000Y-17305000D02*
X20255000Y-17355000D01*
X20255000Y-17305000D02*
X20205000Y-17355000D01*
X20205000Y-17385000D02*
X20255000Y-17435000D01*
X20255000Y-17385000D02*
X20205000Y-17435000D01*
X20205000Y-17465000D02*
X20255000Y-17515000D01*
X20255000Y-17465000D02*
X20205000Y-17515000D01*
X20205000Y-17545000D02*
X20255000Y-17595000D01*
X20255000Y-17545000D02*
X20205000Y-17595000D01*
X20205000Y-17625000D02*
X20255000Y-17675000D01*
X20255000Y-17625000D02*
X20205000Y-17675000D01*
X20205000Y-17705000D02*
X20255000Y-17755000D01*
X20255000Y-17705000D02*
X20205000Y-17755000D01*
X20205000Y-18670000D02*
X20255000Y-18720000D01*
X20255000Y-18670000D02*
X20205000Y-18720000D01*
X20205000Y-18750000D02*
X20255000Y-18800000D01*
X20255000Y-18750000D02*
X20205000Y-18800000D01*
X20205000Y-18830000D02*
X20255000Y-18880000D01*
X20255000Y-18830000D02*
X20205000Y-18880000D01*
X20205000Y-18910000D02*
X20255000Y-18960000D01*
X20255000Y-18910000D02*
X20205000Y-18960000D01*
X20205000Y-18990000D02*
X20255000Y-19040000D01*
X20255000Y-18990000D02*
X20205000Y-19040000D01*
X20205000Y-19070000D02*
X20255000Y-19120000D01*
X20255000Y-19070000D02*
X20205000Y-19120000D01*
X20205000Y-19150000D02*
X20255000Y-19200000D01*
X20255000Y-19150000D02*
X20205000Y-19200000D01*
X21205000Y-14857400D02*
X21255000Y-14907400D01*
X21255000Y-14857400D02*
X21205000Y-14907400D01*
X21205000Y-14937400D02*
X21255000Y-14987400D01*
X21255000Y-14937400D02*
X21205000Y-14987400D01*
X21205000Y-15017400D02*
X21255000Y-15067400D01*
X21255000Y-15017400D02*
X21205000Y-15067400D01*
X21205000Y-15097400D02*
X21255000Y-15147400D01*
X21255000Y-15097400D02*
X21205000Y-15147400D01*
X21205000Y-15177400D02*
X21255000Y-15227400D01*
X21255000Y-15177400D02*
X21205000Y-15227400D01*
X21205000Y-15257400D02*
X21255000Y-15307400D01*
X21255000Y-15257400D02*
X21205000Y-15307400D01*
X21205000Y-15337400D02*
X21255000Y-15387400D01*
X21255000Y-15337400D02*
X21205000Y-15387400D01*
X21205000Y-16475000D02*
X21255000Y-16525000D01*
X21255000Y-16475000D02*
X21205000Y-16525000D01*
X21205000Y-16555000D02*
X21255000Y-16605000D01*
X21255000Y-16555000D02*
X21205000Y-16605000D01*
X21205000Y-16635000D02*
X21255000Y-16685000D01*
X21255000Y-16635000D02*
X21205000Y-16685000D01*
X21205000Y-16715000D02*
X21255000Y-16765000D01*
X21255000Y-16715000D02*
X21205000Y-16765000D01*
X21205000Y-16795000D02*
X21255000Y-16845000D01*
X21255000Y-16795000D02*
X21205000Y-16845000D01*
X21205000Y-16875000D02*
X21255000Y-16925000D01*
X21255000Y-16875000D02*
X21205000Y-16925000D01*
X21205000Y-16955000D02*
X21255000Y-17005000D01*
X21255000Y-16955000D02*
X21205000Y-17005000D01*
X21205000Y-17045000D02*
X21255000Y-17095000D01*
X21255000Y-17045000D02*
X21205000Y-17095000D01*
X21205000Y-17135000D02*
X21255000Y-17185000D01*
X21255000Y-17135000D02*
X21205000Y-17185000D01*
X21205000Y-17225000D02*
X21255000Y-17275000D01*
X21255000Y-17225000D02*
X21205000Y-17275000D01*
X21205000Y-17305000D02*
X21255000Y-17355000D01*
X21255000Y-17305000D02*
X21205000Y-17355000D01*
X21205000Y-17385000D02*
X21255000Y-17435000D01*
X21255000Y-17385000D02*
X21205000Y-17435000D01*
X21205000Y-17465000D02*
X21255000Y-17515000D01*
X21255000Y-17465000D02*
X21205000Y-17515000D01*
X21205000Y-17545000D02*
X21255000Y-17595000D01*
X21255000Y-17545000D02*
X21205000Y-17595000D01*
X21205000Y-17625000D02*
X21255000Y-17675000D01*
X21255000Y-17625000D02*
X21205000Y-17675000D01*
X21205000Y-17705000D02*
X21255000Y-17755000D01*
X21255000Y-17705000D02*
X21205000Y-17755000D01*
X21205000Y-18670000D02*
X21255000Y-18720000D01*
X21255000Y-18670000D02*
X21205000Y-18720000D01*
X21205000Y-18750000D02*
X21255000Y-18800000D01*
X21255000Y-18750000D02*
X21205000Y-18800000D01*
X21205000Y-18830000D02*
X21255000Y-18880000D01*
X21255000Y-18830000D02*
X21205000Y-18880000D01*
X21205000Y-18910000D02*
X21255000Y-18960000D01*
X21255000Y-18910000D02*
X21205000Y-18960000D01*
X21205000Y-18990000D02*
X21255000Y-19040000D01*
X21255000Y-18990000D02*
X21205000Y-19040000D01*
X21205000Y-19070000D02*
X21255000Y-19120000D01*
X21255000Y-19070000D02*
X21205000Y-19120000D01*
X21205000Y-19150000D02*
X21255000Y-19200000D01*
X21255000Y-19150000D02*
X21205000Y-19200000D01*
X12815000Y-16935000D02*
G75*
G02*
X12745000Y-16935000I-35000J0D01*
G01*
X12745000Y-16935000D02*
G75*
G02*
X12815000Y-16935000I35000J0D01*
G01*
X13115000Y-16935000D02*
G75*
G02*
X13045000Y-16935000I-35000J0D01*
G01*
X13045000Y-16935000D02*
G75*
G02*
X13115000Y-16935000I35000J0D01*
G01*
X28415000Y-16935000D02*
G75*
G02*
X28345000Y-16935000I-35000J0D01*
G01*
X28345000Y-16935000D02*
G75*
G02*
X28415000Y-16935000I35000J0D01*
G01*
X28715000Y-16935000D02*
G75*
G02*
X28645000Y-16935000I-35000J0D01*
G01*
X28645000Y-16935000D02*
G75*
G02*
X28715000Y-16935000I35000J0D01*
G01*
D13*
X7300000Y-13635000D02*
X7300000Y-13795000D01*
X7220000Y-13715000D02*
X7380000Y-13715000D01*
D12*
X7220000Y-13695000D02*
X7220000Y-13735000D01*
X7380000Y-13735000D02*
G75*
G02*
X7220000Y-13735000I-80000J0D01*
G01*
X7380000Y-13735000D02*
X7380000Y-13695000D01*
X7380000Y-13695000D02*
G75*
G03*
X7220000Y-13695000I-80000J0D01*
G01*
D13*
X7300000Y-15535000D02*
X7300000Y-15695000D01*
X7220000Y-15615000D02*
X7380000Y-15615000D01*
D12*
X7220000Y-15595000D02*
X7220000Y-15635000D01*
X7380000Y-15635000D02*
G75*
G02*
X7220000Y-15635000I-80000J0D01*
G01*
X7380000Y-15635000D02*
X7380000Y-15595000D01*
X7380000Y-15595000D02*
G75*
G03*
X7220000Y-15595000I-80000J0D01*
G01*
D13*
X7300000Y-17435000D02*
X7300000Y-17595000D01*
X7220000Y-17515000D02*
X7380000Y-17515000D01*
D12*
X7220000Y-17495000D02*
X7220000Y-17535000D01*
X7380000Y-17535000D02*
G75*
G02*
X7220000Y-17535000I-80000J0D01*
G01*
X7380000Y-17535000D02*
X7380000Y-17495000D01*
X7380000Y-17495000D02*
G75*
G03*
X7220000Y-17495000I-80000J0D01*
G01*
D13*
X9200000Y-13397500D02*
X9200000Y-13557500D01*
X9120000Y-13477500D02*
X9280000Y-13477500D01*
D12*
X9120000Y-13457500D02*
X9120000Y-13497500D01*
X9280000Y-13497500D02*
G75*
G02*
X9120000Y-13497500I-80000J0D01*
G01*
X9280000Y-13497500D02*
X9280000Y-13457500D01*
X9280000Y-13457500D02*
G75*
G03*
X9120000Y-13457500I-80000J0D01*
G01*
D13*
X9200000Y-15297500D02*
X9200000Y-15457500D01*
X9120000Y-15377500D02*
X9280000Y-15377500D01*
D12*
X9120000Y-15357500D02*
X9120000Y-15397500D01*
X9280000Y-15397500D02*
G75*
G02*
X9120000Y-15397500I-80000J0D01*
G01*
X9280000Y-15397500D02*
X9280000Y-15357500D01*
X9280000Y-15357500D02*
G75*
G03*
X9120000Y-15357500I-80000J0D01*
G01*
D13*
X9200000Y-17197500D02*
X9200000Y-17357500D01*
X9120000Y-17277500D02*
X9280000Y-17277500D01*
D12*
X9120000Y-17257500D02*
X9120000Y-17297500D01*
X9280000Y-17297500D02*
G75*
G02*
X9120000Y-17297500I-80000J0D01*
G01*
X9280000Y-17297500D02*
X9280000Y-17257500D01*
X9280000Y-17257500D02*
G75*
G03*
X9120000Y-17257500I-80000J0D01*
G01*
D13*
X11100000Y-12685000D02*
X11100000Y-12845000D01*
X11020000Y-12765000D02*
X11180000Y-12765000D01*
D12*
X11020000Y-12745000D02*
X11020000Y-12785000D01*
X11180000Y-12785000D02*
G75*
G02*
X11020000Y-12785000I-80000J0D01*
G01*
X11180000Y-12785000D02*
X11180000Y-12745000D01*
X11180000Y-12745000D02*
G75*
G03*
X11020000Y-12745000I-80000J0D01*
G01*
D13*
X11100000Y-14585000D02*
X11100000Y-14745000D01*
X11020000Y-14665000D02*
X11180000Y-14665000D01*
D12*
X11020000Y-14645000D02*
X11020000Y-14685000D01*
X11180000Y-14685000D02*
G75*
G02*
X11020000Y-14685000I-80000J0D01*
G01*
X11180000Y-14685000D02*
X11180000Y-14645000D01*
X11180000Y-14645000D02*
G75*
G03*
X11020000Y-14645000I-80000J0D01*
G01*
D13*
X11100000Y-16485000D02*
X11100000Y-16645000D01*
X11020000Y-16565000D02*
X11180000Y-16565000D01*
D12*
X11020000Y-16545000D02*
X11020000Y-16585000D01*
X11180000Y-16585000D02*
G75*
G02*
X11020000Y-16585000I-80000J0D01*
G01*
X11180000Y-16585000D02*
X11180000Y-16545000D01*
X11180000Y-16545000D02*
G75*
G03*
X11020000Y-16545000I-80000J0D01*
G01*
D13*
X13000000Y-12210000D02*
X13000000Y-12370000D01*
X12920000Y-12290000D02*
X13080000Y-12290000D01*
D12*
X12920000Y-12270000D02*
X12920000Y-12310000D01*
X13080000Y-12310000D02*
G75*
G02*
X12920000Y-12310000I-80000J0D01*
G01*
X13080000Y-12310000D02*
X13080000Y-12270000D01*
X13080000Y-12270000D02*
G75*
G03*
X12920000Y-12270000I-80000J0D01*
G01*
D13*
X13000000Y-14110000D02*
X13000000Y-14270000D01*
X12920000Y-14190000D02*
X13080000Y-14190000D01*
D12*
X12920000Y-14170000D02*
X12920000Y-14210000D01*
X13080000Y-14210000D02*
G75*
G02*
X12920000Y-14210000I-80000J0D01*
G01*
X13080000Y-14210000D02*
X13080000Y-14170000D01*
X13080000Y-14170000D02*
G75*
G03*
X12920000Y-14170000I-80000J0D01*
G01*
D13*
X13000000Y-16010000D02*
X13000000Y-16170000D01*
X12920000Y-16090000D02*
X13080000Y-16090000D01*
D12*
X12920000Y-16070000D02*
X12920000Y-16110000D01*
X13080000Y-16110000D02*
G75*
G02*
X12920000Y-16110000I-80000J0D01*
G01*
X13080000Y-16110000D02*
X13080000Y-16070000D01*
X13080000Y-16070000D02*
G75*
G03*
X12920000Y-16070000I-80000J0D01*
G01*
D13*
X14892000Y-14585000D02*
X14892000Y-14745000D01*
X14812000Y-14665000D02*
X14972000Y-14665000D01*
D12*
X14812000Y-14645000D02*
X14812000Y-14685000D01*
X14972000Y-14685000D02*
G75*
G02*
X14812000Y-14685000I-80000J0D01*
G01*
X14972000Y-14685000D02*
X14972000Y-14645000D01*
X14972000Y-14645000D02*
G75*
G03*
X14812000Y-14645000I-80000J0D01*
G01*
D13*
X14900000Y-12685000D02*
X14900000Y-12845000D01*
X14820000Y-12765000D02*
X14980000Y-12765000D01*
D12*
X14820000Y-12745000D02*
X14820000Y-12785000D01*
X14980000Y-12785000D02*
G75*
G02*
X14820000Y-12785000I-80000J0D01*
G01*
X14980000Y-12785000D02*
X14980000Y-12745000D01*
X14980000Y-12745000D02*
G75*
G03*
X14820000Y-12745000I-80000J0D01*
G01*
D13*
X14900000Y-16485000D02*
X14900000Y-16645000D01*
X14820000Y-16565000D02*
X14980000Y-16565000D01*
D12*
X14820000Y-16545000D02*
X14820000Y-16585000D01*
X14980000Y-16585000D02*
G75*
G02*
X14820000Y-16585000I-80000J0D01*
G01*
X14980000Y-16585000D02*
X14980000Y-16545000D01*
X14980000Y-16545000D02*
G75*
G03*
X14820000Y-16545000I-80000J0D01*
G01*
D13*
X14900000Y-18385000D02*
X14900000Y-18545000D01*
X14820000Y-18465000D02*
X14980000Y-18465000D01*
D12*
X14820000Y-18445000D02*
X14820000Y-18485000D01*
X14980000Y-18485000D02*
G75*
G02*
X14820000Y-18485000I-80000J0D01*
G01*
X14980000Y-18485000D02*
X14980000Y-18445000D01*
X14980000Y-18445000D02*
G75*
G03*
X14820000Y-18445000I-80000J0D01*
G01*
D13*
X16800000Y-12922500D02*
X16800000Y-13082500D01*
X16720000Y-13002500D02*
X16880000Y-13002500D01*
D12*
X16720000Y-12982500D02*
X16720000Y-13022500D01*
X16880000Y-13022500D02*
G75*
G02*
X16720000Y-13022500I-80000J0D01*
G01*
X16880000Y-13022500D02*
X16880000Y-12982500D01*
X16880000Y-12982500D02*
G75*
G03*
X16720000Y-12982500I-80000J0D01*
G01*
D13*
X16800000Y-14822500D02*
X16800000Y-14982500D01*
X16720000Y-14902500D02*
X16880000Y-14902500D01*
D12*
X16720000Y-14882500D02*
X16720000Y-14922500D01*
X16880000Y-14922500D02*
G75*
G02*
X16720000Y-14922500I-80000J0D01*
G01*
X16880000Y-14922500D02*
X16880000Y-14882500D01*
X16880000Y-14882500D02*
G75*
G03*
X16720000Y-14882500I-80000J0D01*
G01*
D13*
X16800000Y-16722500D02*
X16800000Y-16882500D01*
X16720000Y-16802500D02*
X16880000Y-16802500D01*
D12*
X16720000Y-16782500D02*
X16720000Y-16822500D01*
X16880000Y-16822500D02*
G75*
G02*
X16720000Y-16822500I-80000J0D01*
G01*
X16880000Y-16822500D02*
X16880000Y-16782500D01*
X16880000Y-16782500D02*
G75*
G03*
X16720000Y-16782500I-80000J0D01*
G01*
D13*
X16800000Y-18622500D02*
X16800000Y-18782500D01*
X16720000Y-18702500D02*
X16880000Y-18702500D01*
D12*
X16720000Y-18682500D02*
X16720000Y-18722500D01*
X16880000Y-18722500D02*
G75*
G02*
X16720000Y-18722500I-80000J0D01*
G01*
X16880000Y-18722500D02*
X16880000Y-18682500D01*
X16880000Y-18682500D02*
G75*
G03*
X16720000Y-18682500I-80000J0D01*
G01*
D13*
X18700000Y-18860000D02*
X18700000Y-19020000D01*
X18620000Y-18940000D02*
X18780000Y-18940000D01*
D12*
X18620000Y-18920000D02*
X18620000Y-18960000D01*
X18780000Y-18960000D02*
G75*
G02*
X18620000Y-18960000I-80000J0D01*
G01*
X18780000Y-18960000D02*
X18780000Y-18920000D01*
X18780000Y-18920000D02*
G75*
G03*
X18620000Y-18920000I-80000J0D01*
G01*
D13*
X21760000Y-18860000D02*
X21760000Y-19020000D01*
X21680000Y-18940000D02*
X21840000Y-18940000D01*
D12*
X21680000Y-18920000D02*
X21680000Y-18960000D01*
X21840000Y-18960000D02*
G75*
G02*
X21680000Y-18960000I-80000J0D01*
G01*
X21840000Y-18960000D02*
X21840000Y-18920000D01*
X21840000Y-18920000D02*
G75*
G03*
X21680000Y-18920000I-80000J0D01*
G01*
D13*
X23660000Y-12922500D02*
X23660000Y-13082500D01*
X23580000Y-13002500D02*
X23740000Y-13002500D01*
D12*
X23580000Y-12982500D02*
X23580000Y-13022500D01*
X23740000Y-13022500D02*
G75*
G02*
X23580000Y-13022500I-80000J0D01*
G01*
X23740000Y-13022500D02*
X23740000Y-12982500D01*
X23740000Y-12982500D02*
G75*
G03*
X23580000Y-12982500I-80000J0D01*
G01*
D13*
X23660000Y-14822500D02*
X23660000Y-14982500D01*
X23580000Y-14902500D02*
X23740000Y-14902500D01*
D12*
X23580000Y-14882500D02*
X23580000Y-14922500D01*
X23740000Y-14922500D02*
G75*
G02*
X23580000Y-14922500I-80000J0D01*
G01*
X23740000Y-14922500D02*
X23740000Y-14882500D01*
X23740000Y-14882500D02*
G75*
G03*
X23580000Y-14882500I-80000J0D01*
G01*
D13*
X23660000Y-16722500D02*
X23660000Y-16882500D01*
X23580000Y-16802500D02*
X23740000Y-16802500D01*
D12*
X23580000Y-16782500D02*
X23580000Y-16822500D01*
X23740000Y-16822500D02*
G75*
G02*
X23580000Y-16822500I-80000J0D01*
G01*
X23740000Y-16822500D02*
X23740000Y-16782500D01*
X23740000Y-16782500D02*
G75*
G03*
X23580000Y-16782500I-80000J0D01*
G01*
D13*
X23660000Y-18622500D02*
X23660000Y-18782500D01*
X23580000Y-18702500D02*
X23740000Y-18702500D01*
D12*
X23580000Y-18682500D02*
X23580000Y-18722500D01*
X23740000Y-18722500D02*
G75*
G02*
X23580000Y-18722500I-80000J0D01*
G01*
X23740000Y-18722500D02*
X23740000Y-18682500D01*
X23740000Y-18682500D02*
G75*
G03*
X23580000Y-18682500I-80000J0D01*
G01*
D13*
X25560000Y-12685000D02*
X25560000Y-12845000D01*
X25480000Y-12765000D02*
X25640000Y-12765000D01*
D12*
X25480000Y-12745000D02*
X25480000Y-12785000D01*
X25640000Y-12785000D02*
G75*
G02*
X25480000Y-12785000I-80000J0D01*
G01*
X25640000Y-12785000D02*
X25640000Y-12745000D01*
X25640000Y-12745000D02*
G75*
G03*
X25480000Y-12745000I-80000J0D01*
G01*
D13*
X25560000Y-14585000D02*
X25560000Y-14745000D01*
X25480000Y-14665000D02*
X25640000Y-14665000D01*
D12*
X25480000Y-14645000D02*
X25480000Y-14685000D01*
X25640000Y-14685000D02*
G75*
G02*
X25480000Y-14685000I-80000J0D01*
G01*
X25640000Y-14685000D02*
X25640000Y-14645000D01*
X25640000Y-14645000D02*
G75*
G03*
X25480000Y-14645000I-80000J0D01*
G01*
D13*
X25560000Y-16485000D02*
X25560000Y-16645000D01*
X25480000Y-16565000D02*
X25640000Y-16565000D01*
D12*
X25480000Y-16545000D02*
X25480000Y-16585000D01*
X25640000Y-16585000D02*
G75*
G02*
X25480000Y-16585000I-80000J0D01*
G01*
X25640000Y-16585000D02*
X25640000Y-16545000D01*
X25640000Y-16545000D02*
G75*
G03*
X25480000Y-16545000I-80000J0D01*
G01*
D13*
X25560000Y-18385000D02*
X25560000Y-18545000D01*
X25480000Y-18465000D02*
X25640000Y-18465000D01*
D12*
X25480000Y-18445000D02*
X25480000Y-18485000D01*
X25640000Y-18485000D02*
G75*
G02*
X25480000Y-18485000I-80000J0D01*
G01*
X25640000Y-18485000D02*
X25640000Y-18445000D01*
X25640000Y-18445000D02*
G75*
G03*
X25480000Y-18445000I-80000J0D01*
G01*
D13*
X27460000Y-12210000D02*
X27460000Y-12370000D01*
X27380000Y-12290000D02*
X27540000Y-12290000D01*
D12*
X27380000Y-12270000D02*
X27380000Y-12310000D01*
X27540000Y-12310000D02*
G75*
G02*
X27380000Y-12310000I-80000J0D01*
G01*
X27540000Y-12310000D02*
X27540000Y-12270000D01*
X27540000Y-12270000D02*
G75*
G03*
X27380000Y-12270000I-80000J0D01*
G01*
D13*
X27460000Y-14110000D02*
X27460000Y-14270000D01*
X27380000Y-14190000D02*
X27540000Y-14190000D01*
D12*
X27380000Y-14170000D02*
X27380000Y-14210000D01*
X27540000Y-14210000D02*
G75*
G02*
X27380000Y-14210000I-80000J0D01*
G01*
X27540000Y-14210000D02*
X27540000Y-14170000D01*
X27540000Y-14170000D02*
G75*
G03*
X27380000Y-14170000I-80000J0D01*
G01*
D13*
X27460000Y-16010000D02*
X27460000Y-16170000D01*
X27380000Y-16090000D02*
X27540000Y-16090000D01*
D12*
X27380000Y-16070000D02*
X27380000Y-16110000D01*
X27540000Y-16110000D02*
G75*
G02*
X27380000Y-16110000I-80000J0D01*
G01*
X27540000Y-16110000D02*
X27540000Y-16070000D01*
X27540000Y-16070000D02*
G75*
G03*
X27380000Y-16070000I-80000J0D01*
G01*
D13*
X29360000Y-12685000D02*
X29360000Y-12845000D01*
X29280000Y-12765000D02*
X29440000Y-12765000D01*
D12*
X29280000Y-12745000D02*
X29280000Y-12785000D01*
X29440000Y-12785000D02*
G75*
G02*
X29280000Y-12785000I-80000J0D01*
G01*
X29440000Y-12785000D02*
X29440000Y-12745000D01*
X29440000Y-12745000D02*
G75*
G03*
X29280000Y-12745000I-80000J0D01*
G01*
D13*
X29360000Y-14585000D02*
X29360000Y-14745000D01*
X29280000Y-14665000D02*
X29440000Y-14665000D01*
D12*
X29280000Y-14645000D02*
X29280000Y-14685000D01*
X29440000Y-14685000D02*
G75*
G02*
X29280000Y-14685000I-80000J0D01*
G01*
X29440000Y-14685000D02*
X29440000Y-14645000D01*
X29440000Y-14645000D02*
G75*
G03*
X29280000Y-14645000I-80000J0D01*
G01*
D13*
X29360000Y-16485000D02*
X29360000Y-16645000D01*
X29280000Y-16565000D02*
X29440000Y-16565000D01*
D12*
X29280000Y-16545000D02*
X29280000Y-16585000D01*
X29440000Y-16585000D02*
G75*
G02*
X29280000Y-16585000I-80000J0D01*
G01*
X29440000Y-16585000D02*
X29440000Y-16545000D01*
X29440000Y-16545000D02*
G75*
G03*
X29280000Y-16545000I-80000J0D01*
G01*
D13*
X31260000Y-13397500D02*
X31260000Y-13557500D01*
X31180000Y-13477500D02*
X31340000Y-13477500D01*
D12*
X31180000Y-13457500D02*
X31180000Y-13497500D01*
X31340000Y-13497500D02*
G75*
G02*
X31180000Y-13497500I-80000J0D01*
G01*
X31340000Y-13497500D02*
X31340000Y-13457500D01*
X31340000Y-13457500D02*
G75*
G03*
X31180000Y-13457500I-80000J0D01*
G01*
D13*
X31260000Y-15297500D02*
X31260000Y-15457500D01*
X31180000Y-15377500D02*
X31340000Y-15377500D01*
D12*
X31180000Y-15357500D02*
X31180000Y-15397500D01*
X31340000Y-15397500D02*
G75*
G02*
X31180000Y-15397500I-80000J0D01*
G01*
X31340000Y-15397500D02*
X31340000Y-15357500D01*
X31340000Y-15357500D02*
G75*
G03*
X31180000Y-15357500I-80000J0D01*
G01*
D13*
X31260000Y-17197500D02*
X31260000Y-17357500D01*
X31180000Y-17277500D02*
X31340000Y-17277500D01*
D12*
X31180000Y-17257500D02*
X31180000Y-17297500D01*
X31340000Y-17297500D02*
G75*
G02*
X31180000Y-17297500I-80000J0D01*
G01*
X31340000Y-17297500D02*
X31340000Y-17257500D01*
X31340000Y-17257500D02*
G75*
G03*
X31180000Y-17257500I-80000J0D01*
G01*
D13*
X33160000Y-13635000D02*
X33160000Y-13795000D01*
X33080000Y-13715000D02*
X33240000Y-13715000D01*
D12*
X33080000Y-13695000D02*
X33080000Y-13735000D01*
X33240000Y-13735000D02*
G75*
G02*
X33080000Y-13735000I-80000J0D01*
G01*
X33240000Y-13735000D02*
X33240000Y-13695000D01*
X33240000Y-13695000D02*
G75*
G03*
X33080000Y-13695000I-80000J0D01*
G01*
D13*
X33160000Y-15535000D02*
X33160000Y-15695000D01*
X33080000Y-15615000D02*
X33240000Y-15615000D01*
D12*
X33080000Y-15595000D02*
X33080000Y-15635000D01*
X33240000Y-15635000D02*
G75*
G02*
X33080000Y-15635000I-80000J0D01*
G01*
X33240000Y-15635000D02*
X33240000Y-15595000D01*
X33240000Y-15595000D02*
G75*
G03*
X33080000Y-15595000I-80000J0D01*
G01*
D13*
X33160000Y-17435000D02*
X33160000Y-17595000D01*
X33080000Y-17515000D02*
X33240000Y-17515000D01*
D12*
X33080000Y-17495000D02*
X33080000Y-17535000D01*
X33240000Y-17535000D02*
G75*
G02*
X33080000Y-17535000I-80000J0D01*
G01*
X33240000Y-17535000D02*
X33240000Y-17495000D01*
X33240000Y-17495000D02*
G75*
G03*
X33080000Y-17495000I-80000J0D01*
G01*
D14*
X7310168Y-13260168D02*
X7310168Y-13139832D01*
X7189832Y-13139832D01*
X7189832Y-13260168D01*
X7310168Y-13260168D01*
X7310168Y-15160168D02*
X7310168Y-15039832D01*
X7189832Y-15039832D01*
X7189832Y-15160168D01*
X7310168Y-15160168D01*
X7310168Y-17060168D02*
X7310168Y-16939832D01*
X7189832Y-16939832D01*
X7189832Y-17060168D01*
X7310168Y-17060168D01*
X8410168Y-13260168D02*
X8410168Y-13139832D01*
X8289832Y-13139832D01*
X8289832Y-13260168D01*
X8410168Y-13260168D01*
X8410168Y-15160168D02*
X8410168Y-15039832D01*
X8289832Y-15039832D01*
X8289832Y-15160168D01*
X8410168Y-15160168D01*
X8410168Y-17060168D02*
X8410168Y-16939832D01*
X8289832Y-16939832D01*
X8289832Y-17060168D01*
X8410168Y-17060168D01*
X9210168Y-13022668D02*
X9210168Y-12902332D01*
X9089832Y-12902332D01*
X9089832Y-13022668D01*
X9210168Y-13022668D01*
X9210168Y-14922668D02*
X9210168Y-14802332D01*
X9089832Y-14802332D01*
X9089832Y-14922668D01*
X9210168Y-14922668D01*
X9210168Y-16822668D02*
X9210168Y-16702332D01*
X9089832Y-16702332D01*
X9089832Y-16822668D01*
X9210168Y-16822668D01*
X10310168Y-13022668D02*
X10310168Y-12902332D01*
X10189832Y-12902332D01*
X10189832Y-13022668D01*
X10310168Y-13022668D01*
X10310168Y-14922668D02*
X10310168Y-14802332D01*
X10189832Y-14802332D01*
X10189832Y-14922668D01*
X10310168Y-14922668D01*
X10310168Y-16822668D02*
X10310168Y-16702332D01*
X10189832Y-16702332D01*
X10189832Y-16822668D01*
X10310168Y-16822668D01*
X11110168Y-12310168D02*
X11110168Y-12189832D01*
X10989832Y-12189832D01*
X10989832Y-12310168D01*
X11110168Y-12310168D01*
X11110168Y-14210168D02*
X11110168Y-14089832D01*
X10989832Y-14089832D01*
X10989832Y-14210168D01*
X11110168Y-14210168D01*
X11110168Y-16110168D02*
X11110168Y-15989832D01*
X10989832Y-15989832D01*
X10989832Y-16110168D01*
X11110168Y-16110168D01*
X12210168Y-12310168D02*
X12210168Y-12189832D01*
X12089832Y-12189832D01*
X12089832Y-12310168D01*
X12210168Y-12310168D01*
X12210168Y-14210168D02*
X12210168Y-14089832D01*
X12089832Y-14089832D01*
X12089832Y-14210168D01*
X12210168Y-14210168D01*
X12210168Y-16110168D02*
X12210168Y-15989832D01*
X12089832Y-15989832D01*
X12089832Y-16110168D01*
X12210168Y-16110168D01*
X13010168Y-11835168D02*
X13010168Y-11714832D01*
X12889832Y-11714832D01*
X12889832Y-11835168D01*
X13010168Y-11835168D01*
X13010168Y-13735168D02*
X13010168Y-13614832D01*
X12889832Y-13614832D01*
X12889832Y-13735168D01*
X13010168Y-13735168D01*
X13010168Y-15635168D02*
X13010168Y-15514832D01*
X12889832Y-15514832D01*
X12889832Y-15635168D01*
X13010168Y-15635168D01*
X14110168Y-11835168D02*
X14110168Y-11714832D01*
X13989832Y-11714832D01*
X13989832Y-11835168D01*
X14110168Y-11835168D01*
X14110168Y-13735168D02*
X14110168Y-13614832D01*
X13989832Y-13614832D01*
X13989832Y-13735168D01*
X14110168Y-13735168D01*
X14110168Y-15635168D02*
X14110168Y-15514832D01*
X13989832Y-15514832D01*
X13989832Y-15635168D01*
X14110168Y-15635168D01*
X14902168Y-14210168D02*
X14902168Y-14089832D01*
X14781832Y-14089832D01*
X14781832Y-14210168D01*
X14902168Y-14210168D01*
X14910168Y-12310168D02*
X14910168Y-12189832D01*
X14789832Y-12189832D01*
X14789832Y-12310168D01*
X14910168Y-12310168D01*
X14910168Y-16110168D02*
X14910168Y-15989832D01*
X14789832Y-15989832D01*
X14789832Y-16110168D01*
X14910168Y-16110168D01*
X14910168Y-18010168D02*
X14910168Y-17889832D01*
X14789832Y-17889832D01*
X14789832Y-18010168D01*
X14910168Y-18010168D01*
X16002168Y-14210168D02*
X16002168Y-14089832D01*
X15881832Y-14089832D01*
X15881832Y-14210168D01*
X16002168Y-14210168D01*
X16010168Y-12310168D02*
X16010168Y-12189832D01*
X15889832Y-12189832D01*
X15889832Y-12310168D01*
X16010168Y-12310168D01*
X16010168Y-16110168D02*
X16010168Y-15989832D01*
X15889832Y-15989832D01*
X15889832Y-16110168D01*
X16010168Y-16110168D01*
X16010168Y-18010168D02*
X16010168Y-17889832D01*
X15889832Y-17889832D01*
X15889832Y-18010168D01*
X16010168Y-18010168D01*
X16810168Y-12547668D02*
X16810168Y-12427332D01*
X16689832Y-12427332D01*
X16689832Y-12547668D01*
X16810168Y-12547668D01*
X16810168Y-14447668D02*
X16810168Y-14327332D01*
X16689832Y-14327332D01*
X16689832Y-14447668D01*
X16810168Y-14447668D01*
X16810168Y-16347668D02*
X16810168Y-16227332D01*
X16689832Y-16227332D01*
X16689832Y-16347668D01*
X16810168Y-16347668D01*
X16810168Y-18247668D02*
X16810168Y-18127332D01*
X16689832Y-18127332D01*
X16689832Y-18247668D01*
X16810168Y-18247668D01*
X17910168Y-12547668D02*
X17910168Y-12427332D01*
X17789832Y-12427332D01*
X17789832Y-12547668D01*
X17910168Y-12547668D01*
X17910168Y-14447668D02*
X17910168Y-14327332D01*
X17789832Y-14327332D01*
X17789832Y-14447668D01*
X17910168Y-14447668D01*
X17910168Y-16347668D02*
X17910168Y-16227332D01*
X17789832Y-16227332D01*
X17789832Y-16347668D01*
X17910168Y-16347668D01*
X17910168Y-18247668D02*
X17910168Y-18127332D01*
X17789832Y-18127332D01*
X17789832Y-18247668D01*
X17910168Y-18247668D01*
X18710168Y-18485168D02*
X18710168Y-18364832D01*
X18589832Y-18364832D01*
X18589832Y-18485168D01*
X18710168Y-18485168D01*
X19810168Y-18485168D02*
X19810168Y-18364832D01*
X19689832Y-18364832D01*
X19689832Y-18485168D01*
X19810168Y-18485168D01*
X21770168Y-18485168D02*
X21770168Y-18364832D01*
X21649832Y-18364832D01*
X21649832Y-18485168D01*
X21770168Y-18485168D01*
X22870168Y-18485168D02*
X22870168Y-18364832D01*
X22749832Y-18364832D01*
X22749832Y-18485168D01*
X22870168Y-18485168D01*
X23670168Y-12547668D02*
X23670168Y-12427332D01*
X23549832Y-12427332D01*
X23549832Y-12547668D01*
X23670168Y-12547668D01*
X23670168Y-14447668D02*
X23670168Y-14327332D01*
X23549832Y-14327332D01*
X23549832Y-14447668D01*
X23670168Y-14447668D01*
X23670168Y-16347668D02*
X23670168Y-16227332D01*
X23549832Y-16227332D01*
X23549832Y-16347668D01*
X23670168Y-16347668D01*
X23670168Y-18247668D02*
X23670168Y-18127332D01*
X23549832Y-18127332D01*
X23549832Y-18247668D01*
X23670168Y-18247668D01*
X24770168Y-12547668D02*
X24770168Y-12427332D01*
X24649832Y-12427332D01*
X24649832Y-12547668D01*
X24770168Y-12547668D01*
X24770168Y-14447668D02*
X24770168Y-14327332D01*
X24649832Y-14327332D01*
X24649832Y-14447668D01*
X24770168Y-14447668D01*
X24770168Y-16347668D02*
X24770168Y-16227332D01*
X24649832Y-16227332D01*
X24649832Y-16347668D01*
X24770168Y-16347668D01*
X24770168Y-18247668D02*
X24770168Y-18127332D01*
X24649832Y-18127332D01*
X24649832Y-18247668D01*
X24770168Y-18247668D01*
X25570168Y-12310168D02*
X25570168Y-12189832D01*
X25449832Y-12189832D01*
X25449832Y-12310168D01*
X25570168Y-12310168D01*
X25570168Y-14210168D02*
X25570168Y-14089832D01*
X25449832Y-14089832D01*
X25449832Y-14210168D01*
X25570168Y-14210168D01*
X25570168Y-16110168D02*
X25570168Y-15989832D01*
X25449832Y-15989832D01*
X25449832Y-16110168D01*
X25570168Y-16110168D01*
X25570168Y-18010168D02*
X25570168Y-17889832D01*
X25449832Y-17889832D01*
X25449832Y-18010168D01*
X25570168Y-18010168D01*
X26670168Y-12310168D02*
X26670168Y-12189832D01*
X26549832Y-12189832D01*
X26549832Y-12310168D01*
X26670168Y-12310168D01*
X26670168Y-14210168D02*
X26670168Y-14089832D01*
X26549832Y-14089832D01*
X26549832Y-14210168D01*
X26670168Y-14210168D01*
X26670168Y-16110168D02*
X26670168Y-15989832D01*
X26549832Y-15989832D01*
X26549832Y-16110168D01*
X26670168Y-16110168D01*
X26670168Y-18010168D02*
X26670168Y-17889832D01*
X26549832Y-17889832D01*
X26549832Y-18010168D01*
X26670168Y-18010168D01*
X27470168Y-11835168D02*
X27470168Y-11714832D01*
X27349832Y-11714832D01*
X27349832Y-11835168D01*
X27470168Y-11835168D01*
X27470168Y-13735168D02*
X27470168Y-13614832D01*
X27349832Y-13614832D01*
X27349832Y-13735168D01*
X27470168Y-13735168D01*
X27470168Y-15635168D02*
X27470168Y-15514832D01*
X27349832Y-15514832D01*
X27349832Y-15635168D01*
X27470168Y-15635168D01*
X28570168Y-11835168D02*
X28570168Y-11714832D01*
X28449832Y-11714832D01*
X28449832Y-11835168D01*
X28570168Y-11835168D01*
X28570168Y-13735168D02*
X28570168Y-13614832D01*
X28449832Y-13614832D01*
X28449832Y-13735168D01*
X28570168Y-13735168D01*
X28570168Y-15635168D02*
X28570168Y-15514832D01*
X28449832Y-15514832D01*
X28449832Y-15635168D01*
X28570168Y-15635168D01*
X29370168Y-12310168D02*
X29370168Y-12189832D01*
X29249832Y-12189832D01*
X29249832Y-12310168D01*
X29370168Y-12310168D01*
X29370168Y-14210168D02*
X29370168Y-14089832D01*
X29249832Y-14089832D01*
X29249832Y-14210168D01*
X29370168Y-14210168D01*
X29370168Y-16110168D02*
X29370168Y-15989832D01*
X29249832Y-15989832D01*
X29249832Y-16110168D01*
X29370168Y-16110168D01*
X30470168Y-12310168D02*
X30470168Y-12189832D01*
X30349832Y-12189832D01*
X30349832Y-12310168D01*
X30470168Y-12310168D01*
X30470168Y-14210168D02*
X30470168Y-14089832D01*
X30349832Y-14089832D01*
X30349832Y-14210168D01*
X30470168Y-14210168D01*
X30470168Y-16110168D02*
X30470168Y-15989832D01*
X30349832Y-15989832D01*
X30349832Y-16110168D01*
X30470168Y-16110168D01*
X31270168Y-13022668D02*
X31270168Y-12902332D01*
X31149832Y-12902332D01*
X31149832Y-13022668D01*
X31270168Y-13022668D01*
X31270168Y-14922668D02*
X31270168Y-14802332D01*
X31149832Y-14802332D01*
X31149832Y-14922668D01*
X31270168Y-14922668D01*
X31270168Y-16822668D02*
X31270168Y-16702332D01*
X31149832Y-16702332D01*
X31149832Y-16822668D01*
X31270168Y-16822668D01*
X32370168Y-13022668D02*
X32370168Y-12902332D01*
X32249832Y-12902332D01*
X32249832Y-13022668D01*
X32370168Y-13022668D01*
X32370168Y-14922668D02*
X32370168Y-14802332D01*
X32249832Y-14802332D01*
X32249832Y-14922668D01*
X32370168Y-14922668D01*
X32370168Y-16822668D02*
X32370168Y-16702332D01*
X32249832Y-16702332D01*
X32249832Y-16822668D01*
X32370168Y-16822668D01*
X33170168Y-13260168D02*
X33170168Y-13139832D01*
X33049832Y-13139832D01*
X33049832Y-13260168D01*
X33170168Y-13260168D01*
X33170168Y-15160168D02*
X33170168Y-15039832D01*
X33049832Y-15039832D01*
X33049832Y-15160168D01*
X33170168Y-15160168D01*
X33170168Y-17060168D02*
X33170168Y-16939832D01*
X33049832Y-16939832D01*
X33049832Y-17060168D01*
X33170168Y-17060168D01*
X34270168Y-13260168D02*
X34270168Y-13139832D01*
X34149832Y-13139832D01*
X34149832Y-13260168D01*
X34270168Y-13260168D01*
X34270168Y-15160168D02*
X34270168Y-15039832D01*
X34149832Y-15039832D01*
X34149832Y-15160168D01*
X34270168Y-15160168D01*
X34270168Y-17060168D02*
X34270168Y-16939832D01*
X34149832Y-16939832D01*
X34149832Y-17060168D01*
X34270168Y-17060168D01*
D15*
X7800000Y-12760500D02*
X7950500Y-12610000D01*
X7800000Y-12459500D01*
X7649500Y-12610000D01*
X7800000Y-12760500D01*
X7800000Y-14660500D02*
X7950500Y-14510000D01*
X7800000Y-14359500D01*
X7649500Y-14510000D01*
X7800000Y-14660500D01*
X7800000Y-16560500D02*
X7950500Y-16410000D01*
X7800000Y-16259500D01*
X7649500Y-16410000D01*
X7800000Y-16560500D01*
X8300000Y-12970500D02*
X8450500Y-12820000D01*
X8300000Y-12669500D01*
X8149500Y-12820000D01*
X8300000Y-12970500D01*
X8300000Y-14870500D02*
X8450500Y-14720000D01*
X8300000Y-14569500D01*
X8149500Y-14720000D01*
X8300000Y-14870500D01*
X8300000Y-16770500D02*
X8450500Y-16620000D01*
X8300000Y-16469500D01*
X8149500Y-16620000D01*
X8300000Y-16770500D01*
X9700000Y-12523000D02*
X9850500Y-12372500D01*
X9700000Y-12222000D01*
X9549500Y-12372500D01*
X9700000Y-12523000D01*
X9700000Y-14423000D02*
X9850500Y-14272500D01*
X9700000Y-14122000D01*
X9549500Y-14272500D01*
X9700000Y-14423000D01*
X9700000Y-16323000D02*
X9850500Y-16172500D01*
X9700000Y-16022000D01*
X9549500Y-16172500D01*
X9700000Y-16323000D01*
X10200000Y-12733000D02*
X10350500Y-12582500D01*
X10200000Y-12432000D01*
X10049500Y-12582500D01*
X10200000Y-12733000D01*
X10200000Y-14633000D02*
X10350500Y-14482500D01*
X10200000Y-14332000D01*
X10049500Y-14482500D01*
X10200000Y-14633000D01*
X10200000Y-16533000D02*
X10350500Y-16382500D01*
X10200000Y-16232000D01*
X10049500Y-16382500D01*
X10200000Y-16533000D01*
X11600000Y-11810500D02*
X11750500Y-11660000D01*
X11600000Y-11509500D01*
X11449500Y-11660000D01*
X11600000Y-11810500D01*
X11600000Y-13710500D02*
X11750500Y-13560000D01*
X11600000Y-13409500D01*
X11449500Y-13560000D01*
X11600000Y-13710500D01*
X11600000Y-15610500D02*
X11750500Y-15460000D01*
X11600000Y-15309500D01*
X11449500Y-15460000D01*
X11600000Y-15610500D01*
X12100000Y-12020500D02*
X12250500Y-11870000D01*
X12100000Y-11719500D01*
X11949500Y-11870000D01*
X12100000Y-12020500D01*
X12100000Y-13920500D02*
X12250500Y-13770000D01*
X12100000Y-13619500D01*
X11949500Y-13770000D01*
X12100000Y-13920500D01*
X12100000Y-15820500D02*
X12250500Y-15670000D01*
X12100000Y-15519500D01*
X11949500Y-15670000D01*
X12100000Y-15820500D01*
X13500000Y-11335500D02*
X13650500Y-11185000D01*
X13500000Y-11034500D01*
X13349500Y-11185000D01*
X13500000Y-11335500D01*
X13500000Y-13235500D02*
X13650500Y-13085000D01*
X13500000Y-12934500D01*
X13349500Y-13085000D01*
X13500000Y-13235500D01*
X13500000Y-15135500D02*
X13650500Y-14985000D01*
X13500000Y-14834500D01*
X13349500Y-14985000D01*
X13500000Y-15135500D01*
X14000000Y-11545500D02*
X14150500Y-11395000D01*
X14000000Y-11244500D01*
X13849500Y-11395000D01*
X14000000Y-11545500D01*
X14000000Y-13445500D02*
X14150500Y-13295000D01*
X14000000Y-13144500D01*
X13849500Y-13295000D01*
X14000000Y-13445500D01*
X14000000Y-15345500D02*
X14150500Y-15195000D01*
X14000000Y-15044500D01*
X13849500Y-15195000D01*
X14000000Y-15345500D01*
X15392000Y-13710500D02*
X15542500Y-13560000D01*
X15392000Y-13409500D01*
X15241500Y-13560000D01*
X15392000Y-13710500D01*
X15400000Y-11810500D02*
X15550500Y-11660000D01*
X15400000Y-11509500D01*
X15249500Y-11660000D01*
X15400000Y-11810500D01*
X15400000Y-15610500D02*
X15550500Y-15460000D01*
X15400000Y-15309500D01*
X15249500Y-15460000D01*
X15400000Y-15610500D01*
X15400000Y-17510500D02*
X15550500Y-17360000D01*
X15400000Y-17209500D01*
X15249500Y-17360000D01*
X15400000Y-17510500D01*
X15892000Y-13920500D02*
X16042500Y-13770000D01*
X15892000Y-13619500D01*
X15741500Y-13770000D01*
X15892000Y-13920500D01*
X15900000Y-12020500D02*
X16050500Y-11870000D01*
X15900000Y-11719500D01*
X15749500Y-11870000D01*
X15900000Y-12020500D01*
X15900000Y-15820500D02*
X16050500Y-15670000D01*
X15900000Y-15519500D01*
X15749500Y-15670000D01*
X15900000Y-15820500D01*
X15900000Y-17720500D02*
X16050500Y-17570000D01*
X15900000Y-17419500D01*
X15749500Y-17570000D01*
X15900000Y-17720500D01*
X17300000Y-12048000D02*
X17450500Y-11897500D01*
X17300000Y-11747000D01*
X17149500Y-11897500D01*
X17300000Y-12048000D01*
X17300000Y-13948000D02*
X17450500Y-13797500D01*
X17300000Y-13647000D01*
X17149500Y-13797500D01*
X17300000Y-13948000D01*
X17300000Y-15848000D02*
X17450500Y-15697500D01*
X17300000Y-15547000D01*
X17149500Y-15697500D01*
X17300000Y-15848000D01*
X17300000Y-17748000D02*
X17450500Y-17597500D01*
X17300000Y-17447000D01*
X17149500Y-17597500D01*
X17300000Y-17748000D01*
X17800000Y-12258000D02*
X17950500Y-12107500D01*
X17800000Y-11957000D01*
X17649500Y-12107500D01*
X17800000Y-12258000D01*
X17800000Y-14158000D02*
X17950500Y-14007500D01*
X17800000Y-13857000D01*
X17649500Y-14007500D01*
X17800000Y-14158000D01*
X17800000Y-16058000D02*
X17950500Y-15907500D01*
X17800000Y-15757000D01*
X17649500Y-15907500D01*
X17800000Y-16058000D01*
X17800000Y-17958000D02*
X17950500Y-17807500D01*
X17800000Y-17657000D01*
X17649500Y-17807500D01*
X17800000Y-17958000D01*
X19200000Y-17985500D02*
X19350500Y-17835000D01*
X19200000Y-17684500D01*
X19049500Y-17835000D01*
X19200000Y-17985500D01*
X19700000Y-18195500D02*
X19850500Y-18045000D01*
X19700000Y-17894500D01*
X19549500Y-18045000D01*
X19700000Y-18195500D01*
X22260000Y-17985500D02*
X22410500Y-17835000D01*
X22260000Y-17684500D01*
X22109500Y-17835000D01*
X22260000Y-17985500D01*
X22760000Y-18195500D02*
X22910500Y-18045000D01*
X22760000Y-17894500D01*
X22609500Y-18045000D01*
X22760000Y-18195500D01*
X24160000Y-12048000D02*
X24310500Y-11897500D01*
X24160000Y-11747000D01*
X24009500Y-11897500D01*
X24160000Y-12048000D01*
X24160000Y-13948000D02*
X24310500Y-13797500D01*
X24160000Y-13647000D01*
X24009500Y-13797500D01*
X24160000Y-13948000D01*
X24160000Y-15848000D02*
X24310500Y-15697500D01*
X24160000Y-15547000D01*
X24009500Y-15697500D01*
X24160000Y-15848000D01*
X24160000Y-17748000D02*
X24310500Y-17597500D01*
X24160000Y-17447000D01*
X24009500Y-17597500D01*
X24160000Y-17748000D01*
X24660000Y-12258000D02*
X24810500Y-12107500D01*
X24660000Y-11957000D01*
X24509500Y-12107500D01*
X24660000Y-12258000D01*
X24660000Y-14158000D02*
X24810500Y-14007500D01*
X24660000Y-13857000D01*
X24509500Y-14007500D01*
X24660000Y-14158000D01*
X24660000Y-16058000D02*
X24810500Y-15907500D01*
X24660000Y-15757000D01*
X24509500Y-15907500D01*
X24660000Y-16058000D01*
X24660000Y-17958000D02*
X24810500Y-17807500D01*
X24660000Y-17657000D01*
X24509500Y-17807500D01*
X24660000Y-17958000D01*
X26060000Y-11810500D02*
X26210500Y-11660000D01*
X26060000Y-11509500D01*
X25909500Y-11660000D01*
X26060000Y-11810500D01*
X26060000Y-13710500D02*
X26210500Y-13560000D01*
X26060000Y-13409500D01*
X25909500Y-13560000D01*
X26060000Y-13710500D01*
X26060000Y-15610500D02*
X26210500Y-15460000D01*
X26060000Y-15309500D01*
X25909500Y-15460000D01*
X26060000Y-15610500D01*
X26060000Y-17510500D02*
X26210500Y-17360000D01*
X26060000Y-17209500D01*
X25909500Y-17360000D01*
X26060000Y-17510500D01*
X26560000Y-12020500D02*
X26710500Y-11870000D01*
X26560000Y-11719500D01*
X26409500Y-11870000D01*
X26560000Y-12020500D01*
X26560000Y-13920500D02*
X26710500Y-13770000D01*
X26560000Y-13619500D01*
X26409500Y-13770000D01*
X26560000Y-13920500D01*
X26560000Y-15820500D02*
X26710500Y-15670000D01*
X26560000Y-15519500D01*
X26409500Y-15670000D01*
X26560000Y-15820500D01*
X26560000Y-17720500D02*
X26710500Y-17570000D01*
X26560000Y-17419500D01*
X26409500Y-17570000D01*
X26560000Y-17720500D01*
X27960000Y-11335500D02*
X28110500Y-11185000D01*
X27960000Y-11034500D01*
X27809500Y-11185000D01*
X27960000Y-11335500D01*
X27960000Y-13235500D02*
X28110500Y-13085000D01*
X27960000Y-12934500D01*
X27809500Y-13085000D01*
X27960000Y-13235500D01*
X27960000Y-15135500D02*
X28110500Y-14985000D01*
X27960000Y-14834500D01*
X27809500Y-14985000D01*
X27960000Y-15135500D01*
X28460000Y-11545500D02*
X28610500Y-11395000D01*
X28460000Y-11244500D01*
X28309500Y-11395000D01*
X28460000Y-11545500D01*
X28460000Y-13445500D02*
X28610500Y-13295000D01*
X28460000Y-13144500D01*
X28309500Y-13295000D01*
X28460000Y-13445500D01*
X28460000Y-15345500D02*
X28610500Y-15195000D01*
X28460000Y-15044500D01*
X28309500Y-15195000D01*
X28460000Y-15345500D01*
X29860000Y-11810500D02*
X30010500Y-11660000D01*
X29860000Y-11509500D01*
X29709500Y-11660000D01*
X29860000Y-11810500D01*
X29860000Y-13710500D02*
X30010500Y-13560000D01*
X29860000Y-13409500D01*
X29709500Y-13560000D01*
X29860000Y-13710500D01*
X29860000Y-15610500D02*
X30010500Y-15460000D01*
X29860000Y-15309500D01*
X29709500Y-15460000D01*
X29860000Y-15610500D01*
X30360000Y-12020500D02*
X30510500Y-11870000D01*
X30360000Y-11719500D01*
X30209500Y-11870000D01*
X30360000Y-12020500D01*
X30360000Y-13920500D02*
X30510500Y-13770000D01*
X30360000Y-13619500D01*
X30209500Y-13770000D01*
X30360000Y-13920500D01*
X30360000Y-15820500D02*
X30510500Y-15670000D01*
X30360000Y-15519500D01*
X30209500Y-15670000D01*
X30360000Y-15820500D01*
X31760000Y-12523000D02*
X31910500Y-12372500D01*
X31760000Y-12222000D01*
X31609500Y-12372500D01*
X31760000Y-12523000D01*
X31760000Y-14423000D02*
X31910500Y-14272500D01*
X31760000Y-14122000D01*
X31609500Y-14272500D01*
X31760000Y-14423000D01*
X31760000Y-16323000D02*
X31910500Y-16172500D01*
X31760000Y-16022000D01*
X31609500Y-16172500D01*
X31760000Y-16323000D01*
X32260000Y-12733000D02*
X32410500Y-12582500D01*
X32260000Y-12432000D01*
X32109500Y-12582500D01*
X32260000Y-12733000D01*
X32260000Y-14633000D02*
X32410500Y-14482500D01*
X32260000Y-14332000D01*
X32109500Y-14482500D01*
X32260000Y-14633000D01*
X32260000Y-16533000D02*
X32410500Y-16382500D01*
X32260000Y-16232000D01*
X32109500Y-16382500D01*
X32260000Y-16533000D01*
X33660000Y-12760500D02*
X33810500Y-12610000D01*
X33660000Y-12459500D01*
X33509500Y-12610000D01*
X33660000Y-12760500D01*
X33660000Y-14660500D02*
X33810500Y-14510000D01*
X33660000Y-14359500D01*
X33509500Y-14510000D01*
X33660000Y-14660500D01*
X33660000Y-16560500D02*
X33810500Y-16410000D01*
X33660000Y-16259500D01*
X33509500Y-16410000D01*
X33660000Y-16560500D01*
X34160000Y-12970500D02*
X34310500Y-12820000D01*
X34160000Y-12669500D01*
X34009500Y-12820000D01*
X34160000Y-12970500D01*
X34160000Y-14870500D02*
X34310500Y-14720000D01*
X34160000Y-14569500D01*
X34009500Y-14720000D01*
X34160000Y-14870500D01*
X34160000Y-16770500D02*
X34310500Y-16620000D01*
X34160000Y-16469500D01*
X34009500Y-16620000D01*
X34160000Y-16770500D01*
D16*
X7547500Y-12947500D02*
X8052500Y-13452500D01*
X8052500Y-12947500D02*
X7547500Y-13452500D01*
X8052500Y-13200000D02*
G75*
G02*
X7547500Y-13200000I-252500J0D01*
G01*
X7547500Y-13200000D02*
G75*
G02*
X8052500Y-13200000I252500J0D01*
G01*
X7547500Y-14847500D02*
X8052500Y-15352500D01*
X8052500Y-14847500D02*
X7547500Y-15352500D01*
X8052500Y-15100000D02*
G75*
G02*
X7547500Y-15100000I-252500J0D01*
G01*
X7547500Y-15100000D02*
G75*
G02*
X8052500Y-15100000I252500J0D01*
G01*
X7547500Y-16747500D02*
X8052500Y-17252500D01*
X8052500Y-16747500D02*
X7547500Y-17252500D01*
X8052500Y-17000000D02*
G75*
G02*
X7547500Y-17000000I-252500J0D01*
G01*
X7547500Y-17000000D02*
G75*
G02*
X8052500Y-17000000I252500J0D01*
G01*
X9447500Y-12710000D02*
X9952500Y-13215000D01*
X9952500Y-12710000D02*
X9447500Y-13215000D01*
X9952500Y-12962500D02*
G75*
G02*
X9447500Y-12962500I-252500J0D01*
G01*
X9447500Y-12962500D02*
G75*
G02*
X9952500Y-12962500I252500J0D01*
G01*
X9447500Y-14610000D02*
X9952500Y-15115000D01*
X9952500Y-14610000D02*
X9447500Y-15115000D01*
X9952500Y-14862500D02*
G75*
G02*
X9447500Y-14862500I-252500J0D01*
G01*
X9447500Y-14862500D02*
G75*
G02*
X9952500Y-14862500I252500J0D01*
G01*
X9447500Y-16510000D02*
X9952500Y-17015000D01*
X9952500Y-16510000D02*
X9447500Y-17015000D01*
X9952500Y-16762500D02*
G75*
G02*
X9447500Y-16762500I-252500J0D01*
G01*
X9447500Y-16762500D02*
G75*
G02*
X9952500Y-16762500I252500J0D01*
G01*
X11347500Y-11997500D02*
X11852500Y-12502500D01*
X11852500Y-11997500D02*
X11347500Y-12502500D01*
X11852500Y-12250000D02*
G75*
G02*
X11347500Y-12250000I-252500J0D01*
G01*
X11347500Y-12250000D02*
G75*
G02*
X11852500Y-12250000I252500J0D01*
G01*
X11347500Y-13897500D02*
X11852500Y-14402500D01*
X11852500Y-13897500D02*
X11347500Y-14402500D01*
X11852500Y-14150000D02*
G75*
G02*
X11347500Y-14150000I-252500J0D01*
G01*
X11347500Y-14150000D02*
G75*
G02*
X11852500Y-14150000I252500J0D01*
G01*
X11347500Y-15797500D02*
X11852500Y-16302500D01*
X11852500Y-15797500D02*
X11347500Y-16302500D01*
X11852500Y-16050000D02*
G75*
G02*
X11347500Y-16050000I-252500J0D01*
G01*
X11347500Y-16050000D02*
G75*
G02*
X11852500Y-16050000I252500J0D01*
G01*
X13247500Y-11522500D02*
X13752500Y-12027500D01*
X13752500Y-11522500D02*
X13247500Y-12027500D01*
X13752500Y-11775000D02*
G75*
G02*
X13247500Y-11775000I-252500J0D01*
G01*
X13247500Y-11775000D02*
G75*
G02*
X13752500Y-11775000I252500J0D01*
G01*
X13247500Y-13422500D02*
X13752500Y-13927500D01*
X13752500Y-13422500D02*
X13247500Y-13927500D01*
X13752500Y-13675000D02*
G75*
G02*
X13247500Y-13675000I-252500J0D01*
G01*
X13247500Y-13675000D02*
G75*
G02*
X13752500Y-13675000I252500J0D01*
G01*
X13247500Y-15322500D02*
X13752500Y-15827500D01*
X13752500Y-15322500D02*
X13247500Y-15827500D01*
X13752500Y-15575000D02*
G75*
G02*
X13247500Y-15575000I-252500J0D01*
G01*
X13247500Y-15575000D02*
G75*
G02*
X13752500Y-15575000I252500J0D01*
G01*
X15139500Y-13897500D02*
X15644500Y-14402500D01*
X15644500Y-13897500D02*
X15139500Y-14402500D01*
X15644500Y-14150000D02*
G75*
G02*
X15139500Y-14150000I-252500J0D01*
G01*
X15139500Y-14150000D02*
G75*
G02*
X15644500Y-14150000I252500J0D01*
G01*
X15147500Y-11997500D02*
X15652500Y-12502500D01*
X15652500Y-11997500D02*
X15147500Y-12502500D01*
X15652500Y-12250000D02*
G75*
G02*
X15147500Y-12250000I-252500J0D01*
G01*
X15147500Y-12250000D02*
G75*
G02*
X15652500Y-12250000I252500J0D01*
G01*
X15147500Y-15797500D02*
X15652500Y-16302500D01*
X15652500Y-15797500D02*
X15147500Y-16302500D01*
X15652500Y-16050000D02*
G75*
G02*
X15147500Y-16050000I-252500J0D01*
G01*
X15147500Y-16050000D02*
G75*
G02*
X15652500Y-16050000I252500J0D01*
G01*
X15147500Y-17697500D02*
X15652500Y-18202500D01*
X15652500Y-17697500D02*
X15147500Y-18202500D01*
X15652500Y-17950000D02*
G75*
G02*
X15147500Y-17950000I-252500J0D01*
G01*
X15147500Y-17950000D02*
G75*
G02*
X15652500Y-17950000I252500J0D01*
G01*
X17047500Y-12235000D02*
X17552500Y-12740000D01*
X17552500Y-12235000D02*
X17047500Y-12740000D01*
X17552500Y-12487500D02*
G75*
G02*
X17047500Y-12487500I-252500J0D01*
G01*
X17047500Y-12487500D02*
G75*
G02*
X17552500Y-12487500I252500J0D01*
G01*
X17047500Y-14135000D02*
X17552500Y-14640000D01*
X17552500Y-14135000D02*
X17047500Y-14640000D01*
X17552500Y-14387500D02*
G75*
G02*
X17047500Y-14387500I-252500J0D01*
G01*
X17047500Y-14387500D02*
G75*
G02*
X17552500Y-14387500I252500J0D01*
G01*
X17047500Y-16035000D02*
X17552500Y-16540000D01*
X17552500Y-16035000D02*
X17047500Y-16540000D01*
X17552500Y-16287500D02*
G75*
G02*
X17047500Y-16287500I-252500J0D01*
G01*
X17047500Y-16287500D02*
G75*
G02*
X17552500Y-16287500I252500J0D01*
G01*
X17047500Y-17935000D02*
X17552500Y-18440000D01*
X17552500Y-17935000D02*
X17047500Y-18440000D01*
X17552500Y-18187500D02*
G75*
G02*
X17047500Y-18187500I-252500J0D01*
G01*
X17047500Y-18187500D02*
G75*
G02*
X17552500Y-18187500I252500J0D01*
G01*
X18947500Y-18172500D02*
X19452500Y-18677500D01*
X19452500Y-18172500D02*
X18947500Y-18677500D01*
X19452500Y-18425000D02*
G75*
G02*
X18947500Y-18425000I-252500J0D01*
G01*
X18947500Y-18425000D02*
G75*
G02*
X19452500Y-18425000I252500J0D01*
G01*
X22007500Y-18172500D02*
X22512500Y-18677500D01*
X22512500Y-18172500D02*
X22007500Y-18677500D01*
X22512500Y-18425000D02*
G75*
G02*
X22007500Y-18425000I-252500J0D01*
G01*
X22007500Y-18425000D02*
G75*
G02*
X22512500Y-18425000I252500J0D01*
G01*
X23907500Y-12235000D02*
X24412500Y-12740000D01*
X24412500Y-12235000D02*
X23907500Y-12740000D01*
X24412500Y-12487500D02*
G75*
G02*
X23907500Y-12487500I-252500J0D01*
G01*
X23907500Y-12487500D02*
G75*
G02*
X24412500Y-12487500I252500J0D01*
G01*
X23907500Y-14135000D02*
X24412500Y-14640000D01*
X24412500Y-14135000D02*
X23907500Y-14640000D01*
X24412500Y-14387500D02*
G75*
G02*
X23907500Y-14387500I-252500J0D01*
G01*
X23907500Y-14387500D02*
G75*
G02*
X24412500Y-14387500I252500J0D01*
G01*
X23907500Y-16035000D02*
X24412500Y-16540000D01*
X24412500Y-16035000D02*
X23907500Y-16540000D01*
X24412500Y-16287500D02*
G75*
G02*
X23907500Y-16287500I-252500J0D01*
G01*
X23907500Y-16287500D02*
G75*
G02*
X24412500Y-16287500I252500J0D01*
G01*
X23907500Y-17935000D02*
X24412500Y-18440000D01*
X24412500Y-17935000D02*
X23907500Y-18440000D01*
X24412500Y-18187500D02*
G75*
G02*
X23907500Y-18187500I-252500J0D01*
G01*
X23907500Y-18187500D02*
G75*
G02*
X24412500Y-18187500I252500J0D01*
G01*
X25807500Y-11997500D02*
X26312500Y-12502500D01*
X26312500Y-11997500D02*
X25807500Y-12502500D01*
X26312500Y-12250000D02*
G75*
G02*
X25807500Y-12250000I-252500J0D01*
G01*
X25807500Y-12250000D02*
G75*
G02*
X26312500Y-12250000I252500J0D01*
G01*
X25807500Y-13897500D02*
X26312500Y-14402500D01*
X26312500Y-13897500D02*
X25807500Y-14402500D01*
X26312500Y-14150000D02*
G75*
G02*
X25807500Y-14150000I-252500J0D01*
G01*
X25807500Y-14150000D02*
G75*
G02*
X26312500Y-14150000I252500J0D01*
G01*
X25807500Y-15797500D02*
X26312500Y-16302500D01*
X26312500Y-15797500D02*
X25807500Y-16302500D01*
X26312500Y-16050000D02*
G75*
G02*
X25807500Y-16050000I-252500J0D01*
G01*
X25807500Y-16050000D02*
G75*
G02*
X26312500Y-16050000I252500J0D01*
G01*
X25807500Y-17697500D02*
X26312500Y-18202500D01*
X26312500Y-17697500D02*
X25807500Y-18202500D01*
X26312500Y-17950000D02*
G75*
G02*
X25807500Y-17950000I-252500J0D01*
G01*
X25807500Y-17950000D02*
G75*
G02*
X26312500Y-17950000I252500J0D01*
G01*
X27707500Y-11522500D02*
X28212500Y-12027500D01*
X28212500Y-11522500D02*
X27707500Y-12027500D01*
X28212500Y-11775000D02*
G75*
G02*
X27707500Y-11775000I-252500J0D01*
G01*
X27707500Y-11775000D02*
G75*
G02*
X28212500Y-11775000I252500J0D01*
G01*
X27707500Y-13422500D02*
X28212500Y-13927500D01*
X28212500Y-13422500D02*
X27707500Y-13927500D01*
X28212500Y-13675000D02*
G75*
G02*
X27707500Y-13675000I-252500J0D01*
G01*
X27707500Y-13675000D02*
G75*
G02*
X28212500Y-13675000I252500J0D01*
G01*
X27707500Y-15322500D02*
X28212500Y-15827500D01*
X28212500Y-15322500D02*
X27707500Y-15827500D01*
X28212500Y-15575000D02*
G75*
G02*
X27707500Y-15575000I-252500J0D01*
G01*
X27707500Y-15575000D02*
G75*
G02*
X28212500Y-15575000I252500J0D01*
G01*
X29607500Y-11997500D02*
X30112500Y-12502500D01*
X30112500Y-11997500D02*
X29607500Y-12502500D01*
X30112500Y-12250000D02*
G75*
G02*
X29607500Y-12250000I-252500J0D01*
G01*
X29607500Y-12250000D02*
G75*
G02*
X30112500Y-12250000I252500J0D01*
G01*
X29607500Y-13897500D02*
X30112500Y-14402500D01*
X30112500Y-13897500D02*
X29607500Y-14402500D01*
X30112500Y-14150000D02*
G75*
G02*
X29607500Y-14150000I-252500J0D01*
G01*
X29607500Y-14150000D02*
G75*
G02*
X30112500Y-14150000I252500J0D01*
G01*
X29607500Y-15797500D02*
X30112500Y-16302500D01*
X30112500Y-15797500D02*
X29607500Y-16302500D01*
X30112500Y-16050000D02*
G75*
G02*
X29607500Y-16050000I-252500J0D01*
G01*
X29607500Y-16050000D02*
G75*
G02*
X30112500Y-16050000I252500J0D01*
G01*
X31507500Y-12710000D02*
X32012500Y-13215000D01*
X32012500Y-12710000D02*
X31507500Y-13215000D01*
X32012500Y-12962500D02*
G75*
G02*
X31507500Y-12962500I-252500J0D01*
G01*
X31507500Y-12962500D02*
G75*
G02*
X32012500Y-12962500I252500J0D01*
G01*
X31507500Y-14610000D02*
X32012500Y-15115000D01*
X32012500Y-14610000D02*
X31507500Y-15115000D01*
X32012500Y-14862500D02*
G75*
G02*
X31507500Y-14862500I-252500J0D01*
G01*
X31507500Y-14862500D02*
G75*
G02*
X32012500Y-14862500I252500J0D01*
G01*
X31507500Y-16510000D02*
X32012500Y-17015000D01*
X32012500Y-16510000D02*
X31507500Y-17015000D01*
X32012500Y-16762500D02*
G75*
G02*
X31507500Y-16762500I-252500J0D01*
G01*
X31507500Y-16762500D02*
G75*
G02*
X32012500Y-16762500I252500J0D01*
G01*
X33407500Y-12947500D02*
X33912500Y-13452500D01*
X33912500Y-12947500D02*
X33407500Y-13452500D01*
X33912500Y-13200000D02*
G75*
G02*
X33407500Y-13200000I-252500J0D01*
G01*
X33407500Y-13200000D02*
G75*
G02*
X33912500Y-13200000I252500J0D01*
G01*
X33407500Y-14847500D02*
X33912500Y-15352500D01*
X33912500Y-14847500D02*
X33407500Y-15352500D01*
X33912500Y-15100000D02*
G75*
G02*
X33407500Y-15100000I-252500J0D01*
G01*
X33407500Y-15100000D02*
G75*
G02*
X33912500Y-15100000I252500J0D01*
G01*
X33407500Y-16747500D02*
X33912500Y-17252500D01*
X33912500Y-16747500D02*
X33407500Y-17252500D01*
X33912500Y-17000000D02*
G75*
G02*
X33407500Y-17000000I-252500J0D01*
G01*
X33407500Y-17000000D02*
G75*
G02*
X33912500Y-17000000I252500J0D01*
G01*
D11*
X7028277Y-19768984D02*
X7028277Y-19568984D01*
X7028277Y-19568984D02*
X7075896Y-19568984D01*
X7075896Y-19568984D02*
X7104467Y-19578508D01*
X7104467Y-19578508D02*
X7123515Y-19597555D01*
X7123515Y-19597555D02*
X7133039Y-19616603D01*
X7133039Y-19616603D02*
X7142562Y-19654698D01*
X7142562Y-19654698D02*
X7142562Y-19683270D01*
X7142562Y-19683270D02*
X7133039Y-19721365D01*
X7133039Y-19721365D02*
X7123515Y-19740412D01*
X7123515Y-19740412D02*
X7104467Y-19759460D01*
X7104467Y-19759460D02*
X7075896Y-19768984D01*
X7075896Y-19768984D02*
X7028277Y-19768984D01*
X7228277Y-19768984D02*
X7228277Y-19635651D01*
X7228277Y-19673746D02*
X7237801Y-19654698D01*
X7237801Y-19654698D02*
X7247324Y-19645174D01*
X7247324Y-19645174D02*
X7266372Y-19635651D01*
X7266372Y-19635651D02*
X7285420Y-19635651D01*
X7352086Y-19768984D02*
X7352086Y-19635651D01*
X7352086Y-19568984D02*
X7342562Y-19578508D01*
X7342562Y-19578508D02*
X7352086Y-19588032D01*
X7352086Y-19588032D02*
X7361610Y-19578508D01*
X7361610Y-19578508D02*
X7352086Y-19568984D01*
X7352086Y-19568984D02*
X7352086Y-19588032D01*
X7475896Y-19768984D02*
X7456848Y-19759460D01*
X7456848Y-19759460D02*
X7447324Y-19740412D01*
X7447324Y-19740412D02*
X7447324Y-19568984D01*
X7580658Y-19768984D02*
X7561610Y-19759460D01*
X7561610Y-19759460D02*
X7552086Y-19740412D01*
X7552086Y-19740412D02*
X7552086Y-19568984D01*
X7809229Y-19768984D02*
X7809229Y-19568984D01*
X7809229Y-19568984D02*
X7875896Y-19711841D01*
X7875896Y-19711841D02*
X7942562Y-19568984D01*
X7942562Y-19568984D02*
X7942562Y-19768984D01*
X8123515Y-19768984D02*
X8123515Y-19664222D01*
X8123515Y-19664222D02*
X8113991Y-19645174D01*
X8113991Y-19645174D02*
X8094943Y-19635651D01*
X8094943Y-19635651D02*
X8056848Y-19635651D01*
X8056848Y-19635651D02*
X8037801Y-19645174D01*
X8123515Y-19759460D02*
X8104467Y-19768984D01*
X8104467Y-19768984D02*
X8056848Y-19768984D01*
X8056848Y-19768984D02*
X8037801Y-19759460D01*
X8037801Y-19759460D02*
X8028277Y-19740412D01*
X8028277Y-19740412D02*
X8028277Y-19721365D01*
X8028277Y-19721365D02*
X8037801Y-19702317D01*
X8037801Y-19702317D02*
X8056848Y-19692793D01*
X8056848Y-19692793D02*
X8104467Y-19692793D01*
X8104467Y-19692793D02*
X8123515Y-19683270D01*
X8218753Y-19635651D02*
X8218753Y-19835651D01*
X8218753Y-19645174D02*
X8237801Y-19635651D01*
X8237801Y-19635651D02*
X8275896Y-19635651D01*
X8275896Y-19635651D02*
X8294943Y-19645174D01*
X8294943Y-19645174D02*
X8304467Y-19654698D01*
X8304467Y-19654698D02*
X8313991Y-19673746D01*
X8313991Y-19673746D02*
X8313991Y-19730889D01*
X8313991Y-19730889D02*
X8304467Y-19749936D01*
X8304467Y-19749936D02*
X8294943Y-19759460D01*
X8294943Y-19759460D02*
X8275896Y-19768984D01*
X8275896Y-19768984D02*
X8237801Y-19768984D01*
X8237801Y-19768984D02*
X8218753Y-19759460D01*
X8399705Y-19749936D02*
X8409229Y-19759460D01*
X8409229Y-19759460D02*
X8399705Y-19768984D01*
X8399705Y-19768984D02*
X8390182Y-19759460D01*
X8390182Y-19759460D02*
X8399705Y-19749936D01*
X8399705Y-19749936D02*
X8399705Y-19768984D01*
X8399705Y-19645174D02*
X8409229Y-19654698D01*
X8409229Y-19654698D02*
X8399705Y-19664222D01*
X8399705Y-19664222D02*
X8390182Y-19654698D01*
X8390182Y-19654698D02*
X8399705Y-19645174D01*
X8399705Y-19645174D02*
X8399705Y-19664222D01*
D12*
X6717500Y-20072500D02*
X6767500Y-20122500D01*
X6767500Y-20072500D02*
X6717500Y-20122500D01*
D11*
X7066372Y-19988984D02*
X7085420Y-19988984D01*
X7085420Y-19988984D02*
X7104467Y-19998508D01*
X7104467Y-19998508D02*
X7113991Y-20008032D01*
X7113991Y-20008032D02*
X7123515Y-20027079D01*
X7123515Y-20027079D02*
X7133039Y-20065174D01*
X7133039Y-20065174D02*
X7133039Y-20112793D01*
X7133039Y-20112793D02*
X7123515Y-20150889D01*
X7123515Y-20150889D02*
X7113991Y-20169936D01*
X7113991Y-20169936D02*
X7104467Y-20179460D01*
X7104467Y-20179460D02*
X7085420Y-20188984D01*
X7085420Y-20188984D02*
X7066372Y-20188984D01*
X7066372Y-20188984D02*
X7047324Y-20179460D01*
X7047324Y-20179460D02*
X7037801Y-20169936D01*
X7037801Y-20169936D02*
X7028277Y-20150889D01*
X7028277Y-20150889D02*
X7018753Y-20112793D01*
X7018753Y-20112793D02*
X7018753Y-20065174D01*
X7018753Y-20065174D02*
X7028277Y-20027079D01*
X7028277Y-20027079D02*
X7037801Y-20008032D01*
X7037801Y-20008032D02*
X7047324Y-19998508D01*
X7047324Y-19998508D02*
X7066372Y-19988984D01*
X7218753Y-20169936D02*
X7228277Y-20179460D01*
X7228277Y-20179460D02*
X7218753Y-20188984D01*
X7218753Y-20188984D02*
X7209229Y-20179460D01*
X7209229Y-20179460D02*
X7218753Y-20169936D01*
X7218753Y-20169936D02*
X7218753Y-20188984D01*
X7409229Y-19988984D02*
X7313991Y-19988984D01*
X7313991Y-19988984D02*
X7304467Y-20084222D01*
X7304467Y-20084222D02*
X7313991Y-20074698D01*
X7313991Y-20074698D02*
X7333039Y-20065174D01*
X7333039Y-20065174D02*
X7380658Y-20065174D01*
X7380658Y-20065174D02*
X7399705Y-20074698D01*
X7399705Y-20074698D02*
X7409229Y-20084222D01*
X7409229Y-20084222D02*
X7418753Y-20103270D01*
X7418753Y-20103270D02*
X7418753Y-20150889D01*
X7418753Y-20150889D02*
X7409229Y-20169936D01*
X7409229Y-20169936D02*
X7399705Y-20179460D01*
X7399705Y-20179460D02*
X7380658Y-20188984D01*
X7380658Y-20188984D02*
X7333039Y-20188984D01*
X7333039Y-20188984D02*
X7313991Y-20179460D01*
X7313991Y-20179460D02*
X7304467Y-20169936D01*
X7542562Y-19988984D02*
X7561610Y-19988984D01*
X7561610Y-19988984D02*
X7580658Y-19998508D01*
X7580658Y-19998508D02*
X7590182Y-20008032D01*
X7590182Y-20008032D02*
X7599705Y-20027079D01*
X7599705Y-20027079D02*
X7609229Y-20065174D01*
X7609229Y-20065174D02*
X7609229Y-20112793D01*
X7609229Y-20112793D02*
X7599705Y-20150889D01*
X7599705Y-20150889D02*
X7590182Y-20169936D01*
X7590182Y-20169936D02*
X7580658Y-20179460D01*
X7580658Y-20179460D02*
X7561610Y-20188984D01*
X7561610Y-20188984D02*
X7542562Y-20188984D01*
X7542562Y-20188984D02*
X7523515Y-20179460D01*
X7523515Y-20179460D02*
X7513991Y-20169936D01*
X7513991Y-20169936D02*
X7504467Y-20150889D01*
X7504467Y-20150889D02*
X7494943Y-20112793D01*
X7494943Y-20112793D02*
X7494943Y-20065174D01*
X7494943Y-20065174D02*
X7504467Y-20027079D01*
X7504467Y-20027079D02*
X7513991Y-20008032D01*
X7513991Y-20008032D02*
X7523515Y-19998508D01*
X7523515Y-19998508D02*
X7542562Y-19988984D01*
X7733039Y-19988984D02*
X7752086Y-19988984D01*
X7752086Y-19988984D02*
X7771134Y-19998508D01*
X7771134Y-19998508D02*
X7780658Y-20008032D01*
X7780658Y-20008032D02*
X7790182Y-20027079D01*
X7790182Y-20027079D02*
X7799705Y-20065174D01*
X7799705Y-20065174D02*
X7799705Y-20112793D01*
X7799705Y-20112793D02*
X7790182Y-20150889D01*
X7790182Y-20150889D02*
X7780658Y-20169936D01*
X7780658Y-20169936D02*
X7771134Y-20179460D01*
X7771134Y-20179460D02*
X7752086Y-20188984D01*
X7752086Y-20188984D02*
X7733039Y-20188984D01*
X7733039Y-20188984D02*
X7713991Y-20179460D01*
X7713991Y-20179460D02*
X7704467Y-20169936D01*
X7704467Y-20169936D02*
X7694943Y-20150889D01*
X7694943Y-20150889D02*
X7685420Y-20112793D01*
X7685420Y-20112793D02*
X7685420Y-20065174D01*
X7685420Y-20065174D02*
X7694943Y-20027079D01*
X7694943Y-20027079D02*
X7704467Y-20008032D01*
X7704467Y-20008032D02*
X7713991Y-19998508D01*
X7713991Y-19998508D02*
X7733039Y-19988984D01*
X7885420Y-20188984D02*
X7885420Y-20055651D01*
X7885420Y-20074698D02*
X7894943Y-20065174D01*
X7894943Y-20065174D02*
X7913991Y-20055651D01*
X7913991Y-20055651D02*
X7942563Y-20055651D01*
X7942563Y-20055651D02*
X7961610Y-20065174D01*
X7961610Y-20065174D02*
X7971134Y-20084222D01*
X7971134Y-20084222D02*
X7971134Y-20188984D01*
X7971134Y-20084222D02*
X7980658Y-20065174D01*
X7980658Y-20065174D02*
X7999705Y-20055651D01*
X7999705Y-20055651D02*
X8028277Y-20055651D01*
X8028277Y-20055651D02*
X8047324Y-20065174D01*
X8047324Y-20065174D02*
X8056848Y-20084222D01*
X8056848Y-20084222D02*
X8056848Y-20188984D01*
X8152086Y-20188984D02*
X8152086Y-20055651D01*
X8152086Y-20074698D02*
X8161610Y-20065174D01*
X8161610Y-20065174D02*
X8180658Y-20055651D01*
X8180658Y-20055651D02*
X8209229Y-20055651D01*
X8209229Y-20055651D02*
X8228277Y-20065174D01*
X8228277Y-20065174D02*
X8237801Y-20084222D01*
X8237801Y-20084222D02*
X8237801Y-20188984D01*
X8237801Y-20084222D02*
X8247324Y-20065174D01*
X8247324Y-20065174D02*
X8266372Y-20055651D01*
X8266372Y-20055651D02*
X8294943Y-20055651D01*
X8294943Y-20055651D02*
X8313991Y-20065174D01*
X8313991Y-20065174D02*
X8323515Y-20084222D01*
X8323515Y-20084222D02*
X8323515Y-20188984D01*
X8713991Y-19979460D02*
X8542563Y-20236603D01*
X8971134Y-19988984D02*
X8990182Y-19988984D01*
X8990182Y-19988984D02*
X9009229Y-19998508D01*
X9009229Y-19998508D02*
X9018753Y-20008032D01*
X9018753Y-20008032D02*
X9028277Y-20027079D01*
X9028277Y-20027079D02*
X9037801Y-20065174D01*
X9037801Y-20065174D02*
X9037801Y-20112793D01*
X9037801Y-20112793D02*
X9028277Y-20150889D01*
X9028277Y-20150889D02*
X9018753Y-20169936D01*
X9018753Y-20169936D02*
X9009229Y-20179460D01*
X9009229Y-20179460D02*
X8990182Y-20188984D01*
X8990182Y-20188984D02*
X8971134Y-20188984D01*
X8971134Y-20188984D02*
X8952087Y-20179460D01*
X8952087Y-20179460D02*
X8942563Y-20169936D01*
X8942563Y-20169936D02*
X8933039Y-20150889D01*
X8933039Y-20150889D02*
X8923515Y-20112793D01*
X8923515Y-20112793D02*
X8923515Y-20065174D01*
X8923515Y-20065174D02*
X8933039Y-20027079D01*
X8933039Y-20027079D02*
X8942563Y-20008032D01*
X8942563Y-20008032D02*
X8952087Y-19998508D01*
X8952087Y-19998508D02*
X8971134Y-19988984D01*
X9123515Y-20169936D02*
X9133039Y-20179460D01*
X9133039Y-20179460D02*
X9123515Y-20188984D01*
X9123515Y-20188984D02*
X9113991Y-20179460D01*
X9113991Y-20179460D02*
X9123515Y-20169936D01*
X9123515Y-20169936D02*
X9123515Y-20188984D01*
X9256848Y-19988984D02*
X9275896Y-19988984D01*
X9275896Y-19988984D02*
X9294944Y-19998508D01*
X9294944Y-19998508D02*
X9304468Y-20008032D01*
X9304468Y-20008032D02*
X9313991Y-20027079D01*
X9313991Y-20027079D02*
X9323515Y-20065174D01*
X9323515Y-20065174D02*
X9323515Y-20112793D01*
X9323515Y-20112793D02*
X9313991Y-20150889D01*
X9313991Y-20150889D02*
X9304468Y-20169936D01*
X9304468Y-20169936D02*
X9294944Y-20179460D01*
X9294944Y-20179460D02*
X9275896Y-20188984D01*
X9275896Y-20188984D02*
X9256848Y-20188984D01*
X9256848Y-20188984D02*
X9237801Y-20179460D01*
X9237801Y-20179460D02*
X9228277Y-20169936D01*
X9228277Y-20169936D02*
X9218753Y-20150889D01*
X9218753Y-20150889D02*
X9209229Y-20112793D01*
X9209229Y-20112793D02*
X9209229Y-20065174D01*
X9209229Y-20065174D02*
X9218753Y-20027079D01*
X9218753Y-20027079D02*
X9228277Y-20008032D01*
X9228277Y-20008032D02*
X9237801Y-19998508D01*
X9237801Y-19998508D02*
X9256848Y-19988984D01*
X9513991Y-20188984D02*
X9399706Y-20188984D01*
X9456848Y-20188984D02*
X9456848Y-19988984D01*
X9456848Y-19988984D02*
X9437801Y-20017555D01*
X9437801Y-20017555D02*
X9418753Y-20036603D01*
X9418753Y-20036603D02*
X9399706Y-20046127D01*
X9609229Y-20188984D02*
X9647325Y-20188984D01*
X9647325Y-20188984D02*
X9666372Y-20179460D01*
X9666372Y-20179460D02*
X9675896Y-20169936D01*
X9675896Y-20169936D02*
X9694944Y-20141365D01*
X9694944Y-20141365D02*
X9704468Y-20103270D01*
X9704468Y-20103270D02*
X9704468Y-20027079D01*
X9704468Y-20027079D02*
X9694944Y-20008032D01*
X9694944Y-20008032D02*
X9685420Y-19998508D01*
X9685420Y-19998508D02*
X9666372Y-19988984D01*
X9666372Y-19988984D02*
X9628277Y-19988984D01*
X9628277Y-19988984D02*
X9609229Y-19998508D01*
X9609229Y-19998508D02*
X9599706Y-20008032D01*
X9599706Y-20008032D02*
X9590182Y-20027079D01*
X9590182Y-20027079D02*
X9590182Y-20074698D01*
X9590182Y-20074698D02*
X9599706Y-20093746D01*
X9599706Y-20093746D02*
X9609229Y-20103270D01*
X9609229Y-20103270D02*
X9628277Y-20112793D01*
X9628277Y-20112793D02*
X9666372Y-20112793D01*
X9666372Y-20112793D02*
X9685420Y-20103270D01*
X9685420Y-20103270D02*
X9694944Y-20093746D01*
X9694944Y-20093746D02*
X9704468Y-20074698D01*
X9771134Y-19988984D02*
X9904468Y-19988984D01*
X9904468Y-19988984D02*
X9818753Y-20188984D01*
X9971134Y-19988984D02*
X9971134Y-20027079D01*
X10047325Y-19988984D02*
X10047325Y-20027079D01*
X10342563Y-20265174D02*
X10333039Y-20255651D01*
X10333039Y-20255651D02*
X10313991Y-20227079D01*
X10313991Y-20227079D02*
X10304468Y-20208032D01*
X10304468Y-20208032D02*
X10294944Y-20179460D01*
X10294944Y-20179460D02*
X10285420Y-20131841D01*
X10285420Y-20131841D02*
X10285420Y-20093746D01*
X10285420Y-20093746D02*
X10294944Y-20046127D01*
X10294944Y-20046127D02*
X10304468Y-20017555D01*
X10304468Y-20017555D02*
X10313991Y-19998508D01*
X10313991Y-19998508D02*
X10333039Y-19969936D01*
X10333039Y-19969936D02*
X10342563Y-19960412D01*
X10504468Y-19988984D02*
X10466372Y-19988984D01*
X10466372Y-19988984D02*
X10447325Y-19998508D01*
X10447325Y-19998508D02*
X10437801Y-20008032D01*
X10437801Y-20008032D02*
X10418753Y-20036603D01*
X10418753Y-20036603D02*
X10409230Y-20074698D01*
X10409230Y-20074698D02*
X10409230Y-20150889D01*
X10409230Y-20150889D02*
X10418753Y-20169936D01*
X10418753Y-20169936D02*
X10428277Y-20179460D01*
X10428277Y-20179460D02*
X10447325Y-20188984D01*
X10447325Y-20188984D02*
X10485420Y-20188984D01*
X10485420Y-20188984D02*
X10504468Y-20179460D01*
X10504468Y-20179460D02*
X10513991Y-20169936D01*
X10513991Y-20169936D02*
X10523515Y-20150889D01*
X10523515Y-20150889D02*
X10523515Y-20103270D01*
X10523515Y-20103270D02*
X10513991Y-20084222D01*
X10513991Y-20084222D02*
X10504468Y-20074698D01*
X10504468Y-20074698D02*
X10485420Y-20065174D01*
X10485420Y-20065174D02*
X10447325Y-20065174D01*
X10447325Y-20065174D02*
X10428277Y-20074698D01*
X10428277Y-20074698D02*
X10418753Y-20084222D01*
X10418753Y-20084222D02*
X10409230Y-20103270D01*
X10647325Y-19988984D02*
X10666372Y-19988984D01*
X10666372Y-19988984D02*
X10685420Y-19998508D01*
X10685420Y-19998508D02*
X10694944Y-20008032D01*
X10694944Y-20008032D02*
X10704468Y-20027079D01*
X10704468Y-20027079D02*
X10713991Y-20065174D01*
X10713991Y-20065174D02*
X10713991Y-20112793D01*
X10713991Y-20112793D02*
X10704468Y-20150889D01*
X10704468Y-20150889D02*
X10694944Y-20169936D01*
X10694944Y-20169936D02*
X10685420Y-20179460D01*
X10685420Y-20179460D02*
X10666372Y-20188984D01*
X10666372Y-20188984D02*
X10647325Y-20188984D01*
X10647325Y-20188984D02*
X10628277Y-20179460D01*
X10628277Y-20179460D02*
X10618753Y-20169936D01*
X10618753Y-20169936D02*
X10609230Y-20150889D01*
X10609230Y-20150889D02*
X10599706Y-20112793D01*
X10599706Y-20112793D02*
X10599706Y-20065174D01*
X10599706Y-20065174D02*
X10609230Y-20027079D01*
X10609230Y-20027079D02*
X10618753Y-20008032D01*
X10618753Y-20008032D02*
X10628277Y-19998508D01*
X10628277Y-19998508D02*
X10647325Y-19988984D01*
X10952087Y-20188984D02*
X10952087Y-19988984D01*
X11037801Y-20188984D02*
X11037801Y-20084222D01*
X11037801Y-20084222D02*
X11028277Y-20065174D01*
X11028277Y-20065174D02*
X11009230Y-20055651D01*
X11009230Y-20055651D02*
X10980658Y-20055651D01*
X10980658Y-20055651D02*
X10961611Y-20065174D01*
X10961611Y-20065174D02*
X10952087Y-20074698D01*
X11161611Y-20188984D02*
X11142563Y-20179460D01*
X11142563Y-20179460D02*
X11133039Y-20169936D01*
X11133039Y-20169936D02*
X11123515Y-20150889D01*
X11123515Y-20150889D02*
X11123515Y-20093746D01*
X11123515Y-20093746D02*
X11133039Y-20074698D01*
X11133039Y-20074698D02*
X11142563Y-20065174D01*
X11142563Y-20065174D02*
X11161611Y-20055651D01*
X11161611Y-20055651D02*
X11190182Y-20055651D01*
X11190182Y-20055651D02*
X11209230Y-20065174D01*
X11209230Y-20065174D02*
X11218753Y-20074698D01*
X11218753Y-20074698D02*
X11228277Y-20093746D01*
X11228277Y-20093746D02*
X11228277Y-20150889D01*
X11228277Y-20150889D02*
X11218753Y-20169936D01*
X11218753Y-20169936D02*
X11209230Y-20179460D01*
X11209230Y-20179460D02*
X11190182Y-20188984D01*
X11190182Y-20188984D02*
X11161611Y-20188984D01*
X11342563Y-20188984D02*
X11323515Y-20179460D01*
X11323515Y-20179460D02*
X11313991Y-20160412D01*
X11313991Y-20160412D02*
X11313991Y-19988984D01*
X11494944Y-20179460D02*
X11475896Y-20188984D01*
X11475896Y-20188984D02*
X11437801Y-20188984D01*
X11437801Y-20188984D02*
X11418753Y-20179460D01*
X11418753Y-20179460D02*
X11409230Y-20160412D01*
X11409230Y-20160412D02*
X11409230Y-20084222D01*
X11409230Y-20084222D02*
X11418753Y-20065174D01*
X11418753Y-20065174D02*
X11437801Y-20055651D01*
X11437801Y-20055651D02*
X11475896Y-20055651D01*
X11475896Y-20055651D02*
X11494944Y-20065174D01*
X11494944Y-20065174D02*
X11504468Y-20084222D01*
X11504468Y-20084222D02*
X11504468Y-20103270D01*
X11504468Y-20103270D02*
X11409230Y-20122317D01*
X11580658Y-20179460D02*
X11599706Y-20188984D01*
X11599706Y-20188984D02*
X11637801Y-20188984D01*
X11637801Y-20188984D02*
X11656849Y-20179460D01*
X11656849Y-20179460D02*
X11666372Y-20160412D01*
X11666372Y-20160412D02*
X11666372Y-20150889D01*
X11666372Y-20150889D02*
X11656849Y-20131841D01*
X11656849Y-20131841D02*
X11637801Y-20122317D01*
X11637801Y-20122317D02*
X11609230Y-20122317D01*
X11609230Y-20122317D02*
X11590182Y-20112793D01*
X11590182Y-20112793D02*
X11580658Y-20093746D01*
X11580658Y-20093746D02*
X11580658Y-20084222D01*
X11580658Y-20084222D02*
X11590182Y-20065174D01*
X11590182Y-20065174D02*
X11609230Y-20055651D01*
X11609230Y-20055651D02*
X11637801Y-20055651D01*
X11637801Y-20055651D02*
X11656849Y-20065174D01*
X11733039Y-20265174D02*
X11742563Y-20255651D01*
X11742563Y-20255651D02*
X11761611Y-20227079D01*
X11761611Y-20227079D02*
X11771134Y-20208032D01*
X11771134Y-20208032D02*
X11780658Y-20179460D01*
X11780658Y-20179460D02*
X11790182Y-20131841D01*
X11790182Y-20131841D02*
X11790182Y-20093746D01*
X11790182Y-20093746D02*
X11780658Y-20046127D01*
X11780658Y-20046127D02*
X11771134Y-20017555D01*
X11771134Y-20017555D02*
X11761611Y-19998508D01*
X11761611Y-19998508D02*
X11742563Y-19969936D01*
X11742563Y-19969936D02*
X11733039Y-19960412D01*
X12094944Y-20265174D02*
X12085420Y-20255651D01*
X12085420Y-20255651D02*
X12066372Y-20227079D01*
X12066372Y-20227079D02*
X12056849Y-20208032D01*
X12056849Y-20208032D02*
X12047325Y-20179460D01*
X12047325Y-20179460D02*
X12037801Y-20131841D01*
X12037801Y-20131841D02*
X12037801Y-20093746D01*
X12037801Y-20093746D02*
X12047325Y-20046127D01*
X12047325Y-20046127D02*
X12056849Y-20017555D01*
X12056849Y-20017555D02*
X12066372Y-19998508D01*
X12066372Y-19998508D02*
X12085420Y-19969936D01*
X12085420Y-19969936D02*
X12094944Y-19960412D01*
X12171134Y-20055651D02*
X12171134Y-20188984D01*
X12171134Y-20074698D02*
X12180658Y-20065174D01*
X12180658Y-20065174D02*
X12199706Y-20055651D01*
X12199706Y-20055651D02*
X12228277Y-20055651D01*
X12228277Y-20055651D02*
X12247325Y-20065174D01*
X12247325Y-20065174D02*
X12256849Y-20084222D01*
X12256849Y-20084222D02*
X12256849Y-20188984D01*
X12380658Y-20188984D02*
X12361611Y-20179460D01*
X12361611Y-20179460D02*
X12352087Y-20169936D01*
X12352087Y-20169936D02*
X12342563Y-20150889D01*
X12342563Y-20150889D02*
X12342563Y-20093746D01*
X12342563Y-20093746D02*
X12352087Y-20074698D01*
X12352087Y-20074698D02*
X12361611Y-20065174D01*
X12361611Y-20065174D02*
X12380658Y-20055651D01*
X12380658Y-20055651D02*
X12409230Y-20055651D01*
X12409230Y-20055651D02*
X12428277Y-20065174D01*
X12428277Y-20065174D02*
X12437801Y-20074698D01*
X12437801Y-20074698D02*
X12447325Y-20093746D01*
X12447325Y-20093746D02*
X12447325Y-20150889D01*
X12447325Y-20150889D02*
X12437801Y-20169936D01*
X12437801Y-20169936D02*
X12428277Y-20179460D01*
X12428277Y-20179460D02*
X12409230Y-20188984D01*
X12409230Y-20188984D02*
X12380658Y-20188984D01*
X12504468Y-20055651D02*
X12580658Y-20055651D01*
X12533039Y-19988984D02*
X12533039Y-20160412D01*
X12533039Y-20160412D02*
X12542563Y-20179460D01*
X12542563Y-20179460D02*
X12561611Y-20188984D01*
X12561611Y-20188984D02*
X12580658Y-20188984D01*
X12799706Y-20055651D02*
X12799706Y-20255651D01*
X12799706Y-20065174D02*
X12818753Y-20055651D01*
X12818753Y-20055651D02*
X12856849Y-20055651D01*
X12856849Y-20055651D02*
X12875896Y-20065174D01*
X12875896Y-20065174D02*
X12885420Y-20074698D01*
X12885420Y-20074698D02*
X12894944Y-20093746D01*
X12894944Y-20093746D02*
X12894944Y-20150889D01*
X12894944Y-20150889D02*
X12885420Y-20169936D01*
X12885420Y-20169936D02*
X12875896Y-20179460D01*
X12875896Y-20179460D02*
X12856849Y-20188984D01*
X12856849Y-20188984D02*
X12818753Y-20188984D01*
X12818753Y-20188984D02*
X12799706Y-20179460D01*
X13009230Y-20188984D02*
X12990182Y-20179460D01*
X12990182Y-20179460D02*
X12980658Y-20160412D01*
X12980658Y-20160412D02*
X12980658Y-19988984D01*
X13171134Y-20188984D02*
X13171134Y-20084222D01*
X13171134Y-20084222D02*
X13161611Y-20065174D01*
X13161611Y-20065174D02*
X13142563Y-20055651D01*
X13142563Y-20055651D02*
X13104468Y-20055651D01*
X13104468Y-20055651D02*
X13085420Y-20065174D01*
X13171134Y-20179460D02*
X13152087Y-20188984D01*
X13152087Y-20188984D02*
X13104468Y-20188984D01*
X13104468Y-20188984D02*
X13085420Y-20179460D01*
X13085420Y-20179460D02*
X13075896Y-20160412D01*
X13075896Y-20160412D02*
X13075896Y-20141365D01*
X13075896Y-20141365D02*
X13085420Y-20122317D01*
X13085420Y-20122317D02*
X13104468Y-20112793D01*
X13104468Y-20112793D02*
X13152087Y-20112793D01*
X13152087Y-20112793D02*
X13171134Y-20103270D01*
X13237801Y-20055651D02*
X13313992Y-20055651D01*
X13266373Y-19988984D02*
X13266373Y-20160412D01*
X13266373Y-20160412D02*
X13275896Y-20179460D01*
X13275896Y-20179460D02*
X13294944Y-20188984D01*
X13294944Y-20188984D02*
X13313992Y-20188984D01*
X13456849Y-20179460D02*
X13437801Y-20188984D01*
X13437801Y-20188984D02*
X13399706Y-20188984D01*
X13399706Y-20188984D02*
X13380658Y-20179460D01*
X13380658Y-20179460D02*
X13371134Y-20160412D01*
X13371134Y-20160412D02*
X13371134Y-20084222D01*
X13371134Y-20084222D02*
X13380658Y-20065174D01*
X13380658Y-20065174D02*
X13399706Y-20055651D01*
X13399706Y-20055651D02*
X13437801Y-20055651D01*
X13437801Y-20055651D02*
X13456849Y-20065174D01*
X13456849Y-20065174D02*
X13466373Y-20084222D01*
X13466373Y-20084222D02*
X13466373Y-20103270D01*
X13466373Y-20103270D02*
X13371134Y-20122317D01*
X13637801Y-20188984D02*
X13637801Y-19988984D01*
X13637801Y-20179460D02*
X13618754Y-20188984D01*
X13618754Y-20188984D02*
X13580658Y-20188984D01*
X13580658Y-20188984D02*
X13561611Y-20179460D01*
X13561611Y-20179460D02*
X13552087Y-20169936D01*
X13552087Y-20169936D02*
X13542563Y-20150889D01*
X13542563Y-20150889D02*
X13542563Y-20093746D01*
X13542563Y-20093746D02*
X13552087Y-20074698D01*
X13552087Y-20074698D02*
X13561611Y-20065174D01*
X13561611Y-20065174D02*
X13580658Y-20055651D01*
X13580658Y-20055651D02*
X13618754Y-20055651D01*
X13618754Y-20055651D02*
X13637801Y-20065174D01*
X13713992Y-20265174D02*
X13723515Y-20255651D01*
X13723515Y-20255651D02*
X13742563Y-20227079D01*
X13742563Y-20227079D02*
X13752087Y-20208032D01*
X13752087Y-20208032D02*
X13761611Y-20179460D01*
X13761611Y-20179460D02*
X13771134Y-20131841D01*
X13771134Y-20131841D02*
X13771134Y-20093746D01*
X13771134Y-20093746D02*
X13761611Y-20046127D01*
X13761611Y-20046127D02*
X13752087Y-20017555D01*
X13752087Y-20017555D02*
X13742563Y-19998508D01*
X13742563Y-19998508D02*
X13723515Y-19969936D01*
X13723515Y-19969936D02*
X13713992Y-19960412D01*
D12*
X6767500Y-20361500D02*
G75*
G02*
X6697500Y-20361500I-35000J0D01*
G01*
X6697500Y-20361500D02*
G75*
G02*
X6767500Y-20361500I35000J0D01*
G01*
D11*
X7066372Y-20252984D02*
X7085420Y-20252984D01*
X7085420Y-20252984D02*
X7104467Y-20262508D01*
X7104467Y-20262508D02*
X7113991Y-20272032D01*
X7113991Y-20272032D02*
X7123515Y-20291079D01*
X7123515Y-20291079D02*
X7133039Y-20329174D01*
X7133039Y-20329174D02*
X7133039Y-20376793D01*
X7133039Y-20376793D02*
X7123515Y-20414889D01*
X7123515Y-20414889D02*
X7113991Y-20433936D01*
X7113991Y-20433936D02*
X7104467Y-20443460D01*
X7104467Y-20443460D02*
X7085420Y-20452984D01*
X7085420Y-20452984D02*
X7066372Y-20452984D01*
X7066372Y-20452984D02*
X7047324Y-20443460D01*
X7047324Y-20443460D02*
X7037801Y-20433936D01*
X7037801Y-20433936D02*
X7028277Y-20414889D01*
X7028277Y-20414889D02*
X7018753Y-20376793D01*
X7018753Y-20376793D02*
X7018753Y-20329174D01*
X7018753Y-20329174D02*
X7028277Y-20291079D01*
X7028277Y-20291079D02*
X7037801Y-20272032D01*
X7037801Y-20272032D02*
X7047324Y-20262508D01*
X7047324Y-20262508D02*
X7066372Y-20252984D01*
X7218753Y-20433936D02*
X7228277Y-20443460D01*
X7228277Y-20443460D02*
X7218753Y-20452984D01*
X7218753Y-20452984D02*
X7209229Y-20443460D01*
X7209229Y-20443460D02*
X7218753Y-20433936D01*
X7218753Y-20433936D02*
X7218753Y-20452984D01*
X7294943Y-20252984D02*
X7428277Y-20252984D01*
X7428277Y-20252984D02*
X7342562Y-20452984D01*
X7542562Y-20252984D02*
X7561610Y-20252984D01*
X7561610Y-20252984D02*
X7580658Y-20262508D01*
X7580658Y-20262508D02*
X7590182Y-20272032D01*
X7590182Y-20272032D02*
X7599705Y-20291079D01*
X7599705Y-20291079D02*
X7609229Y-20329174D01*
X7609229Y-20329174D02*
X7609229Y-20376793D01*
X7609229Y-20376793D02*
X7599705Y-20414889D01*
X7599705Y-20414889D02*
X7590182Y-20433936D01*
X7590182Y-20433936D02*
X7580658Y-20443460D01*
X7580658Y-20443460D02*
X7561610Y-20452984D01*
X7561610Y-20452984D02*
X7542562Y-20452984D01*
X7542562Y-20452984D02*
X7523515Y-20443460D01*
X7523515Y-20443460D02*
X7513991Y-20433936D01*
X7513991Y-20433936D02*
X7504467Y-20414889D01*
X7504467Y-20414889D02*
X7494943Y-20376793D01*
X7494943Y-20376793D02*
X7494943Y-20329174D01*
X7494943Y-20329174D02*
X7504467Y-20291079D01*
X7504467Y-20291079D02*
X7513991Y-20272032D01*
X7513991Y-20272032D02*
X7523515Y-20262508D01*
X7523515Y-20262508D02*
X7542562Y-20252984D01*
X7733039Y-20252984D02*
X7752086Y-20252984D01*
X7752086Y-20252984D02*
X7771134Y-20262508D01*
X7771134Y-20262508D02*
X7780658Y-20272032D01*
X7780658Y-20272032D02*
X7790182Y-20291079D01*
X7790182Y-20291079D02*
X7799705Y-20329174D01*
X7799705Y-20329174D02*
X7799705Y-20376793D01*
X7799705Y-20376793D02*
X7790182Y-20414889D01*
X7790182Y-20414889D02*
X7780658Y-20433936D01*
X7780658Y-20433936D02*
X7771134Y-20443460D01*
X7771134Y-20443460D02*
X7752086Y-20452984D01*
X7752086Y-20452984D02*
X7733039Y-20452984D01*
X7733039Y-20452984D02*
X7713991Y-20443460D01*
X7713991Y-20443460D02*
X7704467Y-20433936D01*
X7704467Y-20433936D02*
X7694943Y-20414889D01*
X7694943Y-20414889D02*
X7685420Y-20376793D01*
X7685420Y-20376793D02*
X7685420Y-20329174D01*
X7685420Y-20329174D02*
X7694943Y-20291079D01*
X7694943Y-20291079D02*
X7704467Y-20272032D01*
X7704467Y-20272032D02*
X7713991Y-20262508D01*
X7713991Y-20262508D02*
X7733039Y-20252984D01*
X7885420Y-20452984D02*
X7885420Y-20319651D01*
X7885420Y-20338698D02*
X7894943Y-20329174D01*
X7894943Y-20329174D02*
X7913991Y-20319651D01*
X7913991Y-20319651D02*
X7942563Y-20319651D01*
X7942563Y-20319651D02*
X7961610Y-20329174D01*
X7961610Y-20329174D02*
X7971134Y-20348222D01*
X7971134Y-20348222D02*
X7971134Y-20452984D01*
X7971134Y-20348222D02*
X7980658Y-20329174D01*
X7980658Y-20329174D02*
X7999705Y-20319651D01*
X7999705Y-20319651D02*
X8028277Y-20319651D01*
X8028277Y-20319651D02*
X8047324Y-20329174D01*
X8047324Y-20329174D02*
X8056848Y-20348222D01*
X8056848Y-20348222D02*
X8056848Y-20452984D01*
X8152086Y-20452984D02*
X8152086Y-20319651D01*
X8152086Y-20338698D02*
X8161610Y-20329174D01*
X8161610Y-20329174D02*
X8180658Y-20319651D01*
X8180658Y-20319651D02*
X8209229Y-20319651D01*
X8209229Y-20319651D02*
X8228277Y-20329174D01*
X8228277Y-20329174D02*
X8237801Y-20348222D01*
X8237801Y-20348222D02*
X8237801Y-20452984D01*
X8237801Y-20348222D02*
X8247324Y-20329174D01*
X8247324Y-20329174D02*
X8266372Y-20319651D01*
X8266372Y-20319651D02*
X8294943Y-20319651D01*
X8294943Y-20319651D02*
X8313991Y-20329174D01*
X8313991Y-20329174D02*
X8323515Y-20348222D01*
X8323515Y-20348222D02*
X8323515Y-20452984D01*
X8713991Y-20243460D02*
X8542563Y-20500603D01*
X8971134Y-20252984D02*
X8990182Y-20252984D01*
X8990182Y-20252984D02*
X9009229Y-20262508D01*
X9009229Y-20262508D02*
X9018753Y-20272032D01*
X9018753Y-20272032D02*
X9028277Y-20291079D01*
X9028277Y-20291079D02*
X9037801Y-20329174D01*
X9037801Y-20329174D02*
X9037801Y-20376793D01*
X9037801Y-20376793D02*
X9028277Y-20414889D01*
X9028277Y-20414889D02*
X9018753Y-20433936D01*
X9018753Y-20433936D02*
X9009229Y-20443460D01*
X9009229Y-20443460D02*
X8990182Y-20452984D01*
X8990182Y-20452984D02*
X8971134Y-20452984D01*
X8971134Y-20452984D02*
X8952087Y-20443460D01*
X8952087Y-20443460D02*
X8942563Y-20433936D01*
X8942563Y-20433936D02*
X8933039Y-20414889D01*
X8933039Y-20414889D02*
X8923515Y-20376793D01*
X8923515Y-20376793D02*
X8923515Y-20329174D01*
X8923515Y-20329174D02*
X8933039Y-20291079D01*
X8933039Y-20291079D02*
X8942563Y-20272032D01*
X8942563Y-20272032D02*
X8952087Y-20262508D01*
X8952087Y-20262508D02*
X8971134Y-20252984D01*
X9123515Y-20433936D02*
X9133039Y-20443460D01*
X9133039Y-20443460D02*
X9123515Y-20452984D01*
X9123515Y-20452984D02*
X9113991Y-20443460D01*
X9113991Y-20443460D02*
X9123515Y-20433936D01*
X9123515Y-20433936D02*
X9123515Y-20452984D01*
X9256848Y-20252984D02*
X9275896Y-20252984D01*
X9275896Y-20252984D02*
X9294944Y-20262508D01*
X9294944Y-20262508D02*
X9304468Y-20272032D01*
X9304468Y-20272032D02*
X9313991Y-20291079D01*
X9313991Y-20291079D02*
X9323515Y-20329174D01*
X9323515Y-20329174D02*
X9323515Y-20376793D01*
X9323515Y-20376793D02*
X9313991Y-20414889D01*
X9313991Y-20414889D02*
X9304468Y-20433936D01*
X9304468Y-20433936D02*
X9294944Y-20443460D01*
X9294944Y-20443460D02*
X9275896Y-20452984D01*
X9275896Y-20452984D02*
X9256848Y-20452984D01*
X9256848Y-20452984D02*
X9237801Y-20443460D01*
X9237801Y-20443460D02*
X9228277Y-20433936D01*
X9228277Y-20433936D02*
X9218753Y-20414889D01*
X9218753Y-20414889D02*
X9209229Y-20376793D01*
X9209229Y-20376793D02*
X9209229Y-20329174D01*
X9209229Y-20329174D02*
X9218753Y-20291079D01*
X9218753Y-20291079D02*
X9228277Y-20272032D01*
X9228277Y-20272032D02*
X9237801Y-20262508D01*
X9237801Y-20262508D02*
X9256848Y-20252984D01*
X9399706Y-20272032D02*
X9409229Y-20262508D01*
X9409229Y-20262508D02*
X9428277Y-20252984D01*
X9428277Y-20252984D02*
X9475896Y-20252984D01*
X9475896Y-20252984D02*
X9494944Y-20262508D01*
X9494944Y-20262508D02*
X9504468Y-20272032D01*
X9504468Y-20272032D02*
X9513991Y-20291079D01*
X9513991Y-20291079D02*
X9513991Y-20310127D01*
X9513991Y-20310127D02*
X9504468Y-20338698D01*
X9504468Y-20338698D02*
X9390182Y-20452984D01*
X9390182Y-20452984D02*
X9513991Y-20452984D01*
X9580658Y-20252984D02*
X9713991Y-20252984D01*
X9713991Y-20252984D02*
X9628277Y-20452984D01*
X9875896Y-20252984D02*
X9837801Y-20252984D01*
X9837801Y-20252984D02*
X9818753Y-20262508D01*
X9818753Y-20262508D02*
X9809229Y-20272032D01*
X9809229Y-20272032D02*
X9790182Y-20300603D01*
X9790182Y-20300603D02*
X9780658Y-20338698D01*
X9780658Y-20338698D02*
X9780658Y-20414889D01*
X9780658Y-20414889D02*
X9790182Y-20433936D01*
X9790182Y-20433936D02*
X9799706Y-20443460D01*
X9799706Y-20443460D02*
X9818753Y-20452984D01*
X9818753Y-20452984D02*
X9856849Y-20452984D01*
X9856849Y-20452984D02*
X9875896Y-20443460D01*
X9875896Y-20443460D02*
X9885420Y-20433936D01*
X9885420Y-20433936D02*
X9894944Y-20414889D01*
X9894944Y-20414889D02*
X9894944Y-20367270D01*
X9894944Y-20367270D02*
X9885420Y-20348222D01*
X9885420Y-20348222D02*
X9875896Y-20338698D01*
X9875896Y-20338698D02*
X9856849Y-20329174D01*
X9856849Y-20329174D02*
X9818753Y-20329174D01*
X9818753Y-20329174D02*
X9799706Y-20338698D01*
X9799706Y-20338698D02*
X9790182Y-20348222D01*
X9790182Y-20348222D02*
X9780658Y-20367270D01*
X9971134Y-20252984D02*
X9971134Y-20291079D01*
X10047325Y-20252984D02*
X10047325Y-20291079D01*
X10342563Y-20529174D02*
X10333039Y-20519651D01*
X10333039Y-20519651D02*
X10313991Y-20491079D01*
X10313991Y-20491079D02*
X10304468Y-20472032D01*
X10304468Y-20472032D02*
X10294944Y-20443460D01*
X10294944Y-20443460D02*
X10285420Y-20395841D01*
X10285420Y-20395841D02*
X10285420Y-20357746D01*
X10285420Y-20357746D02*
X10294944Y-20310127D01*
X10294944Y-20310127D02*
X10304468Y-20281555D01*
X10304468Y-20281555D02*
X10313991Y-20262508D01*
X10313991Y-20262508D02*
X10333039Y-20233936D01*
X10333039Y-20233936D02*
X10342563Y-20224412D01*
X10504468Y-20319651D02*
X10504468Y-20452984D01*
X10456849Y-20243460D02*
X10409230Y-20386317D01*
X10409230Y-20386317D02*
X10533039Y-20386317D01*
X10761611Y-20452984D02*
X10761611Y-20252984D01*
X10847325Y-20452984D02*
X10847325Y-20348222D01*
X10847325Y-20348222D02*
X10837801Y-20329174D01*
X10837801Y-20329174D02*
X10818753Y-20319651D01*
X10818753Y-20319651D02*
X10790182Y-20319651D01*
X10790182Y-20319651D02*
X10771134Y-20329174D01*
X10771134Y-20329174D02*
X10761611Y-20338698D01*
X10971134Y-20452984D02*
X10952087Y-20443460D01*
X10952087Y-20443460D02*
X10942563Y-20433936D01*
X10942563Y-20433936D02*
X10933039Y-20414889D01*
X10933039Y-20414889D02*
X10933039Y-20357746D01*
X10933039Y-20357746D02*
X10942563Y-20338698D01*
X10942563Y-20338698D02*
X10952087Y-20329174D01*
X10952087Y-20329174D02*
X10971134Y-20319651D01*
X10971134Y-20319651D02*
X10999706Y-20319651D01*
X10999706Y-20319651D02*
X11018753Y-20329174D01*
X11018753Y-20329174D02*
X11028277Y-20338698D01*
X11028277Y-20338698D02*
X11037801Y-20357746D01*
X11037801Y-20357746D02*
X11037801Y-20414889D01*
X11037801Y-20414889D02*
X11028277Y-20433936D01*
X11028277Y-20433936D02*
X11018753Y-20443460D01*
X11018753Y-20443460D02*
X10999706Y-20452984D01*
X10999706Y-20452984D02*
X10971134Y-20452984D01*
X11152087Y-20452984D02*
X11133039Y-20443460D01*
X11133039Y-20443460D02*
X11123515Y-20424412D01*
X11123515Y-20424412D02*
X11123515Y-20252984D01*
X11304468Y-20443460D02*
X11285420Y-20452984D01*
X11285420Y-20452984D02*
X11247325Y-20452984D01*
X11247325Y-20452984D02*
X11228277Y-20443460D01*
X11228277Y-20443460D02*
X11218753Y-20424412D01*
X11218753Y-20424412D02*
X11218753Y-20348222D01*
X11218753Y-20348222D02*
X11228277Y-20329174D01*
X11228277Y-20329174D02*
X11247325Y-20319651D01*
X11247325Y-20319651D02*
X11285420Y-20319651D01*
X11285420Y-20319651D02*
X11304468Y-20329174D01*
X11304468Y-20329174D02*
X11313991Y-20348222D01*
X11313991Y-20348222D02*
X11313991Y-20367270D01*
X11313991Y-20367270D02*
X11218753Y-20386317D01*
X11390182Y-20443460D02*
X11409230Y-20452984D01*
X11409230Y-20452984D02*
X11447325Y-20452984D01*
X11447325Y-20452984D02*
X11466372Y-20443460D01*
X11466372Y-20443460D02*
X11475896Y-20424412D01*
X11475896Y-20424412D02*
X11475896Y-20414889D01*
X11475896Y-20414889D02*
X11466372Y-20395841D01*
X11466372Y-20395841D02*
X11447325Y-20386317D01*
X11447325Y-20386317D02*
X11418753Y-20386317D01*
X11418753Y-20386317D02*
X11399706Y-20376793D01*
X11399706Y-20376793D02*
X11390182Y-20357746D01*
X11390182Y-20357746D02*
X11390182Y-20348222D01*
X11390182Y-20348222D02*
X11399706Y-20329174D01*
X11399706Y-20329174D02*
X11418753Y-20319651D01*
X11418753Y-20319651D02*
X11447325Y-20319651D01*
X11447325Y-20319651D02*
X11466372Y-20329174D01*
X11542563Y-20529174D02*
X11552087Y-20519651D01*
X11552087Y-20519651D02*
X11571134Y-20491079D01*
X11571134Y-20491079D02*
X11580658Y-20472032D01*
X11580658Y-20472032D02*
X11590182Y-20443460D01*
X11590182Y-20443460D02*
X11599706Y-20395841D01*
X11599706Y-20395841D02*
X11599706Y-20357746D01*
X11599706Y-20357746D02*
X11590182Y-20310127D01*
X11590182Y-20310127D02*
X11580658Y-20281555D01*
X11580658Y-20281555D02*
X11571134Y-20262508D01*
X11571134Y-20262508D02*
X11552087Y-20233936D01*
X11552087Y-20233936D02*
X11542563Y-20224412D01*
X11904468Y-20529174D02*
X11894944Y-20519651D01*
X11894944Y-20519651D02*
X11875896Y-20491079D01*
X11875896Y-20491079D02*
X11866372Y-20472032D01*
X11866372Y-20472032D02*
X11856849Y-20443460D01*
X11856849Y-20443460D02*
X11847325Y-20395841D01*
X11847325Y-20395841D02*
X11847325Y-20357746D01*
X11847325Y-20357746D02*
X11856849Y-20310127D01*
X11856849Y-20310127D02*
X11866372Y-20281555D01*
X11866372Y-20281555D02*
X11875896Y-20262508D01*
X11875896Y-20262508D02*
X11894944Y-20233936D01*
X11894944Y-20233936D02*
X11904468Y-20224412D01*
X11980658Y-20319651D02*
X11980658Y-20452984D01*
X11980658Y-20338698D02*
X11990182Y-20329174D01*
X11990182Y-20329174D02*
X12009230Y-20319651D01*
X12009230Y-20319651D02*
X12037801Y-20319651D01*
X12037801Y-20319651D02*
X12056849Y-20329174D01*
X12056849Y-20329174D02*
X12066372Y-20348222D01*
X12066372Y-20348222D02*
X12066372Y-20452984D01*
X12190182Y-20452984D02*
X12171134Y-20443460D01*
X12171134Y-20443460D02*
X12161611Y-20433936D01*
X12161611Y-20433936D02*
X12152087Y-20414889D01*
X12152087Y-20414889D02*
X12152087Y-20357746D01*
X12152087Y-20357746D02*
X12161611Y-20338698D01*
X12161611Y-20338698D02*
X12171134Y-20329174D01*
X12171134Y-20329174D02*
X12190182Y-20319651D01*
X12190182Y-20319651D02*
X12218753Y-20319651D01*
X12218753Y-20319651D02*
X12237801Y-20329174D01*
X12237801Y-20329174D02*
X12247325Y-20338698D01*
X12247325Y-20338698D02*
X12256849Y-20357746D01*
X12256849Y-20357746D02*
X12256849Y-20414889D01*
X12256849Y-20414889D02*
X12247325Y-20433936D01*
X12247325Y-20433936D02*
X12237801Y-20443460D01*
X12237801Y-20443460D02*
X12218753Y-20452984D01*
X12218753Y-20452984D02*
X12190182Y-20452984D01*
X12313992Y-20319651D02*
X12390182Y-20319651D01*
X12342563Y-20252984D02*
X12342563Y-20424412D01*
X12342563Y-20424412D02*
X12352087Y-20443460D01*
X12352087Y-20443460D02*
X12371134Y-20452984D01*
X12371134Y-20452984D02*
X12390182Y-20452984D01*
X12609230Y-20319651D02*
X12609230Y-20519651D01*
X12609230Y-20329174D02*
X12628277Y-20319651D01*
X12628277Y-20319651D02*
X12666373Y-20319651D01*
X12666373Y-20319651D02*
X12685420Y-20329174D01*
X12685420Y-20329174D02*
X12694944Y-20338698D01*
X12694944Y-20338698D02*
X12704468Y-20357746D01*
X12704468Y-20357746D02*
X12704468Y-20414889D01*
X12704468Y-20414889D02*
X12694944Y-20433936D01*
X12694944Y-20433936D02*
X12685420Y-20443460D01*
X12685420Y-20443460D02*
X12666373Y-20452984D01*
X12666373Y-20452984D02*
X12628277Y-20452984D01*
X12628277Y-20452984D02*
X12609230Y-20443460D01*
X12818753Y-20452984D02*
X12799706Y-20443460D01*
X12799706Y-20443460D02*
X12790182Y-20424412D01*
X12790182Y-20424412D02*
X12790182Y-20252984D01*
X12980658Y-20452984D02*
X12980658Y-20348222D01*
X12980658Y-20348222D02*
X12971134Y-20329174D01*
X12971134Y-20329174D02*
X12952087Y-20319651D01*
X12952087Y-20319651D02*
X12913992Y-20319651D01*
X12913992Y-20319651D02*
X12894944Y-20329174D01*
X12980658Y-20443460D02*
X12961611Y-20452984D01*
X12961611Y-20452984D02*
X12913992Y-20452984D01*
X12913992Y-20452984D02*
X12894944Y-20443460D01*
X12894944Y-20443460D02*
X12885420Y-20424412D01*
X12885420Y-20424412D02*
X12885420Y-20405365D01*
X12885420Y-20405365D02*
X12894944Y-20386317D01*
X12894944Y-20386317D02*
X12913992Y-20376793D01*
X12913992Y-20376793D02*
X12961611Y-20376793D01*
X12961611Y-20376793D02*
X12980658Y-20367270D01*
X13047325Y-20319651D02*
X13123515Y-20319651D01*
X13075896Y-20252984D02*
X13075896Y-20424412D01*
X13075896Y-20424412D02*
X13085420Y-20443460D01*
X13085420Y-20443460D02*
X13104468Y-20452984D01*
X13104468Y-20452984D02*
X13123515Y-20452984D01*
X13266373Y-20443460D02*
X13247325Y-20452984D01*
X13247325Y-20452984D02*
X13209230Y-20452984D01*
X13209230Y-20452984D02*
X13190182Y-20443460D01*
X13190182Y-20443460D02*
X13180658Y-20424412D01*
X13180658Y-20424412D02*
X13180658Y-20348222D01*
X13180658Y-20348222D02*
X13190182Y-20329174D01*
X13190182Y-20329174D02*
X13209230Y-20319651D01*
X13209230Y-20319651D02*
X13247325Y-20319651D01*
X13247325Y-20319651D02*
X13266373Y-20329174D01*
X13266373Y-20329174D02*
X13275896Y-20348222D01*
X13275896Y-20348222D02*
X13275896Y-20367270D01*
X13275896Y-20367270D02*
X13180658Y-20386317D01*
X13447325Y-20452984D02*
X13447325Y-20252984D01*
X13447325Y-20443460D02*
X13428277Y-20452984D01*
X13428277Y-20452984D02*
X13390182Y-20452984D01*
X13390182Y-20452984D02*
X13371134Y-20443460D01*
X13371134Y-20443460D02*
X13361611Y-20433936D01*
X13361611Y-20433936D02*
X13352087Y-20414889D01*
X13352087Y-20414889D02*
X13352087Y-20357746D01*
X13352087Y-20357746D02*
X13361611Y-20338698D01*
X13361611Y-20338698D02*
X13371134Y-20329174D01*
X13371134Y-20329174D02*
X13390182Y-20319651D01*
X13390182Y-20319651D02*
X13428277Y-20319651D01*
X13428277Y-20319651D02*
X13447325Y-20329174D01*
X13523515Y-20529174D02*
X13533039Y-20519651D01*
X13533039Y-20519651D02*
X13552087Y-20491079D01*
X13552087Y-20491079D02*
X13561611Y-20472032D01*
X13561611Y-20472032D02*
X13571134Y-20443460D01*
X13571134Y-20443460D02*
X13580658Y-20395841D01*
X13580658Y-20395841D02*
X13580658Y-20357746D01*
X13580658Y-20357746D02*
X13571134Y-20310127D01*
X13571134Y-20310127D02*
X13561611Y-20281555D01*
X13561611Y-20281555D02*
X13552087Y-20262508D01*
X13552087Y-20262508D02*
X13533039Y-20233936D01*
X13533039Y-20233936D02*
X13523515Y-20224412D01*
D13*
X6687500Y-20545500D02*
X6687500Y-20705500D01*
X6607500Y-20625500D02*
X6767500Y-20625500D01*
D11*
X7133039Y-20716984D02*
X7018753Y-20716984D01*
X7075896Y-20716984D02*
X7075896Y-20516984D01*
X7075896Y-20516984D02*
X7056848Y-20545555D01*
X7056848Y-20545555D02*
X7037801Y-20564603D01*
X7037801Y-20564603D02*
X7018753Y-20574127D01*
X7218753Y-20697936D02*
X7228277Y-20707460D01*
X7228277Y-20707460D02*
X7218753Y-20716984D01*
X7218753Y-20716984D02*
X7209229Y-20707460D01*
X7209229Y-20707460D02*
X7218753Y-20697936D01*
X7218753Y-20697936D02*
X7218753Y-20716984D01*
X7399705Y-20516984D02*
X7361610Y-20516984D01*
X7361610Y-20516984D02*
X7342562Y-20526508D01*
X7342562Y-20526508D02*
X7333039Y-20536032D01*
X7333039Y-20536032D02*
X7313991Y-20564603D01*
X7313991Y-20564603D02*
X7304467Y-20602698D01*
X7304467Y-20602698D02*
X7304467Y-20678889D01*
X7304467Y-20678889D02*
X7313991Y-20697936D01*
X7313991Y-20697936D02*
X7323515Y-20707460D01*
X7323515Y-20707460D02*
X7342562Y-20716984D01*
X7342562Y-20716984D02*
X7380658Y-20716984D01*
X7380658Y-20716984D02*
X7399705Y-20707460D01*
X7399705Y-20707460D02*
X7409229Y-20697936D01*
X7409229Y-20697936D02*
X7418753Y-20678889D01*
X7418753Y-20678889D02*
X7418753Y-20631270D01*
X7418753Y-20631270D02*
X7409229Y-20612222D01*
X7409229Y-20612222D02*
X7399705Y-20602698D01*
X7399705Y-20602698D02*
X7380658Y-20593174D01*
X7380658Y-20593174D02*
X7342562Y-20593174D01*
X7342562Y-20593174D02*
X7323515Y-20602698D01*
X7323515Y-20602698D02*
X7313991Y-20612222D01*
X7313991Y-20612222D02*
X7304467Y-20631270D01*
X7542562Y-20516984D02*
X7561610Y-20516984D01*
X7561610Y-20516984D02*
X7580658Y-20526508D01*
X7580658Y-20526508D02*
X7590182Y-20536032D01*
X7590182Y-20536032D02*
X7599705Y-20555079D01*
X7599705Y-20555079D02*
X7609229Y-20593174D01*
X7609229Y-20593174D02*
X7609229Y-20640793D01*
X7609229Y-20640793D02*
X7599705Y-20678889D01*
X7599705Y-20678889D02*
X7590182Y-20697936D01*
X7590182Y-20697936D02*
X7580658Y-20707460D01*
X7580658Y-20707460D02*
X7561610Y-20716984D01*
X7561610Y-20716984D02*
X7542562Y-20716984D01*
X7542562Y-20716984D02*
X7523515Y-20707460D01*
X7523515Y-20707460D02*
X7513991Y-20697936D01*
X7513991Y-20697936D02*
X7504467Y-20678889D01*
X7504467Y-20678889D02*
X7494943Y-20640793D01*
X7494943Y-20640793D02*
X7494943Y-20593174D01*
X7494943Y-20593174D02*
X7504467Y-20555079D01*
X7504467Y-20555079D02*
X7513991Y-20536032D01*
X7513991Y-20536032D02*
X7523515Y-20526508D01*
X7523515Y-20526508D02*
X7542562Y-20516984D01*
X7733039Y-20516984D02*
X7752086Y-20516984D01*
X7752086Y-20516984D02*
X7771134Y-20526508D01*
X7771134Y-20526508D02*
X7780658Y-20536032D01*
X7780658Y-20536032D02*
X7790182Y-20555079D01*
X7790182Y-20555079D02*
X7799705Y-20593174D01*
X7799705Y-20593174D02*
X7799705Y-20640793D01*
X7799705Y-20640793D02*
X7790182Y-20678889D01*
X7790182Y-20678889D02*
X7780658Y-20697936D01*
X7780658Y-20697936D02*
X7771134Y-20707460D01*
X7771134Y-20707460D02*
X7752086Y-20716984D01*
X7752086Y-20716984D02*
X7733039Y-20716984D01*
X7733039Y-20716984D02*
X7713991Y-20707460D01*
X7713991Y-20707460D02*
X7704467Y-20697936D01*
X7704467Y-20697936D02*
X7694943Y-20678889D01*
X7694943Y-20678889D02*
X7685420Y-20640793D01*
X7685420Y-20640793D02*
X7685420Y-20593174D01*
X7685420Y-20593174D02*
X7694943Y-20555079D01*
X7694943Y-20555079D02*
X7704467Y-20536032D01*
X7704467Y-20536032D02*
X7713991Y-20526508D01*
X7713991Y-20526508D02*
X7733039Y-20516984D01*
X7885420Y-20716984D02*
X7885420Y-20583651D01*
X7885420Y-20602698D02*
X7894943Y-20593174D01*
X7894943Y-20593174D02*
X7913991Y-20583651D01*
X7913991Y-20583651D02*
X7942563Y-20583651D01*
X7942563Y-20583651D02*
X7961610Y-20593174D01*
X7961610Y-20593174D02*
X7971134Y-20612222D01*
X7971134Y-20612222D02*
X7971134Y-20716984D01*
X7971134Y-20612222D02*
X7980658Y-20593174D01*
X7980658Y-20593174D02*
X7999705Y-20583651D01*
X7999705Y-20583651D02*
X8028277Y-20583651D01*
X8028277Y-20583651D02*
X8047324Y-20593174D01*
X8047324Y-20593174D02*
X8056848Y-20612222D01*
X8056848Y-20612222D02*
X8056848Y-20716984D01*
X8152086Y-20716984D02*
X8152086Y-20583651D01*
X8152086Y-20602698D02*
X8161610Y-20593174D01*
X8161610Y-20593174D02*
X8180658Y-20583651D01*
X8180658Y-20583651D02*
X8209229Y-20583651D01*
X8209229Y-20583651D02*
X8228277Y-20593174D01*
X8228277Y-20593174D02*
X8237801Y-20612222D01*
X8237801Y-20612222D02*
X8237801Y-20716984D01*
X8237801Y-20612222D02*
X8247324Y-20593174D01*
X8247324Y-20593174D02*
X8266372Y-20583651D01*
X8266372Y-20583651D02*
X8294943Y-20583651D01*
X8294943Y-20583651D02*
X8313991Y-20593174D01*
X8313991Y-20593174D02*
X8323515Y-20612222D01*
X8323515Y-20612222D02*
X8323515Y-20716984D01*
X8713991Y-20507460D02*
X8542563Y-20764603D01*
X8971134Y-20516984D02*
X8990182Y-20516984D01*
X8990182Y-20516984D02*
X9009229Y-20526508D01*
X9009229Y-20526508D02*
X9018753Y-20536032D01*
X9018753Y-20536032D02*
X9028277Y-20555079D01*
X9028277Y-20555079D02*
X9037801Y-20593174D01*
X9037801Y-20593174D02*
X9037801Y-20640793D01*
X9037801Y-20640793D02*
X9028277Y-20678889D01*
X9028277Y-20678889D02*
X9018753Y-20697936D01*
X9018753Y-20697936D02*
X9009229Y-20707460D01*
X9009229Y-20707460D02*
X8990182Y-20716984D01*
X8990182Y-20716984D02*
X8971134Y-20716984D01*
X8971134Y-20716984D02*
X8952087Y-20707460D01*
X8952087Y-20707460D02*
X8942563Y-20697936D01*
X8942563Y-20697936D02*
X8933039Y-20678889D01*
X8933039Y-20678889D02*
X8923515Y-20640793D01*
X8923515Y-20640793D02*
X8923515Y-20593174D01*
X8923515Y-20593174D02*
X8933039Y-20555079D01*
X8933039Y-20555079D02*
X8942563Y-20536032D01*
X8942563Y-20536032D02*
X8952087Y-20526508D01*
X8952087Y-20526508D02*
X8971134Y-20516984D01*
X9123515Y-20697936D02*
X9133039Y-20707460D01*
X9133039Y-20707460D02*
X9123515Y-20716984D01*
X9123515Y-20716984D02*
X9113991Y-20707460D01*
X9113991Y-20707460D02*
X9123515Y-20697936D01*
X9123515Y-20697936D02*
X9123515Y-20716984D01*
X9256848Y-20516984D02*
X9275896Y-20516984D01*
X9275896Y-20516984D02*
X9294944Y-20526508D01*
X9294944Y-20526508D02*
X9304468Y-20536032D01*
X9304468Y-20536032D02*
X9313991Y-20555079D01*
X9313991Y-20555079D02*
X9323515Y-20593174D01*
X9323515Y-20593174D02*
X9323515Y-20640793D01*
X9323515Y-20640793D02*
X9313991Y-20678889D01*
X9313991Y-20678889D02*
X9304468Y-20697936D01*
X9304468Y-20697936D02*
X9294944Y-20707460D01*
X9294944Y-20707460D02*
X9275896Y-20716984D01*
X9275896Y-20716984D02*
X9256848Y-20716984D01*
X9256848Y-20716984D02*
X9237801Y-20707460D01*
X9237801Y-20707460D02*
X9228277Y-20697936D01*
X9228277Y-20697936D02*
X9218753Y-20678889D01*
X9218753Y-20678889D02*
X9209229Y-20640793D01*
X9209229Y-20640793D02*
X9209229Y-20593174D01*
X9209229Y-20593174D02*
X9218753Y-20555079D01*
X9218753Y-20555079D02*
X9228277Y-20536032D01*
X9228277Y-20536032D02*
X9237801Y-20526508D01*
X9237801Y-20526508D02*
X9256848Y-20516984D01*
X9494944Y-20516984D02*
X9456848Y-20516984D01*
X9456848Y-20516984D02*
X9437801Y-20526508D01*
X9437801Y-20526508D02*
X9428277Y-20536032D01*
X9428277Y-20536032D02*
X9409229Y-20564603D01*
X9409229Y-20564603D02*
X9399706Y-20602698D01*
X9399706Y-20602698D02*
X9399706Y-20678889D01*
X9399706Y-20678889D02*
X9409229Y-20697936D01*
X9409229Y-20697936D02*
X9418753Y-20707460D01*
X9418753Y-20707460D02*
X9437801Y-20716984D01*
X9437801Y-20716984D02*
X9475896Y-20716984D01*
X9475896Y-20716984D02*
X9494944Y-20707460D01*
X9494944Y-20707460D02*
X9504468Y-20697936D01*
X9504468Y-20697936D02*
X9513991Y-20678889D01*
X9513991Y-20678889D02*
X9513991Y-20631270D01*
X9513991Y-20631270D02*
X9504468Y-20612222D01*
X9504468Y-20612222D02*
X9494944Y-20602698D01*
X9494944Y-20602698D02*
X9475896Y-20593174D01*
X9475896Y-20593174D02*
X9437801Y-20593174D01*
X9437801Y-20593174D02*
X9418753Y-20602698D01*
X9418753Y-20602698D02*
X9409229Y-20612222D01*
X9409229Y-20612222D02*
X9399706Y-20631270D01*
X9580658Y-20516984D02*
X9704468Y-20516984D01*
X9704468Y-20516984D02*
X9637801Y-20593174D01*
X9637801Y-20593174D02*
X9666372Y-20593174D01*
X9666372Y-20593174D02*
X9685420Y-20602698D01*
X9685420Y-20602698D02*
X9694944Y-20612222D01*
X9694944Y-20612222D02*
X9704468Y-20631270D01*
X9704468Y-20631270D02*
X9704468Y-20678889D01*
X9704468Y-20678889D02*
X9694944Y-20697936D01*
X9694944Y-20697936D02*
X9685420Y-20707460D01*
X9685420Y-20707460D02*
X9666372Y-20716984D01*
X9666372Y-20716984D02*
X9609229Y-20716984D01*
X9609229Y-20716984D02*
X9590182Y-20707460D01*
X9590182Y-20707460D02*
X9580658Y-20697936D01*
X9828277Y-20516984D02*
X9847325Y-20516984D01*
X9847325Y-20516984D02*
X9866372Y-20526508D01*
X9866372Y-20526508D02*
X9875896Y-20536032D01*
X9875896Y-20536032D02*
X9885420Y-20555079D01*
X9885420Y-20555079D02*
X9894944Y-20593174D01*
X9894944Y-20593174D02*
X9894944Y-20640793D01*
X9894944Y-20640793D02*
X9885420Y-20678889D01*
X9885420Y-20678889D02*
X9875896Y-20697936D01*
X9875896Y-20697936D02*
X9866372Y-20707460D01*
X9866372Y-20707460D02*
X9847325Y-20716984D01*
X9847325Y-20716984D02*
X9828277Y-20716984D01*
X9828277Y-20716984D02*
X9809229Y-20707460D01*
X9809229Y-20707460D02*
X9799706Y-20697936D01*
X9799706Y-20697936D02*
X9790182Y-20678889D01*
X9790182Y-20678889D02*
X9780658Y-20640793D01*
X9780658Y-20640793D02*
X9780658Y-20593174D01*
X9780658Y-20593174D02*
X9790182Y-20555079D01*
X9790182Y-20555079D02*
X9799706Y-20536032D01*
X9799706Y-20536032D02*
X9809229Y-20526508D01*
X9809229Y-20526508D02*
X9828277Y-20516984D01*
X9971134Y-20516984D02*
X9971134Y-20555079D01*
X10047325Y-20516984D02*
X10047325Y-20555079D01*
X10342563Y-20793174D02*
X10333039Y-20783651D01*
X10333039Y-20783651D02*
X10313991Y-20755079D01*
X10313991Y-20755079D02*
X10304468Y-20736032D01*
X10304468Y-20736032D02*
X10294944Y-20707460D01*
X10294944Y-20707460D02*
X10285420Y-20659841D01*
X10285420Y-20659841D02*
X10285420Y-20621746D01*
X10285420Y-20621746D02*
X10294944Y-20574127D01*
X10294944Y-20574127D02*
X10304468Y-20545555D01*
X10304468Y-20545555D02*
X10313991Y-20526508D01*
X10313991Y-20526508D02*
X10333039Y-20497936D01*
X10333039Y-20497936D02*
X10342563Y-20488412D01*
X10456849Y-20516984D02*
X10475896Y-20516984D01*
X10475896Y-20516984D02*
X10494944Y-20526508D01*
X10494944Y-20526508D02*
X10504468Y-20536032D01*
X10504468Y-20536032D02*
X10513991Y-20555079D01*
X10513991Y-20555079D02*
X10523515Y-20593174D01*
X10523515Y-20593174D02*
X10523515Y-20640793D01*
X10523515Y-20640793D02*
X10513991Y-20678889D01*
X10513991Y-20678889D02*
X10504468Y-20697936D01*
X10504468Y-20697936D02*
X10494944Y-20707460D01*
X10494944Y-20707460D02*
X10475896Y-20716984D01*
X10475896Y-20716984D02*
X10456849Y-20716984D01*
X10456849Y-20716984D02*
X10437801Y-20707460D01*
X10437801Y-20707460D02*
X10428277Y-20697936D01*
X10428277Y-20697936D02*
X10418753Y-20678889D01*
X10418753Y-20678889D02*
X10409230Y-20640793D01*
X10409230Y-20640793D02*
X10409230Y-20593174D01*
X10409230Y-20593174D02*
X10418753Y-20555079D01*
X10418753Y-20555079D02*
X10428277Y-20536032D01*
X10428277Y-20536032D02*
X10437801Y-20526508D01*
X10437801Y-20526508D02*
X10456849Y-20516984D01*
X10761611Y-20716984D02*
X10761611Y-20516984D01*
X10847325Y-20716984D02*
X10847325Y-20612222D01*
X10847325Y-20612222D02*
X10837801Y-20593174D01*
X10837801Y-20593174D02*
X10818753Y-20583651D01*
X10818753Y-20583651D02*
X10790182Y-20583651D01*
X10790182Y-20583651D02*
X10771134Y-20593174D01*
X10771134Y-20593174D02*
X10761611Y-20602698D01*
X10971134Y-20716984D02*
X10952087Y-20707460D01*
X10952087Y-20707460D02*
X10942563Y-20697936D01*
X10942563Y-20697936D02*
X10933039Y-20678889D01*
X10933039Y-20678889D02*
X10933039Y-20621746D01*
X10933039Y-20621746D02*
X10942563Y-20602698D01*
X10942563Y-20602698D02*
X10952087Y-20593174D01*
X10952087Y-20593174D02*
X10971134Y-20583651D01*
X10971134Y-20583651D02*
X10999706Y-20583651D01*
X10999706Y-20583651D02*
X11018753Y-20593174D01*
X11018753Y-20593174D02*
X11028277Y-20602698D01*
X11028277Y-20602698D02*
X11037801Y-20621746D01*
X11037801Y-20621746D02*
X11037801Y-20678889D01*
X11037801Y-20678889D02*
X11028277Y-20697936D01*
X11028277Y-20697936D02*
X11018753Y-20707460D01*
X11018753Y-20707460D02*
X10999706Y-20716984D01*
X10999706Y-20716984D02*
X10971134Y-20716984D01*
X11152087Y-20716984D02*
X11133039Y-20707460D01*
X11133039Y-20707460D02*
X11123515Y-20688412D01*
X11123515Y-20688412D02*
X11123515Y-20516984D01*
X11304468Y-20707460D02*
X11285420Y-20716984D01*
X11285420Y-20716984D02*
X11247325Y-20716984D01*
X11247325Y-20716984D02*
X11228277Y-20707460D01*
X11228277Y-20707460D02*
X11218753Y-20688412D01*
X11218753Y-20688412D02*
X11218753Y-20612222D01*
X11218753Y-20612222D02*
X11228277Y-20593174D01*
X11228277Y-20593174D02*
X11247325Y-20583651D01*
X11247325Y-20583651D02*
X11285420Y-20583651D01*
X11285420Y-20583651D02*
X11304468Y-20593174D01*
X11304468Y-20593174D02*
X11313991Y-20612222D01*
X11313991Y-20612222D02*
X11313991Y-20631270D01*
X11313991Y-20631270D02*
X11218753Y-20650317D01*
X11390182Y-20707460D02*
X11409230Y-20716984D01*
X11409230Y-20716984D02*
X11447325Y-20716984D01*
X11447325Y-20716984D02*
X11466372Y-20707460D01*
X11466372Y-20707460D02*
X11475896Y-20688412D01*
X11475896Y-20688412D02*
X11475896Y-20678889D01*
X11475896Y-20678889D02*
X11466372Y-20659841D01*
X11466372Y-20659841D02*
X11447325Y-20650317D01*
X11447325Y-20650317D02*
X11418753Y-20650317D01*
X11418753Y-20650317D02*
X11399706Y-20640793D01*
X11399706Y-20640793D02*
X11390182Y-20621746D01*
X11390182Y-20621746D02*
X11390182Y-20612222D01*
X11390182Y-20612222D02*
X11399706Y-20593174D01*
X11399706Y-20593174D02*
X11418753Y-20583651D01*
X11418753Y-20583651D02*
X11447325Y-20583651D01*
X11447325Y-20583651D02*
X11466372Y-20593174D01*
X11713992Y-20640793D02*
X11866373Y-20640793D01*
X11790182Y-20716984D02*
X11790182Y-20564603D01*
X12199706Y-20583651D02*
X12199706Y-20716984D01*
X12152087Y-20507460D02*
X12104468Y-20650317D01*
X12104468Y-20650317D02*
X12228277Y-20650317D01*
X12294944Y-20536032D02*
X12304468Y-20526508D01*
X12304468Y-20526508D02*
X12323515Y-20516984D01*
X12323515Y-20516984D02*
X12371134Y-20516984D01*
X12371134Y-20516984D02*
X12390182Y-20526508D01*
X12390182Y-20526508D02*
X12399706Y-20536032D01*
X12399706Y-20536032D02*
X12409230Y-20555079D01*
X12409230Y-20555079D02*
X12409230Y-20574127D01*
X12409230Y-20574127D02*
X12399706Y-20602698D01*
X12399706Y-20602698D02*
X12285420Y-20716984D01*
X12285420Y-20716984D02*
X12409230Y-20716984D01*
X12637801Y-20707460D02*
X12656849Y-20716984D01*
X12656849Y-20716984D02*
X12694944Y-20716984D01*
X12694944Y-20716984D02*
X12713992Y-20707460D01*
X12713992Y-20707460D02*
X12723515Y-20688412D01*
X12723515Y-20688412D02*
X12723515Y-20678889D01*
X12723515Y-20678889D02*
X12713992Y-20659841D01*
X12713992Y-20659841D02*
X12694944Y-20650317D01*
X12694944Y-20650317D02*
X12666373Y-20650317D01*
X12666373Y-20650317D02*
X12647325Y-20640793D01*
X12647325Y-20640793D02*
X12637801Y-20621746D01*
X12637801Y-20621746D02*
X12637801Y-20612222D01*
X12637801Y-20612222D02*
X12647325Y-20593174D01*
X12647325Y-20593174D02*
X12666373Y-20583651D01*
X12666373Y-20583651D02*
X12694944Y-20583651D01*
X12694944Y-20583651D02*
X12713992Y-20593174D01*
X12837801Y-20716984D02*
X12818754Y-20707460D01*
X12818754Y-20707460D02*
X12809230Y-20688412D01*
X12809230Y-20688412D02*
X12809230Y-20516984D01*
X12942563Y-20716984D02*
X12923515Y-20707460D01*
X12923515Y-20707460D02*
X12913992Y-20697936D01*
X12913992Y-20697936D02*
X12904468Y-20678889D01*
X12904468Y-20678889D02*
X12904468Y-20621746D01*
X12904468Y-20621746D02*
X12913992Y-20602698D01*
X12913992Y-20602698D02*
X12923515Y-20593174D01*
X12923515Y-20593174D02*
X12942563Y-20583651D01*
X12942563Y-20583651D02*
X12971135Y-20583651D01*
X12971135Y-20583651D02*
X12990182Y-20593174D01*
X12990182Y-20593174D02*
X12999706Y-20602698D01*
X12999706Y-20602698D02*
X13009230Y-20621746D01*
X13009230Y-20621746D02*
X13009230Y-20678889D01*
X13009230Y-20678889D02*
X12999706Y-20697936D01*
X12999706Y-20697936D02*
X12990182Y-20707460D01*
X12990182Y-20707460D02*
X12971135Y-20716984D01*
X12971135Y-20716984D02*
X12942563Y-20716984D01*
X13066373Y-20583651D02*
X13142563Y-20583651D01*
X13094944Y-20516984D02*
X13094944Y-20688412D01*
X13094944Y-20688412D02*
X13104468Y-20707460D01*
X13104468Y-20707460D02*
X13123515Y-20716984D01*
X13123515Y-20716984D02*
X13142563Y-20716984D01*
X13199706Y-20707460D02*
X13218754Y-20716984D01*
X13218754Y-20716984D02*
X13256849Y-20716984D01*
X13256849Y-20716984D02*
X13275896Y-20707460D01*
X13275896Y-20707460D02*
X13285420Y-20688412D01*
X13285420Y-20688412D02*
X13285420Y-20678889D01*
X13285420Y-20678889D02*
X13275896Y-20659841D01*
X13275896Y-20659841D02*
X13256849Y-20650317D01*
X13256849Y-20650317D02*
X13228277Y-20650317D01*
X13228277Y-20650317D02*
X13209230Y-20640793D01*
X13209230Y-20640793D02*
X13199706Y-20621746D01*
X13199706Y-20621746D02*
X13199706Y-20612222D01*
X13199706Y-20612222D02*
X13209230Y-20593174D01*
X13209230Y-20593174D02*
X13228277Y-20583651D01*
X13228277Y-20583651D02*
X13256849Y-20583651D01*
X13256849Y-20583651D02*
X13275896Y-20593174D01*
X13352087Y-20793174D02*
X13361611Y-20783651D01*
X13361611Y-20783651D02*
X13380658Y-20755079D01*
X13380658Y-20755079D02*
X13390182Y-20736032D01*
X13390182Y-20736032D02*
X13399706Y-20707460D01*
X13399706Y-20707460D02*
X13409230Y-20659841D01*
X13409230Y-20659841D02*
X13409230Y-20621746D01*
X13409230Y-20621746D02*
X13399706Y-20574127D01*
X13399706Y-20574127D02*
X13390182Y-20545555D01*
X13390182Y-20545555D02*
X13380658Y-20526508D01*
X13380658Y-20526508D02*
X13361611Y-20497936D01*
X13361611Y-20497936D02*
X13352087Y-20488412D01*
X13713992Y-20793174D02*
X13704468Y-20783651D01*
X13704468Y-20783651D02*
X13685420Y-20755079D01*
X13685420Y-20755079D02*
X13675896Y-20736032D01*
X13675896Y-20736032D02*
X13666373Y-20707460D01*
X13666373Y-20707460D02*
X13656849Y-20659841D01*
X13656849Y-20659841D02*
X13656849Y-20621746D01*
X13656849Y-20621746D02*
X13666373Y-20574127D01*
X13666373Y-20574127D02*
X13675896Y-20545555D01*
X13675896Y-20545555D02*
X13685420Y-20526508D01*
X13685420Y-20526508D02*
X13704468Y-20497936D01*
X13704468Y-20497936D02*
X13713992Y-20488412D01*
X13790182Y-20583651D02*
X13790182Y-20716984D01*
X13790182Y-20602698D02*
X13799706Y-20593174D01*
X13799706Y-20593174D02*
X13818754Y-20583651D01*
X13818754Y-20583651D02*
X13847325Y-20583651D01*
X13847325Y-20583651D02*
X13866373Y-20593174D01*
X13866373Y-20593174D02*
X13875896Y-20612222D01*
X13875896Y-20612222D02*
X13875896Y-20716984D01*
X13999706Y-20716984D02*
X13980658Y-20707460D01*
X13980658Y-20707460D02*
X13971135Y-20697936D01*
X13971135Y-20697936D02*
X13961611Y-20678889D01*
X13961611Y-20678889D02*
X13961611Y-20621746D01*
X13961611Y-20621746D02*
X13971135Y-20602698D01*
X13971135Y-20602698D02*
X13980658Y-20593174D01*
X13980658Y-20593174D02*
X13999706Y-20583651D01*
X13999706Y-20583651D02*
X14028277Y-20583651D01*
X14028277Y-20583651D02*
X14047325Y-20593174D01*
X14047325Y-20593174D02*
X14056849Y-20602698D01*
X14056849Y-20602698D02*
X14066373Y-20621746D01*
X14066373Y-20621746D02*
X14066373Y-20678889D01*
X14066373Y-20678889D02*
X14056849Y-20697936D01*
X14056849Y-20697936D02*
X14047325Y-20707460D01*
X14047325Y-20707460D02*
X14028277Y-20716984D01*
X14028277Y-20716984D02*
X13999706Y-20716984D01*
X14123516Y-20583651D02*
X14199706Y-20583651D01*
X14152087Y-20516984D02*
X14152087Y-20688412D01*
X14152087Y-20688412D02*
X14161611Y-20707460D01*
X14161611Y-20707460D02*
X14180658Y-20716984D01*
X14180658Y-20716984D02*
X14199706Y-20716984D01*
X14418754Y-20583651D02*
X14418754Y-20783651D01*
X14418754Y-20593174D02*
X14437801Y-20583651D01*
X14437801Y-20583651D02*
X14475897Y-20583651D01*
X14475897Y-20583651D02*
X14494944Y-20593174D01*
X14494944Y-20593174D02*
X14504468Y-20602698D01*
X14504468Y-20602698D02*
X14513992Y-20621746D01*
X14513992Y-20621746D02*
X14513992Y-20678889D01*
X14513992Y-20678889D02*
X14504468Y-20697936D01*
X14504468Y-20697936D02*
X14494944Y-20707460D01*
X14494944Y-20707460D02*
X14475897Y-20716984D01*
X14475897Y-20716984D02*
X14437801Y-20716984D01*
X14437801Y-20716984D02*
X14418754Y-20707460D01*
X14628277Y-20716984D02*
X14609230Y-20707460D01*
X14609230Y-20707460D02*
X14599706Y-20688412D01*
X14599706Y-20688412D02*
X14599706Y-20516984D01*
X14790182Y-20716984D02*
X14790182Y-20612222D01*
X14790182Y-20612222D02*
X14780658Y-20593174D01*
X14780658Y-20593174D02*
X14761611Y-20583651D01*
X14761611Y-20583651D02*
X14723516Y-20583651D01*
X14723516Y-20583651D02*
X14704468Y-20593174D01*
X14790182Y-20707460D02*
X14771135Y-20716984D01*
X14771135Y-20716984D02*
X14723516Y-20716984D01*
X14723516Y-20716984D02*
X14704468Y-20707460D01*
X14704468Y-20707460D02*
X14694944Y-20688412D01*
X14694944Y-20688412D02*
X14694944Y-20669365D01*
X14694944Y-20669365D02*
X14704468Y-20650317D01*
X14704468Y-20650317D02*
X14723516Y-20640793D01*
X14723516Y-20640793D02*
X14771135Y-20640793D01*
X14771135Y-20640793D02*
X14790182Y-20631270D01*
X14856849Y-20583651D02*
X14933039Y-20583651D01*
X14885420Y-20516984D02*
X14885420Y-20688412D01*
X14885420Y-20688412D02*
X14894944Y-20707460D01*
X14894944Y-20707460D02*
X14913992Y-20716984D01*
X14913992Y-20716984D02*
X14933039Y-20716984D01*
X15075897Y-20707460D02*
X15056849Y-20716984D01*
X15056849Y-20716984D02*
X15018754Y-20716984D01*
X15018754Y-20716984D02*
X14999706Y-20707460D01*
X14999706Y-20707460D02*
X14990182Y-20688412D01*
X14990182Y-20688412D02*
X14990182Y-20612222D01*
X14990182Y-20612222D02*
X14999706Y-20593174D01*
X14999706Y-20593174D02*
X15018754Y-20583651D01*
X15018754Y-20583651D02*
X15056849Y-20583651D01*
X15056849Y-20583651D02*
X15075897Y-20593174D01*
X15075897Y-20593174D02*
X15085420Y-20612222D01*
X15085420Y-20612222D02*
X15085420Y-20631270D01*
X15085420Y-20631270D02*
X14990182Y-20650317D01*
X15256849Y-20716984D02*
X15256849Y-20516984D01*
X15256849Y-20707460D02*
X15237801Y-20716984D01*
X15237801Y-20716984D02*
X15199706Y-20716984D01*
X15199706Y-20716984D02*
X15180658Y-20707460D01*
X15180658Y-20707460D02*
X15171135Y-20697936D01*
X15171135Y-20697936D02*
X15161611Y-20678889D01*
X15161611Y-20678889D02*
X15161611Y-20621746D01*
X15161611Y-20621746D02*
X15171135Y-20602698D01*
X15171135Y-20602698D02*
X15180658Y-20593174D01*
X15180658Y-20593174D02*
X15199706Y-20583651D01*
X15199706Y-20583651D02*
X15237801Y-20583651D01*
X15237801Y-20583651D02*
X15256849Y-20593174D01*
X15333039Y-20793174D02*
X15342563Y-20783651D01*
X15342563Y-20783651D02*
X15361611Y-20755079D01*
X15361611Y-20755079D02*
X15371135Y-20736032D01*
X15371135Y-20736032D02*
X15380658Y-20707460D01*
X15380658Y-20707460D02*
X15390182Y-20659841D01*
X15390182Y-20659841D02*
X15390182Y-20621746D01*
X15390182Y-20621746D02*
X15380658Y-20574127D01*
X15380658Y-20574127D02*
X15371135Y-20545555D01*
X15371135Y-20545555D02*
X15361611Y-20526508D01*
X15361611Y-20526508D02*
X15342563Y-20497936D01*
X15342563Y-20497936D02*
X15333039Y-20488412D01*
D14*
X6742578Y-20965668D02*
X6742578Y-20845332D01*
X6622242Y-20845332D01*
X6622242Y-20965668D01*
X6742578Y-20965668D01*
D11*
X7133039Y-20996984D02*
X7018753Y-20996984D01*
X7075896Y-20996984D02*
X7075896Y-20796984D01*
X7075896Y-20796984D02*
X7056848Y-20825555D01*
X7056848Y-20825555D02*
X7037801Y-20844603D01*
X7037801Y-20844603D02*
X7018753Y-20854127D01*
X7218753Y-20977936D02*
X7228277Y-20987460D01*
X7228277Y-20987460D02*
X7218753Y-20996984D01*
X7218753Y-20996984D02*
X7209229Y-20987460D01*
X7209229Y-20987460D02*
X7218753Y-20977936D01*
X7218753Y-20977936D02*
X7218753Y-20996984D01*
X7294943Y-20796984D02*
X7428277Y-20796984D01*
X7428277Y-20796984D02*
X7342562Y-20996984D01*
X7542562Y-20796984D02*
X7561610Y-20796984D01*
X7561610Y-20796984D02*
X7580658Y-20806508D01*
X7580658Y-20806508D02*
X7590182Y-20816032D01*
X7590182Y-20816032D02*
X7599705Y-20835079D01*
X7599705Y-20835079D02*
X7609229Y-20873174D01*
X7609229Y-20873174D02*
X7609229Y-20920793D01*
X7609229Y-20920793D02*
X7599705Y-20958889D01*
X7599705Y-20958889D02*
X7590182Y-20977936D01*
X7590182Y-20977936D02*
X7580658Y-20987460D01*
X7580658Y-20987460D02*
X7561610Y-20996984D01*
X7561610Y-20996984D02*
X7542562Y-20996984D01*
X7542562Y-20996984D02*
X7523515Y-20987460D01*
X7523515Y-20987460D02*
X7513991Y-20977936D01*
X7513991Y-20977936D02*
X7504467Y-20958889D01*
X7504467Y-20958889D02*
X7494943Y-20920793D01*
X7494943Y-20920793D02*
X7494943Y-20873174D01*
X7494943Y-20873174D02*
X7504467Y-20835079D01*
X7504467Y-20835079D02*
X7513991Y-20816032D01*
X7513991Y-20816032D02*
X7523515Y-20806508D01*
X7523515Y-20806508D02*
X7542562Y-20796984D01*
X7685420Y-20816032D02*
X7694943Y-20806508D01*
X7694943Y-20806508D02*
X7713991Y-20796984D01*
X7713991Y-20796984D02*
X7761610Y-20796984D01*
X7761610Y-20796984D02*
X7780658Y-20806508D01*
X7780658Y-20806508D02*
X7790182Y-20816032D01*
X7790182Y-20816032D02*
X7799705Y-20835079D01*
X7799705Y-20835079D02*
X7799705Y-20854127D01*
X7799705Y-20854127D02*
X7790182Y-20882698D01*
X7790182Y-20882698D02*
X7675896Y-20996984D01*
X7675896Y-20996984D02*
X7799705Y-20996984D01*
X7885420Y-20996984D02*
X7885420Y-20863651D01*
X7885420Y-20882698D02*
X7894943Y-20873174D01*
X7894943Y-20873174D02*
X7913991Y-20863651D01*
X7913991Y-20863651D02*
X7942563Y-20863651D01*
X7942563Y-20863651D02*
X7961610Y-20873174D01*
X7961610Y-20873174D02*
X7971134Y-20892222D01*
X7971134Y-20892222D02*
X7971134Y-20996984D01*
X7971134Y-20892222D02*
X7980658Y-20873174D01*
X7980658Y-20873174D02*
X7999705Y-20863651D01*
X7999705Y-20863651D02*
X8028277Y-20863651D01*
X8028277Y-20863651D02*
X8047324Y-20873174D01*
X8047324Y-20873174D02*
X8056848Y-20892222D01*
X8056848Y-20892222D02*
X8056848Y-20996984D01*
X8152086Y-20996984D02*
X8152086Y-20863651D01*
X8152086Y-20882698D02*
X8161610Y-20873174D01*
X8161610Y-20873174D02*
X8180658Y-20863651D01*
X8180658Y-20863651D02*
X8209229Y-20863651D01*
X8209229Y-20863651D02*
X8228277Y-20873174D01*
X8228277Y-20873174D02*
X8237801Y-20892222D01*
X8237801Y-20892222D02*
X8237801Y-20996984D01*
X8237801Y-20892222D02*
X8247324Y-20873174D01*
X8247324Y-20873174D02*
X8266372Y-20863651D01*
X8266372Y-20863651D02*
X8294943Y-20863651D01*
X8294943Y-20863651D02*
X8313991Y-20873174D01*
X8313991Y-20873174D02*
X8323515Y-20892222D01*
X8323515Y-20892222D02*
X8323515Y-20996984D01*
X8713991Y-20787460D02*
X8542563Y-21044603D01*
X8971134Y-20796984D02*
X8990182Y-20796984D01*
X8990182Y-20796984D02*
X9009229Y-20806508D01*
X9009229Y-20806508D02*
X9018753Y-20816032D01*
X9018753Y-20816032D02*
X9028277Y-20835079D01*
X9028277Y-20835079D02*
X9037801Y-20873174D01*
X9037801Y-20873174D02*
X9037801Y-20920793D01*
X9037801Y-20920793D02*
X9028277Y-20958889D01*
X9028277Y-20958889D02*
X9018753Y-20977936D01*
X9018753Y-20977936D02*
X9009229Y-20987460D01*
X9009229Y-20987460D02*
X8990182Y-20996984D01*
X8990182Y-20996984D02*
X8971134Y-20996984D01*
X8971134Y-20996984D02*
X8952087Y-20987460D01*
X8952087Y-20987460D02*
X8942563Y-20977936D01*
X8942563Y-20977936D02*
X8933039Y-20958889D01*
X8933039Y-20958889D02*
X8923515Y-20920793D01*
X8923515Y-20920793D02*
X8923515Y-20873174D01*
X8923515Y-20873174D02*
X8933039Y-20835079D01*
X8933039Y-20835079D02*
X8942563Y-20816032D01*
X8942563Y-20816032D02*
X8952087Y-20806508D01*
X8952087Y-20806508D02*
X8971134Y-20796984D01*
X9123515Y-20977936D02*
X9133039Y-20987460D01*
X9133039Y-20987460D02*
X9123515Y-20996984D01*
X9123515Y-20996984D02*
X9113991Y-20987460D01*
X9113991Y-20987460D02*
X9123515Y-20977936D01*
X9123515Y-20977936D02*
X9123515Y-20996984D01*
X9256848Y-20796984D02*
X9275896Y-20796984D01*
X9275896Y-20796984D02*
X9294944Y-20806508D01*
X9294944Y-20806508D02*
X9304468Y-20816032D01*
X9304468Y-20816032D02*
X9313991Y-20835079D01*
X9313991Y-20835079D02*
X9323515Y-20873174D01*
X9323515Y-20873174D02*
X9323515Y-20920793D01*
X9323515Y-20920793D02*
X9313991Y-20958889D01*
X9313991Y-20958889D02*
X9304468Y-20977936D01*
X9304468Y-20977936D02*
X9294944Y-20987460D01*
X9294944Y-20987460D02*
X9275896Y-20996984D01*
X9275896Y-20996984D02*
X9256848Y-20996984D01*
X9256848Y-20996984D02*
X9237801Y-20987460D01*
X9237801Y-20987460D02*
X9228277Y-20977936D01*
X9228277Y-20977936D02*
X9218753Y-20958889D01*
X9218753Y-20958889D02*
X9209229Y-20920793D01*
X9209229Y-20920793D02*
X9209229Y-20873174D01*
X9209229Y-20873174D02*
X9218753Y-20835079D01*
X9218753Y-20835079D02*
X9228277Y-20816032D01*
X9228277Y-20816032D02*
X9237801Y-20806508D01*
X9237801Y-20806508D02*
X9256848Y-20796984D01*
X9494944Y-20796984D02*
X9456848Y-20796984D01*
X9456848Y-20796984D02*
X9437801Y-20806508D01*
X9437801Y-20806508D02*
X9428277Y-20816032D01*
X9428277Y-20816032D02*
X9409229Y-20844603D01*
X9409229Y-20844603D02*
X9399706Y-20882698D01*
X9399706Y-20882698D02*
X9399706Y-20958889D01*
X9399706Y-20958889D02*
X9409229Y-20977936D01*
X9409229Y-20977936D02*
X9418753Y-20987460D01*
X9418753Y-20987460D02*
X9437801Y-20996984D01*
X9437801Y-20996984D02*
X9475896Y-20996984D01*
X9475896Y-20996984D02*
X9494944Y-20987460D01*
X9494944Y-20987460D02*
X9504468Y-20977936D01*
X9504468Y-20977936D02*
X9513991Y-20958889D01*
X9513991Y-20958889D02*
X9513991Y-20911270D01*
X9513991Y-20911270D02*
X9504468Y-20892222D01*
X9504468Y-20892222D02*
X9494944Y-20882698D01*
X9494944Y-20882698D02*
X9475896Y-20873174D01*
X9475896Y-20873174D02*
X9437801Y-20873174D01*
X9437801Y-20873174D02*
X9418753Y-20882698D01*
X9418753Y-20882698D02*
X9409229Y-20892222D01*
X9409229Y-20892222D02*
X9399706Y-20911270D01*
X9580658Y-20796984D02*
X9713991Y-20796984D01*
X9713991Y-20796984D02*
X9628277Y-20996984D01*
X9828277Y-20796984D02*
X9847325Y-20796984D01*
X9847325Y-20796984D02*
X9866372Y-20806508D01*
X9866372Y-20806508D02*
X9875896Y-20816032D01*
X9875896Y-20816032D02*
X9885420Y-20835079D01*
X9885420Y-20835079D02*
X9894944Y-20873174D01*
X9894944Y-20873174D02*
X9894944Y-20920793D01*
X9894944Y-20920793D02*
X9885420Y-20958889D01*
X9885420Y-20958889D02*
X9875896Y-20977936D01*
X9875896Y-20977936D02*
X9866372Y-20987460D01*
X9866372Y-20987460D02*
X9847325Y-20996984D01*
X9847325Y-20996984D02*
X9828277Y-20996984D01*
X9828277Y-20996984D02*
X9809229Y-20987460D01*
X9809229Y-20987460D02*
X9799706Y-20977936D01*
X9799706Y-20977936D02*
X9790182Y-20958889D01*
X9790182Y-20958889D02*
X9780658Y-20920793D01*
X9780658Y-20920793D02*
X9780658Y-20873174D01*
X9780658Y-20873174D02*
X9790182Y-20835079D01*
X9790182Y-20835079D02*
X9799706Y-20816032D01*
X9799706Y-20816032D02*
X9809229Y-20806508D01*
X9809229Y-20806508D02*
X9828277Y-20796984D01*
X9971134Y-20796984D02*
X9971134Y-20835079D01*
X10047325Y-20796984D02*
X10047325Y-20835079D01*
X10342563Y-21073174D02*
X10333039Y-21063651D01*
X10333039Y-21063651D02*
X10313991Y-21035079D01*
X10313991Y-21035079D02*
X10304468Y-21016032D01*
X10304468Y-21016032D02*
X10294944Y-20987460D01*
X10294944Y-20987460D02*
X10285420Y-20939841D01*
X10285420Y-20939841D02*
X10285420Y-20901746D01*
X10285420Y-20901746D02*
X10294944Y-20854127D01*
X10294944Y-20854127D02*
X10304468Y-20825555D01*
X10304468Y-20825555D02*
X10313991Y-20806508D01*
X10313991Y-20806508D02*
X10333039Y-20777936D01*
X10333039Y-20777936D02*
X10342563Y-20768412D01*
X10447325Y-20882698D02*
X10428277Y-20873174D01*
X10428277Y-20873174D02*
X10418753Y-20863651D01*
X10418753Y-20863651D02*
X10409230Y-20844603D01*
X10409230Y-20844603D02*
X10409230Y-20835079D01*
X10409230Y-20835079D02*
X10418753Y-20816032D01*
X10418753Y-20816032D02*
X10428277Y-20806508D01*
X10428277Y-20806508D02*
X10447325Y-20796984D01*
X10447325Y-20796984D02*
X10485420Y-20796984D01*
X10485420Y-20796984D02*
X10504468Y-20806508D01*
X10504468Y-20806508D02*
X10513991Y-20816032D01*
X10513991Y-20816032D02*
X10523515Y-20835079D01*
X10523515Y-20835079D02*
X10523515Y-20844603D01*
X10523515Y-20844603D02*
X10513991Y-20863651D01*
X10513991Y-20863651D02*
X10504468Y-20873174D01*
X10504468Y-20873174D02*
X10485420Y-20882698D01*
X10485420Y-20882698D02*
X10447325Y-20882698D01*
X10447325Y-20882698D02*
X10428277Y-20892222D01*
X10428277Y-20892222D02*
X10418753Y-20901746D01*
X10418753Y-20901746D02*
X10409230Y-20920793D01*
X10409230Y-20920793D02*
X10409230Y-20958889D01*
X10409230Y-20958889D02*
X10418753Y-20977936D01*
X10418753Y-20977936D02*
X10428277Y-20987460D01*
X10428277Y-20987460D02*
X10447325Y-20996984D01*
X10447325Y-20996984D02*
X10485420Y-20996984D01*
X10485420Y-20996984D02*
X10504468Y-20987460D01*
X10504468Y-20987460D02*
X10513991Y-20977936D01*
X10513991Y-20977936D02*
X10523515Y-20958889D01*
X10523515Y-20958889D02*
X10523515Y-20920793D01*
X10523515Y-20920793D02*
X10513991Y-20901746D01*
X10513991Y-20901746D02*
X10504468Y-20892222D01*
X10504468Y-20892222D02*
X10485420Y-20882698D01*
X10694944Y-20863651D02*
X10694944Y-20996984D01*
X10647325Y-20787460D02*
X10599706Y-20930317D01*
X10599706Y-20930317D02*
X10723515Y-20930317D01*
X10952087Y-20996984D02*
X10952087Y-20796984D01*
X11037801Y-20996984D02*
X11037801Y-20892222D01*
X11037801Y-20892222D02*
X11028277Y-20873174D01*
X11028277Y-20873174D02*
X11009230Y-20863651D01*
X11009230Y-20863651D02*
X10980658Y-20863651D01*
X10980658Y-20863651D02*
X10961611Y-20873174D01*
X10961611Y-20873174D02*
X10952087Y-20882698D01*
X11161611Y-20996984D02*
X11142563Y-20987460D01*
X11142563Y-20987460D02*
X11133039Y-20977936D01*
X11133039Y-20977936D02*
X11123515Y-20958889D01*
X11123515Y-20958889D02*
X11123515Y-20901746D01*
X11123515Y-20901746D02*
X11133039Y-20882698D01*
X11133039Y-20882698D02*
X11142563Y-20873174D01*
X11142563Y-20873174D02*
X11161611Y-20863651D01*
X11161611Y-20863651D02*
X11190182Y-20863651D01*
X11190182Y-20863651D02*
X11209230Y-20873174D01*
X11209230Y-20873174D02*
X11218753Y-20882698D01*
X11218753Y-20882698D02*
X11228277Y-20901746D01*
X11228277Y-20901746D02*
X11228277Y-20958889D01*
X11228277Y-20958889D02*
X11218753Y-20977936D01*
X11218753Y-20977936D02*
X11209230Y-20987460D01*
X11209230Y-20987460D02*
X11190182Y-20996984D01*
X11190182Y-20996984D02*
X11161611Y-20996984D01*
X11342563Y-20996984D02*
X11323515Y-20987460D01*
X11323515Y-20987460D02*
X11313991Y-20968412D01*
X11313991Y-20968412D02*
X11313991Y-20796984D01*
X11494944Y-20987460D02*
X11475896Y-20996984D01*
X11475896Y-20996984D02*
X11437801Y-20996984D01*
X11437801Y-20996984D02*
X11418753Y-20987460D01*
X11418753Y-20987460D02*
X11409230Y-20968412D01*
X11409230Y-20968412D02*
X11409230Y-20892222D01*
X11409230Y-20892222D02*
X11418753Y-20873174D01*
X11418753Y-20873174D02*
X11437801Y-20863651D01*
X11437801Y-20863651D02*
X11475896Y-20863651D01*
X11475896Y-20863651D02*
X11494944Y-20873174D01*
X11494944Y-20873174D02*
X11504468Y-20892222D01*
X11504468Y-20892222D02*
X11504468Y-20911270D01*
X11504468Y-20911270D02*
X11409230Y-20930317D01*
X11580658Y-20987460D02*
X11599706Y-20996984D01*
X11599706Y-20996984D02*
X11637801Y-20996984D01*
X11637801Y-20996984D02*
X11656849Y-20987460D01*
X11656849Y-20987460D02*
X11666372Y-20968412D01*
X11666372Y-20968412D02*
X11666372Y-20958889D01*
X11666372Y-20958889D02*
X11656849Y-20939841D01*
X11656849Y-20939841D02*
X11637801Y-20930317D01*
X11637801Y-20930317D02*
X11609230Y-20930317D01*
X11609230Y-20930317D02*
X11590182Y-20920793D01*
X11590182Y-20920793D02*
X11580658Y-20901746D01*
X11580658Y-20901746D02*
X11580658Y-20892222D01*
X11580658Y-20892222D02*
X11590182Y-20873174D01*
X11590182Y-20873174D02*
X11609230Y-20863651D01*
X11609230Y-20863651D02*
X11637801Y-20863651D01*
X11637801Y-20863651D02*
X11656849Y-20873174D01*
X11733039Y-21073174D02*
X11742563Y-21063651D01*
X11742563Y-21063651D02*
X11761611Y-21035079D01*
X11761611Y-21035079D02*
X11771134Y-21016032D01*
X11771134Y-21016032D02*
X11780658Y-20987460D01*
X11780658Y-20987460D02*
X11790182Y-20939841D01*
X11790182Y-20939841D02*
X11790182Y-20901746D01*
X11790182Y-20901746D02*
X11780658Y-20854127D01*
X11780658Y-20854127D02*
X11771134Y-20825555D01*
X11771134Y-20825555D02*
X11761611Y-20806508D01*
X11761611Y-20806508D02*
X11742563Y-20777936D01*
X11742563Y-20777936D02*
X11733039Y-20768412D01*
X12094944Y-21073174D02*
X12085420Y-21063651D01*
X12085420Y-21063651D02*
X12066372Y-21035079D01*
X12066372Y-21035079D02*
X12056849Y-21016032D01*
X12056849Y-21016032D02*
X12047325Y-20987460D01*
X12047325Y-20987460D02*
X12037801Y-20939841D01*
X12037801Y-20939841D02*
X12037801Y-20901746D01*
X12037801Y-20901746D02*
X12047325Y-20854127D01*
X12047325Y-20854127D02*
X12056849Y-20825555D01*
X12056849Y-20825555D02*
X12066372Y-20806508D01*
X12066372Y-20806508D02*
X12085420Y-20777936D01*
X12085420Y-20777936D02*
X12094944Y-20768412D01*
X12171134Y-20863651D02*
X12171134Y-20996984D01*
X12171134Y-20882698D02*
X12180658Y-20873174D01*
X12180658Y-20873174D02*
X12199706Y-20863651D01*
X12199706Y-20863651D02*
X12228277Y-20863651D01*
X12228277Y-20863651D02*
X12247325Y-20873174D01*
X12247325Y-20873174D02*
X12256849Y-20892222D01*
X12256849Y-20892222D02*
X12256849Y-20996984D01*
X12380658Y-20996984D02*
X12361611Y-20987460D01*
X12361611Y-20987460D02*
X12352087Y-20977936D01*
X12352087Y-20977936D02*
X12342563Y-20958889D01*
X12342563Y-20958889D02*
X12342563Y-20901746D01*
X12342563Y-20901746D02*
X12352087Y-20882698D01*
X12352087Y-20882698D02*
X12361611Y-20873174D01*
X12361611Y-20873174D02*
X12380658Y-20863651D01*
X12380658Y-20863651D02*
X12409230Y-20863651D01*
X12409230Y-20863651D02*
X12428277Y-20873174D01*
X12428277Y-20873174D02*
X12437801Y-20882698D01*
X12437801Y-20882698D02*
X12447325Y-20901746D01*
X12447325Y-20901746D02*
X12447325Y-20958889D01*
X12447325Y-20958889D02*
X12437801Y-20977936D01*
X12437801Y-20977936D02*
X12428277Y-20987460D01*
X12428277Y-20987460D02*
X12409230Y-20996984D01*
X12409230Y-20996984D02*
X12380658Y-20996984D01*
X12504468Y-20863651D02*
X12580658Y-20863651D01*
X12533039Y-20796984D02*
X12533039Y-20968412D01*
X12533039Y-20968412D02*
X12542563Y-20987460D01*
X12542563Y-20987460D02*
X12561611Y-20996984D01*
X12561611Y-20996984D02*
X12580658Y-20996984D01*
X12799706Y-20863651D02*
X12799706Y-21063651D01*
X12799706Y-20873174D02*
X12818753Y-20863651D01*
X12818753Y-20863651D02*
X12856849Y-20863651D01*
X12856849Y-20863651D02*
X12875896Y-20873174D01*
X12875896Y-20873174D02*
X12885420Y-20882698D01*
X12885420Y-20882698D02*
X12894944Y-20901746D01*
X12894944Y-20901746D02*
X12894944Y-20958889D01*
X12894944Y-20958889D02*
X12885420Y-20977936D01*
X12885420Y-20977936D02*
X12875896Y-20987460D01*
X12875896Y-20987460D02*
X12856849Y-20996984D01*
X12856849Y-20996984D02*
X12818753Y-20996984D01*
X12818753Y-20996984D02*
X12799706Y-20987460D01*
X13009230Y-20996984D02*
X12990182Y-20987460D01*
X12990182Y-20987460D02*
X12980658Y-20968412D01*
X12980658Y-20968412D02*
X12980658Y-20796984D01*
X13171134Y-20996984D02*
X13171134Y-20892222D01*
X13171134Y-20892222D02*
X13161611Y-20873174D01*
X13161611Y-20873174D02*
X13142563Y-20863651D01*
X13142563Y-20863651D02*
X13104468Y-20863651D01*
X13104468Y-20863651D02*
X13085420Y-20873174D01*
X13171134Y-20987460D02*
X13152087Y-20996984D01*
X13152087Y-20996984D02*
X13104468Y-20996984D01*
X13104468Y-20996984D02*
X13085420Y-20987460D01*
X13085420Y-20987460D02*
X13075896Y-20968412D01*
X13075896Y-20968412D02*
X13075896Y-20949365D01*
X13075896Y-20949365D02*
X13085420Y-20930317D01*
X13085420Y-20930317D02*
X13104468Y-20920793D01*
X13104468Y-20920793D02*
X13152087Y-20920793D01*
X13152087Y-20920793D02*
X13171134Y-20911270D01*
X13237801Y-20863651D02*
X13313992Y-20863651D01*
X13266373Y-20796984D02*
X13266373Y-20968412D01*
X13266373Y-20968412D02*
X13275896Y-20987460D01*
X13275896Y-20987460D02*
X13294944Y-20996984D01*
X13294944Y-20996984D02*
X13313992Y-20996984D01*
X13456849Y-20987460D02*
X13437801Y-20996984D01*
X13437801Y-20996984D02*
X13399706Y-20996984D01*
X13399706Y-20996984D02*
X13380658Y-20987460D01*
X13380658Y-20987460D02*
X13371134Y-20968412D01*
X13371134Y-20968412D02*
X13371134Y-20892222D01*
X13371134Y-20892222D02*
X13380658Y-20873174D01*
X13380658Y-20873174D02*
X13399706Y-20863651D01*
X13399706Y-20863651D02*
X13437801Y-20863651D01*
X13437801Y-20863651D02*
X13456849Y-20873174D01*
X13456849Y-20873174D02*
X13466373Y-20892222D01*
X13466373Y-20892222D02*
X13466373Y-20911270D01*
X13466373Y-20911270D02*
X13371134Y-20930317D01*
X13637801Y-20996984D02*
X13637801Y-20796984D01*
X13637801Y-20987460D02*
X13618754Y-20996984D01*
X13618754Y-20996984D02*
X13580658Y-20996984D01*
X13580658Y-20996984D02*
X13561611Y-20987460D01*
X13561611Y-20987460D02*
X13552087Y-20977936D01*
X13552087Y-20977936D02*
X13542563Y-20958889D01*
X13542563Y-20958889D02*
X13542563Y-20901746D01*
X13542563Y-20901746D02*
X13552087Y-20882698D01*
X13552087Y-20882698D02*
X13561611Y-20873174D01*
X13561611Y-20873174D02*
X13580658Y-20863651D01*
X13580658Y-20863651D02*
X13618754Y-20863651D01*
X13618754Y-20863651D02*
X13637801Y-20873174D01*
X13713992Y-21073174D02*
X13723515Y-21063651D01*
X13723515Y-21063651D02*
X13742563Y-21035079D01*
X13742563Y-21035079D02*
X13752087Y-21016032D01*
X13752087Y-21016032D02*
X13761611Y-20987460D01*
X13761611Y-20987460D02*
X13771134Y-20939841D01*
X13771134Y-20939841D02*
X13771134Y-20901746D01*
X13771134Y-20901746D02*
X13761611Y-20854127D01*
X13761611Y-20854127D02*
X13752087Y-20825555D01*
X13752087Y-20825555D02*
X13742563Y-20806508D01*
X13742563Y-20806508D02*
X13723515Y-20777936D01*
X13723515Y-20777936D02*
X13713992Y-20768412D01*
X6667500Y-21295680D02*
X6767500Y-21195680D01*
X6667500Y-21095680D01*
X6567500Y-21195680D01*
X6667500Y-21295680D01*
X7009229Y-21087164D02*
X7133039Y-21087164D01*
X7133039Y-21087164D02*
X7066372Y-21163354D01*
X7066372Y-21163354D02*
X7094943Y-21163354D01*
X7094943Y-21163354D02*
X7113991Y-21172878D01*
X7113991Y-21172878D02*
X7123515Y-21182402D01*
X7123515Y-21182402D02*
X7133039Y-21201450D01*
X7133039Y-21201450D02*
X7133039Y-21249069D01*
X7133039Y-21249069D02*
X7123515Y-21268116D01*
X7123515Y-21268116D02*
X7113991Y-21277640D01*
X7113991Y-21277640D02*
X7094943Y-21287164D01*
X7094943Y-21287164D02*
X7037801Y-21287164D01*
X7037801Y-21287164D02*
X7018753Y-21277640D01*
X7018753Y-21277640D02*
X7009229Y-21268116D01*
X7218753Y-21268116D02*
X7228277Y-21277640D01*
X7228277Y-21277640D02*
X7218753Y-21287164D01*
X7218753Y-21287164D02*
X7209229Y-21277640D01*
X7209229Y-21277640D02*
X7218753Y-21268116D01*
X7218753Y-21268116D02*
X7218753Y-21287164D01*
X7352086Y-21087164D02*
X7371134Y-21087164D01*
X7371134Y-21087164D02*
X7390182Y-21096688D01*
X7390182Y-21096688D02*
X7399705Y-21106212D01*
X7399705Y-21106212D02*
X7409229Y-21125259D01*
X7409229Y-21125259D02*
X7418753Y-21163354D01*
X7418753Y-21163354D02*
X7418753Y-21210973D01*
X7418753Y-21210973D02*
X7409229Y-21249069D01*
X7409229Y-21249069D02*
X7399705Y-21268116D01*
X7399705Y-21268116D02*
X7390182Y-21277640D01*
X7390182Y-21277640D02*
X7371134Y-21287164D01*
X7371134Y-21287164D02*
X7352086Y-21287164D01*
X7352086Y-21287164D02*
X7333039Y-21277640D01*
X7333039Y-21277640D02*
X7323515Y-21268116D01*
X7323515Y-21268116D02*
X7313991Y-21249069D01*
X7313991Y-21249069D02*
X7304467Y-21210973D01*
X7304467Y-21210973D02*
X7304467Y-21163354D01*
X7304467Y-21163354D02*
X7313991Y-21125259D01*
X7313991Y-21125259D02*
X7323515Y-21106212D01*
X7323515Y-21106212D02*
X7333039Y-21096688D01*
X7333039Y-21096688D02*
X7352086Y-21087164D01*
X7609229Y-21287164D02*
X7494943Y-21287164D01*
X7552086Y-21287164D02*
X7552086Y-21087164D01*
X7552086Y-21087164D02*
X7533039Y-21115735D01*
X7533039Y-21115735D02*
X7513991Y-21134783D01*
X7513991Y-21134783D02*
X7494943Y-21144307D01*
X7733039Y-21087164D02*
X7752086Y-21087164D01*
X7752086Y-21087164D02*
X7771134Y-21096688D01*
X7771134Y-21096688D02*
X7780658Y-21106212D01*
X7780658Y-21106212D02*
X7790182Y-21125259D01*
X7790182Y-21125259D02*
X7799705Y-21163354D01*
X7799705Y-21163354D02*
X7799705Y-21210973D01*
X7799705Y-21210973D02*
X7790182Y-21249069D01*
X7790182Y-21249069D02*
X7780658Y-21268116D01*
X7780658Y-21268116D02*
X7771134Y-21277640D01*
X7771134Y-21277640D02*
X7752086Y-21287164D01*
X7752086Y-21287164D02*
X7733039Y-21287164D01*
X7733039Y-21287164D02*
X7713991Y-21277640D01*
X7713991Y-21277640D02*
X7704467Y-21268116D01*
X7704467Y-21268116D02*
X7694943Y-21249069D01*
X7694943Y-21249069D02*
X7685420Y-21210973D01*
X7685420Y-21210973D02*
X7685420Y-21163354D01*
X7685420Y-21163354D02*
X7694943Y-21125259D01*
X7694943Y-21125259D02*
X7704467Y-21106212D01*
X7704467Y-21106212D02*
X7713991Y-21096688D01*
X7713991Y-21096688D02*
X7733039Y-21087164D01*
X7885420Y-21287164D02*
X7885420Y-21153831D01*
X7885420Y-21172878D02*
X7894943Y-21163354D01*
X7894943Y-21163354D02*
X7913991Y-21153831D01*
X7913991Y-21153831D02*
X7942563Y-21153831D01*
X7942563Y-21153831D02*
X7961610Y-21163354D01*
X7961610Y-21163354D02*
X7971134Y-21182402D01*
X7971134Y-21182402D02*
X7971134Y-21287164D01*
X7971134Y-21182402D02*
X7980658Y-21163354D01*
X7980658Y-21163354D02*
X7999705Y-21153831D01*
X7999705Y-21153831D02*
X8028277Y-21153831D01*
X8028277Y-21153831D02*
X8047324Y-21163354D01*
X8047324Y-21163354D02*
X8056848Y-21182402D01*
X8056848Y-21182402D02*
X8056848Y-21287164D01*
X8152086Y-21287164D02*
X8152086Y-21153831D01*
X8152086Y-21172878D02*
X8161610Y-21163354D01*
X8161610Y-21163354D02*
X8180658Y-21153831D01*
X8180658Y-21153831D02*
X8209229Y-21153831D01*
X8209229Y-21153831D02*
X8228277Y-21163354D01*
X8228277Y-21163354D02*
X8237801Y-21182402D01*
X8237801Y-21182402D02*
X8237801Y-21287164D01*
X8237801Y-21182402D02*
X8247324Y-21163354D01*
X8247324Y-21163354D02*
X8266372Y-21153831D01*
X8266372Y-21153831D02*
X8294943Y-21153831D01*
X8294943Y-21153831D02*
X8313991Y-21163354D01*
X8313991Y-21163354D02*
X8323515Y-21182402D01*
X8323515Y-21182402D02*
X8323515Y-21287164D01*
X8713991Y-21077640D02*
X8542563Y-21334783D01*
X8971134Y-21087164D02*
X8990182Y-21087164D01*
X8990182Y-21087164D02*
X9009229Y-21096688D01*
X9009229Y-21096688D02*
X9018753Y-21106212D01*
X9018753Y-21106212D02*
X9028277Y-21125259D01*
X9028277Y-21125259D02*
X9037801Y-21163354D01*
X9037801Y-21163354D02*
X9037801Y-21210973D01*
X9037801Y-21210973D02*
X9028277Y-21249069D01*
X9028277Y-21249069D02*
X9018753Y-21268116D01*
X9018753Y-21268116D02*
X9009229Y-21277640D01*
X9009229Y-21277640D02*
X8990182Y-21287164D01*
X8990182Y-21287164D02*
X8971134Y-21287164D01*
X8971134Y-21287164D02*
X8952087Y-21277640D01*
X8952087Y-21277640D02*
X8942563Y-21268116D01*
X8942563Y-21268116D02*
X8933039Y-21249069D01*
X8933039Y-21249069D02*
X8923515Y-21210973D01*
X8923515Y-21210973D02*
X8923515Y-21163354D01*
X8923515Y-21163354D02*
X8933039Y-21125259D01*
X8933039Y-21125259D02*
X8942563Y-21106212D01*
X8942563Y-21106212D02*
X8952087Y-21096688D01*
X8952087Y-21096688D02*
X8971134Y-21087164D01*
X9123515Y-21268116D02*
X9133039Y-21277640D01*
X9133039Y-21277640D02*
X9123515Y-21287164D01*
X9123515Y-21287164D02*
X9113991Y-21277640D01*
X9113991Y-21277640D02*
X9123515Y-21268116D01*
X9123515Y-21268116D02*
X9123515Y-21287164D01*
X9323515Y-21287164D02*
X9209229Y-21287164D01*
X9266372Y-21287164D02*
X9266372Y-21087164D01*
X9266372Y-21087164D02*
X9247325Y-21115735D01*
X9247325Y-21115735D02*
X9228277Y-21134783D01*
X9228277Y-21134783D02*
X9209229Y-21144307D01*
X9513991Y-21287164D02*
X9399706Y-21287164D01*
X9456848Y-21287164D02*
X9456848Y-21087164D01*
X9456848Y-21087164D02*
X9437801Y-21115735D01*
X9437801Y-21115735D02*
X9418753Y-21134783D01*
X9418753Y-21134783D02*
X9399706Y-21144307D01*
X9628277Y-21172878D02*
X9609229Y-21163354D01*
X9609229Y-21163354D02*
X9599706Y-21153831D01*
X9599706Y-21153831D02*
X9590182Y-21134783D01*
X9590182Y-21134783D02*
X9590182Y-21125259D01*
X9590182Y-21125259D02*
X9599706Y-21106212D01*
X9599706Y-21106212D02*
X9609229Y-21096688D01*
X9609229Y-21096688D02*
X9628277Y-21087164D01*
X9628277Y-21087164D02*
X9666372Y-21087164D01*
X9666372Y-21087164D02*
X9685420Y-21096688D01*
X9685420Y-21096688D02*
X9694944Y-21106212D01*
X9694944Y-21106212D02*
X9704468Y-21125259D01*
X9704468Y-21125259D02*
X9704468Y-21134783D01*
X9704468Y-21134783D02*
X9694944Y-21153831D01*
X9694944Y-21153831D02*
X9685420Y-21163354D01*
X9685420Y-21163354D02*
X9666372Y-21172878D01*
X9666372Y-21172878D02*
X9628277Y-21172878D01*
X9628277Y-21172878D02*
X9609229Y-21182402D01*
X9609229Y-21182402D02*
X9599706Y-21191926D01*
X9599706Y-21191926D02*
X9590182Y-21210973D01*
X9590182Y-21210973D02*
X9590182Y-21249069D01*
X9590182Y-21249069D02*
X9599706Y-21268116D01*
X9599706Y-21268116D02*
X9609229Y-21277640D01*
X9609229Y-21277640D02*
X9628277Y-21287164D01*
X9628277Y-21287164D02*
X9666372Y-21287164D01*
X9666372Y-21287164D02*
X9685420Y-21277640D01*
X9685420Y-21277640D02*
X9694944Y-21268116D01*
X9694944Y-21268116D02*
X9704468Y-21249069D01*
X9704468Y-21249069D02*
X9704468Y-21210973D01*
X9704468Y-21210973D02*
X9694944Y-21191926D01*
X9694944Y-21191926D02*
X9685420Y-21182402D01*
X9685420Y-21182402D02*
X9666372Y-21172878D01*
X9885420Y-21087164D02*
X9790182Y-21087164D01*
X9790182Y-21087164D02*
X9780658Y-21182402D01*
X9780658Y-21182402D02*
X9790182Y-21172878D01*
X9790182Y-21172878D02*
X9809229Y-21163354D01*
X9809229Y-21163354D02*
X9856849Y-21163354D01*
X9856849Y-21163354D02*
X9875896Y-21172878D01*
X9875896Y-21172878D02*
X9885420Y-21182402D01*
X9885420Y-21182402D02*
X9894944Y-21201450D01*
X9894944Y-21201450D02*
X9894944Y-21249069D01*
X9894944Y-21249069D02*
X9885420Y-21268116D01*
X9885420Y-21268116D02*
X9875896Y-21277640D01*
X9875896Y-21277640D02*
X9856849Y-21287164D01*
X9856849Y-21287164D02*
X9809229Y-21287164D01*
X9809229Y-21287164D02*
X9790182Y-21277640D01*
X9790182Y-21277640D02*
X9780658Y-21268116D01*
X9971134Y-21087164D02*
X9971134Y-21125259D01*
X10047325Y-21087164D02*
X10047325Y-21125259D01*
X10342563Y-21363354D02*
X10333039Y-21353831D01*
X10333039Y-21353831D02*
X10313991Y-21325259D01*
X10313991Y-21325259D02*
X10304468Y-21306212D01*
X10304468Y-21306212D02*
X10294944Y-21277640D01*
X10294944Y-21277640D02*
X10285420Y-21230021D01*
X10285420Y-21230021D02*
X10285420Y-21191926D01*
X10285420Y-21191926D02*
X10294944Y-21144307D01*
X10294944Y-21144307D02*
X10304468Y-21115735D01*
X10304468Y-21115735D02*
X10313991Y-21096688D01*
X10313991Y-21096688D02*
X10333039Y-21068116D01*
X10333039Y-21068116D02*
X10342563Y-21058592D01*
X10447325Y-21172878D02*
X10428277Y-21163354D01*
X10428277Y-21163354D02*
X10418753Y-21153831D01*
X10418753Y-21153831D02*
X10409230Y-21134783D01*
X10409230Y-21134783D02*
X10409230Y-21125259D01*
X10409230Y-21125259D02*
X10418753Y-21106212D01*
X10418753Y-21106212D02*
X10428277Y-21096688D01*
X10428277Y-21096688D02*
X10447325Y-21087164D01*
X10447325Y-21087164D02*
X10485420Y-21087164D01*
X10485420Y-21087164D02*
X10504468Y-21096688D01*
X10504468Y-21096688D02*
X10513991Y-21106212D01*
X10513991Y-21106212D02*
X10523515Y-21125259D01*
X10523515Y-21125259D02*
X10523515Y-21134783D01*
X10523515Y-21134783D02*
X10513991Y-21153831D01*
X10513991Y-21153831D02*
X10504468Y-21163354D01*
X10504468Y-21163354D02*
X10485420Y-21172878D01*
X10485420Y-21172878D02*
X10447325Y-21172878D01*
X10447325Y-21172878D02*
X10428277Y-21182402D01*
X10428277Y-21182402D02*
X10418753Y-21191926D01*
X10418753Y-21191926D02*
X10409230Y-21210973D01*
X10409230Y-21210973D02*
X10409230Y-21249069D01*
X10409230Y-21249069D02*
X10418753Y-21268116D01*
X10418753Y-21268116D02*
X10428277Y-21277640D01*
X10428277Y-21277640D02*
X10447325Y-21287164D01*
X10447325Y-21287164D02*
X10485420Y-21287164D01*
X10485420Y-21287164D02*
X10504468Y-21277640D01*
X10504468Y-21277640D02*
X10513991Y-21268116D01*
X10513991Y-21268116D02*
X10523515Y-21249069D01*
X10523515Y-21249069D02*
X10523515Y-21210973D01*
X10523515Y-21210973D02*
X10513991Y-21191926D01*
X10513991Y-21191926D02*
X10504468Y-21182402D01*
X10504468Y-21182402D02*
X10485420Y-21172878D01*
X10694944Y-21153831D02*
X10694944Y-21287164D01*
X10647325Y-21077640D02*
X10599706Y-21220497D01*
X10599706Y-21220497D02*
X10723515Y-21220497D01*
X10952087Y-21287164D02*
X10952087Y-21087164D01*
X11037801Y-21287164D02*
X11037801Y-21182402D01*
X11037801Y-21182402D02*
X11028277Y-21163354D01*
X11028277Y-21163354D02*
X11009230Y-21153831D01*
X11009230Y-21153831D02*
X10980658Y-21153831D01*
X10980658Y-21153831D02*
X10961611Y-21163354D01*
X10961611Y-21163354D02*
X10952087Y-21172878D01*
X11161611Y-21287164D02*
X11142563Y-21277640D01*
X11142563Y-21277640D02*
X11133039Y-21268116D01*
X11133039Y-21268116D02*
X11123515Y-21249069D01*
X11123515Y-21249069D02*
X11123515Y-21191926D01*
X11123515Y-21191926D02*
X11133039Y-21172878D01*
X11133039Y-21172878D02*
X11142563Y-21163354D01*
X11142563Y-21163354D02*
X11161611Y-21153831D01*
X11161611Y-21153831D02*
X11190182Y-21153831D01*
X11190182Y-21153831D02*
X11209230Y-21163354D01*
X11209230Y-21163354D02*
X11218753Y-21172878D01*
X11218753Y-21172878D02*
X11228277Y-21191926D01*
X11228277Y-21191926D02*
X11228277Y-21249069D01*
X11228277Y-21249069D02*
X11218753Y-21268116D01*
X11218753Y-21268116D02*
X11209230Y-21277640D01*
X11209230Y-21277640D02*
X11190182Y-21287164D01*
X11190182Y-21287164D02*
X11161611Y-21287164D01*
X11342563Y-21287164D02*
X11323515Y-21277640D01*
X11323515Y-21277640D02*
X11313991Y-21258592D01*
X11313991Y-21258592D02*
X11313991Y-21087164D01*
X11494944Y-21277640D02*
X11475896Y-21287164D01*
X11475896Y-21287164D02*
X11437801Y-21287164D01*
X11437801Y-21287164D02*
X11418753Y-21277640D01*
X11418753Y-21277640D02*
X11409230Y-21258592D01*
X11409230Y-21258592D02*
X11409230Y-21182402D01*
X11409230Y-21182402D02*
X11418753Y-21163354D01*
X11418753Y-21163354D02*
X11437801Y-21153831D01*
X11437801Y-21153831D02*
X11475896Y-21153831D01*
X11475896Y-21153831D02*
X11494944Y-21163354D01*
X11494944Y-21163354D02*
X11504468Y-21182402D01*
X11504468Y-21182402D02*
X11504468Y-21201450D01*
X11504468Y-21201450D02*
X11409230Y-21220497D01*
X11580658Y-21277640D02*
X11599706Y-21287164D01*
X11599706Y-21287164D02*
X11637801Y-21287164D01*
X11637801Y-21287164D02*
X11656849Y-21277640D01*
X11656849Y-21277640D02*
X11666372Y-21258592D01*
X11666372Y-21258592D02*
X11666372Y-21249069D01*
X11666372Y-21249069D02*
X11656849Y-21230021D01*
X11656849Y-21230021D02*
X11637801Y-21220497D01*
X11637801Y-21220497D02*
X11609230Y-21220497D01*
X11609230Y-21220497D02*
X11590182Y-21210973D01*
X11590182Y-21210973D02*
X11580658Y-21191926D01*
X11580658Y-21191926D02*
X11580658Y-21182402D01*
X11580658Y-21182402D02*
X11590182Y-21163354D01*
X11590182Y-21163354D02*
X11609230Y-21153831D01*
X11609230Y-21153831D02*
X11637801Y-21153831D01*
X11637801Y-21153831D02*
X11656849Y-21163354D01*
X11733039Y-21363354D02*
X11742563Y-21353831D01*
X11742563Y-21353831D02*
X11761611Y-21325259D01*
X11761611Y-21325259D02*
X11771134Y-21306212D01*
X11771134Y-21306212D02*
X11780658Y-21277640D01*
X11780658Y-21277640D02*
X11790182Y-21230021D01*
X11790182Y-21230021D02*
X11790182Y-21191926D01*
X11790182Y-21191926D02*
X11780658Y-21144307D01*
X11780658Y-21144307D02*
X11771134Y-21115735D01*
X11771134Y-21115735D02*
X11761611Y-21096688D01*
X11761611Y-21096688D02*
X11742563Y-21068116D01*
X11742563Y-21068116D02*
X11733039Y-21058592D01*
X12094944Y-21363354D02*
X12085420Y-21353831D01*
X12085420Y-21353831D02*
X12066372Y-21325259D01*
X12066372Y-21325259D02*
X12056849Y-21306212D01*
X12056849Y-21306212D02*
X12047325Y-21277640D01*
X12047325Y-21277640D02*
X12037801Y-21230021D01*
X12037801Y-21230021D02*
X12037801Y-21191926D01*
X12037801Y-21191926D02*
X12047325Y-21144307D01*
X12047325Y-21144307D02*
X12056849Y-21115735D01*
X12056849Y-21115735D02*
X12066372Y-21096688D01*
X12066372Y-21096688D02*
X12085420Y-21068116D01*
X12085420Y-21068116D02*
X12094944Y-21058592D01*
X12171134Y-21153831D02*
X12171134Y-21287164D01*
X12171134Y-21172878D02*
X12180658Y-21163354D01*
X12180658Y-21163354D02*
X12199706Y-21153831D01*
X12199706Y-21153831D02*
X12228277Y-21153831D01*
X12228277Y-21153831D02*
X12247325Y-21163354D01*
X12247325Y-21163354D02*
X12256849Y-21182402D01*
X12256849Y-21182402D02*
X12256849Y-21287164D01*
X12380658Y-21287164D02*
X12361611Y-21277640D01*
X12361611Y-21277640D02*
X12352087Y-21268116D01*
X12352087Y-21268116D02*
X12342563Y-21249069D01*
X12342563Y-21249069D02*
X12342563Y-21191926D01*
X12342563Y-21191926D02*
X12352087Y-21172878D01*
X12352087Y-21172878D02*
X12361611Y-21163354D01*
X12361611Y-21163354D02*
X12380658Y-21153831D01*
X12380658Y-21153831D02*
X12409230Y-21153831D01*
X12409230Y-21153831D02*
X12428277Y-21163354D01*
X12428277Y-21163354D02*
X12437801Y-21172878D01*
X12437801Y-21172878D02*
X12447325Y-21191926D01*
X12447325Y-21191926D02*
X12447325Y-21249069D01*
X12447325Y-21249069D02*
X12437801Y-21268116D01*
X12437801Y-21268116D02*
X12428277Y-21277640D01*
X12428277Y-21277640D02*
X12409230Y-21287164D01*
X12409230Y-21287164D02*
X12380658Y-21287164D01*
X12504468Y-21153831D02*
X12580658Y-21153831D01*
X12533039Y-21087164D02*
X12533039Y-21258592D01*
X12533039Y-21258592D02*
X12542563Y-21277640D01*
X12542563Y-21277640D02*
X12561611Y-21287164D01*
X12561611Y-21287164D02*
X12580658Y-21287164D01*
X12799706Y-21153831D02*
X12799706Y-21353831D01*
X12799706Y-21163354D02*
X12818753Y-21153831D01*
X12818753Y-21153831D02*
X12856849Y-21153831D01*
X12856849Y-21153831D02*
X12875896Y-21163354D01*
X12875896Y-21163354D02*
X12885420Y-21172878D01*
X12885420Y-21172878D02*
X12894944Y-21191926D01*
X12894944Y-21191926D02*
X12894944Y-21249069D01*
X12894944Y-21249069D02*
X12885420Y-21268116D01*
X12885420Y-21268116D02*
X12875896Y-21277640D01*
X12875896Y-21277640D02*
X12856849Y-21287164D01*
X12856849Y-21287164D02*
X12818753Y-21287164D01*
X12818753Y-21287164D02*
X12799706Y-21277640D01*
X13009230Y-21287164D02*
X12990182Y-21277640D01*
X12990182Y-21277640D02*
X12980658Y-21258592D01*
X12980658Y-21258592D02*
X12980658Y-21087164D01*
X13171134Y-21287164D02*
X13171134Y-21182402D01*
X13171134Y-21182402D02*
X13161611Y-21163354D01*
X13161611Y-21163354D02*
X13142563Y-21153831D01*
X13142563Y-21153831D02*
X13104468Y-21153831D01*
X13104468Y-21153831D02*
X13085420Y-21163354D01*
X13171134Y-21277640D02*
X13152087Y-21287164D01*
X13152087Y-21287164D02*
X13104468Y-21287164D01*
X13104468Y-21287164D02*
X13085420Y-21277640D01*
X13085420Y-21277640D02*
X13075896Y-21258592D01*
X13075896Y-21258592D02*
X13075896Y-21239545D01*
X13075896Y-21239545D02*
X13085420Y-21220497D01*
X13085420Y-21220497D02*
X13104468Y-21210973D01*
X13104468Y-21210973D02*
X13152087Y-21210973D01*
X13152087Y-21210973D02*
X13171134Y-21201450D01*
X13237801Y-21153831D02*
X13313992Y-21153831D01*
X13266373Y-21087164D02*
X13266373Y-21258592D01*
X13266373Y-21258592D02*
X13275896Y-21277640D01*
X13275896Y-21277640D02*
X13294944Y-21287164D01*
X13294944Y-21287164D02*
X13313992Y-21287164D01*
X13456849Y-21277640D02*
X13437801Y-21287164D01*
X13437801Y-21287164D02*
X13399706Y-21287164D01*
X13399706Y-21287164D02*
X13380658Y-21277640D01*
X13380658Y-21277640D02*
X13371134Y-21258592D01*
X13371134Y-21258592D02*
X13371134Y-21182402D01*
X13371134Y-21182402D02*
X13380658Y-21163354D01*
X13380658Y-21163354D02*
X13399706Y-21153831D01*
X13399706Y-21153831D02*
X13437801Y-21153831D01*
X13437801Y-21153831D02*
X13456849Y-21163354D01*
X13456849Y-21163354D02*
X13466373Y-21182402D01*
X13466373Y-21182402D02*
X13466373Y-21201450D01*
X13466373Y-21201450D02*
X13371134Y-21220497D01*
X13637801Y-21287164D02*
X13637801Y-21087164D01*
X13637801Y-21277640D02*
X13618754Y-21287164D01*
X13618754Y-21287164D02*
X13580658Y-21287164D01*
X13580658Y-21287164D02*
X13561611Y-21277640D01*
X13561611Y-21277640D02*
X13552087Y-21268116D01*
X13552087Y-21268116D02*
X13542563Y-21249069D01*
X13542563Y-21249069D02*
X13542563Y-21191926D01*
X13542563Y-21191926D02*
X13552087Y-21172878D01*
X13552087Y-21172878D02*
X13561611Y-21163354D01*
X13561611Y-21163354D02*
X13580658Y-21153831D01*
X13580658Y-21153831D02*
X13618754Y-21153831D01*
X13618754Y-21153831D02*
X13637801Y-21163354D01*
X13713992Y-21363354D02*
X13723515Y-21353831D01*
X13723515Y-21353831D02*
X13742563Y-21325259D01*
X13742563Y-21325259D02*
X13752087Y-21306212D01*
X13752087Y-21306212D02*
X13761611Y-21277640D01*
X13761611Y-21277640D02*
X13771134Y-21230021D01*
X13771134Y-21230021D02*
X13771134Y-21191926D01*
X13771134Y-21191926D02*
X13761611Y-21144307D01*
X13761611Y-21144307D02*
X13752087Y-21115735D01*
X13752087Y-21115735D02*
X13742563Y-21096688D01*
X13742563Y-21096688D02*
X13723515Y-21068116D01*
X13723515Y-21068116D02*
X13713992Y-21058592D01*
X6567500Y-21415680D02*
X6767500Y-21615680D01*
X6767500Y-21415680D02*
X6567500Y-21615680D01*
X6767500Y-21515680D02*
G75*
G02*
X6567500Y-21515680I-100000J0D01*
G01*
X6567500Y-21515680D02*
G75*
G02*
X6767500Y-21515680I100000J0D01*
G01*
X7123515Y-21407164D02*
X7028277Y-21407164D01*
X7028277Y-21407164D02*
X7018753Y-21502402D01*
X7018753Y-21502402D02*
X7028277Y-21492878D01*
X7028277Y-21492878D02*
X7047324Y-21483354D01*
X7047324Y-21483354D02*
X7094943Y-21483354D01*
X7094943Y-21483354D02*
X7113991Y-21492878D01*
X7113991Y-21492878D02*
X7123515Y-21502402D01*
X7123515Y-21502402D02*
X7133039Y-21521450D01*
X7133039Y-21521450D02*
X7133039Y-21569069D01*
X7133039Y-21569069D02*
X7123515Y-21588116D01*
X7123515Y-21588116D02*
X7113991Y-21597640D01*
X7113991Y-21597640D02*
X7094943Y-21607164D01*
X7094943Y-21607164D02*
X7047324Y-21607164D01*
X7047324Y-21607164D02*
X7028277Y-21597640D01*
X7028277Y-21597640D02*
X7018753Y-21588116D01*
X7218753Y-21588116D02*
X7228277Y-21597640D01*
X7228277Y-21597640D02*
X7218753Y-21607164D01*
X7218753Y-21607164D02*
X7209229Y-21597640D01*
X7209229Y-21597640D02*
X7218753Y-21588116D01*
X7218753Y-21588116D02*
X7218753Y-21607164D01*
X7352086Y-21407164D02*
X7371134Y-21407164D01*
X7371134Y-21407164D02*
X7390182Y-21416688D01*
X7390182Y-21416688D02*
X7399705Y-21426212D01*
X7399705Y-21426212D02*
X7409229Y-21445259D01*
X7409229Y-21445259D02*
X7418753Y-21483354D01*
X7418753Y-21483354D02*
X7418753Y-21530973D01*
X7418753Y-21530973D02*
X7409229Y-21569069D01*
X7409229Y-21569069D02*
X7399705Y-21588116D01*
X7399705Y-21588116D02*
X7390182Y-21597640D01*
X7390182Y-21597640D02*
X7371134Y-21607164D01*
X7371134Y-21607164D02*
X7352086Y-21607164D01*
X7352086Y-21607164D02*
X7333039Y-21597640D01*
X7333039Y-21597640D02*
X7323515Y-21588116D01*
X7323515Y-21588116D02*
X7313991Y-21569069D01*
X7313991Y-21569069D02*
X7304467Y-21530973D01*
X7304467Y-21530973D02*
X7304467Y-21483354D01*
X7304467Y-21483354D02*
X7313991Y-21445259D01*
X7313991Y-21445259D02*
X7323515Y-21426212D01*
X7323515Y-21426212D02*
X7333039Y-21416688D01*
X7333039Y-21416688D02*
X7352086Y-21407164D01*
X7599705Y-21407164D02*
X7504467Y-21407164D01*
X7504467Y-21407164D02*
X7494943Y-21502402D01*
X7494943Y-21502402D02*
X7504467Y-21492878D01*
X7504467Y-21492878D02*
X7523515Y-21483354D01*
X7523515Y-21483354D02*
X7571134Y-21483354D01*
X7571134Y-21483354D02*
X7590182Y-21492878D01*
X7590182Y-21492878D02*
X7599705Y-21502402D01*
X7599705Y-21502402D02*
X7609229Y-21521450D01*
X7609229Y-21521450D02*
X7609229Y-21569069D01*
X7609229Y-21569069D02*
X7599705Y-21588116D01*
X7599705Y-21588116D02*
X7590182Y-21597640D01*
X7590182Y-21597640D02*
X7571134Y-21607164D01*
X7571134Y-21607164D02*
X7523515Y-21607164D01*
X7523515Y-21607164D02*
X7504467Y-21597640D01*
X7504467Y-21597640D02*
X7494943Y-21588116D01*
X7733039Y-21407164D02*
X7752086Y-21407164D01*
X7752086Y-21407164D02*
X7771134Y-21416688D01*
X7771134Y-21416688D02*
X7780658Y-21426212D01*
X7780658Y-21426212D02*
X7790182Y-21445259D01*
X7790182Y-21445259D02*
X7799705Y-21483354D01*
X7799705Y-21483354D02*
X7799705Y-21530973D01*
X7799705Y-21530973D02*
X7790182Y-21569069D01*
X7790182Y-21569069D02*
X7780658Y-21588116D01*
X7780658Y-21588116D02*
X7771134Y-21597640D01*
X7771134Y-21597640D02*
X7752086Y-21607164D01*
X7752086Y-21607164D02*
X7733039Y-21607164D01*
X7733039Y-21607164D02*
X7713991Y-21597640D01*
X7713991Y-21597640D02*
X7704467Y-21588116D01*
X7704467Y-21588116D02*
X7694943Y-21569069D01*
X7694943Y-21569069D02*
X7685420Y-21530973D01*
X7685420Y-21530973D02*
X7685420Y-21483354D01*
X7685420Y-21483354D02*
X7694943Y-21445259D01*
X7694943Y-21445259D02*
X7704467Y-21426212D01*
X7704467Y-21426212D02*
X7713991Y-21416688D01*
X7713991Y-21416688D02*
X7733039Y-21407164D01*
X7885420Y-21607164D02*
X7885420Y-21473831D01*
X7885420Y-21492878D02*
X7894943Y-21483354D01*
X7894943Y-21483354D02*
X7913991Y-21473831D01*
X7913991Y-21473831D02*
X7942563Y-21473831D01*
X7942563Y-21473831D02*
X7961610Y-21483354D01*
X7961610Y-21483354D02*
X7971134Y-21502402D01*
X7971134Y-21502402D02*
X7971134Y-21607164D01*
X7971134Y-21502402D02*
X7980658Y-21483354D01*
X7980658Y-21483354D02*
X7999705Y-21473831D01*
X7999705Y-21473831D02*
X8028277Y-21473831D01*
X8028277Y-21473831D02*
X8047324Y-21483354D01*
X8047324Y-21483354D02*
X8056848Y-21502402D01*
X8056848Y-21502402D02*
X8056848Y-21607164D01*
X8152086Y-21607164D02*
X8152086Y-21473831D01*
X8152086Y-21492878D02*
X8161610Y-21483354D01*
X8161610Y-21483354D02*
X8180658Y-21473831D01*
X8180658Y-21473831D02*
X8209229Y-21473831D01*
X8209229Y-21473831D02*
X8228277Y-21483354D01*
X8228277Y-21483354D02*
X8237801Y-21502402D01*
X8237801Y-21502402D02*
X8237801Y-21607164D01*
X8237801Y-21502402D02*
X8247324Y-21483354D01*
X8247324Y-21483354D02*
X8266372Y-21473831D01*
X8266372Y-21473831D02*
X8294943Y-21473831D01*
X8294943Y-21473831D02*
X8313991Y-21483354D01*
X8313991Y-21483354D02*
X8323515Y-21502402D01*
X8323515Y-21502402D02*
X8323515Y-21607164D01*
X8713991Y-21397640D02*
X8542563Y-21654783D01*
X8971134Y-21407164D02*
X8990182Y-21407164D01*
X8990182Y-21407164D02*
X9009229Y-21416688D01*
X9009229Y-21416688D02*
X9018753Y-21426212D01*
X9018753Y-21426212D02*
X9028277Y-21445259D01*
X9028277Y-21445259D02*
X9037801Y-21483354D01*
X9037801Y-21483354D02*
X9037801Y-21530973D01*
X9037801Y-21530973D02*
X9028277Y-21569069D01*
X9028277Y-21569069D02*
X9018753Y-21588116D01*
X9018753Y-21588116D02*
X9009229Y-21597640D01*
X9009229Y-21597640D02*
X8990182Y-21607164D01*
X8990182Y-21607164D02*
X8971134Y-21607164D01*
X8971134Y-21607164D02*
X8952087Y-21597640D01*
X8952087Y-21597640D02*
X8942563Y-21588116D01*
X8942563Y-21588116D02*
X8933039Y-21569069D01*
X8933039Y-21569069D02*
X8923515Y-21530973D01*
X8923515Y-21530973D02*
X8923515Y-21483354D01*
X8923515Y-21483354D02*
X8933039Y-21445259D01*
X8933039Y-21445259D02*
X8942563Y-21426212D01*
X8942563Y-21426212D02*
X8952087Y-21416688D01*
X8952087Y-21416688D02*
X8971134Y-21407164D01*
X9123515Y-21588116D02*
X9133039Y-21597640D01*
X9133039Y-21597640D02*
X9123515Y-21607164D01*
X9123515Y-21607164D02*
X9113991Y-21597640D01*
X9113991Y-21597640D02*
X9123515Y-21588116D01*
X9123515Y-21588116D02*
X9123515Y-21607164D01*
X9323515Y-21607164D02*
X9209229Y-21607164D01*
X9266372Y-21607164D02*
X9266372Y-21407164D01*
X9266372Y-21407164D02*
X9247325Y-21435735D01*
X9247325Y-21435735D02*
X9228277Y-21454783D01*
X9228277Y-21454783D02*
X9209229Y-21464307D01*
X9418753Y-21607164D02*
X9456848Y-21607164D01*
X9456848Y-21607164D02*
X9475896Y-21597640D01*
X9475896Y-21597640D02*
X9485420Y-21588116D01*
X9485420Y-21588116D02*
X9504468Y-21559545D01*
X9504468Y-21559545D02*
X9513991Y-21521450D01*
X9513991Y-21521450D02*
X9513991Y-21445259D01*
X9513991Y-21445259D02*
X9504468Y-21426212D01*
X9504468Y-21426212D02*
X9494944Y-21416688D01*
X9494944Y-21416688D02*
X9475896Y-21407164D01*
X9475896Y-21407164D02*
X9437801Y-21407164D01*
X9437801Y-21407164D02*
X9418753Y-21416688D01*
X9418753Y-21416688D02*
X9409229Y-21426212D01*
X9409229Y-21426212D02*
X9399706Y-21445259D01*
X9399706Y-21445259D02*
X9399706Y-21492878D01*
X9399706Y-21492878D02*
X9409229Y-21511926D01*
X9409229Y-21511926D02*
X9418753Y-21521450D01*
X9418753Y-21521450D02*
X9437801Y-21530973D01*
X9437801Y-21530973D02*
X9475896Y-21530973D01*
X9475896Y-21530973D02*
X9494944Y-21521450D01*
X9494944Y-21521450D02*
X9504468Y-21511926D01*
X9504468Y-21511926D02*
X9513991Y-21492878D01*
X9628277Y-21492878D02*
X9609229Y-21483354D01*
X9609229Y-21483354D02*
X9599706Y-21473831D01*
X9599706Y-21473831D02*
X9590182Y-21454783D01*
X9590182Y-21454783D02*
X9590182Y-21445259D01*
X9590182Y-21445259D02*
X9599706Y-21426212D01*
X9599706Y-21426212D02*
X9609229Y-21416688D01*
X9609229Y-21416688D02*
X9628277Y-21407164D01*
X9628277Y-21407164D02*
X9666372Y-21407164D01*
X9666372Y-21407164D02*
X9685420Y-21416688D01*
X9685420Y-21416688D02*
X9694944Y-21426212D01*
X9694944Y-21426212D02*
X9704468Y-21445259D01*
X9704468Y-21445259D02*
X9704468Y-21454783D01*
X9704468Y-21454783D02*
X9694944Y-21473831D01*
X9694944Y-21473831D02*
X9685420Y-21483354D01*
X9685420Y-21483354D02*
X9666372Y-21492878D01*
X9666372Y-21492878D02*
X9628277Y-21492878D01*
X9628277Y-21492878D02*
X9609229Y-21502402D01*
X9609229Y-21502402D02*
X9599706Y-21511926D01*
X9599706Y-21511926D02*
X9590182Y-21530973D01*
X9590182Y-21530973D02*
X9590182Y-21569069D01*
X9590182Y-21569069D02*
X9599706Y-21588116D01*
X9599706Y-21588116D02*
X9609229Y-21597640D01*
X9609229Y-21597640D02*
X9628277Y-21607164D01*
X9628277Y-21607164D02*
X9666372Y-21607164D01*
X9666372Y-21607164D02*
X9685420Y-21597640D01*
X9685420Y-21597640D02*
X9694944Y-21588116D01*
X9694944Y-21588116D02*
X9704468Y-21569069D01*
X9704468Y-21569069D02*
X9704468Y-21530973D01*
X9704468Y-21530973D02*
X9694944Y-21511926D01*
X9694944Y-21511926D02*
X9685420Y-21502402D01*
X9685420Y-21502402D02*
X9666372Y-21492878D01*
X9818753Y-21492878D02*
X9799706Y-21483354D01*
X9799706Y-21483354D02*
X9790182Y-21473831D01*
X9790182Y-21473831D02*
X9780658Y-21454783D01*
X9780658Y-21454783D02*
X9780658Y-21445259D01*
X9780658Y-21445259D02*
X9790182Y-21426212D01*
X9790182Y-21426212D02*
X9799706Y-21416688D01*
X9799706Y-21416688D02*
X9818753Y-21407164D01*
X9818753Y-21407164D02*
X9856849Y-21407164D01*
X9856849Y-21407164D02*
X9875896Y-21416688D01*
X9875896Y-21416688D02*
X9885420Y-21426212D01*
X9885420Y-21426212D02*
X9894944Y-21445259D01*
X9894944Y-21445259D02*
X9894944Y-21454783D01*
X9894944Y-21454783D02*
X9885420Y-21473831D01*
X9885420Y-21473831D02*
X9875896Y-21483354D01*
X9875896Y-21483354D02*
X9856849Y-21492878D01*
X9856849Y-21492878D02*
X9818753Y-21492878D01*
X9818753Y-21492878D02*
X9799706Y-21502402D01*
X9799706Y-21502402D02*
X9790182Y-21511926D01*
X9790182Y-21511926D02*
X9780658Y-21530973D01*
X9780658Y-21530973D02*
X9780658Y-21569069D01*
X9780658Y-21569069D02*
X9790182Y-21588116D01*
X9790182Y-21588116D02*
X9799706Y-21597640D01*
X9799706Y-21597640D02*
X9818753Y-21607164D01*
X9818753Y-21607164D02*
X9856849Y-21607164D01*
X9856849Y-21607164D02*
X9875896Y-21597640D01*
X9875896Y-21597640D02*
X9885420Y-21588116D01*
X9885420Y-21588116D02*
X9894944Y-21569069D01*
X9894944Y-21569069D02*
X9894944Y-21530973D01*
X9894944Y-21530973D02*
X9885420Y-21511926D01*
X9885420Y-21511926D02*
X9875896Y-21502402D01*
X9875896Y-21502402D02*
X9856849Y-21492878D01*
X9971134Y-21407164D02*
X9971134Y-21445259D01*
X10047325Y-21407164D02*
X10047325Y-21445259D01*
X10342563Y-21683354D02*
X10333039Y-21673831D01*
X10333039Y-21673831D02*
X10313991Y-21645259D01*
X10313991Y-21645259D02*
X10304468Y-21626212D01*
X10304468Y-21626212D02*
X10294944Y-21597640D01*
X10294944Y-21597640D02*
X10285420Y-21550021D01*
X10285420Y-21550021D02*
X10285420Y-21511926D01*
X10285420Y-21511926D02*
X10294944Y-21464307D01*
X10294944Y-21464307D02*
X10304468Y-21435735D01*
X10304468Y-21435735D02*
X10313991Y-21416688D01*
X10313991Y-21416688D02*
X10333039Y-21388116D01*
X10333039Y-21388116D02*
X10342563Y-21378592D01*
X10504468Y-21473831D02*
X10504468Y-21607164D01*
X10456849Y-21397640D02*
X10409230Y-21540497D01*
X10409230Y-21540497D02*
X10533039Y-21540497D01*
X10599706Y-21426212D02*
X10609230Y-21416688D01*
X10609230Y-21416688D02*
X10628277Y-21407164D01*
X10628277Y-21407164D02*
X10675896Y-21407164D01*
X10675896Y-21407164D02*
X10694944Y-21416688D01*
X10694944Y-21416688D02*
X10704468Y-21426212D01*
X10704468Y-21426212D02*
X10713991Y-21445259D01*
X10713991Y-21445259D02*
X10713991Y-21464307D01*
X10713991Y-21464307D02*
X10704468Y-21492878D01*
X10704468Y-21492878D02*
X10590182Y-21607164D01*
X10590182Y-21607164D02*
X10713991Y-21607164D01*
X10952087Y-21607164D02*
X10952087Y-21407164D01*
X11037801Y-21607164D02*
X11037801Y-21502402D01*
X11037801Y-21502402D02*
X11028277Y-21483354D01*
X11028277Y-21483354D02*
X11009230Y-21473831D01*
X11009230Y-21473831D02*
X10980658Y-21473831D01*
X10980658Y-21473831D02*
X10961611Y-21483354D01*
X10961611Y-21483354D02*
X10952087Y-21492878D01*
X11161611Y-21607164D02*
X11142563Y-21597640D01*
X11142563Y-21597640D02*
X11133039Y-21588116D01*
X11133039Y-21588116D02*
X11123515Y-21569069D01*
X11123515Y-21569069D02*
X11123515Y-21511926D01*
X11123515Y-21511926D02*
X11133039Y-21492878D01*
X11133039Y-21492878D02*
X11142563Y-21483354D01*
X11142563Y-21483354D02*
X11161611Y-21473831D01*
X11161611Y-21473831D02*
X11190182Y-21473831D01*
X11190182Y-21473831D02*
X11209230Y-21483354D01*
X11209230Y-21483354D02*
X11218753Y-21492878D01*
X11218753Y-21492878D02*
X11228277Y-21511926D01*
X11228277Y-21511926D02*
X11228277Y-21569069D01*
X11228277Y-21569069D02*
X11218753Y-21588116D01*
X11218753Y-21588116D02*
X11209230Y-21597640D01*
X11209230Y-21597640D02*
X11190182Y-21607164D01*
X11190182Y-21607164D02*
X11161611Y-21607164D01*
X11342563Y-21607164D02*
X11323515Y-21597640D01*
X11323515Y-21597640D02*
X11313991Y-21578592D01*
X11313991Y-21578592D02*
X11313991Y-21407164D01*
X11494944Y-21597640D02*
X11475896Y-21607164D01*
X11475896Y-21607164D02*
X11437801Y-21607164D01*
X11437801Y-21607164D02*
X11418753Y-21597640D01*
X11418753Y-21597640D02*
X11409230Y-21578592D01*
X11409230Y-21578592D02*
X11409230Y-21502402D01*
X11409230Y-21502402D02*
X11418753Y-21483354D01*
X11418753Y-21483354D02*
X11437801Y-21473831D01*
X11437801Y-21473831D02*
X11475896Y-21473831D01*
X11475896Y-21473831D02*
X11494944Y-21483354D01*
X11494944Y-21483354D02*
X11504468Y-21502402D01*
X11504468Y-21502402D02*
X11504468Y-21521450D01*
X11504468Y-21521450D02*
X11409230Y-21540497D01*
X11580658Y-21597640D02*
X11599706Y-21607164D01*
X11599706Y-21607164D02*
X11637801Y-21607164D01*
X11637801Y-21607164D02*
X11656849Y-21597640D01*
X11656849Y-21597640D02*
X11666372Y-21578592D01*
X11666372Y-21578592D02*
X11666372Y-21569069D01*
X11666372Y-21569069D02*
X11656849Y-21550021D01*
X11656849Y-21550021D02*
X11637801Y-21540497D01*
X11637801Y-21540497D02*
X11609230Y-21540497D01*
X11609230Y-21540497D02*
X11590182Y-21530973D01*
X11590182Y-21530973D02*
X11580658Y-21511926D01*
X11580658Y-21511926D02*
X11580658Y-21502402D01*
X11580658Y-21502402D02*
X11590182Y-21483354D01*
X11590182Y-21483354D02*
X11609230Y-21473831D01*
X11609230Y-21473831D02*
X11637801Y-21473831D01*
X11637801Y-21473831D02*
X11656849Y-21483354D01*
X11733039Y-21683354D02*
X11742563Y-21673831D01*
X11742563Y-21673831D02*
X11761611Y-21645259D01*
X11761611Y-21645259D02*
X11771134Y-21626212D01*
X11771134Y-21626212D02*
X11780658Y-21597640D01*
X11780658Y-21597640D02*
X11790182Y-21550021D01*
X11790182Y-21550021D02*
X11790182Y-21511926D01*
X11790182Y-21511926D02*
X11780658Y-21464307D01*
X11780658Y-21464307D02*
X11771134Y-21435735D01*
X11771134Y-21435735D02*
X11761611Y-21416688D01*
X11761611Y-21416688D02*
X11742563Y-21388116D01*
X11742563Y-21388116D02*
X11733039Y-21378592D01*
X12094944Y-21683354D02*
X12085420Y-21673831D01*
X12085420Y-21673831D02*
X12066372Y-21645259D01*
X12066372Y-21645259D02*
X12056849Y-21626212D01*
X12056849Y-21626212D02*
X12047325Y-21597640D01*
X12047325Y-21597640D02*
X12037801Y-21550021D01*
X12037801Y-21550021D02*
X12037801Y-21511926D01*
X12037801Y-21511926D02*
X12047325Y-21464307D01*
X12047325Y-21464307D02*
X12056849Y-21435735D01*
X12056849Y-21435735D02*
X12066372Y-21416688D01*
X12066372Y-21416688D02*
X12085420Y-21388116D01*
X12085420Y-21388116D02*
X12094944Y-21378592D01*
X12171134Y-21473831D02*
X12171134Y-21607164D01*
X12171134Y-21492878D02*
X12180658Y-21483354D01*
X12180658Y-21483354D02*
X12199706Y-21473831D01*
X12199706Y-21473831D02*
X12228277Y-21473831D01*
X12228277Y-21473831D02*
X12247325Y-21483354D01*
X12247325Y-21483354D02*
X12256849Y-21502402D01*
X12256849Y-21502402D02*
X12256849Y-21607164D01*
X12380658Y-21607164D02*
X12361611Y-21597640D01*
X12361611Y-21597640D02*
X12352087Y-21588116D01*
X12352087Y-21588116D02*
X12342563Y-21569069D01*
X12342563Y-21569069D02*
X12342563Y-21511926D01*
X12342563Y-21511926D02*
X12352087Y-21492878D01*
X12352087Y-21492878D02*
X12361611Y-21483354D01*
X12361611Y-21483354D02*
X12380658Y-21473831D01*
X12380658Y-21473831D02*
X12409230Y-21473831D01*
X12409230Y-21473831D02*
X12428277Y-21483354D01*
X12428277Y-21483354D02*
X12437801Y-21492878D01*
X12437801Y-21492878D02*
X12447325Y-21511926D01*
X12447325Y-21511926D02*
X12447325Y-21569069D01*
X12447325Y-21569069D02*
X12437801Y-21588116D01*
X12437801Y-21588116D02*
X12428277Y-21597640D01*
X12428277Y-21597640D02*
X12409230Y-21607164D01*
X12409230Y-21607164D02*
X12380658Y-21607164D01*
X12504468Y-21473831D02*
X12580658Y-21473831D01*
X12533039Y-21407164D02*
X12533039Y-21578592D01*
X12533039Y-21578592D02*
X12542563Y-21597640D01*
X12542563Y-21597640D02*
X12561611Y-21607164D01*
X12561611Y-21607164D02*
X12580658Y-21607164D01*
X12799706Y-21473831D02*
X12799706Y-21673831D01*
X12799706Y-21483354D02*
X12818753Y-21473831D01*
X12818753Y-21473831D02*
X12856849Y-21473831D01*
X12856849Y-21473831D02*
X12875896Y-21483354D01*
X12875896Y-21483354D02*
X12885420Y-21492878D01*
X12885420Y-21492878D02*
X12894944Y-21511926D01*
X12894944Y-21511926D02*
X12894944Y-21569069D01*
X12894944Y-21569069D02*
X12885420Y-21588116D01*
X12885420Y-21588116D02*
X12875896Y-21597640D01*
X12875896Y-21597640D02*
X12856849Y-21607164D01*
X12856849Y-21607164D02*
X12818753Y-21607164D01*
X12818753Y-21607164D02*
X12799706Y-21597640D01*
X13009230Y-21607164D02*
X12990182Y-21597640D01*
X12990182Y-21597640D02*
X12980658Y-21578592D01*
X12980658Y-21578592D02*
X12980658Y-21407164D01*
X13171134Y-21607164D02*
X13171134Y-21502402D01*
X13171134Y-21502402D02*
X13161611Y-21483354D01*
X13161611Y-21483354D02*
X13142563Y-21473831D01*
X13142563Y-21473831D02*
X13104468Y-21473831D01*
X13104468Y-21473831D02*
X13085420Y-21483354D01*
X13171134Y-21597640D02*
X13152087Y-21607164D01*
X13152087Y-21607164D02*
X13104468Y-21607164D01*
X13104468Y-21607164D02*
X13085420Y-21597640D01*
X13085420Y-21597640D02*
X13075896Y-21578592D01*
X13075896Y-21578592D02*
X13075896Y-21559545D01*
X13075896Y-21559545D02*
X13085420Y-21540497D01*
X13085420Y-21540497D02*
X13104468Y-21530973D01*
X13104468Y-21530973D02*
X13152087Y-21530973D01*
X13152087Y-21530973D02*
X13171134Y-21521450D01*
X13237801Y-21473831D02*
X13313992Y-21473831D01*
X13266373Y-21407164D02*
X13266373Y-21578592D01*
X13266373Y-21578592D02*
X13275896Y-21597640D01*
X13275896Y-21597640D02*
X13294944Y-21607164D01*
X13294944Y-21607164D02*
X13313992Y-21607164D01*
X13456849Y-21597640D02*
X13437801Y-21607164D01*
X13437801Y-21607164D02*
X13399706Y-21607164D01*
X13399706Y-21607164D02*
X13380658Y-21597640D01*
X13380658Y-21597640D02*
X13371134Y-21578592D01*
X13371134Y-21578592D02*
X13371134Y-21502402D01*
X13371134Y-21502402D02*
X13380658Y-21483354D01*
X13380658Y-21483354D02*
X13399706Y-21473831D01*
X13399706Y-21473831D02*
X13437801Y-21473831D01*
X13437801Y-21473831D02*
X13456849Y-21483354D01*
X13456849Y-21483354D02*
X13466373Y-21502402D01*
X13466373Y-21502402D02*
X13466373Y-21521450D01*
X13466373Y-21521450D02*
X13371134Y-21540497D01*
X13637801Y-21607164D02*
X13637801Y-21407164D01*
X13637801Y-21597640D02*
X13618754Y-21607164D01*
X13618754Y-21607164D02*
X13580658Y-21607164D01*
X13580658Y-21607164D02*
X13561611Y-21597640D01*
X13561611Y-21597640D02*
X13552087Y-21588116D01*
X13552087Y-21588116D02*
X13542563Y-21569069D01*
X13542563Y-21569069D02*
X13542563Y-21511926D01*
X13542563Y-21511926D02*
X13552087Y-21492878D01*
X13552087Y-21492878D02*
X13561611Y-21483354D01*
X13561611Y-21483354D02*
X13580658Y-21473831D01*
X13580658Y-21473831D02*
X13618754Y-21473831D01*
X13618754Y-21473831D02*
X13637801Y-21483354D01*
X13713992Y-21683354D02*
X13723515Y-21673831D01*
X13723515Y-21673831D02*
X13742563Y-21645259D01*
X13742563Y-21645259D02*
X13752087Y-21626212D01*
X13752087Y-21626212D02*
X13761611Y-21597640D01*
X13761611Y-21597640D02*
X13771134Y-21550021D01*
X13771134Y-21550021D02*
X13771134Y-21511926D01*
X13771134Y-21511926D02*
X13761611Y-21464307D01*
X13761611Y-21464307D02*
X13752087Y-21435735D01*
X13752087Y-21435735D02*
X13742563Y-21416688D01*
X13742563Y-21416688D02*
X13723515Y-21388116D01*
X13723515Y-21388116D02*
X13713992Y-21378592D01*
M02*
