%TF.GenerationSoftware,KiCad,Pcbnew,9.0.2*%
%TF.CreationDate,2025-05-22T20:03:01+03:00*%
%TF.ProjectId,KOMETA,4b4f4d45-5441-42e6-9b69-6361645f7063,rev?*%
%TF.SameCoordinates,Original*%
%TF.FileFunction,Legend,Top*%
%TF.FilePolarity,Positive*%
%FSLAX46Y46*%
G04 Gerber Fmt 4.6, Leading zero omitted, Abs format (unit mm)*
G04 Created by KiCad (PCBNEW 9.0.2) date 2025-05-22 20:03:01*
%MOMM*%
%LPD*%
G01*
G04 APERTURE LIST*
%ADD10C,0.100000*%
%ADD11C,0.125000*%
%ADD12C,0.000000*%
G04 APERTURE END LIST*
D10*
X198396265Y-143088395D02*
X198396265Y-142555061D01*
X198396265Y-142707442D02*
X198434360Y-142631252D01*
X198434360Y-142631252D02*
X198472455Y-142593157D01*
X198472455Y-142593157D02*
X198548646Y-142555061D01*
X198548646Y-142555061D02*
X198624836Y-142555061D01*
X198853407Y-142364585D02*
X198891503Y-142326490D01*
X198891503Y-142326490D02*
X198967693Y-142288395D01*
X198967693Y-142288395D02*
X199158169Y-142288395D01*
X199158169Y-142288395D02*
X199234360Y-142326490D01*
X199234360Y-142326490D02*
X199272455Y-142364585D01*
X199272455Y-142364585D02*
X199310550Y-142440776D01*
X199310550Y-142440776D02*
X199310550Y-142516966D01*
X199310550Y-142516966D02*
X199272455Y-142631252D01*
X199272455Y-142631252D02*
X198815312Y-143088395D01*
X198815312Y-143088395D02*
X199310550Y-143088395D01*
X230818646Y-135430300D02*
X230742455Y-135468395D01*
X230742455Y-135468395D02*
X230590074Y-135468395D01*
X230590074Y-135468395D02*
X230513884Y-135430300D01*
X230513884Y-135430300D02*
X230475789Y-135392204D01*
X230475789Y-135392204D02*
X230437693Y-135316014D01*
X230437693Y-135316014D02*
X230437693Y-135087442D01*
X230437693Y-135087442D02*
X230475789Y-135011252D01*
X230475789Y-135011252D02*
X230513884Y-134973157D01*
X230513884Y-134973157D02*
X230590074Y-134935061D01*
X230590074Y-134935061D02*
X230742455Y-134935061D01*
X230742455Y-134935061D02*
X230818646Y-134973157D01*
X231580550Y-135468395D02*
X231123407Y-135468395D01*
X231351979Y-135468395D02*
X231351979Y-134668395D01*
X231351979Y-134668395D02*
X231275788Y-134782680D01*
X231275788Y-134782680D02*
X231199598Y-134858871D01*
X231199598Y-134858871D02*
X231123407Y-134896966D01*
X183462472Y-135430300D02*
X183386281Y-135468395D01*
X183386281Y-135468395D02*
X183233900Y-135468395D01*
X183233900Y-135468395D02*
X183157710Y-135430300D01*
X183157710Y-135430300D02*
X183119615Y-135392204D01*
X183119615Y-135392204D02*
X183081519Y-135316014D01*
X183081519Y-135316014D02*
X183081519Y-135087442D01*
X183081519Y-135087442D02*
X183119615Y-135011252D01*
X183119615Y-135011252D02*
X183157710Y-134973157D01*
X183157710Y-134973157D02*
X183233900Y-134935061D01*
X183233900Y-134935061D02*
X183386281Y-134935061D01*
X183386281Y-134935061D02*
X183462472Y-134973157D01*
X184224376Y-135468395D02*
X183767233Y-135468395D01*
X183995805Y-135468395D02*
X183995805Y-134668395D01*
X183995805Y-134668395D02*
X183919614Y-134782680D01*
X183919614Y-134782680D02*
X183843424Y-134858871D01*
X183843424Y-134858871D02*
X183767233Y-134896966D01*
D11*
X218934285Y-148056119D02*
X218934285Y-147389452D01*
X218934285Y-147579928D02*
X218981904Y-147484690D01*
X218981904Y-147484690D02*
X219029523Y-147437071D01*
X219029523Y-147437071D02*
X219124761Y-147389452D01*
X219124761Y-147389452D02*
X219219999Y-147389452D01*
X219553333Y-148056119D02*
X219553333Y-147389452D01*
X219553333Y-147056119D02*
X219505714Y-147103738D01*
X219505714Y-147103738D02*
X219553333Y-147151357D01*
X219553333Y-147151357D02*
X219600952Y-147103738D01*
X219600952Y-147103738D02*
X219553333Y-147056119D01*
X219553333Y-147056119D02*
X219553333Y-147151357D01*
X220458094Y-147389452D02*
X220458094Y-148198976D01*
X220458094Y-148198976D02*
X220410475Y-148294214D01*
X220410475Y-148294214D02*
X220362856Y-148341833D01*
X220362856Y-148341833D02*
X220267618Y-148389452D01*
X220267618Y-148389452D02*
X220124761Y-148389452D01*
X220124761Y-148389452D02*
X220029523Y-148341833D01*
X220458094Y-148008500D02*
X220362856Y-148056119D01*
X220362856Y-148056119D02*
X220172380Y-148056119D01*
X220172380Y-148056119D02*
X220077142Y-148008500D01*
X220077142Y-148008500D02*
X220029523Y-147960880D01*
X220029523Y-147960880D02*
X219981904Y-147865642D01*
X219981904Y-147865642D02*
X219981904Y-147579928D01*
X219981904Y-147579928D02*
X220029523Y-147484690D01*
X220029523Y-147484690D02*
X220077142Y-147437071D01*
X220077142Y-147437071D02*
X220172380Y-147389452D01*
X220172380Y-147389452D02*
X220362856Y-147389452D01*
X220362856Y-147389452D02*
X220458094Y-147437071D01*
X220934285Y-148056119D02*
X220934285Y-147056119D01*
X221362856Y-148056119D02*
X221362856Y-147532309D01*
X221362856Y-147532309D02*
X221315237Y-147437071D01*
X221315237Y-147437071D02*
X221219999Y-147389452D01*
X221219999Y-147389452D02*
X221077142Y-147389452D01*
X221077142Y-147389452D02*
X220981904Y-147437071D01*
X220981904Y-147437071D02*
X220934285Y-147484690D01*
X221696190Y-147389452D02*
X222077142Y-147389452D01*
X221839047Y-147056119D02*
X221839047Y-147913261D01*
X221839047Y-147913261D02*
X221886666Y-148008500D01*
X221886666Y-148008500D02*
X221981904Y-148056119D01*
X221981904Y-148056119D02*
X222077142Y-148056119D01*
X223600952Y-147389452D02*
X223600952Y-148056119D01*
X223172381Y-147389452D02*
X223172381Y-147913261D01*
X223172381Y-147913261D02*
X223220000Y-148008500D01*
X223220000Y-148008500D02*
X223315238Y-148056119D01*
X223315238Y-148056119D02*
X223458095Y-148056119D01*
X223458095Y-148056119D02*
X223553333Y-148008500D01*
X223553333Y-148008500D02*
X223600952Y-147960880D01*
X224077143Y-147389452D02*
X224077143Y-148389452D01*
X224077143Y-147437071D02*
X224172381Y-147389452D01*
X224172381Y-147389452D02*
X224362857Y-147389452D01*
X224362857Y-147389452D02*
X224458095Y-147437071D01*
X224458095Y-147437071D02*
X224505714Y-147484690D01*
X224505714Y-147484690D02*
X224553333Y-147579928D01*
X224553333Y-147579928D02*
X224553333Y-147865642D01*
X224553333Y-147865642D02*
X224505714Y-147960880D01*
X224505714Y-147960880D02*
X224458095Y-148008500D01*
X224458095Y-148008500D02*
X224362857Y-148056119D01*
X224362857Y-148056119D02*
X224172381Y-148056119D01*
X224172381Y-148056119D02*
X224077143Y-148008500D01*
D10*
X198396265Y-145628395D02*
X198396265Y-145095061D01*
X198396265Y-145247442D02*
X198434360Y-145171252D01*
X198434360Y-145171252D02*
X198472455Y-145133157D01*
X198472455Y-145133157D02*
X198548646Y-145095061D01*
X198548646Y-145095061D02*
X198624836Y-145095061D01*
X198815312Y-144828395D02*
X199310550Y-144828395D01*
X199310550Y-144828395D02*
X199043884Y-145133157D01*
X199043884Y-145133157D02*
X199158169Y-145133157D01*
X199158169Y-145133157D02*
X199234360Y-145171252D01*
X199234360Y-145171252D02*
X199272455Y-145209347D01*
X199272455Y-145209347D02*
X199310550Y-145285538D01*
X199310550Y-145285538D02*
X199310550Y-145476014D01*
X199310550Y-145476014D02*
X199272455Y-145552204D01*
X199272455Y-145552204D02*
X199234360Y-145590300D01*
X199234360Y-145590300D02*
X199158169Y-145628395D01*
X199158169Y-145628395D02*
X198929598Y-145628395D01*
X198929598Y-145628395D02*
X198853407Y-145590300D01*
X198853407Y-145590300D02*
X198815312Y-145552204D01*
X215268265Y-143088395D02*
X215268265Y-142555061D01*
X215268265Y-142707442D02*
X215306360Y-142631252D01*
X215306360Y-142631252D02*
X215344455Y-142593157D01*
X215344455Y-142593157D02*
X215420646Y-142555061D01*
X215420646Y-142555061D02*
X215496836Y-142555061D01*
X215725407Y-142364585D02*
X215763503Y-142326490D01*
X215763503Y-142326490D02*
X215839693Y-142288395D01*
X215839693Y-142288395D02*
X216030169Y-142288395D01*
X216030169Y-142288395D02*
X216106360Y-142326490D01*
X216106360Y-142326490D02*
X216144455Y-142364585D01*
X216144455Y-142364585D02*
X216182550Y-142440776D01*
X216182550Y-142440776D02*
X216182550Y-142516966D01*
X216182550Y-142516966D02*
X216144455Y-142631252D01*
X216144455Y-142631252D02*
X215687312Y-143088395D01*
X215687312Y-143088395D02*
X216182550Y-143088395D01*
D11*
X183478919Y-143080125D02*
X183402728Y-143118220D01*
X183402728Y-143118220D02*
X183250347Y-143118220D01*
X183250347Y-143118220D02*
X183174157Y-143080125D01*
X183174157Y-143080125D02*
X183136062Y-143042029D01*
X183136062Y-143042029D02*
X183097966Y-142965839D01*
X183097966Y-142965839D02*
X183097966Y-142737267D01*
X183097966Y-142737267D02*
X183136062Y-142661077D01*
X183136062Y-142661077D02*
X183174157Y-142622982D01*
X183174157Y-142622982D02*
X183250347Y-142584886D01*
X183250347Y-142584886D02*
X183402728Y-142584886D01*
X183402728Y-142584886D02*
X183478919Y-142622982D01*
X183745585Y-142318220D02*
X184240823Y-142318220D01*
X184240823Y-142318220D02*
X183974157Y-142622982D01*
X183974157Y-142622982D02*
X184088442Y-142622982D01*
X184088442Y-142622982D02*
X184164633Y-142661077D01*
X184164633Y-142661077D02*
X184202728Y-142699172D01*
X184202728Y-142699172D02*
X184240823Y-142775363D01*
X184240823Y-142775363D02*
X184240823Y-142965839D01*
X184240823Y-142965839D02*
X184202728Y-143042029D01*
X184202728Y-143042029D02*
X184164633Y-143080125D01*
X184164633Y-143080125D02*
X184088442Y-143118220D01*
X184088442Y-143118220D02*
X183859871Y-143118220D01*
X183859871Y-143118220D02*
X183783680Y-143080125D01*
X183783680Y-143080125D02*
X183745585Y-143042029D01*
D10*
X230818646Y-137970300D02*
X230742455Y-138008395D01*
X230742455Y-138008395D02*
X230590074Y-138008395D01*
X230590074Y-138008395D02*
X230513884Y-137970300D01*
X230513884Y-137970300D02*
X230475789Y-137932204D01*
X230475789Y-137932204D02*
X230437693Y-137856014D01*
X230437693Y-137856014D02*
X230437693Y-137627442D01*
X230437693Y-137627442D02*
X230475789Y-137551252D01*
X230475789Y-137551252D02*
X230513884Y-137513157D01*
X230513884Y-137513157D02*
X230590074Y-137475061D01*
X230590074Y-137475061D02*
X230742455Y-137475061D01*
X230742455Y-137475061D02*
X230818646Y-137513157D01*
X231123407Y-137284585D02*
X231161503Y-137246490D01*
X231161503Y-137246490D02*
X231237693Y-137208395D01*
X231237693Y-137208395D02*
X231428169Y-137208395D01*
X231428169Y-137208395D02*
X231504360Y-137246490D01*
X231504360Y-137246490D02*
X231542455Y-137284585D01*
X231542455Y-137284585D02*
X231580550Y-137360776D01*
X231580550Y-137360776D02*
X231580550Y-137436966D01*
X231580550Y-137436966D02*
X231542455Y-137551252D01*
X231542455Y-137551252D02*
X231085312Y-138008395D01*
X231085312Y-138008395D02*
X231580550Y-138008395D01*
X183119615Y-140548395D02*
X183119615Y-140015061D01*
X183119615Y-140167442D02*
X183157710Y-140091252D01*
X183157710Y-140091252D02*
X183195805Y-140053157D01*
X183195805Y-140053157D02*
X183271996Y-140015061D01*
X183271996Y-140015061D02*
X183348186Y-140015061D01*
X184033900Y-140548395D02*
X183576757Y-140548395D01*
X183805329Y-140548395D02*
X183805329Y-139748395D01*
X183805329Y-139748395D02*
X183729138Y-139862680D01*
X183729138Y-139862680D02*
X183652948Y-139938871D01*
X183652948Y-139938871D02*
X183576757Y-139976966D01*
X183119615Y-130388395D02*
X183119615Y-129855061D01*
X183119615Y-130007442D02*
X183157710Y-129931252D01*
X183157710Y-129931252D02*
X183195805Y-129893157D01*
X183195805Y-129893157D02*
X183271996Y-129855061D01*
X183271996Y-129855061D02*
X183348186Y-129855061D01*
X183767234Y-129588395D02*
X183843424Y-129588395D01*
X183843424Y-129588395D02*
X183919615Y-129626490D01*
X183919615Y-129626490D02*
X183957710Y-129664585D01*
X183957710Y-129664585D02*
X183995805Y-129740776D01*
X183995805Y-129740776D02*
X184033900Y-129893157D01*
X184033900Y-129893157D02*
X184033900Y-130083633D01*
X184033900Y-130083633D02*
X183995805Y-130236014D01*
X183995805Y-130236014D02*
X183957710Y-130312204D01*
X183957710Y-130312204D02*
X183919615Y-130350300D01*
X183919615Y-130350300D02*
X183843424Y-130388395D01*
X183843424Y-130388395D02*
X183767234Y-130388395D01*
X183767234Y-130388395D02*
X183691043Y-130350300D01*
X183691043Y-130350300D02*
X183652948Y-130312204D01*
X183652948Y-130312204D02*
X183614853Y-130236014D01*
X183614853Y-130236014D02*
X183576757Y-130083633D01*
X183576757Y-130083633D02*
X183576757Y-129893157D01*
X183576757Y-129893157D02*
X183614853Y-129740776D01*
X183614853Y-129740776D02*
X183652948Y-129664585D01*
X183652948Y-129664585D02*
X183691043Y-129626490D01*
X183691043Y-129626490D02*
X183767234Y-129588395D01*
X183462472Y-132890300D02*
X183386281Y-132928395D01*
X183386281Y-132928395D02*
X183233900Y-132928395D01*
X183233900Y-132928395D02*
X183157710Y-132890300D01*
X183157710Y-132890300D02*
X183119615Y-132852204D01*
X183119615Y-132852204D02*
X183081519Y-132776014D01*
X183081519Y-132776014D02*
X183081519Y-132547442D01*
X183081519Y-132547442D02*
X183119615Y-132471252D01*
X183119615Y-132471252D02*
X183157710Y-132433157D01*
X183157710Y-132433157D02*
X183233900Y-132395061D01*
X183233900Y-132395061D02*
X183386281Y-132395061D01*
X183386281Y-132395061D02*
X183462472Y-132433157D01*
X183957710Y-132128395D02*
X184033900Y-132128395D01*
X184033900Y-132128395D02*
X184110091Y-132166490D01*
X184110091Y-132166490D02*
X184148186Y-132204585D01*
X184148186Y-132204585D02*
X184186281Y-132280776D01*
X184186281Y-132280776D02*
X184224376Y-132433157D01*
X184224376Y-132433157D02*
X184224376Y-132623633D01*
X184224376Y-132623633D02*
X184186281Y-132776014D01*
X184186281Y-132776014D02*
X184148186Y-132852204D01*
X184148186Y-132852204D02*
X184110091Y-132890300D01*
X184110091Y-132890300D02*
X184033900Y-132928395D01*
X184033900Y-132928395D02*
X183957710Y-132928395D01*
X183957710Y-132928395D02*
X183881519Y-132890300D01*
X183881519Y-132890300D02*
X183843424Y-132852204D01*
X183843424Y-132852204D02*
X183805329Y-132776014D01*
X183805329Y-132776014D02*
X183767233Y-132623633D01*
X183767233Y-132623633D02*
X183767233Y-132433157D01*
X183767233Y-132433157D02*
X183805329Y-132280776D01*
X183805329Y-132280776D02*
X183843424Y-132204585D01*
X183843424Y-132204585D02*
X183881519Y-132166490D01*
X183881519Y-132166490D02*
X183957710Y-132128395D01*
X230818646Y-145528800D02*
X230742455Y-145566895D01*
X230742455Y-145566895D02*
X230590074Y-145566895D01*
X230590074Y-145566895D02*
X230513884Y-145528800D01*
X230513884Y-145528800D02*
X230475789Y-145490704D01*
X230475789Y-145490704D02*
X230437693Y-145414514D01*
X230437693Y-145414514D02*
X230437693Y-145185942D01*
X230437693Y-145185942D02*
X230475789Y-145109752D01*
X230475789Y-145109752D02*
X230513884Y-145071657D01*
X230513884Y-145071657D02*
X230590074Y-145033561D01*
X230590074Y-145033561D02*
X230742455Y-145033561D01*
X230742455Y-145033561D02*
X230818646Y-145071657D01*
X231504360Y-145033561D02*
X231504360Y-145566895D01*
X231313884Y-144728800D02*
X231123407Y-145300228D01*
X231123407Y-145300228D02*
X231618646Y-145300228D01*
X230818646Y-132890300D02*
X230742455Y-132928395D01*
X230742455Y-132928395D02*
X230590074Y-132928395D01*
X230590074Y-132928395D02*
X230513884Y-132890300D01*
X230513884Y-132890300D02*
X230475789Y-132852204D01*
X230475789Y-132852204D02*
X230437693Y-132776014D01*
X230437693Y-132776014D02*
X230437693Y-132547442D01*
X230437693Y-132547442D02*
X230475789Y-132471252D01*
X230475789Y-132471252D02*
X230513884Y-132433157D01*
X230513884Y-132433157D02*
X230590074Y-132395061D01*
X230590074Y-132395061D02*
X230742455Y-132395061D01*
X230742455Y-132395061D02*
X230818646Y-132433157D01*
X231313884Y-132128395D02*
X231390074Y-132128395D01*
X231390074Y-132128395D02*
X231466265Y-132166490D01*
X231466265Y-132166490D02*
X231504360Y-132204585D01*
X231504360Y-132204585D02*
X231542455Y-132280776D01*
X231542455Y-132280776D02*
X231580550Y-132433157D01*
X231580550Y-132433157D02*
X231580550Y-132623633D01*
X231580550Y-132623633D02*
X231542455Y-132776014D01*
X231542455Y-132776014D02*
X231504360Y-132852204D01*
X231504360Y-132852204D02*
X231466265Y-132890300D01*
X231466265Y-132890300D02*
X231390074Y-132928395D01*
X231390074Y-132928395D02*
X231313884Y-132928395D01*
X231313884Y-132928395D02*
X231237693Y-132890300D01*
X231237693Y-132890300D02*
X231199598Y-132852204D01*
X231199598Y-132852204D02*
X231161503Y-132776014D01*
X231161503Y-132776014D02*
X231123407Y-132623633D01*
X231123407Y-132623633D02*
X231123407Y-132433157D01*
X231123407Y-132433157D02*
X231161503Y-132280776D01*
X231161503Y-132280776D02*
X231199598Y-132204585D01*
X231199598Y-132204585D02*
X231237693Y-132166490D01*
X231237693Y-132166490D02*
X231313884Y-132128395D01*
D11*
X230760093Y-143080125D02*
X230683902Y-143118220D01*
X230683902Y-143118220D02*
X230531521Y-143118220D01*
X230531521Y-143118220D02*
X230455331Y-143080125D01*
X230455331Y-143080125D02*
X230417236Y-143042029D01*
X230417236Y-143042029D02*
X230379140Y-142965839D01*
X230379140Y-142965839D02*
X230379140Y-142737267D01*
X230379140Y-142737267D02*
X230417236Y-142661077D01*
X230417236Y-142661077D02*
X230455331Y-142622982D01*
X230455331Y-142622982D02*
X230531521Y-142584886D01*
X230531521Y-142584886D02*
X230683902Y-142584886D01*
X230683902Y-142584886D02*
X230760093Y-142622982D01*
X231026759Y-142318220D02*
X231521997Y-142318220D01*
X231521997Y-142318220D02*
X231255331Y-142622982D01*
X231255331Y-142622982D02*
X231369616Y-142622982D01*
X231369616Y-142622982D02*
X231445807Y-142661077D01*
X231445807Y-142661077D02*
X231483902Y-142699172D01*
X231483902Y-142699172D02*
X231521997Y-142775363D01*
X231521997Y-142775363D02*
X231521997Y-142965839D01*
X231521997Y-142965839D02*
X231483902Y-143042029D01*
X231483902Y-143042029D02*
X231445807Y-143080125D01*
X231445807Y-143080125D02*
X231369616Y-143118220D01*
X231369616Y-143118220D02*
X231141045Y-143118220D01*
X231141045Y-143118220D02*
X231064854Y-143080125D01*
X231064854Y-143080125D02*
X231026759Y-143042029D01*
D10*
X183462472Y-127858800D02*
X183386281Y-127896895D01*
X183386281Y-127896895D02*
X183233900Y-127896895D01*
X183233900Y-127896895D02*
X183157710Y-127858800D01*
X183157710Y-127858800D02*
X183119615Y-127820704D01*
X183119615Y-127820704D02*
X183081519Y-127744514D01*
X183081519Y-127744514D02*
X183081519Y-127515942D01*
X183081519Y-127515942D02*
X183119615Y-127439752D01*
X183119615Y-127439752D02*
X183157710Y-127401657D01*
X183157710Y-127401657D02*
X183233900Y-127363561D01*
X183233900Y-127363561D02*
X183386281Y-127363561D01*
X183386281Y-127363561D02*
X183462472Y-127401657D01*
X184186281Y-127096895D02*
X183805329Y-127096895D01*
X183805329Y-127096895D02*
X183767233Y-127477847D01*
X183767233Y-127477847D02*
X183805329Y-127439752D01*
X183805329Y-127439752D02*
X183881519Y-127401657D01*
X183881519Y-127401657D02*
X184071995Y-127401657D01*
X184071995Y-127401657D02*
X184148186Y-127439752D01*
X184148186Y-127439752D02*
X184186281Y-127477847D01*
X184186281Y-127477847D02*
X184224376Y-127554038D01*
X184224376Y-127554038D02*
X184224376Y-127744514D01*
X184224376Y-127744514D02*
X184186281Y-127820704D01*
X184186281Y-127820704D02*
X184148186Y-127858800D01*
X184148186Y-127858800D02*
X184071995Y-127896895D01*
X184071995Y-127896895D02*
X183881519Y-127896895D01*
X183881519Y-127896895D02*
X183805329Y-127858800D01*
X183805329Y-127858800D02*
X183767233Y-127820704D01*
X215268265Y-145628395D02*
X215268265Y-145095061D01*
X215268265Y-145247442D02*
X215306360Y-145171252D01*
X215306360Y-145171252D02*
X215344455Y-145133157D01*
X215344455Y-145133157D02*
X215420646Y-145095061D01*
X215420646Y-145095061D02*
X215496836Y-145095061D01*
X215687312Y-144828395D02*
X216182550Y-144828395D01*
X216182550Y-144828395D02*
X215915884Y-145133157D01*
X215915884Y-145133157D02*
X216030169Y-145133157D01*
X216030169Y-145133157D02*
X216106360Y-145171252D01*
X216106360Y-145171252D02*
X216144455Y-145209347D01*
X216144455Y-145209347D02*
X216182550Y-145285538D01*
X216182550Y-145285538D02*
X216182550Y-145476014D01*
X216182550Y-145476014D02*
X216144455Y-145552204D01*
X216144455Y-145552204D02*
X216106360Y-145590300D01*
X216106360Y-145590300D02*
X216030169Y-145628395D01*
X216030169Y-145628395D02*
X215801598Y-145628395D01*
X215801598Y-145628395D02*
X215725407Y-145590300D01*
X215725407Y-145590300D02*
X215687312Y-145552204D01*
X230666265Y-140548395D02*
X230666265Y-140015061D01*
X230666265Y-140167442D02*
X230704360Y-140091252D01*
X230704360Y-140091252D02*
X230742455Y-140053157D01*
X230742455Y-140053157D02*
X230818646Y-140015061D01*
X230818646Y-140015061D02*
X230894836Y-140015061D01*
X231580550Y-140548395D02*
X231123407Y-140548395D01*
X231351979Y-140548395D02*
X231351979Y-139748395D01*
X231351979Y-139748395D02*
X231275788Y-139862680D01*
X231275788Y-139862680D02*
X231199598Y-139938871D01*
X231199598Y-139938871D02*
X231123407Y-139976966D01*
D11*
X190853332Y-148056119D02*
X190758094Y-148008500D01*
X190758094Y-148008500D02*
X190710475Y-147913261D01*
X190710475Y-147913261D02*
X190710475Y-147056119D01*
X191615237Y-148008500D02*
X191519999Y-148056119D01*
X191519999Y-148056119D02*
X191329523Y-148056119D01*
X191329523Y-148056119D02*
X191234285Y-148008500D01*
X191234285Y-148008500D02*
X191186666Y-147913261D01*
X191186666Y-147913261D02*
X191186666Y-147532309D01*
X191186666Y-147532309D02*
X191234285Y-147437071D01*
X191234285Y-147437071D02*
X191329523Y-147389452D01*
X191329523Y-147389452D02*
X191519999Y-147389452D01*
X191519999Y-147389452D02*
X191615237Y-147437071D01*
X191615237Y-147437071D02*
X191662856Y-147532309D01*
X191662856Y-147532309D02*
X191662856Y-147627547D01*
X191662856Y-147627547D02*
X191186666Y-147722785D01*
X191948571Y-147389452D02*
X192329523Y-147389452D01*
X192091428Y-148056119D02*
X192091428Y-147198976D01*
X192091428Y-147198976D02*
X192139047Y-147103738D01*
X192139047Y-147103738D02*
X192234285Y-147056119D01*
X192234285Y-147056119D02*
X192329523Y-147056119D01*
X192520000Y-147389452D02*
X192900952Y-147389452D01*
X192662857Y-147056119D02*
X192662857Y-147913261D01*
X192662857Y-147913261D02*
X192710476Y-148008500D01*
X192710476Y-148008500D02*
X192805714Y-148056119D01*
X192805714Y-148056119D02*
X192900952Y-148056119D01*
X194424762Y-147389452D02*
X194424762Y-148056119D01*
X193996191Y-147389452D02*
X193996191Y-147913261D01*
X193996191Y-147913261D02*
X194043810Y-148008500D01*
X194043810Y-148008500D02*
X194139048Y-148056119D01*
X194139048Y-148056119D02*
X194281905Y-148056119D01*
X194281905Y-148056119D02*
X194377143Y-148008500D01*
X194377143Y-148008500D02*
X194424762Y-147960880D01*
X194900953Y-147389452D02*
X194900953Y-148389452D01*
X194900953Y-147437071D02*
X194996191Y-147389452D01*
X194996191Y-147389452D02*
X195186667Y-147389452D01*
X195186667Y-147389452D02*
X195281905Y-147437071D01*
X195281905Y-147437071D02*
X195329524Y-147484690D01*
X195329524Y-147484690D02*
X195377143Y-147579928D01*
X195377143Y-147579928D02*
X195377143Y-147865642D01*
X195377143Y-147865642D02*
X195329524Y-147960880D01*
X195329524Y-147960880D02*
X195281905Y-148008500D01*
X195281905Y-148008500D02*
X195186667Y-148056119D01*
X195186667Y-148056119D02*
X194996191Y-148056119D01*
X194996191Y-148056119D02*
X194900953Y-148008500D01*
D10*
X230666265Y-130388395D02*
X230666265Y-129855061D01*
X230666265Y-130007442D02*
X230704360Y-129931252D01*
X230704360Y-129931252D02*
X230742455Y-129893157D01*
X230742455Y-129893157D02*
X230818646Y-129855061D01*
X230818646Y-129855061D02*
X230894836Y-129855061D01*
X231313884Y-129588395D02*
X231390074Y-129588395D01*
X231390074Y-129588395D02*
X231466265Y-129626490D01*
X231466265Y-129626490D02*
X231504360Y-129664585D01*
X231504360Y-129664585D02*
X231542455Y-129740776D01*
X231542455Y-129740776D02*
X231580550Y-129893157D01*
X231580550Y-129893157D02*
X231580550Y-130083633D01*
X231580550Y-130083633D02*
X231542455Y-130236014D01*
X231542455Y-130236014D02*
X231504360Y-130312204D01*
X231504360Y-130312204D02*
X231466265Y-130350300D01*
X231466265Y-130350300D02*
X231390074Y-130388395D01*
X231390074Y-130388395D02*
X231313884Y-130388395D01*
X231313884Y-130388395D02*
X231237693Y-130350300D01*
X231237693Y-130350300D02*
X231199598Y-130312204D01*
X231199598Y-130312204D02*
X231161503Y-130236014D01*
X231161503Y-130236014D02*
X231123407Y-130083633D01*
X231123407Y-130083633D02*
X231123407Y-129893157D01*
X231123407Y-129893157D02*
X231161503Y-129740776D01*
X231161503Y-129740776D02*
X231199598Y-129664585D01*
X231199598Y-129664585D02*
X231237693Y-129626490D01*
X231237693Y-129626490D02*
X231313884Y-129588395D01*
X183462472Y-145590300D02*
X183386281Y-145628395D01*
X183386281Y-145628395D02*
X183233900Y-145628395D01*
X183233900Y-145628395D02*
X183157710Y-145590300D01*
X183157710Y-145590300D02*
X183119615Y-145552204D01*
X183119615Y-145552204D02*
X183081519Y-145476014D01*
X183081519Y-145476014D02*
X183081519Y-145247442D01*
X183081519Y-145247442D02*
X183119615Y-145171252D01*
X183119615Y-145171252D02*
X183157710Y-145133157D01*
X183157710Y-145133157D02*
X183233900Y-145095061D01*
X183233900Y-145095061D02*
X183386281Y-145095061D01*
X183386281Y-145095061D02*
X183462472Y-145133157D01*
X184148186Y-145095061D02*
X184148186Y-145628395D01*
X183957710Y-144790300D02*
X183767233Y-145361728D01*
X183767233Y-145361728D02*
X184262472Y-145361728D01*
X183462472Y-137970300D02*
X183386281Y-138008395D01*
X183386281Y-138008395D02*
X183233900Y-138008395D01*
X183233900Y-138008395D02*
X183157710Y-137970300D01*
X183157710Y-137970300D02*
X183119615Y-137932204D01*
X183119615Y-137932204D02*
X183081519Y-137856014D01*
X183081519Y-137856014D02*
X183081519Y-137627442D01*
X183081519Y-137627442D02*
X183119615Y-137551252D01*
X183119615Y-137551252D02*
X183157710Y-137513157D01*
X183157710Y-137513157D02*
X183233900Y-137475061D01*
X183233900Y-137475061D02*
X183386281Y-137475061D01*
X183386281Y-137475061D02*
X183462472Y-137513157D01*
X183767233Y-137284585D02*
X183805329Y-137246490D01*
X183805329Y-137246490D02*
X183881519Y-137208395D01*
X183881519Y-137208395D02*
X184071995Y-137208395D01*
X184071995Y-137208395D02*
X184148186Y-137246490D01*
X184148186Y-137246490D02*
X184186281Y-137284585D01*
X184186281Y-137284585D02*
X184224376Y-137360776D01*
X184224376Y-137360776D02*
X184224376Y-137436966D01*
X184224376Y-137436966D02*
X184186281Y-137551252D01*
X184186281Y-137551252D02*
X183729138Y-138008395D01*
X183729138Y-138008395D02*
X184224376Y-138008395D01*
X230818646Y-127810300D02*
X230742455Y-127848395D01*
X230742455Y-127848395D02*
X230590074Y-127848395D01*
X230590074Y-127848395D02*
X230513884Y-127810300D01*
X230513884Y-127810300D02*
X230475789Y-127772204D01*
X230475789Y-127772204D02*
X230437693Y-127696014D01*
X230437693Y-127696014D02*
X230437693Y-127467442D01*
X230437693Y-127467442D02*
X230475789Y-127391252D01*
X230475789Y-127391252D02*
X230513884Y-127353157D01*
X230513884Y-127353157D02*
X230590074Y-127315061D01*
X230590074Y-127315061D02*
X230742455Y-127315061D01*
X230742455Y-127315061D02*
X230818646Y-127353157D01*
X231542455Y-127048395D02*
X231161503Y-127048395D01*
X231161503Y-127048395D02*
X231123407Y-127429347D01*
X231123407Y-127429347D02*
X231161503Y-127391252D01*
X231161503Y-127391252D02*
X231237693Y-127353157D01*
X231237693Y-127353157D02*
X231428169Y-127353157D01*
X231428169Y-127353157D02*
X231504360Y-127391252D01*
X231504360Y-127391252D02*
X231542455Y-127429347D01*
X231542455Y-127429347D02*
X231580550Y-127505538D01*
X231580550Y-127505538D02*
X231580550Y-127696014D01*
X231580550Y-127696014D02*
X231542455Y-127772204D01*
X231542455Y-127772204D02*
X231504360Y-127810300D01*
X231504360Y-127810300D02*
X231428169Y-127848395D01*
X231428169Y-127848395D02*
X231237693Y-127848395D01*
X231237693Y-127848395D02*
X231161503Y-127810300D01*
X231161503Y-127810300D02*
X231123407Y-127772204D01*
X227280951Y-173743533D02*
X226519047Y-173743533D01*
X226899999Y-173362580D02*
X226899999Y-174124485D01*
X218680951Y-173743533D02*
X217919047Y-173743533D01*
X195919048Y-173756466D02*
X196680953Y-173756466D01*
X187319048Y-173756466D02*
X188080953Y-173756466D01*
X187700000Y-174137419D02*
X187700000Y-173375514D01*
D12*
%TO.C,G\u002A\u002A\u002A*%
G36*
X146321844Y-136083698D02*
G01*
X146351460Y-136134060D01*
X146365220Y-136165361D01*
X146405829Y-136246237D01*
X146451786Y-136293797D01*
X146513752Y-136315716D01*
X146579882Y-136319951D01*
X146652959Y-136323512D01*
X146685823Y-136334736D01*
X146678543Y-136354429D01*
X146631186Y-136383397D01*
X146587024Y-136404044D01*
X146456224Y-136461797D01*
X146438307Y-136597546D01*
X146427440Y-136666172D01*
X146416261Y-136714953D01*
X146407306Y-136733206D01*
X146393217Y-136715643D01*
X146369322Y-136669882D01*
X146343255Y-136611546D01*
X146292287Y-136489975D01*
X146146916Y-136470479D01*
X146001545Y-136450983D01*
X146129433Y-136391487D01*
X146205854Y-136352000D01*
X146251091Y-136313969D01*
X146273202Y-136265866D01*
X146280246Y-136196165D01*
X146280587Y-136175280D01*
X146285857Y-136104373D01*
X146299793Y-136073824D01*
X146321844Y-136083698D01*
G37*
G36*
X147771313Y-141151471D02*
G01*
X147777933Y-141199067D01*
X147783456Y-141273243D01*
X147786831Y-141359245D01*
X147787101Y-141373083D01*
X147789833Y-141538421D01*
X147935406Y-141703071D01*
X148002274Y-141779994D01*
X148041641Y-141833267D01*
X148050949Y-141867305D01*
X148027640Y-141886527D01*
X147969157Y-141895349D01*
X147872943Y-141898186D01*
X147822165Y-141898644D01*
X147638066Y-141900097D01*
X147477846Y-142044767D01*
X147410791Y-142104509D01*
X147355516Y-142152245D01*
X147318844Y-142182171D01*
X147307695Y-142189438D01*
X147302427Y-142170198D01*
X147295786Y-142118063D01*
X147288690Y-142041407D01*
X147283095Y-141964896D01*
X147268427Y-141740355D01*
X147121705Y-141577386D01*
X146974983Y-141414418D01*
X147205836Y-141396701D01*
X147436690Y-141378984D01*
X147597474Y-141237091D01*
X147758258Y-141095197D01*
X147771313Y-141151471D01*
G37*
G36*
X145715599Y-130795051D02*
G01*
X145758860Y-130833061D01*
X145818728Y-130889574D01*
X145889127Y-130958999D01*
X145898640Y-130968584D01*
X146084214Y-131156030D01*
X146347730Y-131149422D01*
X146446618Y-131147734D01*
X146528583Y-131147841D01*
X146585883Y-131149621D01*
X146610776Y-131152953D01*
X146611236Y-131153579D01*
X146597371Y-131171338D01*
X146559486Y-131212156D01*
X146503142Y-131270215D01*
X146433896Y-131339701D01*
X146423582Y-131349918D01*
X146235936Y-131535492D01*
X146243336Y-131809332D01*
X146245281Y-131910275D01*
X146245410Y-131994445D01*
X146243825Y-132054248D01*
X146240627Y-132082089D01*
X146239671Y-132083173D01*
X146221749Y-132069376D01*
X146180583Y-132031637D01*
X146121965Y-131975430D01*
X146051689Y-131906229D01*
X146038295Y-131892862D01*
X145847984Y-131702551D01*
X145573422Y-131708280D01*
X145298860Y-131714009D01*
X145495199Y-131515834D01*
X145691537Y-131317658D01*
X145684256Y-131049398D01*
X145682849Y-130949573D01*
X145684162Y-130866595D01*
X145687887Y-130808133D01*
X145693715Y-130781859D01*
X145695020Y-130781138D01*
X145715599Y-130795051D01*
G37*
G36*
X144786648Y-134435489D02*
G01*
X144816655Y-134481400D01*
X144857361Y-134549014D01*
X144898067Y-134620073D01*
X145011094Y-134821578D01*
X145216979Y-134864536D01*
X145306929Y-134883670D01*
X145383486Y-134900630D01*
X145436399Y-134913109D01*
X145453172Y-134917695D01*
X145449410Y-134931232D01*
X145413023Y-134960419D01*
X145348260Y-135002229D01*
X145273998Y-135045472D01*
X145195329Y-135088978D01*
X145138348Y-135122261D01*
X145098389Y-135152809D01*
X145070787Y-135188107D01*
X145050878Y-135235642D01*
X145033996Y-135302900D01*
X145015478Y-135397367D01*
X144998189Y-135488095D01*
X144983303Y-135554614D01*
X144969072Y-135601244D01*
X144959318Y-135617265D01*
X144944279Y-135600343D01*
X144914032Y-135554443D01*
X144873177Y-135486867D01*
X144832837Y-135416573D01*
X144720178Y-135215880D01*
X144497452Y-135171457D01*
X144406433Y-135152544D01*
X144331259Y-135135493D01*
X144280689Y-135122383D01*
X144263687Y-135115995D01*
X144276067Y-135102288D01*
X144318068Y-135073531D01*
X144382842Y-135034130D01*
X144451970Y-134994853D01*
X144534501Y-134947298D01*
X144603553Y-134903829D01*
X144650883Y-134869866D01*
X144667574Y-134853164D01*
X144678192Y-134820051D01*
X144693457Y-134756786D01*
X144710932Y-134673941D01*
X144721308Y-134620073D01*
X144738342Y-134535062D01*
X144754173Y-134467776D01*
X144766624Y-134426885D01*
X144771900Y-134418567D01*
X144786648Y-134435489D01*
G37*
G36*
X155930063Y-136023988D02*
G01*
X155971973Y-136062936D01*
X156032779Y-136122007D01*
X156107546Y-136196420D01*
X156176601Y-136266337D01*
X156427990Y-136522731D01*
X156784580Y-136475600D01*
X156901052Y-136460700D01*
X157002602Y-136448650D01*
X157082444Y-136440178D01*
X157133795Y-136436013D01*
X157149935Y-136436364D01*
X157138607Y-136452415D01*
X157101774Y-136492133D01*
X157044024Y-136550846D01*
X156969943Y-136623883D01*
X156893221Y-136697881D01*
X156627743Y-136951503D01*
X156674559Y-137308915D01*
X156689240Y-137425620D01*
X156700904Y-137527499D01*
X156708865Y-137607751D01*
X156712440Y-137659571D01*
X156711551Y-137676151D01*
X156694937Y-137665127D01*
X156654981Y-137628446D01*
X156596437Y-137570770D01*
X156524055Y-137496761D01*
X156457222Y-137426640D01*
X156361458Y-137326557D01*
X156288543Y-137254211D01*
X156234360Y-137206017D01*
X156194789Y-137178388D01*
X156165711Y-137167737D01*
X156159368Y-137167306D01*
X156120412Y-137170082D01*
X156049362Y-137177716D01*
X155955035Y-137189166D01*
X155846250Y-137203393D01*
X155799744Y-137209756D01*
X155691982Y-137223889D01*
X155599304Y-137234524D01*
X155529127Y-137240929D01*
X155488869Y-137242372D01*
X155482355Y-137241091D01*
X155492847Y-137223917D01*
X155528811Y-137183089D01*
X155585713Y-137123379D01*
X155659017Y-137049561D01*
X155733754Y-136976469D01*
X155996268Y-136722961D01*
X155947510Y-136366452D01*
X155932415Y-136250825D01*
X155920735Y-136150848D01*
X155913124Y-136073079D01*
X155910234Y-136024077D01*
X155911983Y-136009942D01*
X155930063Y-136023988D01*
G37*
G36*
X143996221Y-138498171D02*
G01*
X144011566Y-138530362D01*
X144016415Y-138542140D01*
X144038176Y-138594294D01*
X144071744Y-138673003D01*
X144112281Y-138766989D01*
X144149138Y-138851684D01*
X144248511Y-139079023D01*
X144494678Y-139137815D01*
X144632275Y-139170775D01*
X144734526Y-139195691D01*
X144806313Y-139214036D01*
X144852514Y-139227281D01*
X144878009Y-139236899D01*
X144887678Y-139244361D01*
X144886401Y-139251138D01*
X144882978Y-139254932D01*
X144858445Y-139268960D01*
X144802914Y-139295705D01*
X144723503Y-139331890D01*
X144627327Y-139374234D01*
X144576252Y-139396233D01*
X144287655Y-139519638D01*
X144214576Y-139841831D01*
X144189081Y-139950766D01*
X144165772Y-140043957D01*
X144146462Y-140114637D01*
X144132965Y-140156036D01*
X144128212Y-140164038D01*
X144115226Y-140146265D01*
X144089784Y-140097900D01*
X144055597Y-140026395D01*
X144017550Y-139941879D01*
X143975502Y-139845383D01*
X143936552Y-139754991D01*
X143905509Y-139681925D01*
X143889245Y-139642600D01*
X143877220Y-139613385D01*
X143864057Y-139590816D01*
X143844041Y-139572584D01*
X143811456Y-139556377D01*
X143760587Y-139539884D01*
X143685720Y-139520792D01*
X143581141Y-139496792D01*
X143464243Y-139470723D01*
X143366409Y-139447981D01*
X143285066Y-139427263D01*
X143227718Y-139410618D01*
X143201870Y-139400091D01*
X143201138Y-139398945D01*
X143219134Y-139386782D01*
X143268881Y-139361619D01*
X143344022Y-139326460D01*
X143438197Y-139284309D01*
X143507866Y-139254042D01*
X143814593Y-139122309D01*
X143882137Y-138821659D01*
X143912539Y-138687988D01*
X143936048Y-138591087D01*
X143954417Y-138527305D01*
X143969400Y-138492992D01*
X143982750Y-138484497D01*
X143996221Y-138498171D01*
G37*
G36*
X151072461Y-134113745D02*
G01*
X151067516Y-134133278D01*
X151052467Y-134170979D01*
X151025622Y-134231632D01*
X150985285Y-134320021D01*
X150929761Y-134440930D01*
X150924826Y-134451684D01*
X150791110Y-134743141D01*
X150984702Y-135040700D01*
X151048158Y-135138997D01*
X151102905Y-135225261D01*
X151145256Y-135293565D01*
X151171526Y-135337982D01*
X151178488Y-135352322D01*
X151160973Y-135348498D01*
X151112281Y-135329154D01*
X151038386Y-135296886D01*
X150945264Y-135254290D01*
X150857373Y-135212818D01*
X150751594Y-135162581D01*
X150659052Y-135119235D01*
X150586052Y-135085686D01*
X150538898Y-135064836D01*
X150523992Y-135059251D01*
X150503159Y-135069682D01*
X150453836Y-135098412D01*
X150382432Y-135141591D01*
X150295356Y-135195372D01*
X150250251Y-135223587D01*
X150130491Y-135298213D01*
X150041567Y-135351990D01*
X149979782Y-135386779D01*
X149941436Y-135404441D01*
X149922829Y-135406838D01*
X149920263Y-135395830D01*
X149922795Y-135388347D01*
X149935250Y-135360060D01*
X149961680Y-135301484D01*
X149998785Y-135219885D01*
X150043267Y-135122525D01*
X150068602Y-135067245D01*
X150202420Y-134775566D01*
X150009776Y-134478708D01*
X149947236Y-134381028D01*
X149894264Y-134295778D01*
X149854335Y-134228757D01*
X149830921Y-134185765D01*
X149826428Y-134172557D01*
X149847198Y-134177889D01*
X149898938Y-134198488D01*
X149975391Y-134231653D01*
X150070301Y-134274687D01*
X150154601Y-134314071D01*
X150473480Y-134464880D01*
X150739112Y-134298055D01*
X150834804Y-134238564D01*
X150920557Y-134186380D01*
X150989167Y-134145802D01*
X151033426Y-134121132D01*
X151043632Y-134116306D01*
X151058825Y-134110043D01*
X151068999Y-134107594D01*
X151072461Y-134113745D01*
G37*
G36*
X144881694Y-132954680D02*
G01*
X144903165Y-132968498D01*
X144957237Y-133004266D01*
X145042222Y-133060850D01*
X145156431Y-133137118D01*
X145298177Y-133231937D01*
X145465772Y-133344176D01*
X145657526Y-133472700D01*
X145871753Y-133616379D01*
X146106763Y-133774079D01*
X146360868Y-133944667D01*
X146632380Y-134127011D01*
X146919612Y-134319978D01*
X147220874Y-134522436D01*
X147534478Y-134733253D01*
X147858737Y-134951295D01*
X148191962Y-135175430D01*
X148212784Y-135189437D01*
X148546270Y-135413717D01*
X148870781Y-135631832D01*
X149184638Y-135842659D01*
X149486161Y-136045073D01*
X149773671Y-136237952D01*
X150045489Y-136420173D01*
X150299935Y-136590612D01*
X150535330Y-136748147D01*
X150749996Y-136891654D01*
X150942252Y-137020009D01*
X151110419Y-137132090D01*
X151252818Y-137226774D01*
X151367770Y-137302936D01*
X151453595Y-137359455D01*
X151508615Y-137395206D01*
X151531150Y-137409067D01*
X151531467Y-137409188D01*
X151553251Y-137413220D01*
X151570274Y-137409506D01*
X151582517Y-137394435D01*
X151589962Y-137364397D01*
X151592591Y-137315779D01*
X151590384Y-137244969D01*
X151583324Y-137148358D01*
X151571392Y-137022332D01*
X151554569Y-136863280D01*
X151532837Y-136667591D01*
X151527424Y-136619514D01*
X151505598Y-136425138D01*
X151488270Y-136267742D01*
X151475189Y-136143243D01*
X151466107Y-136047559D01*
X151460775Y-135976609D01*
X151458943Y-135926310D01*
X151460363Y-135892581D01*
X151464786Y-135871340D01*
X151471962Y-135858504D01*
X151480513Y-135850805D01*
X151519491Y-135828993D01*
X151539151Y-135823937D01*
X151557838Y-135836333D01*
X151607349Y-135872558D01*
X151685800Y-135931174D01*
X151791304Y-136010742D01*
X151921977Y-136109821D01*
X152075932Y-136226971D01*
X152251284Y-136360755D01*
X152446148Y-136509731D01*
X152658638Y-136672460D01*
X152886868Y-136847503D01*
X153128952Y-137033420D01*
X153383007Y-137228771D01*
X153647144Y-137432117D01*
X153824094Y-137568473D01*
X154210594Y-137866732D01*
X154564089Y-138140182D01*
X154884614Y-138388848D01*
X155172205Y-138612758D01*
X155426895Y-138811939D01*
X155648720Y-138986420D01*
X155837714Y-139136226D01*
X155993913Y-139261387D01*
X156117351Y-139361929D01*
X156208062Y-139437879D01*
X156266083Y-139489265D01*
X156275469Y-139498262D01*
X156492284Y-139739934D01*
X156675934Y-140004158D01*
X156825467Y-140287585D01*
X156939929Y-140586867D01*
X157018369Y-140898655D01*
X157059835Y-141219598D01*
X157063372Y-141546349D01*
X157028030Y-141875559D01*
X156996758Y-142034434D01*
X156911050Y-142363913D01*
X156809571Y-142660134D01*
X156689089Y-142929225D01*
X156546372Y-143177313D01*
X156378187Y-143410527D01*
X156181302Y-143634995D01*
X156118852Y-143698852D01*
X155890176Y-143909783D01*
X155656451Y-144088126D01*
X155410229Y-144238105D01*
X155144064Y-144363945D01*
X154850509Y-144469872D01*
X154664692Y-144523869D01*
X154443075Y-144576057D01*
X154220026Y-144614906D01*
X154004467Y-144639499D01*
X153805323Y-144648920D01*
X153631517Y-144642253D01*
X153576077Y-144635623D01*
X153530408Y-144628944D01*
X153458719Y-144618488D01*
X153375894Y-144606425D01*
X153369405Y-144605480D01*
X153098249Y-144547132D01*
X152824492Y-144452446D01*
X152555455Y-144325212D01*
X152298461Y-144169216D01*
X152060830Y-143988248D01*
X151913249Y-143852069D01*
X151882587Y-143817833D01*
X151828886Y-143753732D01*
X151753620Y-143661656D01*
X151658261Y-143543495D01*
X151544282Y-143401137D01*
X151413156Y-143236473D01*
X151266356Y-143051392D01*
X151105355Y-142847783D01*
X150931625Y-142627537D01*
X150746640Y-142392542D01*
X150551872Y-142144687D01*
X150348795Y-141885864D01*
X150138880Y-141617960D01*
X150060462Y-141517754D01*
X151323352Y-141517754D01*
X151343211Y-141842574D01*
X151401356Y-142156388D01*
X151495632Y-142456612D01*
X151623889Y-142740665D01*
X151783974Y-143005965D01*
X151973734Y-143249930D01*
X152191018Y-143469978D01*
X152433673Y-143663527D01*
X152699548Y-143827995D01*
X152986489Y-143960800D01*
X153292344Y-144059361D01*
X153475346Y-144099415D01*
X153607471Y-144121531D01*
X153727100Y-144136400D01*
X153857963Y-144146817D01*
X153897997Y-144149212D01*
X153944715Y-144148661D01*
X154020801Y-144144326D01*
X154114544Y-144136978D01*
X154187337Y-144130162D01*
X154513972Y-144079294D01*
X154818808Y-143993826D01*
X155104387Y-143872564D01*
X155373253Y-143714315D01*
X155627949Y-143517884D01*
X155768004Y-143388136D01*
X155957072Y-143187965D01*
X156112954Y-142990226D01*
X156241959Y-142785153D01*
X156350395Y-142562978D01*
X156425013Y-142370790D01*
X156483003Y-142187512D01*
X156523302Y-142011603D01*
X156548077Y-141829460D01*
X156559494Y-141627479D01*
X156560868Y-141517754D01*
X156542023Y-141184134D01*
X156484761Y-140865759D01*
X156389146Y-140562781D01*
X156255237Y-140275355D01*
X156083098Y-140003634D01*
X155872791Y-139747770D01*
X155827426Y-139699828D01*
X155580736Y-139472678D01*
X155316623Y-139282925D01*
X155035806Y-139130877D01*
X154739005Y-139016839D01*
X154426939Y-138941118D01*
X154100329Y-138904020D01*
X153948087Y-138900008D01*
X153636101Y-138915531D01*
X153344022Y-138963467D01*
X153063874Y-139045713D01*
X152787683Y-139164169D01*
X152742796Y-139186884D01*
X152461959Y-139354527D01*
X152207765Y-139552275D01*
X151981988Y-139777213D01*
X151786401Y-140026429D01*
X151622778Y-140297009D01*
X151492893Y-140586042D01*
X151398520Y-140890614D01*
X151341433Y-141207813D01*
X151323352Y-141517754D01*
X150060462Y-141517754D01*
X149923602Y-141342867D01*
X149704432Y-141062472D01*
X149482845Y-140778666D01*
X149260311Y-140493337D01*
X149038306Y-140208377D01*
X148818301Y-139925674D01*
X148601768Y-139647117D01*
X148390183Y-139374597D01*
X148185016Y-139110002D01*
X147987741Y-138855223D01*
X147799831Y-138612148D01*
X147622758Y-138382667D01*
X147457996Y-138168671D01*
X147307017Y-137972047D01*
X147171295Y-137794687D01*
X147052302Y-137638479D01*
X146951511Y-137505312D01*
X146870394Y-137397077D01*
X146810426Y-137315663D01*
X146773078Y-137262959D01*
X146759827Y-137240877D01*
X146758484Y-137209828D01*
X146766145Y-137187300D01*
X146786838Y-137173512D01*
X146824588Y-137168680D01*
X146883421Y-137173022D01*
X146967365Y-137186757D01*
X147080446Y-137210103D01*
X147226691Y-137243278D01*
X147353203Y-137272998D01*
X147520319Y-137312045D01*
X147651452Y-137341402D01*
X147750623Y-137361794D01*
X147821849Y-137373945D01*
X147869149Y-137378580D01*
X147896543Y-137376423D01*
X147904767Y-137372453D01*
X147929725Y-137342701D01*
X147933929Y-137329591D01*
X147921781Y-137311043D01*
X147886312Y-137261388D01*
X147828986Y-137182602D01*
X147751266Y-137076658D01*
X147654614Y-136945529D01*
X147540495Y-136791191D01*
X147410371Y-136615616D01*
X147265707Y-136420779D01*
X147107963Y-136208654D01*
X146938606Y-135981214D01*
X146759096Y-135740434D01*
X146570898Y-135488288D01*
X146375476Y-135226750D01*
X146340879Y-135180479D01*
X146103170Y-134862432D01*
X145889228Y-134575840D01*
X145697929Y-134319158D01*
X145528151Y-134090839D01*
X145378772Y-133889339D01*
X145248670Y-133713111D01*
X145136721Y-133560609D01*
X145041803Y-133430287D01*
X144962794Y-133320599D01*
X144898572Y-133230001D01*
X144848013Y-133156945D01*
X144809995Y-133099886D01*
X144783397Y-133057278D01*
X144767094Y-133027576D01*
X144759965Y-133009232D01*
X144759659Y-133002890D01*
X144788086Y-132954476D01*
X144836062Y-132940366D01*
X144881694Y-132954680D01*
G37*
G36*
X252971844Y-136083698D02*
G01*
X253001460Y-136134060D01*
X253015220Y-136165361D01*
X253055829Y-136246237D01*
X253101786Y-136293797D01*
X253163752Y-136315716D01*
X253229882Y-136319951D01*
X253302959Y-136323512D01*
X253335823Y-136334736D01*
X253328543Y-136354429D01*
X253281186Y-136383397D01*
X253237024Y-136404044D01*
X253106224Y-136461797D01*
X253088307Y-136597546D01*
X253077440Y-136666172D01*
X253066261Y-136714953D01*
X253057306Y-136733206D01*
X253043217Y-136715643D01*
X253019322Y-136669882D01*
X252993255Y-136611546D01*
X252942287Y-136489975D01*
X252796916Y-136470479D01*
X252651545Y-136450983D01*
X252779433Y-136391487D01*
X252855854Y-136352000D01*
X252901091Y-136313969D01*
X252923202Y-136265866D01*
X252930246Y-136196165D01*
X252930587Y-136175280D01*
X252935857Y-136104373D01*
X252949793Y-136073824D01*
X252971844Y-136083698D01*
G37*
G36*
X254421313Y-141151471D02*
G01*
X254427933Y-141199067D01*
X254433456Y-141273243D01*
X254436831Y-141359245D01*
X254437101Y-141373083D01*
X254439833Y-141538421D01*
X254585406Y-141703071D01*
X254652274Y-141779994D01*
X254691641Y-141833267D01*
X254700949Y-141867305D01*
X254677640Y-141886527D01*
X254619157Y-141895349D01*
X254522943Y-141898186D01*
X254472165Y-141898644D01*
X254288066Y-141900097D01*
X254127846Y-142044767D01*
X254060791Y-142104509D01*
X254005516Y-142152245D01*
X253968844Y-142182171D01*
X253957695Y-142189438D01*
X253952427Y-142170198D01*
X253945786Y-142118063D01*
X253938690Y-142041407D01*
X253933095Y-141964896D01*
X253918427Y-141740355D01*
X253771705Y-141577386D01*
X253624983Y-141414418D01*
X253855836Y-141396701D01*
X254086690Y-141378984D01*
X254247474Y-141237091D01*
X254408258Y-141095197D01*
X254421313Y-141151471D01*
G37*
G36*
X252365599Y-130795051D02*
G01*
X252408860Y-130833061D01*
X252468728Y-130889574D01*
X252539127Y-130958999D01*
X252548640Y-130968584D01*
X252734214Y-131156030D01*
X252997730Y-131149422D01*
X253096618Y-131147734D01*
X253178583Y-131147841D01*
X253235883Y-131149621D01*
X253260776Y-131152953D01*
X253261236Y-131153579D01*
X253247371Y-131171338D01*
X253209486Y-131212156D01*
X253153142Y-131270215D01*
X253083896Y-131339701D01*
X253073582Y-131349918D01*
X252885936Y-131535492D01*
X252893336Y-131809332D01*
X252895281Y-131910275D01*
X252895410Y-131994445D01*
X252893825Y-132054248D01*
X252890627Y-132082089D01*
X252889671Y-132083173D01*
X252871749Y-132069376D01*
X252830583Y-132031637D01*
X252771965Y-131975430D01*
X252701689Y-131906229D01*
X252688295Y-131892862D01*
X252497984Y-131702551D01*
X252223422Y-131708280D01*
X251948860Y-131714009D01*
X252145199Y-131515834D01*
X252341537Y-131317658D01*
X252334256Y-131049398D01*
X252332849Y-130949573D01*
X252334162Y-130866595D01*
X252337887Y-130808133D01*
X252343715Y-130781859D01*
X252345020Y-130781138D01*
X252365599Y-130795051D01*
G37*
G36*
X251436648Y-134435489D02*
G01*
X251466655Y-134481400D01*
X251507361Y-134549014D01*
X251548067Y-134620073D01*
X251661094Y-134821578D01*
X251866979Y-134864536D01*
X251956929Y-134883670D01*
X252033486Y-134900630D01*
X252086399Y-134913109D01*
X252103172Y-134917695D01*
X252099410Y-134931232D01*
X252063023Y-134960419D01*
X251998260Y-135002229D01*
X251923998Y-135045472D01*
X251845329Y-135088978D01*
X251788348Y-135122261D01*
X251748389Y-135152809D01*
X251720787Y-135188107D01*
X251700878Y-135235642D01*
X251683996Y-135302900D01*
X251665478Y-135397367D01*
X251648189Y-135488095D01*
X251633303Y-135554614D01*
X251619072Y-135601244D01*
X251609318Y-135617265D01*
X251594279Y-135600343D01*
X251564032Y-135554443D01*
X251523177Y-135486867D01*
X251482837Y-135416573D01*
X251370178Y-135215880D01*
X251147452Y-135171457D01*
X251056433Y-135152544D01*
X250981259Y-135135493D01*
X250930689Y-135122383D01*
X250913687Y-135115995D01*
X250926067Y-135102288D01*
X250968068Y-135073531D01*
X251032842Y-135034130D01*
X251101970Y-134994853D01*
X251184501Y-134947298D01*
X251253553Y-134903829D01*
X251300883Y-134869866D01*
X251317574Y-134853164D01*
X251328192Y-134820051D01*
X251343457Y-134756786D01*
X251360932Y-134673941D01*
X251371308Y-134620073D01*
X251388342Y-134535062D01*
X251404173Y-134467776D01*
X251416624Y-134426885D01*
X251421900Y-134418567D01*
X251436648Y-134435489D01*
G37*
G36*
X262580063Y-136023988D02*
G01*
X262621973Y-136062936D01*
X262682779Y-136122007D01*
X262757546Y-136196420D01*
X262826601Y-136266337D01*
X263077990Y-136522731D01*
X263434580Y-136475600D01*
X263551052Y-136460700D01*
X263652602Y-136448650D01*
X263732444Y-136440178D01*
X263783795Y-136436013D01*
X263799935Y-136436364D01*
X263788607Y-136452415D01*
X263751774Y-136492133D01*
X263694024Y-136550846D01*
X263619943Y-136623883D01*
X263543221Y-136697881D01*
X263277743Y-136951503D01*
X263324559Y-137308915D01*
X263339240Y-137425620D01*
X263350904Y-137527499D01*
X263358865Y-137607751D01*
X263362440Y-137659571D01*
X263361551Y-137676151D01*
X263344937Y-137665127D01*
X263304981Y-137628446D01*
X263246437Y-137570770D01*
X263174055Y-137496761D01*
X263107222Y-137426640D01*
X263011458Y-137326557D01*
X262938543Y-137254211D01*
X262884360Y-137206017D01*
X262844789Y-137178388D01*
X262815711Y-137167737D01*
X262809368Y-137167306D01*
X262770412Y-137170082D01*
X262699362Y-137177716D01*
X262605035Y-137189166D01*
X262496250Y-137203393D01*
X262449744Y-137209756D01*
X262341982Y-137223889D01*
X262249304Y-137234524D01*
X262179127Y-137240929D01*
X262138869Y-137242372D01*
X262132355Y-137241091D01*
X262142847Y-137223917D01*
X262178811Y-137183089D01*
X262235713Y-137123379D01*
X262309017Y-137049561D01*
X262383754Y-136976469D01*
X262646268Y-136722961D01*
X262597510Y-136366452D01*
X262582415Y-136250825D01*
X262570735Y-136150848D01*
X262563124Y-136073079D01*
X262560234Y-136024077D01*
X262561983Y-136009942D01*
X262580063Y-136023988D01*
G37*
G36*
X250646221Y-138498171D02*
G01*
X250661566Y-138530362D01*
X250666415Y-138542140D01*
X250688176Y-138594294D01*
X250721744Y-138673003D01*
X250762281Y-138766989D01*
X250799138Y-138851684D01*
X250898511Y-139079023D01*
X251144678Y-139137815D01*
X251282275Y-139170775D01*
X251384526Y-139195691D01*
X251456313Y-139214036D01*
X251502514Y-139227281D01*
X251528009Y-139236899D01*
X251537678Y-139244361D01*
X251536401Y-139251138D01*
X251532978Y-139254932D01*
X251508445Y-139268960D01*
X251452914Y-139295705D01*
X251373503Y-139331890D01*
X251277327Y-139374234D01*
X251226252Y-139396233D01*
X250937655Y-139519638D01*
X250864576Y-139841831D01*
X250839081Y-139950766D01*
X250815772Y-140043957D01*
X250796462Y-140114637D01*
X250782965Y-140156036D01*
X250778212Y-140164038D01*
X250765226Y-140146265D01*
X250739784Y-140097900D01*
X250705597Y-140026395D01*
X250667550Y-139941879D01*
X250625502Y-139845383D01*
X250586552Y-139754991D01*
X250555509Y-139681925D01*
X250539245Y-139642600D01*
X250527220Y-139613385D01*
X250514057Y-139590816D01*
X250494041Y-139572584D01*
X250461456Y-139556377D01*
X250410587Y-139539884D01*
X250335720Y-139520792D01*
X250231141Y-139496792D01*
X250114243Y-139470723D01*
X250016409Y-139447981D01*
X249935066Y-139427263D01*
X249877718Y-139410618D01*
X249851870Y-139400091D01*
X249851138Y-139398945D01*
X249869134Y-139386782D01*
X249918881Y-139361619D01*
X249994022Y-139326460D01*
X250088197Y-139284309D01*
X250157866Y-139254042D01*
X250464593Y-139122309D01*
X250532137Y-138821659D01*
X250562539Y-138687988D01*
X250586048Y-138591087D01*
X250604417Y-138527305D01*
X250619400Y-138492992D01*
X250632750Y-138484497D01*
X250646221Y-138498171D01*
G37*
G36*
X257722461Y-134113745D02*
G01*
X257717516Y-134133278D01*
X257702467Y-134170979D01*
X257675622Y-134231632D01*
X257635285Y-134320021D01*
X257579761Y-134440930D01*
X257574826Y-134451684D01*
X257441110Y-134743141D01*
X257634702Y-135040700D01*
X257698158Y-135138997D01*
X257752905Y-135225261D01*
X257795256Y-135293565D01*
X257821526Y-135337982D01*
X257828488Y-135352322D01*
X257810973Y-135348498D01*
X257762281Y-135329154D01*
X257688386Y-135296886D01*
X257595264Y-135254290D01*
X257507373Y-135212818D01*
X257401594Y-135162581D01*
X257309052Y-135119235D01*
X257236052Y-135085686D01*
X257188898Y-135064836D01*
X257173992Y-135059251D01*
X257153159Y-135069682D01*
X257103836Y-135098412D01*
X257032432Y-135141591D01*
X256945356Y-135195372D01*
X256900251Y-135223587D01*
X256780491Y-135298213D01*
X256691567Y-135351990D01*
X256629782Y-135386779D01*
X256591436Y-135404441D01*
X256572829Y-135406838D01*
X256570263Y-135395830D01*
X256572795Y-135388347D01*
X256585250Y-135360060D01*
X256611680Y-135301484D01*
X256648785Y-135219885D01*
X256693267Y-135122525D01*
X256718602Y-135067245D01*
X256852420Y-134775566D01*
X256659776Y-134478708D01*
X256597236Y-134381028D01*
X256544264Y-134295778D01*
X256504335Y-134228757D01*
X256480921Y-134185765D01*
X256476428Y-134172557D01*
X256497198Y-134177889D01*
X256548938Y-134198488D01*
X256625391Y-134231653D01*
X256720301Y-134274687D01*
X256804601Y-134314071D01*
X257123480Y-134464880D01*
X257389112Y-134298055D01*
X257484804Y-134238564D01*
X257570557Y-134186380D01*
X257639167Y-134145802D01*
X257683426Y-134121132D01*
X257693632Y-134116306D01*
X257708825Y-134110043D01*
X257718999Y-134107594D01*
X257722461Y-134113745D01*
G37*
G36*
X251531694Y-132954680D02*
G01*
X251553165Y-132968498D01*
X251607237Y-133004266D01*
X251692222Y-133060850D01*
X251806431Y-133137118D01*
X251948177Y-133231937D01*
X252115772Y-133344176D01*
X252307526Y-133472700D01*
X252521753Y-133616379D01*
X252756763Y-133774079D01*
X253010868Y-133944667D01*
X253282380Y-134127011D01*
X253569612Y-134319978D01*
X253870874Y-134522436D01*
X254184478Y-134733253D01*
X254508737Y-134951295D01*
X254841962Y-135175430D01*
X254862784Y-135189437D01*
X255196270Y-135413717D01*
X255520781Y-135631832D01*
X255834638Y-135842659D01*
X256136161Y-136045073D01*
X256423671Y-136237952D01*
X256695489Y-136420173D01*
X256949935Y-136590612D01*
X257185330Y-136748147D01*
X257399996Y-136891654D01*
X257592252Y-137020009D01*
X257760419Y-137132090D01*
X257902818Y-137226774D01*
X258017770Y-137302936D01*
X258103595Y-137359455D01*
X258158615Y-137395206D01*
X258181150Y-137409067D01*
X258181467Y-137409188D01*
X258203251Y-137413220D01*
X258220274Y-137409506D01*
X258232517Y-137394435D01*
X258239962Y-137364397D01*
X258242591Y-137315779D01*
X258240384Y-137244969D01*
X258233324Y-137148358D01*
X258221392Y-137022332D01*
X258204569Y-136863280D01*
X258182837Y-136667591D01*
X258177424Y-136619514D01*
X258155598Y-136425138D01*
X258138270Y-136267742D01*
X258125189Y-136143243D01*
X258116107Y-136047559D01*
X258110775Y-135976609D01*
X258108943Y-135926310D01*
X258110363Y-135892581D01*
X258114786Y-135871340D01*
X258121962Y-135858504D01*
X258130513Y-135850805D01*
X258169491Y-135828993D01*
X258189151Y-135823937D01*
X258207838Y-135836333D01*
X258257349Y-135872558D01*
X258335800Y-135931174D01*
X258441304Y-136010742D01*
X258571977Y-136109821D01*
X258725932Y-136226971D01*
X258901284Y-136360755D01*
X259096148Y-136509731D01*
X259308638Y-136672460D01*
X259536868Y-136847503D01*
X259778952Y-137033420D01*
X260033007Y-137228771D01*
X260297144Y-137432117D01*
X260474094Y-137568473D01*
X260860594Y-137866732D01*
X261214089Y-138140182D01*
X261534614Y-138388848D01*
X261822205Y-138612758D01*
X262076895Y-138811939D01*
X262298720Y-138986420D01*
X262487714Y-139136226D01*
X262643913Y-139261387D01*
X262767351Y-139361929D01*
X262858062Y-139437879D01*
X262916083Y-139489265D01*
X262925469Y-139498262D01*
X263142284Y-139739934D01*
X263325934Y-140004158D01*
X263475467Y-140287585D01*
X263589929Y-140586867D01*
X263668369Y-140898655D01*
X263709835Y-141219598D01*
X263713372Y-141546349D01*
X263678030Y-141875559D01*
X263646758Y-142034434D01*
X263561050Y-142363913D01*
X263459571Y-142660134D01*
X263339089Y-142929225D01*
X263196372Y-143177313D01*
X263028187Y-143410527D01*
X262831302Y-143634995D01*
X262768852Y-143698852D01*
X262540176Y-143909783D01*
X262306451Y-144088126D01*
X262060229Y-144238105D01*
X261794064Y-144363945D01*
X261500509Y-144469872D01*
X261314692Y-144523869D01*
X261093075Y-144576057D01*
X260870026Y-144614906D01*
X260654467Y-144639499D01*
X260455323Y-144648920D01*
X260281517Y-144642253D01*
X260226077Y-144635623D01*
X260180408Y-144628944D01*
X260108719Y-144618488D01*
X260025894Y-144606425D01*
X260019405Y-144605480D01*
X259748249Y-144547132D01*
X259474492Y-144452446D01*
X259205455Y-144325212D01*
X258948461Y-144169216D01*
X258710830Y-143988248D01*
X258563249Y-143852069D01*
X258532587Y-143817833D01*
X258478886Y-143753732D01*
X258403620Y-143661656D01*
X258308261Y-143543495D01*
X258194282Y-143401137D01*
X258063156Y-143236473D01*
X257916356Y-143051392D01*
X257755355Y-142847783D01*
X257581625Y-142627537D01*
X257396640Y-142392542D01*
X257201872Y-142144687D01*
X256998795Y-141885864D01*
X256788880Y-141617960D01*
X256710462Y-141517754D01*
X257973352Y-141517754D01*
X257993211Y-141842574D01*
X258051356Y-142156388D01*
X258145632Y-142456612D01*
X258273889Y-142740665D01*
X258433974Y-143005965D01*
X258623734Y-143249930D01*
X258841018Y-143469978D01*
X259083673Y-143663527D01*
X259349548Y-143827995D01*
X259636489Y-143960800D01*
X259942344Y-144059361D01*
X260125346Y-144099415D01*
X260257471Y-144121531D01*
X260377100Y-144136400D01*
X260507963Y-144146817D01*
X260547997Y-144149212D01*
X260594715Y-144148661D01*
X260670801Y-144144326D01*
X260764544Y-144136978D01*
X260837337Y-144130162D01*
X261163972Y-144079294D01*
X261468808Y-143993826D01*
X261754387Y-143872564D01*
X262023253Y-143714315D01*
X262277949Y-143517884D01*
X262418004Y-143388136D01*
X262607072Y-143187965D01*
X262762954Y-142990226D01*
X262891959Y-142785153D01*
X263000395Y-142562978D01*
X263075013Y-142370790D01*
X263133003Y-142187512D01*
X263173302Y-142011603D01*
X263198077Y-141829460D01*
X263209494Y-141627479D01*
X263210868Y-141517754D01*
X263192023Y-141184134D01*
X263134761Y-140865759D01*
X263039146Y-140562781D01*
X262905237Y-140275355D01*
X262733098Y-140003634D01*
X262522791Y-139747770D01*
X262477426Y-139699828D01*
X262230736Y-139472678D01*
X261966623Y-139282925D01*
X261685806Y-139130877D01*
X261389005Y-139016839D01*
X261076939Y-138941118D01*
X260750329Y-138904020D01*
X260598087Y-138900008D01*
X260286101Y-138915531D01*
X259994022Y-138963467D01*
X259713874Y-139045713D01*
X259437683Y-139164169D01*
X259392796Y-139186884D01*
X259111959Y-139354527D01*
X258857765Y-139552275D01*
X258631988Y-139777213D01*
X258436401Y-140026429D01*
X258272778Y-140297009D01*
X258142893Y-140586042D01*
X258048520Y-140890614D01*
X257991433Y-141207813D01*
X257973352Y-141517754D01*
X256710462Y-141517754D01*
X256573602Y-141342867D01*
X256354432Y-141062472D01*
X256132845Y-140778666D01*
X255910311Y-140493337D01*
X255688306Y-140208377D01*
X255468301Y-139925674D01*
X255251768Y-139647117D01*
X255040183Y-139374597D01*
X254835016Y-139110002D01*
X254637741Y-138855223D01*
X254449831Y-138612148D01*
X254272758Y-138382667D01*
X254107996Y-138168671D01*
X253957017Y-137972047D01*
X253821295Y-137794687D01*
X253702302Y-137638479D01*
X253601511Y-137505312D01*
X253520394Y-137397077D01*
X253460426Y-137315663D01*
X253423078Y-137262959D01*
X253409827Y-137240877D01*
X253408484Y-137209828D01*
X253416145Y-137187300D01*
X253436838Y-137173512D01*
X253474588Y-137168680D01*
X253533421Y-137173022D01*
X253617365Y-137186757D01*
X253730446Y-137210103D01*
X253876691Y-137243278D01*
X254003203Y-137272998D01*
X254170319Y-137312045D01*
X254301452Y-137341402D01*
X254400623Y-137361794D01*
X254471849Y-137373945D01*
X254519149Y-137378580D01*
X254546543Y-137376423D01*
X254554767Y-137372453D01*
X254579725Y-137342701D01*
X254583929Y-137329591D01*
X254571781Y-137311043D01*
X254536312Y-137261388D01*
X254478986Y-137182602D01*
X254401266Y-137076658D01*
X254304614Y-136945529D01*
X254190495Y-136791191D01*
X254060371Y-136615616D01*
X253915707Y-136420779D01*
X253757963Y-136208654D01*
X253588606Y-135981214D01*
X253409096Y-135740434D01*
X253220898Y-135488288D01*
X253025476Y-135226750D01*
X252990879Y-135180479D01*
X252753170Y-134862432D01*
X252539228Y-134575840D01*
X252347929Y-134319158D01*
X252178151Y-134090839D01*
X252028772Y-133889339D01*
X251898670Y-133713111D01*
X251786721Y-133560609D01*
X251691803Y-133430287D01*
X251612794Y-133320599D01*
X251548572Y-133230001D01*
X251498013Y-133156945D01*
X251459995Y-133099886D01*
X251433397Y-133057278D01*
X251417094Y-133027576D01*
X251409965Y-133009232D01*
X251409659Y-133002890D01*
X251438086Y-132954476D01*
X251486062Y-132940366D01*
X251531694Y-132954680D01*
G37*
%TD*%
M02*
