%TF.GenerationSoftware,KiCad,Pcbnew,9.0.2*%
%TF.CreationDate,2025-06-05T15:14:06+03:00*%
%TF.ProjectId,KOMETA,4b4f4d45-5441-42e6-9b69-6361645f7063,rev?*%
%TF.SameCoordinates,Original*%
%TF.FileFunction,Paste,Bot*%
%TF.FilePolarity,Positive*%
%FSLAX46Y46*%
G04 Gerber Fmt 4.6, Leading zero omitted, Abs format (unit mm)*
G04 Created by KiCad (PCBNEW 9.0.2) date 2025-06-05 15:14:06*
%MOMM*%
%LPD*%
G01*
G04 APERTURE LIST*
G04 Aperture macros list*
%AMRoundRect*
0 Rectangle with rounded corners*
0 $1 Rounding radius*
0 $2 $3 $4 $5 $6 $7 $8 $9 X,Y pos of 4 corners*
0 Add a 4 corners polygon primitive as box body*
4,1,4,$2,$3,$4,$5,$6,$7,$8,$9,$2,$3,0*
0 Add four circle primitives for the rounded corners*
1,1,$1+$1,$2,$3*
1,1,$1+$1,$4,$5*
1,1,$1+$1,$6,$7*
1,1,$1+$1,$8,$9*
0 Add four rect primitives between the rounded corners*
20,1,$1+$1,$2,$3,$4,$5,0*
20,1,$1+$1,$4,$5,$6,$7,0*
20,1,$1+$1,$6,$7,$8,$9,0*
20,1,$1+$1,$8,$9,$2,$3,0*%
G04 Aperture macros list end*
%ADD10C,0.000000*%
%ADD11RoundRect,0.200000X-1.000000X-1.050000X1.000000X-1.050000X1.000000X1.050000X-1.000000X1.050000X0*%
%ADD12O,1.900000X1.900000*%
%ADD13RoundRect,0.250000X-0.700000X-0.700000X0.700000X-0.700000X0.700000X0.700000X-0.700000X0.700000X0*%
%ADD14RoundRect,0.200000X0.700000X-0.700000X0.700000X0.700000X-0.700000X0.700000X-0.700000X-0.700000X0*%
%ADD15C,1.800000*%
%ADD16RoundRect,0.200000X0.300000X0.300000X-0.300000X0.300000X-0.300000X-0.300000X0.300000X-0.300000X0*%
%ADD17O,1.000000X1.000000*%
%ADD18C,2.500000*%
%ADD19RoundRect,0.200000X0.400000X0.700000X-0.400000X0.700000X-0.400000X-0.700000X0.400000X-0.700000X0*%
%ADD20RoundRect,0.199800X0.300200X0.100200X-0.300200X0.100200X-0.300200X-0.100200X0.300200X-0.100200X0*%
%ADD21RoundRect,0.199800X0.100200X-0.300200X0.100200X0.300200X-0.100200X0.300200X-0.100200X-0.300200X0*%
%ADD22RoundRect,0.200000X-0.700000X0.700000X-0.700000X-0.700000X0.700000X-0.700000X0.700000X0.700000X0*%
%ADD23C,5.000000*%
%ADD24RoundRect,0.200000X-0.400000X-0.700000X0.400000X-0.700000X0.400000X0.700000X-0.400000X0.700000X0*%
G04 APERTURE END LIST*
D10*
G36*
X207656164Y-161918899D02*
G01*
X207903342Y-161947400D01*
X208148593Y-161992168D01*
X208391087Y-162053188D01*
X208629994Y-162130448D01*
X208864484Y-162223933D01*
X209093726Y-162333630D01*
X209316892Y-162459526D01*
X209536850Y-162593578D01*
X209669239Y-162678585D01*
X209797005Y-162769348D01*
X209919995Y-162865664D01*
X210038055Y-162967333D01*
X210151032Y-163074154D01*
X210258773Y-163185925D01*
X210361124Y-163302444D01*
X210457931Y-163423512D01*
X210549042Y-163548926D01*
X210634304Y-163678485D01*
X210713562Y-163811988D01*
X210786664Y-163949234D01*
X210853456Y-164090022D01*
X210913784Y-164234150D01*
X210967497Y-164381416D01*
X211014439Y-164531621D01*
X211037908Y-164617708D01*
X211059054Y-164704282D01*
X211077873Y-164791295D01*
X211094363Y-164878701D01*
X211108520Y-164966453D01*
X211120341Y-165054504D01*
X211129823Y-165142807D01*
X211136963Y-165231315D01*
X211141758Y-165319982D01*
X211144205Y-165408760D01*
X211144299Y-165497602D01*
X211142039Y-165586462D01*
X211137421Y-165675293D01*
X211130443Y-165764047D01*
X211121099Y-165852679D01*
X211109389Y-165941140D01*
X209738435Y-175683791D01*
X209736928Y-175691875D01*
X209734846Y-175699573D01*
X209732219Y-175706875D01*
X209729081Y-175713778D01*
X209725463Y-175720273D01*
X209721397Y-175726355D01*
X209716915Y-175732017D01*
X209712048Y-175737253D01*
X209706831Y-175742057D01*
X209701293Y-175746422D01*
X209695467Y-175750342D01*
X209689385Y-175753811D01*
X209683080Y-175756821D01*
X209676583Y-175759367D01*
X209669925Y-175761443D01*
X209663140Y-175763042D01*
X209656260Y-175764157D01*
X209649315Y-175764783D01*
X209642339Y-175764912D01*
X209635362Y-175764539D01*
X209628418Y-175763658D01*
X209621538Y-175762261D01*
X209614755Y-175760342D01*
X209608099Y-175757896D01*
X209601604Y-175754916D01*
X209595302Y-175751394D01*
X209589223Y-175747326D01*
X209583401Y-175742704D01*
X209577867Y-175737523D01*
X209572653Y-175731776D01*
X209567792Y-175725456D01*
X209563315Y-175718557D01*
X208922915Y-174641410D01*
X208918472Y-174634562D01*
X208913649Y-174628283D01*
X208908476Y-174622567D01*
X208902986Y-174617408D01*
X208897209Y-174612801D01*
X208891178Y-174608738D01*
X208884923Y-174605215D01*
X208878476Y-174602224D01*
X208871869Y-174599761D01*
X208865133Y-174597819D01*
X208858299Y-174596392D01*
X208851399Y-174595473D01*
X208844465Y-174595058D01*
X208837528Y-174595140D01*
X208830619Y-174595713D01*
X208823770Y-174596771D01*
X208817012Y-174598308D01*
X208810376Y-174600319D01*
X208803895Y-174602796D01*
X208797600Y-174605734D01*
X208791522Y-174609127D01*
X208785692Y-174612969D01*
X208780142Y-174617254D01*
X208774904Y-174621976D01*
X208770009Y-174627129D01*
X208765488Y-174632707D01*
X208761373Y-174638704D01*
X208757695Y-174645114D01*
X208754487Y-174651931D01*
X208751778Y-174659149D01*
X208749601Y-174666762D01*
X208747988Y-174674764D01*
X207717892Y-181073625D01*
X207715918Y-181083194D01*
X207713206Y-181092152D01*
X207709807Y-181100500D01*
X207705769Y-181108237D01*
X207701140Y-181115363D01*
X207695970Y-181121878D01*
X207690307Y-181127781D01*
X207684200Y-181133071D01*
X207677697Y-181137749D01*
X207670848Y-181141813D01*
X207663701Y-181145264D01*
X207656305Y-181148101D01*
X207648708Y-181150323D01*
X207640960Y-181151930D01*
X207633109Y-181152922D01*
X207625204Y-181153299D01*
X207617294Y-181153059D01*
X207609427Y-181152203D01*
X207601652Y-181150729D01*
X207594018Y-181148639D01*
X207586574Y-181145930D01*
X207579368Y-181142603D01*
X207572450Y-181138658D01*
X207565867Y-181134093D01*
X207559669Y-181128909D01*
X207553904Y-181123105D01*
X207548622Y-181116681D01*
X207543870Y-181109636D01*
X207539699Y-181101970D01*
X207536155Y-181093682D01*
X207533289Y-181084773D01*
X207531149Y-181075240D01*
X205799717Y-171394060D01*
X205798135Y-171386768D01*
X205796070Y-171379793D01*
X205793549Y-171373142D01*
X205790596Y-171366821D01*
X205787236Y-171360837D01*
X205783493Y-171355196D01*
X205779393Y-171349905D01*
X205774961Y-171344970D01*
X205770221Y-171340398D01*
X205765198Y-171336195D01*
X205759917Y-171332368D01*
X205754403Y-171328924D01*
X205748680Y-171325869D01*
X205742774Y-171323209D01*
X205736710Y-171320951D01*
X205730512Y-171319102D01*
X205724205Y-171317668D01*
X205717814Y-171316655D01*
X205711364Y-171316071D01*
X205704880Y-171315922D01*
X205698387Y-171316213D01*
X205691908Y-171316953D01*
X205685471Y-171318147D01*
X205679098Y-171319801D01*
X205672815Y-171321923D01*
X205666647Y-171324519D01*
X205660619Y-171327595D01*
X205654756Y-171331159D01*
X205649082Y-171335215D01*
X205643622Y-171339772D01*
X205638402Y-171344836D01*
X205633445Y-171350412D01*
X204515078Y-172705172D01*
X204509962Y-172710918D01*
X204504573Y-172716116D01*
X204498938Y-172720774D01*
X204493085Y-172724900D01*
X204487038Y-172728502D01*
X204480825Y-172731587D01*
X204474472Y-172734163D01*
X204468007Y-172736239D01*
X204461455Y-172737822D01*
X204454843Y-172738920D01*
X204448198Y-172739540D01*
X204441546Y-172739690D01*
X204434914Y-172739379D01*
X204428329Y-172738614D01*
X204421817Y-172737403D01*
X204415404Y-172735753D01*
X204409117Y-172733673D01*
X204402984Y-172731171D01*
X204397030Y-172728253D01*
X204391282Y-172724928D01*
X204385766Y-172721204D01*
X204380510Y-172717089D01*
X204375539Y-172712590D01*
X204370881Y-172707715D01*
X204366562Y-172702472D01*
X204362608Y-172696869D01*
X204359047Y-172690913D01*
X204355904Y-172684613D01*
X204353207Y-172677976D01*
X204350981Y-172671010D01*
X204349254Y-172663723D01*
X204348052Y-172656123D01*
X203582393Y-165824899D01*
X203572866Y-165735227D01*
X203566163Y-165650333D01*
X204360715Y-165650333D01*
X204362081Y-165804091D01*
X204371127Y-165955957D01*
X204387669Y-166105739D01*
X204411522Y-166253248D01*
X204442502Y-166398292D01*
X204480424Y-166540682D01*
X204525103Y-166680225D01*
X204576356Y-166816732D01*
X204633997Y-166950011D01*
X204697841Y-167079872D01*
X204767705Y-167206125D01*
X204843404Y-167328577D01*
X204924753Y-167447040D01*
X205011567Y-167561321D01*
X205103662Y-167671231D01*
X205200854Y-167776578D01*
X205302957Y-167877172D01*
X205409787Y-167972822D01*
X205521160Y-168063337D01*
X205636891Y-168148527D01*
X205756796Y-168228200D01*
X205880689Y-168302167D01*
X206008387Y-168370235D01*
X206139705Y-168432216D01*
X206274457Y-168487917D01*
X206412460Y-168537149D01*
X206553529Y-168579720D01*
X206697480Y-168615439D01*
X206844127Y-168644117D01*
X206993287Y-168665562D01*
X207144774Y-168679583D01*
X207298404Y-168685990D01*
X207452162Y-168684624D01*
X207604027Y-168675578D01*
X207753810Y-168659036D01*
X207901318Y-168635183D01*
X208046363Y-168604203D01*
X208188752Y-168566281D01*
X208328295Y-168521602D01*
X208464802Y-168470349D01*
X208598081Y-168412708D01*
X208727943Y-168348864D01*
X208854195Y-168279000D01*
X208976648Y-168203301D01*
X209095110Y-168121952D01*
X209209392Y-168035138D01*
X209319301Y-167943043D01*
X209424648Y-167845851D01*
X209525242Y-167743748D01*
X209620892Y-167636918D01*
X209711407Y-167525545D01*
X209796597Y-167409813D01*
X209876271Y-167289909D01*
X209950237Y-167166016D01*
X210018306Y-167038318D01*
X210080287Y-166907000D01*
X210135988Y-166772248D01*
X210185220Y-166634245D01*
X210227791Y-166493176D01*
X210263510Y-166349225D01*
X210292188Y-166202578D01*
X210313632Y-166053418D01*
X210327654Y-165901931D01*
X210334060Y-165748301D01*
X210332695Y-165594543D01*
X210323649Y-165442678D01*
X210307107Y-165292895D01*
X210283254Y-165145386D01*
X210252274Y-165000342D01*
X210214352Y-164857953D01*
X210169672Y-164718410D01*
X210118420Y-164581903D01*
X210060779Y-164448624D01*
X209996934Y-164318762D01*
X209927070Y-164192510D01*
X209851372Y-164070057D01*
X209770023Y-163951595D01*
X209683209Y-163837313D01*
X209591113Y-163727404D01*
X209493922Y-163622057D01*
X209391819Y-163521463D01*
X209284988Y-163425813D01*
X209173615Y-163335298D01*
X209057884Y-163250108D01*
X208937979Y-163170435D01*
X208814086Y-163096468D01*
X208686388Y-163028399D01*
X208555071Y-162966419D01*
X208420318Y-162910717D01*
X208282315Y-162861486D01*
X208141246Y-162818915D01*
X207997296Y-162783195D01*
X207850649Y-162754517D01*
X207701489Y-162733073D01*
X207550002Y-162719052D01*
X207396372Y-162712645D01*
X207242614Y-162714010D01*
X207090749Y-162723056D01*
X206940966Y-162739598D01*
X206793457Y-162763451D01*
X206648413Y-162794431D01*
X206506023Y-162832353D01*
X206366480Y-162877033D01*
X206229973Y-162928285D01*
X206096694Y-162985926D01*
X205966833Y-163049771D01*
X205840580Y-163119635D01*
X205718128Y-163195334D01*
X205599665Y-163276682D01*
X205485384Y-163363497D01*
X205375474Y-163455592D01*
X205270127Y-163552783D01*
X205169533Y-163654886D01*
X205073883Y-163761717D01*
X204983368Y-163873090D01*
X204898178Y-163988821D01*
X204818505Y-164108726D01*
X204744538Y-164232619D01*
X204676469Y-164360317D01*
X204614489Y-164491634D01*
X204558788Y-164626387D01*
X204509556Y-164764390D01*
X204466985Y-164905459D01*
X204431266Y-165049409D01*
X204402588Y-165196057D01*
X204381143Y-165345216D01*
X204367122Y-165496703D01*
X204360715Y-165650333D01*
X203566163Y-165650333D01*
X203565777Y-165645445D01*
X203561120Y-165555603D01*
X203558891Y-165465749D01*
X203559086Y-165375931D01*
X203561698Y-165286200D01*
X203566724Y-165196604D01*
X203574159Y-165107191D01*
X203583999Y-165018011D01*
X203596237Y-164929112D01*
X203610870Y-164840544D01*
X203627892Y-164752356D01*
X203647299Y-164664595D01*
X203669087Y-164577311D01*
X203693250Y-164490554D01*
X203719783Y-164404371D01*
X203771293Y-164256689D01*
X203829433Y-164112147D01*
X203894044Y-163970940D01*
X203964966Y-163833263D01*
X204042041Y-163699311D01*
X204125110Y-163569278D01*
X204214015Y-163443359D01*
X204308596Y-163321749D01*
X204408695Y-163204642D01*
X204514153Y-163092234D01*
X204624811Y-162984719D01*
X204740510Y-162882291D01*
X204861092Y-162785146D01*
X204986398Y-162693479D01*
X205116268Y-162607483D01*
X205250545Y-162527354D01*
X205481784Y-162396627D01*
X205708958Y-162278117D01*
X205941675Y-162175997D01*
X206179104Y-162090251D01*
X206420416Y-162020868D01*
X206664780Y-161967832D01*
X206911367Y-161931131D01*
X207159347Y-161910751D01*
X207407889Y-161906678D01*
X207656164Y-161918899D01*
G37*
D11*
%TO.C,SW40*%
X219100000Y-178250000D03*
X231100000Y-180450000D03*
%TD*%
%TO.C,SW28*%
X250100000Y-140075000D03*
X238100000Y-137875000D03*
%TD*%
D12*
%TO.C,SM_R1*%
X213931000Y-117335000D03*
X213931000Y-119875000D03*
D13*
X213931000Y-122415000D03*
X213931000Y-124955000D03*
D12*
X213931000Y-127495000D03*
X213931000Y-130035000D03*
X213931000Y-132575000D03*
X213931000Y-135115000D03*
X213931000Y-137655000D03*
X213931000Y-140195000D03*
X213931000Y-142735000D03*
X213931000Y-145275000D03*
X229171000Y-145275000D03*
X229171000Y-142735000D03*
X229171000Y-140195000D03*
X229171000Y-137655000D03*
X229171000Y-135115000D03*
X229171000Y-132575000D03*
X229171000Y-130035000D03*
X229171000Y-127495000D03*
X229171000Y-124955000D03*
X229171000Y-122415000D03*
D13*
X229171000Y-119875000D03*
D12*
X229171000Y-117335000D03*
%TD*%
D11*
%TO.C,SW6*%
X181500000Y-121075000D03*
X169500000Y-118875000D03*
%TD*%
D12*
%TO.C,SM_L1*%
X185380000Y-117335000D03*
X185380000Y-119875000D03*
D13*
X185380000Y-122415000D03*
X185380000Y-124955000D03*
D12*
X185380000Y-127495000D03*
X185380000Y-130035000D03*
X185380000Y-132575000D03*
X185380000Y-135115000D03*
X185380000Y-137655000D03*
X185380000Y-140195000D03*
X185380000Y-142735000D03*
X185380000Y-145275000D03*
X200620000Y-145275000D03*
X200620000Y-142735000D03*
X200620000Y-140195000D03*
X200620000Y-137655000D03*
X200620000Y-135115000D03*
X200620000Y-132575000D03*
X200620000Y-130035000D03*
X200620000Y-127495000D03*
X200620000Y-124955000D03*
X200620000Y-122415000D03*
D13*
X200620000Y-119875000D03*
D12*
X200620000Y-117335000D03*
%TD*%
D11*
%TO.C,SW12*%
X169500000Y-137875000D03*
X181500000Y-140075000D03*
%TD*%
%TO.C,SW21*%
X188500000Y-178250000D03*
X200500000Y-180450000D03*
%TD*%
%TO.C,SW7*%
X74500000Y-145000000D03*
X86500000Y-147200000D03*
%TD*%
%TO.C,SW22*%
X238100000Y-118875000D03*
X250100000Y-121075000D03*
%TD*%
%TO.C,SW1*%
X86500000Y-128200000D03*
X74500000Y-126000000D03*
%TD*%
%TO.C,SW2*%
X105500000Y-125825000D03*
X93500000Y-123625000D03*
%TD*%
%TO.C,SW3*%
X112500000Y-116500000D03*
X124500000Y-118700000D03*
%TD*%
%TO.C,SW4*%
X143500000Y-113950000D03*
X131500000Y-111750000D03*
%TD*%
%TO.C,SW5*%
X162500000Y-118700000D03*
X150500000Y-116500000D03*
%TD*%
D14*
%TO.C,PW_L1*%
X194540000Y-173750000D03*
D15*
X189460000Y-173750000D03*
%TD*%
D16*
%TO.C,D3*%
X114750000Y-127500000D03*
D17*
X117250000Y-127500000D03*
%TD*%
D16*
%TO.C,D41*%
X240350000Y-186875000D03*
D17*
X242850000Y-186875000D03*
%TD*%
D16*
%TO.C,D24*%
X278350000Y-122750000D03*
D17*
X280850000Y-122750000D03*
%TD*%
D18*
%TO.C,H4*%
X87548000Y-170000000D03*
%TD*%
D16*
%TO.C,D19*%
X152750000Y-184500000D03*
D17*
X155250000Y-184500000D03*
%TD*%
D16*
%TO.C,D15*%
X114750000Y-165500000D03*
D17*
X117250000Y-165500000D03*
%TD*%
D16*
%TO.C,D39*%
X335350000Y-175000000D03*
D17*
X337850000Y-175000000D03*
%TD*%
D11*
%TO.C,SW8*%
X105500000Y-144825000D03*
X93500000Y-142625000D03*
%TD*%
D16*
%TO.C,D11*%
X152750000Y-146500000D03*
D17*
X155250000Y-146500000D03*
%TD*%
D11*
%TO.C,SW15*%
X124500000Y-156700000D03*
X112500000Y-154500000D03*
%TD*%
D16*
%TO.C,D33*%
X335350000Y-156000000D03*
D17*
X337850000Y-156000000D03*
%TD*%
D18*
%TO.C,H3*%
X289050000Y-122300000D03*
%TD*%
D16*
%TO.C,D17*%
X152750000Y-165500000D03*
D17*
X155250000Y-165500000D03*
%TD*%
D11*
%TO.C,SW37*%
X307100000Y-156700000D03*
X295100000Y-154500000D03*
%TD*%
D16*
%TO.C,D14*%
X95750000Y-172625000D03*
D17*
X98250000Y-172625000D03*
%TD*%
D11*
%TO.C,SW42*%
X269100000Y-175700000D03*
X257100000Y-173500000D03*
%TD*%
D16*
%TO.C,D12*%
X171750000Y-148875000D03*
D17*
X174250000Y-148875000D03*
%TD*%
D11*
%TO.C,SW39*%
X345100000Y-166200000D03*
X333100000Y-164000000D03*
%TD*%
%TO.C,SW31*%
X307100000Y-137700000D03*
X295100000Y-135500000D03*
%TD*%
%TO.C,SW26*%
X326100000Y-125825000D03*
X314100000Y-123625000D03*
%TD*%
D16*
%TO.C,D30*%
X278350000Y-141750000D03*
D17*
X280850000Y-141750000D03*
%TD*%
D16*
%TO.C,D20*%
X171750000Y-186875000D03*
D17*
X174250000Y-186875000D03*
%TD*%
D18*
%TO.C,H12*%
X251050000Y-164500000D03*
%TD*%
D11*
%TO.C,SW27*%
X345100000Y-128200000D03*
X333100000Y-126000000D03*
%TD*%
D16*
%TO.C,D1*%
X76750000Y-137000000D03*
D17*
X79250000Y-137000000D03*
%TD*%
D16*
%TO.C,D9*%
X114750000Y-146500000D03*
D17*
X117250000Y-146500000D03*
%TD*%
D16*
%TO.C,D22*%
X240350000Y-129875000D03*
D17*
X242850000Y-129875000D03*
%TD*%
D11*
%TO.C,SW23*%
X269100000Y-118700000D03*
X257100000Y-116500000D03*
%TD*%
D16*
%TO.C,D42*%
X259350000Y-184500000D03*
D17*
X261850000Y-184500000D03*
%TD*%
D16*
%TO.C,D5*%
X152750000Y-127500000D03*
D17*
X155250000Y-127500000D03*
%TD*%
D11*
%TO.C,SW38*%
X326100000Y-163825000D03*
X314100000Y-161625000D03*
%TD*%
D16*
%TO.C,D40*%
X221350000Y-189000000D03*
D17*
X223850000Y-189000000D03*
%TD*%
D16*
%TO.C,D13*%
X76750000Y-175000000D03*
D17*
X79250000Y-175000000D03*
%TD*%
D16*
%TO.C,D16*%
X133750000Y-160750000D03*
D17*
X136250000Y-160750000D03*
%TD*%
D16*
%TO.C,D27*%
X335350000Y-137000000D03*
D17*
X337850000Y-137000000D03*
%TD*%
D19*
%TO.C,R_L1*%
X142100000Y-168600000D03*
X137300000Y-168600000D03*
%TD*%
D11*
%TO.C,SW24*%
X288100000Y-113950000D03*
X276100000Y-111750000D03*
%TD*%
D16*
%TO.C,D2*%
X95750000Y-134625000D03*
D17*
X98250000Y-134625000D03*
%TD*%
D16*
%TO.C,D6*%
X171750000Y-129875000D03*
D17*
X174250000Y-129875000D03*
%TD*%
D11*
%TO.C,SW13*%
X86500000Y-166200000D03*
X74500000Y-164000000D03*
%TD*%
%TO.C,SW29*%
X269100000Y-137700000D03*
X257100000Y-135500000D03*
%TD*%
D18*
%TO.C,H11*%
X327050000Y-170000000D03*
%TD*%
D16*
%TO.C,D21*%
X190750000Y-189250000D03*
D17*
X193250000Y-189250000D03*
%TD*%
D16*
%TO.C,D7*%
X76750000Y-156000000D03*
D17*
X79250000Y-156000000D03*
%TD*%
D11*
%TO.C,SW41*%
X250100000Y-178075000D03*
X238100000Y-175875000D03*
%TD*%
D16*
%TO.C,D25*%
X297350000Y-127500000D03*
D17*
X299850000Y-127500000D03*
%TD*%
D16*
%TO.C,D23*%
X259350000Y-127500000D03*
D17*
X261850000Y-127500000D03*
%TD*%
D18*
%TO.C,H8*%
X327050000Y-131500000D03*
%TD*%
D16*
%TO.C,D36*%
X278350000Y-160750000D03*
D17*
X280850000Y-160750000D03*
%TD*%
D16*
%TO.C,D4*%
X133750000Y-122750000D03*
D17*
X136250000Y-122750000D03*
%TD*%
D18*
%TO.C,H2*%
X125550000Y-161200000D03*
%TD*%
D11*
%TO.C,SW14*%
X105500000Y-163825000D03*
X93500000Y-161625000D03*
%TD*%
%TO.C,SW18*%
X181500000Y-159075000D03*
X169500000Y-156875000D03*
%TD*%
%TO.C,SW32*%
X326100000Y-144825000D03*
X314100000Y-142625000D03*
%TD*%
D18*
%TO.C,H7*%
X163550000Y-124800000D03*
%TD*%
D11*
%TO.C,SW25*%
X307100000Y-118700000D03*
X295100000Y-116500000D03*
%TD*%
D20*
%TO.C,PS_R1*%
X288900000Y-170443000D03*
X288900000Y-168207000D03*
X281700000Y-170443000D03*
X281700000Y-168207000D03*
D21*
X287550000Y-167500000D03*
X284550000Y-167500000D03*
X283050000Y-167500000D03*
%TD*%
D11*
%TO.C,SW10*%
X143500000Y-132950000D03*
X131500000Y-130750000D03*
%TD*%
D15*
%TO.C,PW_R1*%
X225140000Y-173750000D03*
D22*
X220060000Y-173750000D03*
%TD*%
D20*
%TO.C,PS_L1*%
X132900000Y-170443000D03*
X132900000Y-168207000D03*
X125700000Y-170443000D03*
X125700000Y-168207000D03*
D21*
X131550000Y-167500000D03*
X128550000Y-167500000D03*
X127050000Y-167500000D03*
%TD*%
D11*
%TO.C,SW36*%
X288100000Y-151950000D03*
X276100000Y-149750000D03*
%TD*%
D18*
%TO.C,H5*%
X163550000Y-164500000D03*
%TD*%
D16*
%TO.C,D32*%
X316350000Y-153625000D03*
D17*
X318850000Y-153625000D03*
%TD*%
D16*
%TO.C,D38*%
X316350000Y-172625000D03*
D17*
X318850000Y-172625000D03*
%TD*%
D23*
%TO.C,KeyChainHole1*%
X207299999Y-165700000D03*
%TD*%
D11*
%TO.C,SW30*%
X288100000Y-132950000D03*
X276100000Y-130750000D03*
%TD*%
D16*
%TO.C,D37*%
X297350000Y-165500000D03*
D17*
X299850000Y-165500000D03*
%TD*%
D18*
%TO.C,H10*%
X125550000Y-122300000D03*
%TD*%
D11*
%TO.C,SW20*%
X181500000Y-178075000D03*
X169500000Y-175875000D03*
%TD*%
D18*
%TO.C,H9*%
X251050000Y-124800000D03*
%TD*%
D11*
%TO.C,SW17*%
X162500000Y-156700000D03*
X150500000Y-154500000D03*
%TD*%
%TO.C,SW19*%
X162500000Y-175700000D03*
X150500000Y-173500000D03*
%TD*%
%TO.C,SW35*%
X269100000Y-156700000D03*
X257100000Y-154500000D03*
%TD*%
D16*
%TO.C,D34*%
X240350000Y-167875000D03*
D17*
X242850000Y-167875000D03*
%TD*%
D11*
%TO.C,SW33*%
X345100000Y-147200000D03*
X333100000Y-145000000D03*
%TD*%
%TO.C,SW11*%
X162420000Y-137700000D03*
X150420000Y-135500000D03*
%TD*%
D16*
%TO.C,D29*%
X259350000Y-146500000D03*
D17*
X261850000Y-146500000D03*
%TD*%
D16*
%TO.C,D31*%
X297350000Y-146500000D03*
D17*
X299850000Y-146500000D03*
%TD*%
D16*
%TO.C,D8*%
X95750000Y-153625000D03*
D17*
X98250000Y-153625000D03*
%TD*%
D18*
%TO.C,H1*%
X87550000Y-131500000D03*
%TD*%
D16*
%TO.C,D28*%
X240350000Y-148875000D03*
D17*
X242850000Y-148875000D03*
%TD*%
D11*
%TO.C,SW9*%
X124500000Y-137700000D03*
X112500000Y-135500000D03*
%TD*%
%TO.C,SW16*%
X143500000Y-151950000D03*
X131500000Y-149750000D03*
%TD*%
D18*
%TO.C,H6*%
X289050000Y-161200000D03*
%TD*%
D16*
%TO.C,D10*%
X133750000Y-141750000D03*
D17*
X136250000Y-141750000D03*
%TD*%
D16*
%TO.C,D26*%
X316350000Y-134625000D03*
D17*
X318850000Y-134625000D03*
%TD*%
D11*
%TO.C,SW34*%
X250100000Y-159075000D03*
X238100000Y-156875000D03*
%TD*%
D16*
%TO.C,D35*%
X259350000Y-165500000D03*
D17*
X261850000Y-165500000D03*
%TD*%
D24*
%TO.C,R_R1*%
X272500000Y-168600000D03*
X277300000Y-168600000D03*
%TD*%
D16*
%TO.C,D18*%
X171750000Y-167875000D03*
D17*
X174250000Y-167875000D03*
%TD*%
M02*
