%TF.GenerationSoftware,KiCad,Pcbnew,9.0.4*%
%TF.CreationDate,2025-09-13T00:46:48+03:00*%
%TF.ProjectId,KOMETA,4b4f4d45-5441-42e6-9b69-6361645f7063,rev?*%
%TF.SameCoordinates,Original*%
%TF.FileFunction,Soldermask,Top*%
%TF.FilePolarity,Negative*%
%FSLAX46Y46*%
G04 Gerber Fmt 4.6, Leading zero omitted, Abs format (unit mm)*
G04 Created by KiCad (PCBNEW 9.0.4) date 2025-09-13 00:46:48*
%MOMM*%
%LPD*%
G01*
G04 APERTURE LIST*
G04 Aperture macros list*
%AMRoundRect*
0 Rectangle with rounded corners*
0 $1 Rounding radius*
0 $2 $3 $4 $5 $6 $7 $8 $9 X,Y pos of 4 corners*
0 Add a 4 corners polygon primitive as box body*
4,1,4,$2,$3,$4,$5,$6,$7,$8,$9,$2,$3,0*
0 Add four circle primitives for the rounded corners*
1,1,$1+$1,$2,$3*
1,1,$1+$1,$4,$5*
1,1,$1+$1,$6,$7*
1,1,$1+$1,$8,$9*
0 Add four rect primitives between the rounded corners*
20,1,$1+$1,$2,$3,$4,$5,0*
20,1,$1+$1,$4,$5,$6,$7,0*
20,1,$1+$1,$6,$7,$8,$9,0*
20,1,$1+$1,$8,$9,$2,$3,0*%
G04 Aperture macros list end*
%ADD10O,1.900000X1.900000*%
%ADD11RoundRect,0.250000X-0.700000X-0.700000X0.700000X-0.700000X0.700000X0.700000X-0.700000X0.700000X0*%
%ADD12C,2.500000*%
%ADD13C,1.701800*%
%ADD14O,1.500000X2.000000*%
%ADD15C,3.010000*%
%ADD16C,5.050000*%
%ADD17C,0.500000*%
%ADD18C,0.700000*%
%ADD19C,1.800000*%
%ADD20RoundRect,0.200000X-0.700000X0.700000X-0.700000X-0.700000X0.700000X-0.700000X0.700000X0.700000X0*%
%ADD21C,5.000000*%
%ADD22RoundRect,0.200000X0.700000X-0.700000X0.700000X0.700000X-0.700000X0.700000X-0.700000X-0.700000X0*%
G04 APERTURE END LIST*
D10*
%TO.C,SM_R1*%
X229158540Y-117334195D03*
D11*
X229158540Y-119874195D03*
D10*
X229158540Y-122414195D03*
X229158540Y-124954195D03*
X229158540Y-127494195D03*
X229158540Y-130034195D03*
X229158540Y-132574195D03*
X229158540Y-135114195D03*
X229158540Y-137654195D03*
X229158540Y-140194195D03*
X229158540Y-142734195D03*
X229158540Y-145274195D03*
X213918540Y-145274195D03*
X213918540Y-142734195D03*
X213918540Y-140194195D03*
X213918540Y-137654195D03*
X213918540Y-135114195D03*
X213918540Y-132574195D03*
X213918540Y-130034195D03*
X213918540Y-127494195D03*
D11*
X213918540Y-124954195D03*
X213918540Y-122414195D03*
D10*
X213918540Y-119874195D03*
X213918540Y-117334195D03*
%TD*%
D12*
%TO.C,H4*%
X87548000Y-170000000D03*
%TD*%
D13*
%TO.C,SW8*%
X91500000Y-148625000D03*
D14*
X92000000Y-153775000D03*
D15*
X97000000Y-142725000D03*
D16*
X97000000Y-148625000D03*
D15*
X102000000Y-144825000D03*
D13*
X102500000Y-148625000D03*
%TD*%
%TO.C,SW15*%
X110500000Y-160500000D03*
D14*
X111000000Y-165650000D03*
D15*
X116000000Y-154600000D03*
D16*
X116000000Y-160500000D03*
D15*
X121000000Y-156700000D03*
D13*
X121500000Y-160500000D03*
%TD*%
%TO.C,SW4*%
X129500000Y-117750000D03*
D14*
X130000000Y-122900000D03*
D15*
X135000000Y-111850000D03*
D16*
X135000000Y-117750000D03*
D15*
X140000000Y-113950000D03*
D13*
X140500000Y-117750000D03*
%TD*%
D12*
%TO.C,H3*%
X289050000Y-122300000D03*
%TD*%
D13*
%TO.C,SW37*%
X293100000Y-160500000D03*
D14*
X293600000Y-165650000D03*
D15*
X298600000Y-154600000D03*
D16*
X298600000Y-160500000D03*
D15*
X303600000Y-156700000D03*
D13*
X304100000Y-160500000D03*
%TD*%
%TO.C,SW42*%
X255100000Y-179500000D03*
D14*
X255600000Y-184650000D03*
D15*
X260600000Y-173600000D03*
D16*
X260600000Y-179500000D03*
D15*
X265600000Y-175700000D03*
D13*
X266100000Y-179500000D03*
%TD*%
%TO.C,SW39*%
X331100000Y-170000000D03*
D14*
X331600000Y-175150000D03*
D15*
X336600000Y-164100000D03*
D16*
X336600000Y-170000000D03*
D15*
X341600000Y-166200000D03*
D13*
X342100000Y-170000000D03*
%TD*%
%TO.C,SW31*%
X293100000Y-141500000D03*
D14*
X293600000Y-146650000D03*
D15*
X298600000Y-135600000D03*
D16*
X298600000Y-141500000D03*
D15*
X303600000Y-137700000D03*
D13*
X304100000Y-141500000D03*
%TD*%
%TO.C,SW26*%
X312100000Y-129625000D03*
D14*
X312600000Y-134775000D03*
D15*
X317600000Y-123725000D03*
D16*
X317600000Y-129625000D03*
D15*
X322600000Y-125825000D03*
D13*
X323100000Y-129625000D03*
%TD*%
D17*
%TO.C,BH*%
X202300000Y-172500000D03*
X202300000Y-173300000D03*
X202300000Y-174100000D03*
X202300000Y-174900000D03*
X202300000Y-175700000D03*
X202300000Y-176500000D03*
X202300000Y-177300000D03*
%TD*%
D12*
%TO.C,H12*%
X251050000Y-164500000D03*
%TD*%
D13*
%TO.C,SW27*%
X331100000Y-132000000D03*
D14*
X331600000Y-137150000D03*
D15*
X336600000Y-126100000D03*
D16*
X336600000Y-132000000D03*
D15*
X341600000Y-128200000D03*
D13*
X342100000Y-132000000D03*
%TD*%
%TO.C,SW2*%
X91500000Y-129625000D03*
D14*
X92000000Y-134775000D03*
D15*
X97000000Y-123725000D03*
D16*
X97000000Y-129625000D03*
D15*
X102000000Y-125825000D03*
D13*
X102500000Y-129625000D03*
%TD*%
%TO.C,SW23*%
X255100000Y-122500000D03*
D14*
X255600000Y-127650000D03*
D15*
X260600000Y-116600000D03*
D16*
X260600000Y-122500000D03*
D15*
X265600000Y-118700000D03*
D13*
X266100000Y-122500000D03*
%TD*%
%TO.C,SW38*%
X312100000Y-167625000D03*
D14*
X312600000Y-172775000D03*
D15*
X317600000Y-161725000D03*
D16*
X317600000Y-167625000D03*
D15*
X322600000Y-163825000D03*
D13*
X323100000Y-167625000D03*
%TD*%
%TO.C,SW40*%
X217100000Y-184250000D03*
D14*
X217600000Y-189400000D03*
D15*
X222600000Y-178350000D03*
D16*
X222600000Y-184250000D03*
D15*
X227600000Y-180450000D03*
D13*
X228100000Y-184250000D03*
%TD*%
%TO.C,SW28*%
X236100000Y-143875000D03*
D14*
X236600000Y-149025000D03*
D15*
X241600000Y-137975000D03*
D16*
X241600000Y-143875000D03*
D15*
X246600000Y-140075000D03*
D13*
X247100000Y-143875000D03*
%TD*%
D17*
%TO.C,BH*%
X212300000Y-148824000D03*
X212300000Y-149624000D03*
X212300000Y-150424000D03*
X212300000Y-151224000D03*
X212300000Y-152024000D03*
X212300000Y-152824000D03*
X212300000Y-153624000D03*
%TD*%
%TO.C,BH*%
X202300000Y-165000000D03*
X202300000Y-165800000D03*
X202300000Y-166600000D03*
X202300000Y-167400000D03*
X202300000Y-168200000D03*
X202300000Y-169000000D03*
X202300000Y-169800000D03*
%TD*%
D13*
%TO.C,SW22*%
X236100000Y-124875000D03*
D14*
X236600000Y-130025000D03*
D15*
X241600000Y-118975000D03*
D16*
X241600000Y-124875000D03*
D15*
X246600000Y-121075000D03*
D13*
X247100000Y-124875000D03*
%TD*%
%TO.C,SW24*%
X274100000Y-117750000D03*
D14*
X274600000Y-122900000D03*
D15*
X279600000Y-111850000D03*
D16*
X279600000Y-117750000D03*
D15*
X284600000Y-113950000D03*
D13*
X285100000Y-117750000D03*
%TD*%
D17*
%TO.C,BH*%
X202300000Y-148824000D03*
X202300000Y-149624000D03*
X202300000Y-150424000D03*
X202300000Y-151224000D03*
X202300000Y-152024000D03*
X202300000Y-152824000D03*
X202300000Y-153624000D03*
%TD*%
D13*
%TO.C,SW12*%
X167500000Y-143875000D03*
D14*
X168000000Y-149025000D03*
D15*
X173000000Y-137975000D03*
D16*
X173000000Y-143875000D03*
D15*
X178000000Y-140075000D03*
D13*
X178500000Y-143875000D03*
%TD*%
%TO.C,SW13*%
X72500000Y-170000000D03*
D14*
X73000000Y-175150000D03*
D15*
X78000000Y-164100000D03*
D16*
X78000000Y-170000000D03*
D15*
X83000000Y-166200000D03*
D13*
X83500000Y-170000000D03*
%TD*%
%TO.C,SW29*%
X255100000Y-141500000D03*
D14*
X255600000Y-146650000D03*
D15*
X260600000Y-135600000D03*
D16*
X260600000Y-141500000D03*
D15*
X265600000Y-137700000D03*
D13*
X266100000Y-141500000D03*
%TD*%
D12*
%TO.C,H11*%
X327050000Y-170000000D03*
%TD*%
D13*
%TO.C,SW6*%
X167500000Y-124875000D03*
D14*
X168000000Y-130025000D03*
D15*
X173000000Y-118975000D03*
D16*
X173000000Y-124875000D03*
D15*
X178000000Y-121075000D03*
D13*
X178500000Y-124875000D03*
%TD*%
%TO.C,SW41*%
X236100000Y-181875000D03*
D14*
X236600000Y-187025000D03*
D15*
X241600000Y-175975000D03*
D16*
X241600000Y-181875000D03*
D15*
X246600000Y-178075000D03*
D13*
X247100000Y-181875000D03*
%TD*%
%TO.C,SW1*%
X72500000Y-132000000D03*
D14*
X73000000Y-137150000D03*
D15*
X78000000Y-126100000D03*
D16*
X78000000Y-132000000D03*
D15*
X83000000Y-128200000D03*
D13*
X83500000Y-132000000D03*
%TD*%
D12*
%TO.C,H8*%
X327050000Y-131500000D03*
%TD*%
%TO.C,H2*%
X125550000Y-161200000D03*
%TD*%
D13*
%TO.C,SW14*%
X91500000Y-167625000D03*
D14*
X92000000Y-172775000D03*
D15*
X97000000Y-161725000D03*
D16*
X97000000Y-167625000D03*
D15*
X102000000Y-163825000D03*
D13*
X102500000Y-167625000D03*
%TD*%
%TO.C,SW18*%
X167500000Y-162875000D03*
D14*
X168000000Y-168025000D03*
D15*
X173000000Y-156975000D03*
D16*
X173000000Y-162875000D03*
D15*
X178000000Y-159075000D03*
D13*
X178500000Y-162875000D03*
%TD*%
%TO.C,SW32*%
X312100000Y-148625000D03*
D14*
X312600000Y-153775000D03*
D15*
X317600000Y-142725000D03*
D16*
X317600000Y-148625000D03*
D15*
X322600000Y-144825000D03*
D13*
X323100000Y-148625000D03*
%TD*%
D17*
%TO.C,BH*%
X212300000Y-165000000D03*
X212300000Y-165800000D03*
X212300000Y-166600000D03*
X212300000Y-167400000D03*
X212300000Y-168200000D03*
X212300000Y-169000000D03*
X212300000Y-169800000D03*
%TD*%
D12*
%TO.C,H7*%
X163550000Y-124800000D03*
%TD*%
D13*
%TO.C,SW25*%
X293100000Y-122500000D03*
D14*
X293600000Y-127650000D03*
D15*
X298600000Y-116600000D03*
D16*
X298600000Y-122500000D03*
D15*
X303600000Y-118700000D03*
D13*
X304100000Y-122500000D03*
%TD*%
D18*
%TO.C,PS_R1*%
X286800000Y-169350000D03*
X283800000Y-169350000D03*
%TD*%
D13*
%TO.C,SW10*%
X129500000Y-136750000D03*
D14*
X130000000Y-141900000D03*
D15*
X135000000Y-130850000D03*
D16*
X135000000Y-136750000D03*
D15*
X140000000Y-132950000D03*
D13*
X140500000Y-136750000D03*
%TD*%
D17*
%TO.C,BH*%
X202300000Y-186950000D03*
X202300000Y-187750000D03*
X202300000Y-188550000D03*
X202300000Y-189350000D03*
X202300000Y-190150000D03*
X202300000Y-190950000D03*
X202300000Y-191750000D03*
%TD*%
D19*
%TO.C,PW_R1*%
X225140000Y-173750000D03*
D20*
X220060000Y-173750000D03*
%TD*%
D18*
%TO.C,PS_L1*%
X130800000Y-169350000D03*
X127800000Y-169350000D03*
%TD*%
D13*
%TO.C,SW36*%
X274100000Y-155750000D03*
D14*
X274600000Y-160900000D03*
D15*
X279600000Y-149850000D03*
D16*
X279600000Y-155750000D03*
D15*
X284600000Y-151950000D03*
D13*
X285100000Y-155750000D03*
%TD*%
%TO.C,SW7*%
X72500000Y-151000000D03*
D14*
X73000000Y-156150000D03*
D15*
X78000000Y-145100000D03*
D16*
X78000000Y-151000000D03*
D15*
X83000000Y-147200000D03*
D13*
X83500000Y-151000000D03*
%TD*%
D12*
%TO.C,H5*%
X163550000Y-164500000D03*
%TD*%
D17*
%TO.C,BH*%
X212300000Y-186950000D03*
X212300000Y-187750000D03*
X212300000Y-188550000D03*
X212300000Y-189350000D03*
X212300000Y-190150000D03*
X212300000Y-190950000D03*
X212300000Y-191750000D03*
%TD*%
D13*
%TO.C,SW5*%
X148500000Y-122500000D03*
D14*
X149000000Y-127650000D03*
D15*
X154000000Y-116600000D03*
D16*
X154000000Y-122500000D03*
D15*
X159000000Y-118700000D03*
D13*
X159500000Y-122500000D03*
%TD*%
D21*
%TO.C,KeyChainHole1*%
X207299999Y-165700000D03*
%TD*%
D13*
%TO.C,SW30*%
X274100000Y-136750000D03*
D14*
X274600000Y-141900000D03*
D15*
X279600000Y-130850000D03*
D16*
X279600000Y-136750000D03*
D15*
X284600000Y-132950000D03*
D13*
X285100000Y-136750000D03*
%TD*%
D12*
%TO.C,H10*%
X125550000Y-122300000D03*
%TD*%
D13*
%TO.C,SW20*%
X167500000Y-181875000D03*
D14*
X168000000Y-187025000D03*
D15*
X173000000Y-175975000D03*
D16*
X173000000Y-181875000D03*
D15*
X178000000Y-178075000D03*
D13*
X178500000Y-181875000D03*
%TD*%
D12*
%TO.C,H9*%
X251050000Y-124800000D03*
%TD*%
D13*
%TO.C,SW17*%
X148500000Y-160500000D03*
D14*
X149000000Y-165650000D03*
D15*
X154000000Y-154600000D03*
D16*
X154000000Y-160500000D03*
D15*
X159000000Y-156700000D03*
D13*
X159500000Y-160500000D03*
%TD*%
%TO.C,SW19*%
X148500000Y-179500000D03*
D14*
X149000000Y-184650000D03*
D15*
X154000000Y-173600000D03*
D16*
X154000000Y-179500000D03*
D15*
X159000000Y-175700000D03*
D13*
X159500000Y-179500000D03*
%TD*%
%TO.C,SW35*%
X255100000Y-160500000D03*
D14*
X255600000Y-165650000D03*
D15*
X260600000Y-154600000D03*
D16*
X260600000Y-160500000D03*
D15*
X265600000Y-156700000D03*
D13*
X266100000Y-160500000D03*
%TD*%
%TO.C,SW33*%
X331100000Y-151000000D03*
D14*
X331600000Y-156150000D03*
D15*
X336600000Y-145100000D03*
D16*
X336600000Y-151000000D03*
D15*
X341600000Y-147200000D03*
D13*
X342100000Y-151000000D03*
%TD*%
D17*
%TO.C,BH*%
X212300000Y-172500000D03*
X212300000Y-173300000D03*
X212300000Y-174100000D03*
X212300000Y-174900000D03*
X212300000Y-175700000D03*
X212300000Y-176500000D03*
X212300000Y-177300000D03*
%TD*%
D13*
%TO.C,SW11*%
X148420000Y-141500000D03*
D14*
X148920000Y-146650000D03*
D15*
X153920000Y-135600000D03*
D16*
X153920000Y-141500000D03*
D15*
X158920000Y-137700000D03*
D13*
X159420000Y-141500000D03*
%TD*%
%TO.C,SW3*%
X110500000Y-122500000D03*
D14*
X111000000Y-127650000D03*
D15*
X116000000Y-116600000D03*
D16*
X116000000Y-122500000D03*
D15*
X121000000Y-118700000D03*
D13*
X121500000Y-122500000D03*
%TD*%
D12*
%TO.C,H1*%
X87550000Y-131500000D03*
%TD*%
D13*
%TO.C,SW9*%
X110500000Y-141500000D03*
D14*
X111000000Y-146650000D03*
D15*
X116000000Y-135600000D03*
D16*
X116000000Y-141500000D03*
D15*
X121000000Y-137700000D03*
D13*
X121500000Y-141500000D03*
%TD*%
%TO.C,SW16*%
X129500000Y-155750000D03*
D14*
X130000000Y-160900000D03*
D15*
X135000000Y-149850000D03*
D16*
X135000000Y-155750000D03*
D15*
X140000000Y-151950000D03*
D13*
X140500000Y-155750000D03*
%TD*%
D12*
%TO.C,H6*%
X289050000Y-161200000D03*
%TD*%
D13*
%TO.C,SW34*%
X236100000Y-162875000D03*
D14*
X236600000Y-168025000D03*
D15*
X241600000Y-156975000D03*
D16*
X241600000Y-162875000D03*
D15*
X246600000Y-159075000D03*
D13*
X247100000Y-162875000D03*
%TD*%
D22*
%TO.C,PW_L1*%
X194540000Y-173750000D03*
D19*
X189460000Y-173750000D03*
%TD*%
D13*
%TO.C,SW21*%
X186500000Y-184250000D03*
D14*
X187000000Y-189400000D03*
D15*
X192000000Y-178350000D03*
D16*
X192000000Y-184250000D03*
D15*
X197000000Y-180450000D03*
D13*
X197500000Y-184250000D03*
%TD*%
D17*
%TO.C,*%
X212300000Y-171600000D03*
%TD*%
%TO.C,*%
X212300000Y-170700000D03*
%TD*%
%TO.C,*%
X202300000Y-170700000D03*
%TD*%
%TO.C,*%
X202300000Y-171600000D03*
%TD*%
D10*
%TO.C,SM_L1*%
X200607540Y-117334195D03*
D11*
X200607540Y-119874195D03*
D10*
X200607540Y-122414195D03*
X200607540Y-124954195D03*
X200607540Y-127494195D03*
X200607540Y-130034195D03*
X200607540Y-132574195D03*
X200607540Y-135114195D03*
X200607540Y-137654195D03*
X200607540Y-140194195D03*
X200607540Y-142734195D03*
X200607540Y-145274195D03*
X185367540Y-145274195D03*
X185367540Y-142734195D03*
X185367540Y-140194195D03*
X185367540Y-137654195D03*
X185367540Y-135114195D03*
X185367540Y-132574195D03*
X185367540Y-130034195D03*
X185367540Y-127494195D03*
D11*
X185367540Y-124954195D03*
X185367540Y-122414195D03*
D10*
X185367540Y-119874195D03*
X185367540Y-117334195D03*
%TD*%
M02*
