M48
; DRILL file {KiCad 9.0.4} date 2025-09-16T20:03:36+0300
; FORMAT={-:-/ absolute / metric / decimal}
; #@! TF.CreationDate,2025-09-16T20:03:36+03:00
; #@! TF.GenerationSoftware,Kicad,Pcbnew,9.0.4
; #@! TF.FileFunction,Plated,1,2,PTH
FMAT,2
METRIC
; #@! TA.AperFunction,Plated,PTH,ViaDrill
T1C0.300
; #@! TA.AperFunction,Plated,PTH,ComponentDrill
T2C0.800
; #@! TA.AperFunction,Plated,PTH,ComponentDrill
T3C1.500
; #@! TA.AperFunction,Plated,PTH,ComponentDrill
T4C2.000
; #@! TA.AperFunction,Plated,PTH,ComponentDrill
T5C4.500
%
G90
G05
T1
X74.5Y-141.0
X76.75Y-138.5
X76.75Y-157.5
X76.75Y-176.5
X93.5Y-138.65
X95.75Y-136.125
X95.75Y-155.125
X95.75Y-174.125
X112.5Y-131.5
X114.75Y-129.0
X114.75Y-148.0
X114.75Y-167.0
X131.3Y-164.75
X131.5Y-145.75
X133.75Y-124.25
X133.75Y-143.25
X133.75Y-162.25
X150.5Y-150.5
X152.75Y-129.0
X152.75Y-148.0
X152.75Y-167.0
X152.75Y-186.0
X169.5Y-128.3
X171.75Y-131.375
X171.75Y-150.375
X171.75Y-169.375
X171.75Y-188.375
X190.75Y-190.751
X221.35Y-190.751
X240.35Y-131.375
X240.35Y-150.375
X240.35Y-169.375
X240.35Y-188.375
X257.1Y-150.5
X259.35Y-129.0
X259.35Y-148.0
X259.35Y-167.0
X259.35Y-186.0
X276.1Y-145.75
X278.35Y-124.25
X278.35Y-143.25
X278.35Y-162.25
X281.8Y-164.75
X295.1Y-131.5
X297.35Y-129.0
X297.35Y-148.0
X297.35Y-167.0
X314.1Y-138.6
X316.35Y-136.125
X316.35Y-155.125
X316.35Y-174.125
X333.1Y-141.0
X335.35Y-138.5
X335.35Y-157.5
X335.35Y-176.5
T2
X189.46Y-173.75
X194.54Y-173.75
X220.06Y-173.75
X225.14Y-173.75
T3
X185.368Y-117.334
X185.368Y-119.874
X185.368Y-122.414
X185.368Y-124.954
X185.368Y-127.494
X185.368Y-130.034
X185.368Y-132.574
X185.368Y-135.114
X185.368Y-137.654
X185.368Y-140.194
X185.368Y-142.734
X185.368Y-145.274
X200.608Y-117.334
X200.608Y-119.874
X200.608Y-122.414
X200.608Y-124.954
X200.608Y-127.494
X200.608Y-130.034
X200.608Y-132.574
X200.608Y-135.114
X200.608Y-137.654
X200.608Y-140.194
X200.608Y-142.734
X200.608Y-145.274
X213.919Y-117.334
X213.919Y-119.874
X213.919Y-122.414
X213.919Y-124.954
X213.919Y-127.494
X213.919Y-130.034
X213.919Y-132.574
X213.919Y-135.114
X213.919Y-137.654
X213.919Y-140.194
X213.919Y-142.734
X213.919Y-145.274
X229.159Y-117.334
X229.159Y-119.874
X229.159Y-122.414
X229.159Y-124.954
X229.159Y-127.494
X229.159Y-130.034
X229.159Y-132.574
X229.159Y-135.114
X229.159Y-137.654
X229.159Y-140.194
X229.159Y-142.734
X229.159Y-145.274
T4
X87.548Y-170.0
X87.55Y-131.5
X125.55Y-122.3
X125.55Y-161.2
X163.55Y-124.8
X163.55Y-164.5
X251.05Y-124.8
X251.05Y-164.5
X289.05Y-122.3
X289.05Y-161.2
X327.05Y-131.5
X327.05Y-170.0
T5
X207.3Y-165.7
M30
