M48
; DRILL file {KiCad 9.0.4} date 2025-09-13T00:46:45+0300
; FORMAT={-:-/ absolute / metric / decimal}
; #@! TF.CreationDate,2025-09-13T00:46:45+03:00
; #@! TF.GenerationSoftware,Kicad,Pcbnew,9.0.4
; #@! TF.FileFunction,NonPlated,1,2,NPTH
FMAT,2
METRIC
; #@! TA.AperFunction,NonPlated,NPTH,ComponentDrill
T1C0.500
; #@! TA.AperFunction,NonPlated,NPTH,ComponentDrill
T2C0.700
; #@! TA.AperFunction,NonPlated,NPTH,ComponentDrill
T3C1.600
; #@! TA.AperFunction,NonPlated,NPTH,ComponentDrill
T4C1.702
; #@! TA.AperFunction,NonPlated,NPTH,ComponentDrill
T5C3.010
; #@! TA.AperFunction,NonPlated,NPTH,ComponentDrill
T6C5.050
%
G90
G05
T1
X202.3Y-148.824
X202.3Y-149.624
X202.3Y-150.424
X202.3Y-151.224
X202.3Y-152.024
X202.3Y-152.824
X202.3Y-153.624
X202.3Y-165.0
X202.3Y-165.8
X202.3Y-166.6
X202.3Y-167.4
X202.3Y-168.2
X202.3Y-169.0
X202.3Y-169.8
X202.3Y-170.7
X202.3Y-171.6
X202.3Y-172.5
X202.3Y-173.3
X202.3Y-174.1
X202.3Y-174.9
X202.3Y-175.7
X202.3Y-176.5
X202.3Y-177.3
X202.3Y-186.95
X202.3Y-187.75
X202.3Y-188.55
X202.3Y-189.35
X202.3Y-190.15
X202.3Y-190.95
X202.3Y-191.75
X212.3Y-148.824
X212.3Y-149.624
X212.3Y-150.424
X212.3Y-151.224
X212.3Y-152.024
X212.3Y-152.824
X212.3Y-153.624
X212.3Y-165.0
X212.3Y-165.8
X212.3Y-166.6
X212.3Y-167.4
X212.3Y-168.2
X212.3Y-169.0
X212.3Y-169.8
X212.3Y-170.7
X212.3Y-171.6
X212.3Y-172.5
X212.3Y-173.3
X212.3Y-174.1
X212.3Y-174.9
X212.3Y-175.7
X212.3Y-176.5
X212.3Y-177.3
X212.3Y-186.95
X212.3Y-187.75
X212.3Y-188.55
X212.3Y-189.35
X212.3Y-190.15
X212.3Y-190.95
X212.3Y-191.75
T2
X127.8Y-169.35
X130.8Y-169.35
X283.8Y-169.35
X286.8Y-169.35
T4
X72.5Y-132.0
X72.5Y-151.0
X72.5Y-170.0
X83.5Y-132.0
X83.5Y-151.0
X83.5Y-170.0
X91.5Y-129.625
X91.5Y-148.625
X91.5Y-167.625
X102.5Y-129.625
X102.5Y-148.625
X102.5Y-167.625
X110.5Y-122.5
X110.5Y-141.5
X110.5Y-160.5
X121.5Y-122.5
X121.5Y-141.5
X121.5Y-160.5
X129.5Y-117.75
X129.5Y-136.75
X129.5Y-155.75
X140.5Y-117.75
X140.5Y-136.75
X140.5Y-155.75
X148.42Y-141.5
X148.5Y-122.5
X148.5Y-160.5
X148.5Y-179.5
X159.42Y-141.5
X159.5Y-122.5
X159.5Y-160.5
X159.5Y-179.5
X167.5Y-124.875
X167.5Y-143.875
X167.5Y-162.875
X167.5Y-181.875
X178.5Y-124.875
X178.5Y-143.875
X178.5Y-162.875
X178.5Y-181.875
X186.5Y-184.25
X197.5Y-184.25
X217.1Y-184.25
X228.1Y-184.25
X236.1Y-124.875
X236.1Y-143.875
X236.1Y-162.875
X236.1Y-181.875
X247.1Y-124.875
X247.1Y-143.875
X247.1Y-162.875
X247.1Y-181.875
X255.1Y-122.5
X255.1Y-141.5
X255.1Y-160.5
X255.1Y-179.5
X266.1Y-122.5
X266.1Y-141.5
X266.1Y-160.5
X266.1Y-179.5
X274.1Y-117.75
X274.1Y-136.75
X274.1Y-155.75
X285.1Y-117.75
X285.1Y-136.75
X285.1Y-155.75
X293.1Y-122.5
X293.1Y-141.5
X293.1Y-160.5
X304.1Y-122.5
X304.1Y-141.5
X304.1Y-160.5
X312.1Y-129.625
X312.1Y-148.625
X312.1Y-167.625
X323.1Y-129.625
X323.1Y-148.625
X323.1Y-167.625
X331.1Y-132.0
X331.1Y-151.0
X331.1Y-170.0
X342.1Y-132.0
X342.1Y-151.0
X342.1Y-170.0
T5
X78.0Y-126.1
X78.0Y-145.1
X78.0Y-164.1
X83.0Y-128.2
X83.0Y-147.2
X83.0Y-166.2
X97.0Y-123.725
X97.0Y-142.725
X97.0Y-161.725
X102.0Y-125.825
X102.0Y-144.825
X102.0Y-163.825
X116.0Y-116.6
X116.0Y-135.6
X116.0Y-154.6
X121.0Y-118.7
X121.0Y-137.7
X121.0Y-156.7
X135.0Y-111.85
X135.0Y-130.85
X135.0Y-149.85
X140.0Y-113.95
X140.0Y-132.95
X140.0Y-151.95
X153.92Y-135.6
X154.0Y-116.6
X154.0Y-154.6
X154.0Y-173.6
X158.92Y-137.7
X159.0Y-118.7
X159.0Y-156.7
X159.0Y-175.7
X173.0Y-118.975
X173.0Y-137.975
X173.0Y-156.975
X173.0Y-175.975
X178.0Y-121.075
X178.0Y-140.075
X178.0Y-159.075
X178.0Y-178.075
X192.0Y-178.35
X197.0Y-180.45
X222.6Y-178.35
X227.6Y-180.45
X241.6Y-118.975
X241.6Y-137.975
X241.6Y-156.975
X241.6Y-175.975
X246.6Y-121.075
X246.6Y-140.075
X246.6Y-159.075
X246.6Y-178.075
X260.6Y-116.6
X260.6Y-135.6
X260.6Y-154.6
X260.6Y-173.6
X265.6Y-118.7
X265.6Y-137.7
X265.6Y-156.7
X265.6Y-175.7
X279.6Y-111.85
X279.6Y-130.85
X279.6Y-149.85
X284.6Y-113.95
X284.6Y-132.95
X284.6Y-151.95
X298.6Y-116.6
X298.6Y-135.6
X298.6Y-154.6
X303.6Y-118.7
X303.6Y-137.7
X303.6Y-156.7
X317.6Y-123.725
X317.6Y-142.725
X317.6Y-161.725
X322.6Y-125.825
X322.6Y-144.825
X322.6Y-163.825
X336.6Y-126.1
X336.6Y-145.1
X336.6Y-164.1
X341.6Y-128.2
X341.6Y-147.2
X341.6Y-166.2
T6
X78.0Y-132.0
X78.0Y-151.0
X78.0Y-170.0
X97.0Y-129.625
X97.0Y-148.625
X97.0Y-167.625
X116.0Y-122.5
X116.0Y-141.5
X116.0Y-160.5
X135.0Y-117.75
X135.0Y-136.75
X135.0Y-155.75
X153.92Y-141.5
X154.0Y-122.5
X154.0Y-160.5
X154.0Y-179.5
X173.0Y-124.875
X173.0Y-143.875
X173.0Y-162.875
X173.0Y-181.875
X192.0Y-184.25
X222.6Y-184.25
X241.6Y-124.875
X241.6Y-143.875
X241.6Y-162.875
X241.6Y-181.875
X260.6Y-122.5
X260.6Y-141.5
X260.6Y-160.5
X260.6Y-179.5
X279.6Y-117.75
X279.6Y-136.75
X279.6Y-155.75
X298.6Y-122.5
X298.6Y-141.5
X298.6Y-160.5
X317.6Y-129.625
X317.6Y-148.625
X317.6Y-167.625
X336.6Y-132.0
X336.6Y-151.0
X336.6Y-170.0
T3
G00X73.0Y-136.95
M15
G01X73.0Y-137.35
M16
G05
G00X73.0Y-155.95
M15
G01X73.0Y-156.35
M16
G05
G00X73.0Y-174.95
M15
G01X73.0Y-175.35
M16
G05
G00X92.0Y-134.575
M15
G01X92.0Y-134.975
M16
G05
G00X92.0Y-153.575
M15
G01X92.0Y-153.975
M16
G05
G00X92.0Y-172.575
M15
G01X92.0Y-172.975
M16
G05
G00X111.0Y-127.45
M15
G01X111.0Y-127.85
M16
G05
G00X111.0Y-146.45
M15
G01X111.0Y-146.85
M16
G05
G00X111.0Y-165.45
M15
G01X111.0Y-165.85
M16
G05
G00X130.0Y-122.7
M15
G01X130.0Y-123.1
M16
G05
G00X130.0Y-141.7
M15
G01X130.0Y-142.1
M16
G05
G00X130.0Y-160.7
M15
G01X130.0Y-161.1
M16
G05
G00X148.92Y-146.45
M15
G01X148.92Y-146.85
M16
G05
G00X149.0Y-127.45
M15
G01X149.0Y-127.85
M16
G05
G00X149.0Y-165.45
M15
G01X149.0Y-165.85
M16
G05
G00X149.0Y-184.45
M15
G01X149.0Y-184.85
M16
G05
G00X168.0Y-129.825
M15
G01X168.0Y-130.225
M16
G05
G00X168.0Y-148.825
M15
G01X168.0Y-149.225
M16
G05
G00X168.0Y-167.825
M15
G01X168.0Y-168.225
M16
G05
G00X168.0Y-186.825
M15
G01X168.0Y-187.225
M16
G05
G00X187.0Y-189.2
M15
G01X187.0Y-189.6
M16
G05
G00X217.6Y-189.2
M15
G01X217.6Y-189.6
M16
G05
G00X236.6Y-129.825
M15
G01X236.6Y-130.225
M16
G05
G00X236.6Y-148.825
M15
G01X236.6Y-149.225
M16
G05
G00X236.6Y-167.825
M15
G01X236.6Y-168.225
M16
G05
G00X236.6Y-186.825
M15
G01X236.6Y-187.225
M16
G05
G00X255.6Y-127.45
M15
G01X255.6Y-127.85
M16
G05
G00X255.6Y-146.45
M15
G01X255.6Y-146.85
M16
G05
G00X255.6Y-165.45
M15
G01X255.6Y-165.85
M16
G05
G00X255.6Y-184.45
M15
G01X255.6Y-184.85
M16
G05
G00X274.6Y-122.7
M15
G01X274.6Y-123.1
M16
G05
G00X274.6Y-141.7
M15
G01X274.6Y-142.1
M16
G05
G00X274.6Y-160.7
M15
G01X274.6Y-161.1
M16
G05
G00X293.6Y-127.45
M15
G01X293.6Y-127.85
M16
G05
G00X293.6Y-146.45
M15
G01X293.6Y-146.85
M16
G05
G00X293.6Y-165.45
M15
G01X293.6Y-165.85
M16
G05
G00X312.6Y-134.575
M15
G01X312.6Y-134.975
M16
G05
G00X312.6Y-153.575
M15
G01X312.6Y-153.975
M16
G05
G00X312.6Y-172.575
M15
G01X312.6Y-172.975
M16
G05
G00X331.6Y-136.95
M15
G01X331.6Y-137.35
M16
G05
G00X331.6Y-155.95
M15
G01X331.6Y-156.35
M16
G05
G00X331.6Y-174.95
M15
G01X331.6Y-175.35
M16
G05
M30
