%TF.GenerationSoftware,KiCad,Pcbnew,9.0.4*%
%TF.CreationDate,2025-09-16T20:03:49+03:00*%
%TF.ProjectId,KOMETA,4b4f4d45-5441-42e6-9b69-6361645f7063,rev?*%
%TF.SameCoordinates,Original*%
%TF.FileFunction,Legend,Top*%
%TF.FilePolarity,Positive*%
%FSLAX46Y46*%
G04 Gerber Fmt 4.6, Leading zero omitted, Abs format (unit mm)*
G04 Created by KiCad (PCBNEW 9.0.4) date 2025-09-16 20:03:49*
%MOMM*%
%LPD*%
G01*
G04 APERTURE LIST*
%ADD10C,0.000000*%
G04 APERTURE END LIST*
D10*
%TO.C,G\u002A\u002A\u002A*%
G36*
X146282886Y-140561116D02*
G01*
X146289506Y-140608712D01*
X146295029Y-140682888D01*
X146298404Y-140768890D01*
X146298674Y-140782728D01*
X146301406Y-140948066D01*
X146446979Y-141112716D01*
X146513847Y-141189639D01*
X146553214Y-141242912D01*
X146562522Y-141276950D01*
X146539213Y-141296172D01*
X146480730Y-141304994D01*
X146384516Y-141307831D01*
X146333738Y-141308289D01*
X146149639Y-141309742D01*
X145989419Y-141454412D01*
X145922364Y-141514154D01*
X145867089Y-141561890D01*
X145830417Y-141591816D01*
X145819268Y-141599083D01*
X145814000Y-141579843D01*
X145807359Y-141527708D01*
X145800263Y-141451052D01*
X145794668Y-141374541D01*
X145780000Y-141150000D01*
X145633278Y-140987031D01*
X145486556Y-140824063D01*
X145717409Y-140806346D01*
X145948263Y-140788629D01*
X146109047Y-140646736D01*
X146269831Y-140504842D01*
X146282886Y-140561116D01*
G37*
G36*
X146487615Y-131062500D02*
G01*
X146530876Y-131100510D01*
X146590744Y-131157023D01*
X146661143Y-131226448D01*
X146670656Y-131236033D01*
X146856230Y-131423479D01*
X147119746Y-131416871D01*
X147218634Y-131415183D01*
X147300599Y-131415290D01*
X147357899Y-131417070D01*
X147382792Y-131420402D01*
X147383252Y-131421028D01*
X147369387Y-131438787D01*
X147331502Y-131479605D01*
X147275158Y-131537664D01*
X147205912Y-131607150D01*
X147195598Y-131617367D01*
X147007952Y-131802941D01*
X147015352Y-132076781D01*
X147017297Y-132177724D01*
X147017426Y-132261894D01*
X147015841Y-132321697D01*
X147012643Y-132349538D01*
X147011687Y-132350622D01*
X146993765Y-132336825D01*
X146952599Y-132299086D01*
X146893981Y-132242879D01*
X146823705Y-132173678D01*
X146810311Y-132160311D01*
X146620000Y-131970000D01*
X146345438Y-131975729D01*
X146070876Y-131981458D01*
X146267215Y-131783283D01*
X146463553Y-131585107D01*
X146456272Y-131316847D01*
X146454865Y-131217022D01*
X146456178Y-131134044D01*
X146459903Y-131075582D01*
X146465731Y-131049308D01*
X146467036Y-131048587D01*
X146487615Y-131062500D01*
G37*
G36*
X144149074Y-134732325D02*
G01*
X144179081Y-134778236D01*
X144219787Y-134845850D01*
X144260493Y-134916909D01*
X144373520Y-135118414D01*
X144579405Y-135161372D01*
X144669355Y-135180506D01*
X144745912Y-135197466D01*
X144798825Y-135209945D01*
X144815598Y-135214531D01*
X144811836Y-135228068D01*
X144775449Y-135257255D01*
X144710686Y-135299065D01*
X144636424Y-135342308D01*
X144557755Y-135385814D01*
X144500774Y-135419097D01*
X144460815Y-135449645D01*
X144433213Y-135484943D01*
X144413304Y-135532478D01*
X144396422Y-135599736D01*
X144377904Y-135694203D01*
X144360615Y-135784931D01*
X144345729Y-135851450D01*
X144331498Y-135898080D01*
X144321744Y-135914101D01*
X144306705Y-135897179D01*
X144276458Y-135851279D01*
X144235603Y-135783703D01*
X144195263Y-135713409D01*
X144082604Y-135512716D01*
X143859878Y-135468293D01*
X143768859Y-135449380D01*
X143693685Y-135432329D01*
X143643115Y-135419219D01*
X143626113Y-135412831D01*
X143638493Y-135399124D01*
X143680494Y-135370367D01*
X143745268Y-135330966D01*
X143814396Y-135291689D01*
X143896927Y-135244134D01*
X143965979Y-135200665D01*
X144013309Y-135166702D01*
X144030000Y-135150000D01*
X144040618Y-135116887D01*
X144055883Y-135053622D01*
X144073358Y-134970777D01*
X144083734Y-134916909D01*
X144100768Y-134831898D01*
X144116599Y-134764612D01*
X144129050Y-134723721D01*
X144134326Y-134715403D01*
X144149074Y-134732325D01*
G37*
G36*
X155910063Y-135993988D02*
G01*
X155951973Y-136032936D01*
X156012779Y-136092007D01*
X156087546Y-136166420D01*
X156156601Y-136236337D01*
X156407990Y-136492731D01*
X156764580Y-136445600D01*
X156881052Y-136430700D01*
X156982602Y-136418650D01*
X157062444Y-136410178D01*
X157113795Y-136406013D01*
X157129935Y-136406364D01*
X157118607Y-136422415D01*
X157081774Y-136462133D01*
X157024024Y-136520846D01*
X156949943Y-136593883D01*
X156873221Y-136667881D01*
X156607743Y-136921503D01*
X156654559Y-137278915D01*
X156669240Y-137395620D01*
X156680904Y-137497499D01*
X156688865Y-137577751D01*
X156692440Y-137629571D01*
X156691551Y-137646151D01*
X156674937Y-137635127D01*
X156634981Y-137598446D01*
X156576437Y-137540770D01*
X156504055Y-137466761D01*
X156437222Y-137396640D01*
X156341458Y-137296557D01*
X156268543Y-137224211D01*
X156214360Y-137176017D01*
X156174789Y-137148388D01*
X156145711Y-137137737D01*
X156139368Y-137137306D01*
X156100412Y-137140082D01*
X156029362Y-137147716D01*
X155935035Y-137159166D01*
X155826250Y-137173393D01*
X155779744Y-137179756D01*
X155671982Y-137193889D01*
X155579304Y-137204524D01*
X155509127Y-137210929D01*
X155468869Y-137212372D01*
X155462355Y-137211091D01*
X155472847Y-137193917D01*
X155508811Y-137153089D01*
X155565713Y-137093379D01*
X155639017Y-137019561D01*
X155713754Y-136946469D01*
X155976268Y-136692961D01*
X155927510Y-136336452D01*
X155912415Y-136220825D01*
X155900735Y-136120848D01*
X155893124Y-136043079D01*
X155890234Y-135994077D01*
X155891983Y-135979942D01*
X155910063Y-135993988D01*
G37*
G36*
X145047710Y-136989148D02*
G01*
X145063055Y-137021339D01*
X145067904Y-137033117D01*
X145089665Y-137085271D01*
X145123233Y-137163980D01*
X145163770Y-137257966D01*
X145200627Y-137342661D01*
X145300000Y-137570000D01*
X145546167Y-137628792D01*
X145683764Y-137661752D01*
X145786015Y-137686668D01*
X145857802Y-137705013D01*
X145904003Y-137718258D01*
X145929498Y-137727876D01*
X145939167Y-137735338D01*
X145937890Y-137742115D01*
X145934467Y-137745909D01*
X145909934Y-137759937D01*
X145854403Y-137786682D01*
X145774992Y-137822867D01*
X145678816Y-137865211D01*
X145627741Y-137887210D01*
X145339144Y-138010615D01*
X145266065Y-138332808D01*
X145240570Y-138441743D01*
X145217261Y-138534934D01*
X145197951Y-138605614D01*
X145184454Y-138647013D01*
X145179701Y-138655015D01*
X145166715Y-138637242D01*
X145141273Y-138588877D01*
X145107086Y-138517372D01*
X145069039Y-138432856D01*
X145026991Y-138336360D01*
X144988041Y-138245968D01*
X144956998Y-138172902D01*
X144940734Y-138133577D01*
X144928709Y-138104362D01*
X144915546Y-138081793D01*
X144895530Y-138063561D01*
X144862945Y-138047354D01*
X144812076Y-138030861D01*
X144737209Y-138011769D01*
X144632630Y-137987769D01*
X144515732Y-137961700D01*
X144417898Y-137938958D01*
X144336555Y-137918240D01*
X144279207Y-137901595D01*
X144253359Y-137891068D01*
X144252627Y-137889922D01*
X144270623Y-137877759D01*
X144320370Y-137852596D01*
X144395511Y-137817437D01*
X144489686Y-137775286D01*
X144559355Y-137745019D01*
X144866082Y-137613286D01*
X144933626Y-137312636D01*
X144964028Y-137178965D01*
X144987537Y-137082064D01*
X145005906Y-137018282D01*
X145020889Y-136983969D01*
X145034239Y-136975474D01*
X145047710Y-136989148D01*
G37*
G36*
X149898981Y-133298865D02*
G01*
X149894036Y-133318398D01*
X149878987Y-133356099D01*
X149852142Y-133416752D01*
X149811805Y-133505141D01*
X149756281Y-133626050D01*
X149751346Y-133636804D01*
X149617630Y-133928261D01*
X149811222Y-134225820D01*
X149874678Y-134324117D01*
X149929425Y-134410381D01*
X149971776Y-134478685D01*
X149998046Y-134523102D01*
X150005008Y-134537442D01*
X149987493Y-134533618D01*
X149938801Y-134514274D01*
X149864906Y-134482006D01*
X149771784Y-134439410D01*
X149683893Y-134397938D01*
X149578114Y-134347701D01*
X149485572Y-134304355D01*
X149412572Y-134270806D01*
X149365418Y-134249956D01*
X149350512Y-134244371D01*
X149329679Y-134254802D01*
X149280356Y-134283532D01*
X149208952Y-134326711D01*
X149121876Y-134380492D01*
X149076771Y-134408707D01*
X148957011Y-134483333D01*
X148868087Y-134537110D01*
X148806302Y-134571899D01*
X148767956Y-134589561D01*
X148749349Y-134591958D01*
X148746783Y-134580950D01*
X148749315Y-134573467D01*
X148761770Y-134545180D01*
X148788200Y-134486604D01*
X148825305Y-134405005D01*
X148869787Y-134307645D01*
X148895122Y-134252365D01*
X149028940Y-133960686D01*
X148836296Y-133663828D01*
X148773756Y-133566148D01*
X148720784Y-133480898D01*
X148680855Y-133413877D01*
X148657441Y-133370885D01*
X148652948Y-133357677D01*
X148673718Y-133363009D01*
X148725458Y-133383608D01*
X148801911Y-133416773D01*
X148896821Y-133459807D01*
X148981121Y-133499191D01*
X149300000Y-133650000D01*
X149565632Y-133483175D01*
X149661324Y-133423684D01*
X149747077Y-133371500D01*
X149815687Y-133330922D01*
X149859946Y-133306252D01*
X149870152Y-133301426D01*
X149885345Y-133295163D01*
X149895519Y-133292714D01*
X149898981Y-133298865D01*
G37*
G36*
X144861694Y-132924680D02*
G01*
X144883165Y-132938498D01*
X144937237Y-132974266D01*
X145022222Y-133030850D01*
X145136431Y-133107118D01*
X145278177Y-133201937D01*
X145445772Y-133314176D01*
X145637526Y-133442700D01*
X145851753Y-133586379D01*
X146086763Y-133744079D01*
X146340868Y-133914667D01*
X146612380Y-134097011D01*
X146899612Y-134289978D01*
X147200874Y-134492436D01*
X147514478Y-134703253D01*
X147838737Y-134921295D01*
X148171962Y-135145430D01*
X148192784Y-135159437D01*
X148526270Y-135383717D01*
X148850781Y-135601832D01*
X149164638Y-135812659D01*
X149466161Y-136015073D01*
X149753671Y-136207952D01*
X150025489Y-136390173D01*
X150279935Y-136560612D01*
X150515330Y-136718147D01*
X150729996Y-136861654D01*
X150922252Y-136990009D01*
X151090419Y-137102090D01*
X151232818Y-137196774D01*
X151347770Y-137272936D01*
X151433595Y-137329455D01*
X151488615Y-137365206D01*
X151511150Y-137379067D01*
X151511467Y-137379188D01*
X151533251Y-137383220D01*
X151550274Y-137379506D01*
X151562517Y-137364435D01*
X151569962Y-137334397D01*
X151572591Y-137285779D01*
X151570384Y-137214969D01*
X151563324Y-137118358D01*
X151551392Y-136992332D01*
X151534569Y-136833280D01*
X151512837Y-136637591D01*
X151507424Y-136589514D01*
X151485598Y-136395138D01*
X151468270Y-136237742D01*
X151455189Y-136113243D01*
X151446107Y-136017559D01*
X151440775Y-135946609D01*
X151438943Y-135896310D01*
X151440363Y-135862581D01*
X151444786Y-135841340D01*
X151451962Y-135828504D01*
X151460513Y-135820805D01*
X151499491Y-135798993D01*
X151519151Y-135793937D01*
X151537838Y-135806333D01*
X151587349Y-135842558D01*
X151665800Y-135901174D01*
X151771304Y-135980742D01*
X151901977Y-136079821D01*
X152055932Y-136196971D01*
X152231284Y-136330755D01*
X152426148Y-136479731D01*
X152638638Y-136642460D01*
X152866868Y-136817503D01*
X153108952Y-137003420D01*
X153363007Y-137198771D01*
X153627144Y-137402117D01*
X153804094Y-137538473D01*
X154190594Y-137836732D01*
X154544089Y-138110182D01*
X154864614Y-138358848D01*
X155152205Y-138582758D01*
X155406895Y-138781939D01*
X155628720Y-138956420D01*
X155817714Y-139106226D01*
X155973913Y-139231387D01*
X156097351Y-139331929D01*
X156188062Y-139407879D01*
X156246083Y-139459265D01*
X156255469Y-139468262D01*
X156472284Y-139709934D01*
X156655934Y-139974158D01*
X156805467Y-140257585D01*
X156919929Y-140556867D01*
X156998369Y-140868655D01*
X157039835Y-141189598D01*
X157043372Y-141516349D01*
X157008030Y-141845559D01*
X156976758Y-142004434D01*
X156891050Y-142333913D01*
X156789571Y-142630134D01*
X156669089Y-142899225D01*
X156526372Y-143147313D01*
X156358187Y-143380527D01*
X156161302Y-143604995D01*
X156098852Y-143668852D01*
X155870176Y-143879783D01*
X155636451Y-144058126D01*
X155390229Y-144208105D01*
X155124064Y-144333945D01*
X154830509Y-144439872D01*
X154644692Y-144493869D01*
X154423075Y-144546057D01*
X154200026Y-144584906D01*
X153984467Y-144609499D01*
X153785323Y-144618920D01*
X153611517Y-144612253D01*
X153556077Y-144605623D01*
X153510408Y-144598944D01*
X153438719Y-144588488D01*
X153355894Y-144576425D01*
X153349405Y-144575480D01*
X153078249Y-144517132D01*
X152804492Y-144422446D01*
X152535455Y-144295212D01*
X152278461Y-144139216D01*
X152040830Y-143958248D01*
X151893249Y-143822069D01*
X151862587Y-143787833D01*
X151808886Y-143723732D01*
X151733620Y-143631656D01*
X151638261Y-143513495D01*
X151524282Y-143371137D01*
X151393156Y-143206473D01*
X151246356Y-143021392D01*
X151085355Y-142817783D01*
X150911625Y-142597537D01*
X150726640Y-142362542D01*
X150531872Y-142114687D01*
X150328795Y-141855864D01*
X150118880Y-141587960D01*
X150040462Y-141487754D01*
X151303352Y-141487754D01*
X151323211Y-141812574D01*
X151381356Y-142126388D01*
X151475632Y-142426612D01*
X151603889Y-142710665D01*
X151763974Y-142975965D01*
X151953734Y-143219930D01*
X152171018Y-143439978D01*
X152413673Y-143633527D01*
X152679548Y-143797995D01*
X152966489Y-143930800D01*
X153272344Y-144029361D01*
X153455346Y-144069415D01*
X153587471Y-144091531D01*
X153707100Y-144106400D01*
X153837963Y-144116817D01*
X153877997Y-144119212D01*
X153924715Y-144118661D01*
X154000801Y-144114326D01*
X154094544Y-144106978D01*
X154167337Y-144100162D01*
X154493972Y-144049294D01*
X154798808Y-143963826D01*
X155084387Y-143842564D01*
X155353253Y-143684315D01*
X155607949Y-143487884D01*
X155748004Y-143358136D01*
X155937072Y-143157965D01*
X156092954Y-142960226D01*
X156221959Y-142755153D01*
X156330395Y-142532978D01*
X156405013Y-142340790D01*
X156463003Y-142157512D01*
X156503302Y-141981603D01*
X156528077Y-141799460D01*
X156539494Y-141597479D01*
X156540868Y-141487754D01*
X156522023Y-141154134D01*
X156464761Y-140835759D01*
X156369146Y-140532781D01*
X156235237Y-140245355D01*
X156063098Y-139973634D01*
X155852791Y-139717770D01*
X155807426Y-139669828D01*
X155560736Y-139442678D01*
X155296623Y-139252925D01*
X155015806Y-139100877D01*
X154719005Y-138986839D01*
X154406939Y-138911118D01*
X154080329Y-138874020D01*
X153928087Y-138870008D01*
X153616101Y-138885531D01*
X153324022Y-138933467D01*
X153043874Y-139015713D01*
X152767683Y-139134169D01*
X152722796Y-139156884D01*
X152441959Y-139324527D01*
X152187765Y-139522275D01*
X151961988Y-139747213D01*
X151766401Y-139996429D01*
X151602778Y-140267009D01*
X151472893Y-140556042D01*
X151378520Y-140860614D01*
X151321433Y-141177813D01*
X151303352Y-141487754D01*
X150040462Y-141487754D01*
X149903602Y-141312867D01*
X149684432Y-141032472D01*
X149462845Y-140748666D01*
X149240311Y-140463337D01*
X149018306Y-140178377D01*
X148798301Y-139895674D01*
X148581768Y-139617117D01*
X148370183Y-139344597D01*
X148165016Y-139080002D01*
X147967741Y-138825223D01*
X147779831Y-138582148D01*
X147602758Y-138352667D01*
X147437996Y-138138671D01*
X147287017Y-137942047D01*
X147151295Y-137764687D01*
X147032302Y-137608479D01*
X146931511Y-137475312D01*
X146850394Y-137367077D01*
X146790426Y-137285663D01*
X146753078Y-137232959D01*
X146739827Y-137210877D01*
X146738484Y-137179828D01*
X146746145Y-137157300D01*
X146766838Y-137143512D01*
X146804588Y-137138680D01*
X146863421Y-137143022D01*
X146947365Y-137156757D01*
X147060446Y-137180103D01*
X147206691Y-137213278D01*
X147333203Y-137242998D01*
X147500319Y-137282045D01*
X147631452Y-137311402D01*
X147730623Y-137331794D01*
X147801849Y-137343945D01*
X147849149Y-137348580D01*
X147876543Y-137346423D01*
X147884767Y-137342453D01*
X147909725Y-137312701D01*
X147913929Y-137299591D01*
X147901781Y-137281043D01*
X147866312Y-137231388D01*
X147808986Y-137152602D01*
X147731266Y-137046658D01*
X147634614Y-136915529D01*
X147520495Y-136761191D01*
X147390371Y-136585616D01*
X147245707Y-136390779D01*
X147087963Y-136178654D01*
X146918606Y-135951214D01*
X146739096Y-135710434D01*
X146550898Y-135458288D01*
X146355476Y-135196750D01*
X146320879Y-135150479D01*
X146083170Y-134832432D01*
X145869228Y-134545840D01*
X145677929Y-134289158D01*
X145508151Y-134060839D01*
X145358772Y-133859339D01*
X145228670Y-133683111D01*
X145116721Y-133530609D01*
X145021803Y-133400287D01*
X144942794Y-133290599D01*
X144878572Y-133200001D01*
X144828013Y-133126945D01*
X144789995Y-133069886D01*
X144763397Y-133027278D01*
X144747094Y-132997576D01*
X144739965Y-132979232D01*
X144739659Y-132972890D01*
X144768086Y-132924476D01*
X144816062Y-132910366D01*
X144861694Y-132924680D01*
G37*
%TO.C,PW_R1*%
G36*
X221492500Y-174649583D02*
G01*
X221491811Y-174676814D01*
X221489768Y-174703688D01*
X221486403Y-174730170D01*
X221481749Y-174756229D01*
X221475840Y-174781830D01*
X221468710Y-174806941D01*
X221460390Y-174831528D01*
X221450915Y-174855559D01*
X221440318Y-174878999D01*
X221428632Y-174901815D01*
X221415891Y-174923975D01*
X221402127Y-174945445D01*
X221387373Y-174966192D01*
X221371664Y-174986182D01*
X221355032Y-175005383D01*
X221337511Y-175023761D01*
X221319133Y-175041282D01*
X221299932Y-175057914D01*
X221279942Y-175073623D01*
X221259195Y-175088377D01*
X221237725Y-175102141D01*
X221215565Y-175114882D01*
X221192749Y-175126568D01*
X221169309Y-175137165D01*
X221145278Y-175146640D01*
X221120691Y-175154960D01*
X221095580Y-175162090D01*
X221069979Y-175167999D01*
X221043920Y-175172653D01*
X221017438Y-175176018D01*
X220990564Y-175178061D01*
X220963333Y-175178750D01*
X217576667Y-175178750D01*
X217549436Y-175178061D01*
X217522563Y-175176018D01*
X217496081Y-175172653D01*
X217470022Y-175167999D01*
X217444421Y-175162090D01*
X217419310Y-175154960D01*
X217394723Y-175146640D01*
X217370692Y-175137165D01*
X217347252Y-175126568D01*
X217324436Y-175114882D01*
X217302276Y-175102141D01*
X217280806Y-175088377D01*
X217260059Y-175073623D01*
X217240069Y-175057914D01*
X217220868Y-175041282D01*
X217202491Y-175023761D01*
X217184969Y-175005383D01*
X217168337Y-174986182D01*
X217152628Y-174966192D01*
X217137874Y-174945445D01*
X217124110Y-174923975D01*
X217111368Y-174901815D01*
X217099682Y-174878999D01*
X217089085Y-174855559D01*
X217079610Y-174831528D01*
X217071291Y-174806941D01*
X217064160Y-174781830D01*
X217058251Y-174756229D01*
X217053598Y-174730170D01*
X217050232Y-174703688D01*
X217048189Y-174676814D01*
X217047500Y-174649583D01*
X217047500Y-173634240D01*
X217576667Y-173634240D01*
X217576667Y-173759927D01*
X217576722Y-173762260D01*
X217576885Y-173764539D01*
X217577155Y-173766764D01*
X217577532Y-173768936D01*
X217578016Y-173771055D01*
X217578608Y-173773119D01*
X217579306Y-173775131D01*
X217580112Y-173777088D01*
X217581025Y-173778992D01*
X217582045Y-173780843D01*
X217583172Y-173782639D01*
X217584406Y-173784383D01*
X217585747Y-173786072D01*
X217587196Y-173787708D01*
X217588752Y-173789291D01*
X217590415Y-173790820D01*
X217592405Y-173792280D01*
X217594442Y-173793646D01*
X217596526Y-173794919D01*
X217598656Y-173796099D01*
X217600834Y-173797185D01*
X217603058Y-173798178D01*
X217605328Y-173799076D01*
X217607644Y-173799881D01*
X217610007Y-173800591D01*
X217612415Y-173801207D01*
X217614870Y-173801729D01*
X217617370Y-173802156D01*
X217619916Y-173802489D01*
X217622507Y-173802726D01*
X217625144Y-173802869D01*
X217627826Y-173802917D01*
X218585809Y-173802917D01*
X218588483Y-173802869D01*
X218591097Y-173802726D01*
X218593650Y-173802489D01*
X218596142Y-173802156D01*
X218598573Y-173801729D01*
X218600943Y-173801207D01*
X218603252Y-173800591D01*
X218605499Y-173799881D01*
X218607685Y-173799076D01*
X218609809Y-173798178D01*
X218611871Y-173797185D01*
X218613872Y-173796099D01*
X218615810Y-173794919D01*
X218617687Y-173793646D01*
X218619501Y-173792280D01*
X218621252Y-173790820D01*
X218622915Y-173789291D01*
X218624471Y-173787708D01*
X218625920Y-173786072D01*
X218627261Y-173784383D01*
X218628495Y-173782639D01*
X218629623Y-173780843D01*
X218630642Y-173778992D01*
X218631555Y-173777088D01*
X218632361Y-173775131D01*
X218633059Y-173773119D01*
X218633651Y-173771055D01*
X218634135Y-173768936D01*
X218634512Y-173766764D01*
X218634782Y-173764539D01*
X218634945Y-173762260D01*
X218635000Y-173759927D01*
X218635000Y-173634240D01*
X218634945Y-173631907D01*
X218634782Y-173629628D01*
X218634512Y-173627402D01*
X218634135Y-173625231D01*
X218633651Y-173623112D01*
X218633059Y-173621047D01*
X218632361Y-173619036D01*
X218631555Y-173617079D01*
X218630642Y-173615175D01*
X218629623Y-173613324D01*
X218628495Y-173611527D01*
X218627261Y-173609784D01*
X218625920Y-173608094D01*
X218624471Y-173606458D01*
X218622915Y-173604876D01*
X218621252Y-173603347D01*
X218619501Y-173601887D01*
X218617687Y-173600521D01*
X218615810Y-173599248D01*
X218613872Y-173598068D01*
X218611871Y-173596982D01*
X218609809Y-173595989D01*
X218607685Y-173595091D01*
X218605499Y-173594286D01*
X218603252Y-173593576D01*
X218600943Y-173592960D01*
X218598573Y-173592438D01*
X218596142Y-173592011D01*
X218593650Y-173591678D01*
X218591097Y-173591440D01*
X218588483Y-173591298D01*
X218585809Y-173591250D01*
X217627826Y-173591250D01*
X217625144Y-173591298D01*
X217622507Y-173591440D01*
X217619916Y-173591678D01*
X217617370Y-173592011D01*
X217614870Y-173592438D01*
X217612415Y-173592960D01*
X217610007Y-173593576D01*
X217607644Y-173594286D01*
X217605328Y-173595091D01*
X217603058Y-173595989D01*
X217600834Y-173596982D01*
X217598656Y-173598068D01*
X217596526Y-173599248D01*
X217594442Y-173600521D01*
X217592405Y-173601887D01*
X217590415Y-173603347D01*
X217588752Y-173604876D01*
X217587196Y-173606458D01*
X217585747Y-173608094D01*
X217584406Y-173609784D01*
X217583172Y-173611527D01*
X217582045Y-173613324D01*
X217581025Y-173615175D01*
X217580112Y-173617079D01*
X217579306Y-173619036D01*
X217578608Y-173621047D01*
X217578016Y-173623112D01*
X217577532Y-173625231D01*
X217577155Y-173627402D01*
X217576885Y-173629628D01*
X217576722Y-173631907D01*
X217576667Y-173634240D01*
X217047500Y-173634240D01*
X217047500Y-173079019D01*
X219164259Y-173079019D01*
X219164361Y-173112551D01*
X219165712Y-173177526D01*
X219165712Y-173759927D01*
X219165712Y-174366293D01*
X219165263Y-174399096D01*
X219165023Y-174415671D01*
X219165058Y-174432274D01*
X219165583Y-174448840D01*
X219166095Y-174457088D01*
X219166810Y-174465303D01*
X219167755Y-174473475D01*
X219168955Y-174481596D01*
X219170438Y-174489659D01*
X219172231Y-174497654D01*
X219175139Y-174508034D01*
X219178699Y-174518239D01*
X219182884Y-174528243D01*
X219187666Y-174538022D01*
X219193017Y-174547550D01*
X219198910Y-174556801D01*
X219205316Y-174565750D01*
X219212207Y-174574371D01*
X219219556Y-174582640D01*
X219227335Y-174590530D01*
X219235516Y-174598016D01*
X219244071Y-174605073D01*
X219252972Y-174611675D01*
X219262191Y-174617797D01*
X219271700Y-174623414D01*
X219281472Y-174628499D01*
X219290891Y-174632715D01*
X219300478Y-174636328D01*
X219310218Y-174639384D01*
X219320092Y-174641928D01*
X219330084Y-174644006D01*
X219340176Y-174645663D01*
X219350353Y-174646946D01*
X219360596Y-174647900D01*
X219370889Y-174648571D01*
X219381215Y-174649004D01*
X219401898Y-174649339D01*
X219442911Y-174649170D01*
X220681180Y-174649170D01*
X220722074Y-174649559D01*
X220742667Y-174649480D01*
X220752950Y-174649207D01*
X220763205Y-174648716D01*
X220773417Y-174647960D01*
X220783573Y-174646891D01*
X220793658Y-174645464D01*
X220803657Y-174643630D01*
X220813557Y-174641342D01*
X220823342Y-174638555D01*
X220832999Y-174635220D01*
X220842514Y-174631290D01*
X220847782Y-174628809D01*
X220852963Y-174626146D01*
X220858055Y-174623311D01*
X220863057Y-174620314D01*
X220867969Y-174617163D01*
X220872789Y-174613869D01*
X220877515Y-174610440D01*
X220882148Y-174606886D01*
X220886685Y-174603216D01*
X220891126Y-174599440D01*
X220895470Y-174595566D01*
X220899715Y-174591604D01*
X220903860Y-174587564D01*
X220907905Y-174583455D01*
X220911847Y-174579286D01*
X220915687Y-174575066D01*
X220921172Y-174568583D01*
X220926230Y-174561916D01*
X220930879Y-174555072D01*
X220935134Y-174548063D01*
X220939013Y-174540897D01*
X220942531Y-174533584D01*
X220948554Y-174518552D01*
X220953335Y-174503044D01*
X220957006Y-174487135D01*
X220959699Y-174470898D01*
X220961548Y-174454411D01*
X220962683Y-174437747D01*
X220963238Y-174420982D01*
X220963135Y-174387448D01*
X220961783Y-174322472D01*
X220961783Y-173133711D01*
X220962232Y-173100908D01*
X220962473Y-173084332D01*
X220962438Y-173067728D01*
X220961915Y-173051162D01*
X220961403Y-173042913D01*
X220960689Y-173034698D01*
X220959746Y-173026525D01*
X220958546Y-173018402D01*
X220957064Y-173010338D01*
X220955272Y-173002340D01*
X220952365Y-172991962D01*
X220948805Y-172981758D01*
X220944620Y-172971754D01*
X220939838Y-172961976D01*
X220934487Y-172952449D01*
X220928594Y-172943198D01*
X220922188Y-172934250D01*
X220915297Y-172925629D01*
X220907947Y-172917360D01*
X220900168Y-172909470D01*
X220891987Y-172901984D01*
X220883432Y-172894927D01*
X220874530Y-172888324D01*
X220865311Y-172882202D01*
X220855800Y-172876585D01*
X220846028Y-172871499D01*
X220836610Y-172867283D01*
X220827023Y-172863671D01*
X220817284Y-172860615D01*
X220807411Y-172858072D01*
X220797419Y-172855994D01*
X220787326Y-172854336D01*
X220777150Y-172853053D01*
X220766906Y-172852100D01*
X220756613Y-172851429D01*
X220746286Y-172850996D01*
X220725603Y-172850660D01*
X220684591Y-172850830D01*
X219437121Y-172850830D01*
X219398430Y-172850448D01*
X219379007Y-172850679D01*
X219369318Y-172851038D01*
X219359661Y-172851613D01*
X219350047Y-172852442D01*
X219340489Y-172853567D01*
X219330998Y-172855025D01*
X219321588Y-172856857D01*
X219312269Y-172859103D01*
X219303054Y-172861801D01*
X219293956Y-172864992D01*
X219284986Y-172868715D01*
X219279717Y-172871196D01*
X219274536Y-172873858D01*
X219269444Y-172876692D01*
X219264441Y-172879689D01*
X219259530Y-172882838D01*
X219254710Y-172886132D01*
X219249984Y-172889560D01*
X219245351Y-172893114D01*
X219240814Y-172896783D01*
X219236374Y-172900559D01*
X219232030Y-172904433D01*
X219227785Y-172908394D01*
X219223640Y-172912434D01*
X219219596Y-172916544D01*
X219215653Y-172920714D01*
X219211813Y-172924934D01*
X219206328Y-172931417D01*
X219201270Y-172938085D01*
X219196622Y-172944929D01*
X219192366Y-172951938D01*
X219188488Y-172959105D01*
X219184969Y-172966418D01*
X219178946Y-172981450D01*
X219174165Y-172996958D01*
X219170493Y-173012867D01*
X219167799Y-173029103D01*
X219165950Y-173045591D01*
X219164814Y-173062254D01*
X219164259Y-173079019D01*
X217047500Y-173079019D01*
X217047500Y-172850417D01*
X217048189Y-172823186D01*
X217050232Y-172796313D01*
X217053598Y-172769830D01*
X217058251Y-172743772D01*
X217064160Y-172718171D01*
X217071291Y-172693060D01*
X217079610Y-172668472D01*
X217089085Y-172644442D01*
X217099682Y-172621002D01*
X217111368Y-172598186D01*
X217124110Y-172576026D01*
X217137874Y-172554556D01*
X217152628Y-172533809D01*
X217168337Y-172513819D01*
X217184969Y-172494618D01*
X217202491Y-172476240D01*
X217220868Y-172458719D01*
X217240069Y-172442087D01*
X217260059Y-172426378D01*
X217280806Y-172411624D01*
X217302276Y-172397860D01*
X217324436Y-172385118D01*
X217347252Y-172373432D01*
X217370692Y-172362835D01*
X217394723Y-172353360D01*
X217419310Y-172345041D01*
X217444421Y-172337910D01*
X217470022Y-172332001D01*
X217496081Y-172327347D01*
X217522563Y-172323982D01*
X217549436Y-172321939D01*
X217576667Y-172321250D01*
X220963333Y-172321250D01*
X220990564Y-172321939D01*
X221017438Y-172323982D01*
X221043920Y-172327347D01*
X221069979Y-172332001D01*
X221095580Y-172337910D01*
X221120691Y-172345041D01*
X221145278Y-172353360D01*
X221169309Y-172362835D01*
X221192749Y-172373432D01*
X221215565Y-172385118D01*
X221237725Y-172397860D01*
X221259195Y-172411624D01*
X221279942Y-172426378D01*
X221299932Y-172442087D01*
X221319133Y-172458719D01*
X221337511Y-172476240D01*
X221355032Y-172494618D01*
X221371664Y-172513819D01*
X221387373Y-172533809D01*
X221402127Y-172554556D01*
X221415891Y-172576026D01*
X221428632Y-172598186D01*
X221440318Y-172621002D01*
X221450915Y-172644442D01*
X221460390Y-172668472D01*
X221468710Y-172693060D01*
X221475840Y-172718171D01*
X221481749Y-172743772D01*
X221486403Y-172769830D01*
X221489768Y-172796313D01*
X221491811Y-172823186D01*
X221492500Y-172850417D01*
X221492500Y-174420982D01*
X221492500Y-174649583D01*
G37*
G36*
X228156883Y-173822870D02*
G01*
X228151366Y-173895428D01*
X228142280Y-173966931D01*
X228129715Y-174037290D01*
X228113761Y-174106414D01*
X228094508Y-174174213D01*
X228072046Y-174240599D01*
X228046464Y-174305481D01*
X228017852Y-174368769D01*
X227986300Y-174430374D01*
X227951897Y-174490206D01*
X227914734Y-174548175D01*
X227874900Y-174604191D01*
X227832485Y-174658165D01*
X227787579Y-174710006D01*
X227740271Y-174759626D01*
X227690651Y-174806934D01*
X227638810Y-174851840D01*
X227584836Y-174894255D01*
X227528820Y-174934089D01*
X227470851Y-174971252D01*
X227411019Y-175005655D01*
X227349414Y-175037207D01*
X227286126Y-175065819D01*
X227221244Y-175091401D01*
X227154858Y-175113863D01*
X227087059Y-175133116D01*
X227017935Y-175149070D01*
X226947576Y-175161635D01*
X226876073Y-175170721D01*
X226803515Y-175176238D01*
X226729992Y-175178097D01*
X225142492Y-175178097D01*
X225068969Y-175176238D01*
X224996412Y-175170721D01*
X224924909Y-175161635D01*
X224854551Y-175149070D01*
X224785427Y-175133116D01*
X224717627Y-175113863D01*
X224651242Y-175091401D01*
X224586360Y-175065819D01*
X224523072Y-175037207D01*
X224461467Y-175005654D01*
X224401635Y-174971252D01*
X224343667Y-174934089D01*
X224287650Y-174894255D01*
X224233677Y-174851840D01*
X224181835Y-174806933D01*
X224132215Y-174759626D01*
X224084907Y-174710006D01*
X224040001Y-174658164D01*
X223997586Y-174604191D01*
X223957752Y-174548175D01*
X223920588Y-174490206D01*
X223886186Y-174430374D01*
X223854633Y-174368769D01*
X223826021Y-174305481D01*
X223800439Y-174240599D01*
X223777976Y-174174213D01*
X223758723Y-174106414D01*
X223742770Y-174037290D01*
X223730205Y-173966931D01*
X223721119Y-173895428D01*
X223715601Y-173822870D01*
X223713742Y-173749347D01*
X224242909Y-173749347D01*
X224244079Y-173795639D01*
X224247553Y-173841324D01*
X224253274Y-173886345D01*
X224261185Y-173930644D01*
X224271230Y-173974167D01*
X224283352Y-174016856D01*
X224297495Y-174058654D01*
X224313603Y-174099505D01*
X224331618Y-174139354D01*
X224351484Y-174178142D01*
X224373145Y-174215814D01*
X224396544Y-174252313D01*
X224421625Y-174287582D01*
X224448331Y-174321566D01*
X224476605Y-174354207D01*
X224506391Y-174385448D01*
X224537633Y-174415235D01*
X224570275Y-174443509D01*
X224604258Y-174470215D01*
X224639528Y-174495296D01*
X224676026Y-174518695D01*
X224713698Y-174540355D01*
X224752487Y-174560222D01*
X224792335Y-174578237D01*
X224833186Y-174594344D01*
X224874984Y-174608487D01*
X224917673Y-174620609D01*
X224961195Y-174630654D01*
X225005495Y-174638565D01*
X225050515Y-174644286D01*
X225096200Y-174647760D01*
X225142492Y-174648930D01*
X225188784Y-174647760D01*
X225234469Y-174644286D01*
X225279489Y-174638565D01*
X225323789Y-174630654D01*
X225367311Y-174620609D01*
X225410000Y-174608487D01*
X225451798Y-174594344D01*
X225492650Y-174578237D01*
X225532498Y-174560222D01*
X225571286Y-174540355D01*
X225608958Y-174518695D01*
X225645457Y-174495296D01*
X225680726Y-174470215D01*
X225714710Y-174443509D01*
X225747351Y-174415235D01*
X225778593Y-174385448D01*
X225808379Y-174354207D01*
X225836654Y-174321566D01*
X225863359Y-174287582D01*
X225888440Y-174252313D01*
X225911839Y-174215814D01*
X225933500Y-174178142D01*
X225953366Y-174139354D01*
X225971381Y-174099505D01*
X225987489Y-174058654D01*
X226001632Y-174016856D01*
X226013754Y-173974167D01*
X226023799Y-173930644D01*
X226031710Y-173886345D01*
X226037431Y-173841324D01*
X226040905Y-173795639D01*
X226041709Y-173763814D01*
X226571242Y-173763814D01*
X226571296Y-173766506D01*
X226571457Y-173769137D01*
X226571725Y-173771705D01*
X226572101Y-173774212D01*
X226572585Y-173776657D01*
X226573175Y-173779041D01*
X226573873Y-173781363D01*
X226574679Y-173783623D01*
X226575592Y-173785821D01*
X226576612Y-173787957D01*
X226577740Y-173790031D01*
X226578975Y-173792043D01*
X226580318Y-173793993D01*
X226581768Y-173795881D01*
X226583325Y-173797706D01*
X226584990Y-173799470D01*
X226586741Y-173801150D01*
X226588556Y-173802721D01*
X226590432Y-173804183D01*
X226592370Y-173805537D01*
X226594371Y-173806782D01*
X226596433Y-173807918D01*
X226598557Y-173808946D01*
X226600743Y-173809865D01*
X226602990Y-173810676D01*
X226605299Y-173811379D01*
X226607669Y-173811973D01*
X226610100Y-173812459D01*
X226612592Y-173812838D01*
X226615145Y-173813107D01*
X226617759Y-173813269D01*
X226620433Y-173813323D01*
X226968636Y-173813323D01*
X226968636Y-174176091D01*
X226968699Y-174178782D01*
X226968884Y-174181412D01*
X226969191Y-174183980D01*
X226969621Y-174186487D01*
X226970173Y-174188932D01*
X226970847Y-174191316D01*
X226971644Y-174193637D01*
X226972563Y-174195898D01*
X226973606Y-174198096D01*
X226974770Y-174200232D01*
X226976058Y-174202307D01*
X226977469Y-174204319D01*
X226979002Y-174206270D01*
X226980659Y-174208158D01*
X226982438Y-174209984D01*
X226984341Y-174211748D01*
X226986086Y-174213426D01*
X226987877Y-174214996D01*
X226989716Y-174216457D01*
X226991602Y-174217810D01*
X226993535Y-174219055D01*
X226995514Y-174220191D01*
X226997540Y-174221219D01*
X226999612Y-174222138D01*
X227001730Y-174222949D01*
X227003893Y-174223652D01*
X227006103Y-174224246D01*
X227008358Y-174224733D01*
X227010658Y-174225111D01*
X227013003Y-174225381D01*
X227015393Y-174225543D01*
X227017827Y-174225597D01*
X227179060Y-174225597D01*
X227181734Y-174225543D01*
X227184347Y-174225381D01*
X227186900Y-174225111D01*
X227189392Y-174224733D01*
X227191824Y-174224246D01*
X227194194Y-174223652D01*
X227196503Y-174222949D01*
X227198751Y-174222138D01*
X227200938Y-174221219D01*
X227203063Y-174220191D01*
X227205126Y-174219055D01*
X227207127Y-174217811D01*
X227209066Y-174216458D01*
X227210943Y-174214996D01*
X227212758Y-174213426D01*
X227214510Y-174211748D01*
X227216175Y-174209984D01*
X227217733Y-174208158D01*
X227219183Y-174206270D01*
X227220526Y-174204319D01*
X227221760Y-174202307D01*
X227222887Y-174200232D01*
X227223907Y-174198096D01*
X227224819Y-174195898D01*
X227225624Y-174193637D01*
X227226321Y-174191316D01*
X227226912Y-174188932D01*
X227227395Y-174186487D01*
X227227771Y-174183980D01*
X227228039Y-174181412D01*
X227228201Y-174178782D01*
X227228256Y-174176091D01*
X227228256Y-173813323D01*
X227578416Y-173813323D01*
X227581098Y-173813269D01*
X227583735Y-173813107D01*
X227586326Y-173812838D01*
X227588872Y-173812459D01*
X227591372Y-173811973D01*
X227593827Y-173811379D01*
X227596235Y-173810676D01*
X227598598Y-173809865D01*
X227600914Y-173808946D01*
X227603185Y-173807918D01*
X227605408Y-173806782D01*
X227607586Y-173805537D01*
X227609717Y-173804183D01*
X227611801Y-173802721D01*
X227613839Y-173801150D01*
X227615830Y-173799470D01*
X227617495Y-173797706D01*
X227619052Y-173795881D01*
X227620502Y-173793993D01*
X227621844Y-173792043D01*
X227623080Y-173790031D01*
X227624207Y-173787957D01*
X227625227Y-173785821D01*
X227626140Y-173783623D01*
X227626945Y-173781363D01*
X227627643Y-173779041D01*
X227628234Y-173776657D01*
X227628717Y-173774212D01*
X227629092Y-173771705D01*
X227629361Y-173769137D01*
X227629522Y-173766506D01*
X227629575Y-173763814D01*
X227629575Y-173619119D01*
X227629521Y-173616427D01*
X227629360Y-173613798D01*
X227629091Y-173611229D01*
X227628715Y-173608723D01*
X227628232Y-173606278D01*
X227627642Y-173603896D01*
X227626944Y-173601574D01*
X227626139Y-173599315D01*
X227625227Y-173597118D01*
X227624207Y-173594982D01*
X227623079Y-173592908D01*
X227621844Y-173590895D01*
X227620502Y-173588945D01*
X227619052Y-173587056D01*
X227617495Y-173585229D01*
X227615830Y-173583464D01*
X227613839Y-173581784D01*
X227611801Y-173580213D01*
X227609717Y-173578752D01*
X227607586Y-173577399D01*
X227605408Y-173576154D01*
X227603185Y-173575019D01*
X227600914Y-173573992D01*
X227598598Y-173573074D01*
X227596235Y-173572264D01*
X227593827Y-173571562D01*
X227591372Y-173570969D01*
X227588872Y-173570483D01*
X227586326Y-173570106D01*
X227583735Y-173569836D01*
X227581098Y-173569675D01*
X227578416Y-173569621D01*
X227228256Y-173569621D01*
X227228256Y-173216773D01*
X227228201Y-173214081D01*
X227228039Y-173211451D01*
X227227771Y-173208882D01*
X227227395Y-173206375D01*
X227226912Y-173203930D01*
X227226321Y-173201546D01*
X227225624Y-173199225D01*
X227224819Y-173196965D01*
X227223907Y-173194767D01*
X227222887Y-173192631D01*
X227221760Y-173190556D01*
X227220526Y-173188544D01*
X227219183Y-173186594D01*
X227217733Y-173184707D01*
X227216175Y-173182881D01*
X227214510Y-173181117D01*
X227212758Y-173179437D01*
X227210943Y-173177866D01*
X227209066Y-173176404D01*
X227207127Y-173175050D01*
X227205126Y-173173806D01*
X227203063Y-173172669D01*
X227200938Y-173171641D01*
X227198751Y-173170722D01*
X227196503Y-173169911D01*
X227194194Y-173169208D01*
X227191824Y-173168614D01*
X227189392Y-173168128D01*
X227186900Y-173167750D01*
X227184347Y-173167480D01*
X227181734Y-173167318D01*
X227179060Y-173167264D01*
X227017827Y-173167264D01*
X227015393Y-173167318D01*
X227013003Y-173167480D01*
X227010658Y-173167750D01*
X227008358Y-173168128D01*
X227006103Y-173168614D01*
X227003893Y-173169208D01*
X227001730Y-173169911D01*
X226999612Y-173170722D01*
X226997540Y-173171641D01*
X226995514Y-173172669D01*
X226993535Y-173173806D01*
X226991602Y-173175050D01*
X226989716Y-173176404D01*
X226987877Y-173177866D01*
X226986086Y-173179437D01*
X226984341Y-173181117D01*
X226982438Y-173182881D01*
X226980659Y-173184707D01*
X226979002Y-173186594D01*
X226977469Y-173188544D01*
X226976058Y-173190556D01*
X226974770Y-173192631D01*
X226973606Y-173194767D01*
X226972563Y-173196965D01*
X226971644Y-173199225D01*
X226970847Y-173201546D01*
X226970173Y-173203930D01*
X226969621Y-173206375D01*
X226969191Y-173208882D01*
X226968884Y-173211451D01*
X226968699Y-173214081D01*
X226968636Y-173216773D01*
X226968636Y-173569621D01*
X226620433Y-173569621D01*
X226617759Y-173569675D01*
X226615145Y-173569836D01*
X226612592Y-173570106D01*
X226610100Y-173570483D01*
X226607669Y-173570969D01*
X226605299Y-173571562D01*
X226602990Y-173572264D01*
X226600743Y-173573074D01*
X226598557Y-173573992D01*
X226596433Y-173575019D01*
X226594371Y-173576154D01*
X226592370Y-173577399D01*
X226590432Y-173578752D01*
X226588556Y-173580213D01*
X226586741Y-173581784D01*
X226584990Y-173583464D01*
X226583325Y-173585229D01*
X226581768Y-173587056D01*
X226580318Y-173588945D01*
X226578975Y-173590895D01*
X226577740Y-173592908D01*
X226576612Y-173594982D01*
X226575592Y-173597118D01*
X226574679Y-173599315D01*
X226573873Y-173601574D01*
X226573175Y-173603896D01*
X226572585Y-173606278D01*
X226572101Y-173608723D01*
X226571725Y-173611229D01*
X226571457Y-173613798D01*
X226571296Y-173616427D01*
X226571242Y-173619119D01*
X226571242Y-173749347D01*
X226571242Y-173763814D01*
X226041709Y-173763814D01*
X226042075Y-173749347D01*
X226040905Y-173703055D01*
X226037431Y-173657370D01*
X226031710Y-173612350D01*
X226023799Y-173568050D01*
X226013754Y-173524528D01*
X226001632Y-173481839D01*
X225987489Y-173440041D01*
X225971381Y-173399190D01*
X225953366Y-173359341D01*
X225933500Y-173320553D01*
X225911839Y-173282881D01*
X225888440Y-173246382D01*
X225863359Y-173211113D01*
X225836654Y-173177129D01*
X225808379Y-173144488D01*
X225778593Y-173113246D01*
X225747351Y-173083460D01*
X225714710Y-173055186D01*
X225680726Y-173028480D01*
X225645457Y-173003399D01*
X225608958Y-172980000D01*
X225571286Y-172958339D01*
X225532498Y-172938473D01*
X225492650Y-172920458D01*
X225451798Y-172904350D01*
X225410000Y-172890207D01*
X225367311Y-172878085D01*
X225323789Y-172868040D01*
X225279489Y-172860129D01*
X225234469Y-172854408D01*
X225188784Y-172850934D01*
X225142492Y-172849764D01*
X225096200Y-172850934D01*
X225050515Y-172854408D01*
X225005495Y-172860129D01*
X224961195Y-172868040D01*
X224917673Y-172878085D01*
X224874984Y-172890207D01*
X224833186Y-172904350D01*
X224792335Y-172920458D01*
X224752487Y-172938473D01*
X224713698Y-172958339D01*
X224676026Y-172980000D01*
X224639528Y-173003399D01*
X224604258Y-173028480D01*
X224570275Y-173055186D01*
X224537633Y-173083460D01*
X224506391Y-173113246D01*
X224476605Y-173144488D01*
X224448331Y-173177129D01*
X224421625Y-173211113D01*
X224396544Y-173246382D01*
X224373145Y-173282881D01*
X224351484Y-173320553D01*
X224331618Y-173359341D01*
X224313603Y-173399190D01*
X224297495Y-173440041D01*
X224283352Y-173481839D01*
X224271230Y-173524528D01*
X224261185Y-173568050D01*
X224253274Y-173612350D01*
X224247553Y-173657370D01*
X224244079Y-173703055D01*
X224242909Y-173749347D01*
X223713742Y-173749347D01*
X223715601Y-173675824D01*
X223721119Y-173603266D01*
X223730205Y-173531764D01*
X223742770Y-173461406D01*
X223758723Y-173392282D01*
X223777976Y-173324482D01*
X223800439Y-173258097D01*
X223826021Y-173193215D01*
X223854633Y-173129927D01*
X223886186Y-173068322D01*
X223920588Y-173008490D01*
X223957752Y-172950522D01*
X223997586Y-172894505D01*
X224040001Y-172840531D01*
X224084907Y-172788690D01*
X224132215Y-172739070D01*
X224181835Y-172691762D01*
X224233677Y-172646856D01*
X224287650Y-172604441D01*
X224343667Y-172564606D01*
X224401635Y-172527443D01*
X224461467Y-172493040D01*
X224523072Y-172461488D01*
X224586360Y-172432876D01*
X224651242Y-172407294D01*
X224717627Y-172384831D01*
X224785427Y-172365578D01*
X224854551Y-172349624D01*
X224924909Y-172337060D01*
X224996412Y-172327974D01*
X225068969Y-172322456D01*
X225142492Y-172320597D01*
X226729992Y-172320597D01*
X226803515Y-172322456D01*
X226876073Y-172327974D01*
X226947576Y-172337060D01*
X227017935Y-172349624D01*
X227087059Y-172365578D01*
X227154858Y-172384831D01*
X227221244Y-172407294D01*
X227286126Y-172432876D01*
X227349414Y-172461488D01*
X227411019Y-172493040D01*
X227470851Y-172527443D01*
X227528820Y-172564606D01*
X227584836Y-172604441D01*
X227638810Y-172646856D01*
X227690651Y-172691762D01*
X227740271Y-172739070D01*
X227787579Y-172788690D01*
X227832485Y-172840531D01*
X227874900Y-172894505D01*
X227914734Y-172950522D01*
X227951897Y-173008490D01*
X227986300Y-173068322D01*
X228017852Y-173129927D01*
X228046464Y-173193215D01*
X228072046Y-173258097D01*
X228094508Y-173324482D01*
X228113761Y-173392282D01*
X228129715Y-173461406D01*
X228142280Y-173531764D01*
X228151366Y-173603266D01*
X228156883Y-173675824D01*
X228158742Y-173749347D01*
X228158376Y-173763814D01*
X228156883Y-173822870D01*
G37*
%TO.C,G\u002A\u002A\u002A*%
G36*
X252952886Y-140571116D02*
G01*
X252959506Y-140618712D01*
X252965029Y-140692888D01*
X252968404Y-140778890D01*
X252968674Y-140792728D01*
X252971406Y-140958066D01*
X253116979Y-141122716D01*
X253183847Y-141199639D01*
X253223214Y-141252912D01*
X253232522Y-141286950D01*
X253209213Y-141306172D01*
X253150730Y-141314994D01*
X253054516Y-141317831D01*
X253003738Y-141318289D01*
X252819639Y-141319742D01*
X252659419Y-141464412D01*
X252592364Y-141524154D01*
X252537089Y-141571890D01*
X252500417Y-141601816D01*
X252489268Y-141609083D01*
X252484000Y-141589843D01*
X252477359Y-141537708D01*
X252470263Y-141461052D01*
X252464668Y-141384541D01*
X252450000Y-141160000D01*
X252303278Y-140997031D01*
X252156556Y-140834063D01*
X252387409Y-140816346D01*
X252618263Y-140798629D01*
X252779047Y-140656736D01*
X252939831Y-140514842D01*
X252952886Y-140571116D01*
G37*
G36*
X253157615Y-131072500D02*
G01*
X253200876Y-131110510D01*
X253260744Y-131167023D01*
X253331143Y-131236448D01*
X253340656Y-131246033D01*
X253526230Y-131433479D01*
X253789746Y-131426871D01*
X253888634Y-131425183D01*
X253970599Y-131425290D01*
X254027899Y-131427070D01*
X254052792Y-131430402D01*
X254053252Y-131431028D01*
X254039387Y-131448787D01*
X254001502Y-131489605D01*
X253945158Y-131547664D01*
X253875912Y-131617150D01*
X253865598Y-131627367D01*
X253677952Y-131812941D01*
X253685352Y-132086781D01*
X253687297Y-132187724D01*
X253687426Y-132271894D01*
X253685841Y-132331697D01*
X253682643Y-132359538D01*
X253681687Y-132360622D01*
X253663765Y-132346825D01*
X253622599Y-132309086D01*
X253563981Y-132252879D01*
X253493705Y-132183678D01*
X253480311Y-132170311D01*
X253290000Y-131980000D01*
X253015438Y-131985729D01*
X252740876Y-131991458D01*
X252937215Y-131793283D01*
X253133553Y-131595107D01*
X253126272Y-131326847D01*
X253124865Y-131227022D01*
X253126178Y-131144044D01*
X253129903Y-131085582D01*
X253135731Y-131059308D01*
X253137036Y-131058587D01*
X253157615Y-131072500D01*
G37*
G36*
X250819074Y-134742325D02*
G01*
X250849081Y-134788236D01*
X250889787Y-134855850D01*
X250930493Y-134926909D01*
X251043520Y-135128414D01*
X251249405Y-135171372D01*
X251339355Y-135190506D01*
X251415912Y-135207466D01*
X251468825Y-135219945D01*
X251485598Y-135224531D01*
X251481836Y-135238068D01*
X251445449Y-135267255D01*
X251380686Y-135309065D01*
X251306424Y-135352308D01*
X251227755Y-135395814D01*
X251170774Y-135429097D01*
X251130815Y-135459645D01*
X251103213Y-135494943D01*
X251083304Y-135542478D01*
X251066422Y-135609736D01*
X251047904Y-135704203D01*
X251030615Y-135794931D01*
X251015729Y-135861450D01*
X251001498Y-135908080D01*
X250991744Y-135924101D01*
X250976705Y-135907179D01*
X250946458Y-135861279D01*
X250905603Y-135793703D01*
X250865263Y-135723409D01*
X250752604Y-135522716D01*
X250529878Y-135478293D01*
X250438859Y-135459380D01*
X250363685Y-135442329D01*
X250313115Y-135429219D01*
X250296113Y-135422831D01*
X250308493Y-135409124D01*
X250350494Y-135380367D01*
X250415268Y-135340966D01*
X250484396Y-135301689D01*
X250566927Y-135254134D01*
X250635979Y-135210665D01*
X250683309Y-135176702D01*
X250700000Y-135160000D01*
X250710618Y-135126887D01*
X250725883Y-135063622D01*
X250743358Y-134980777D01*
X250753734Y-134926909D01*
X250770768Y-134841898D01*
X250786599Y-134774612D01*
X250799050Y-134733721D01*
X250804326Y-134725403D01*
X250819074Y-134742325D01*
G37*
G36*
X262580063Y-136003988D02*
G01*
X262621973Y-136042936D01*
X262682779Y-136102007D01*
X262757546Y-136176420D01*
X262826601Y-136246337D01*
X263077990Y-136502731D01*
X263434580Y-136455600D01*
X263551052Y-136440700D01*
X263652602Y-136428650D01*
X263732444Y-136420178D01*
X263783795Y-136416013D01*
X263799935Y-136416364D01*
X263788607Y-136432415D01*
X263751774Y-136472133D01*
X263694024Y-136530846D01*
X263619943Y-136603883D01*
X263543221Y-136677881D01*
X263277743Y-136931503D01*
X263324559Y-137288915D01*
X263339240Y-137405620D01*
X263350904Y-137507499D01*
X263358865Y-137587751D01*
X263362440Y-137639571D01*
X263361551Y-137656151D01*
X263344937Y-137645127D01*
X263304981Y-137608446D01*
X263246437Y-137550770D01*
X263174055Y-137476761D01*
X263107222Y-137406640D01*
X263011458Y-137306557D01*
X262938543Y-137234211D01*
X262884360Y-137186017D01*
X262844789Y-137158388D01*
X262815711Y-137147737D01*
X262809368Y-137147306D01*
X262770412Y-137150082D01*
X262699362Y-137157716D01*
X262605035Y-137169166D01*
X262496250Y-137183393D01*
X262449744Y-137189756D01*
X262341982Y-137203889D01*
X262249304Y-137214524D01*
X262179127Y-137220929D01*
X262138869Y-137222372D01*
X262132355Y-137221091D01*
X262142847Y-137203917D01*
X262178811Y-137163089D01*
X262235713Y-137103379D01*
X262309017Y-137029561D01*
X262383754Y-136956469D01*
X262646268Y-136702961D01*
X262597510Y-136346452D01*
X262582415Y-136230825D01*
X262570735Y-136130848D01*
X262563124Y-136053079D01*
X262560234Y-136004077D01*
X262561983Y-135989942D01*
X262580063Y-136003988D01*
G37*
G36*
X251717710Y-136999148D02*
G01*
X251733055Y-137031339D01*
X251737904Y-137043117D01*
X251759665Y-137095271D01*
X251793233Y-137173980D01*
X251833770Y-137267966D01*
X251870627Y-137352661D01*
X251970000Y-137580000D01*
X252216167Y-137638792D01*
X252353764Y-137671752D01*
X252456015Y-137696668D01*
X252527802Y-137715013D01*
X252574003Y-137728258D01*
X252599498Y-137737876D01*
X252609167Y-137745338D01*
X252607890Y-137752115D01*
X252604467Y-137755909D01*
X252579934Y-137769937D01*
X252524403Y-137796682D01*
X252444992Y-137832867D01*
X252348816Y-137875211D01*
X252297741Y-137897210D01*
X252009144Y-138020615D01*
X251936065Y-138342808D01*
X251910570Y-138451743D01*
X251887261Y-138544934D01*
X251867951Y-138615614D01*
X251854454Y-138657013D01*
X251849701Y-138665015D01*
X251836715Y-138647242D01*
X251811273Y-138598877D01*
X251777086Y-138527372D01*
X251739039Y-138442856D01*
X251696991Y-138346360D01*
X251658041Y-138255968D01*
X251626998Y-138182902D01*
X251610734Y-138143577D01*
X251598709Y-138114362D01*
X251585546Y-138091793D01*
X251565530Y-138073561D01*
X251532945Y-138057354D01*
X251482076Y-138040861D01*
X251407209Y-138021769D01*
X251302630Y-137997769D01*
X251185732Y-137971700D01*
X251087898Y-137948958D01*
X251006555Y-137928240D01*
X250949207Y-137911595D01*
X250923359Y-137901068D01*
X250922627Y-137899922D01*
X250940623Y-137887759D01*
X250990370Y-137862596D01*
X251065511Y-137827437D01*
X251159686Y-137785286D01*
X251229355Y-137755019D01*
X251536082Y-137623286D01*
X251603626Y-137322636D01*
X251634028Y-137188965D01*
X251657537Y-137092064D01*
X251675906Y-137028282D01*
X251690889Y-136993969D01*
X251704239Y-136985474D01*
X251717710Y-136999148D01*
G37*
G36*
X256568981Y-133308865D02*
G01*
X256564036Y-133328398D01*
X256548987Y-133366099D01*
X256522142Y-133426752D01*
X256481805Y-133515141D01*
X256426281Y-133636050D01*
X256421346Y-133646804D01*
X256287630Y-133938261D01*
X256481222Y-134235820D01*
X256544678Y-134334117D01*
X256599425Y-134420381D01*
X256641776Y-134488685D01*
X256668046Y-134533102D01*
X256675008Y-134547442D01*
X256657493Y-134543618D01*
X256608801Y-134524274D01*
X256534906Y-134492006D01*
X256441784Y-134449410D01*
X256353893Y-134407938D01*
X256248114Y-134357701D01*
X256155572Y-134314355D01*
X256082572Y-134280806D01*
X256035418Y-134259956D01*
X256020512Y-134254371D01*
X255999679Y-134264802D01*
X255950356Y-134293532D01*
X255878952Y-134336711D01*
X255791876Y-134390492D01*
X255746771Y-134418707D01*
X255627011Y-134493333D01*
X255538087Y-134547110D01*
X255476302Y-134581899D01*
X255437956Y-134599561D01*
X255419349Y-134601958D01*
X255416783Y-134590950D01*
X255419315Y-134583467D01*
X255431770Y-134555180D01*
X255458200Y-134496604D01*
X255495305Y-134415005D01*
X255539787Y-134317645D01*
X255565122Y-134262365D01*
X255698940Y-133970686D01*
X255506296Y-133673828D01*
X255443756Y-133576148D01*
X255390784Y-133490898D01*
X255350855Y-133423877D01*
X255327441Y-133380885D01*
X255322948Y-133367677D01*
X255343718Y-133373009D01*
X255395458Y-133393608D01*
X255471911Y-133426773D01*
X255566821Y-133469807D01*
X255651121Y-133509191D01*
X255970000Y-133660000D01*
X256235632Y-133493175D01*
X256331324Y-133433684D01*
X256417077Y-133381500D01*
X256485687Y-133340922D01*
X256529946Y-133316252D01*
X256540152Y-133311426D01*
X256555345Y-133305163D01*
X256565519Y-133302714D01*
X256568981Y-133308865D01*
G37*
G36*
X251531694Y-132934680D02*
G01*
X251553165Y-132948498D01*
X251607237Y-132984266D01*
X251692222Y-133040850D01*
X251806431Y-133117118D01*
X251948177Y-133211937D01*
X252115772Y-133324176D01*
X252307526Y-133452700D01*
X252521753Y-133596379D01*
X252756763Y-133754079D01*
X253010868Y-133924667D01*
X253282380Y-134107011D01*
X253569612Y-134299978D01*
X253870874Y-134502436D01*
X254184478Y-134713253D01*
X254508737Y-134931295D01*
X254841962Y-135155430D01*
X254862784Y-135169437D01*
X255196270Y-135393717D01*
X255520781Y-135611832D01*
X255834638Y-135822659D01*
X256136161Y-136025073D01*
X256423671Y-136217952D01*
X256695489Y-136400173D01*
X256949935Y-136570612D01*
X257185330Y-136728147D01*
X257399996Y-136871654D01*
X257592252Y-137000009D01*
X257760419Y-137112090D01*
X257902818Y-137206774D01*
X258017770Y-137282936D01*
X258103595Y-137339455D01*
X258158615Y-137375206D01*
X258181150Y-137389067D01*
X258181467Y-137389188D01*
X258203251Y-137393220D01*
X258220274Y-137389506D01*
X258232517Y-137374435D01*
X258239962Y-137344397D01*
X258242591Y-137295779D01*
X258240384Y-137224969D01*
X258233324Y-137128358D01*
X258221392Y-137002332D01*
X258204569Y-136843280D01*
X258182837Y-136647591D01*
X258177424Y-136599514D01*
X258155598Y-136405138D01*
X258138270Y-136247742D01*
X258125189Y-136123243D01*
X258116107Y-136027559D01*
X258110775Y-135956609D01*
X258108943Y-135906310D01*
X258110363Y-135872581D01*
X258114786Y-135851340D01*
X258121962Y-135838504D01*
X258130513Y-135830805D01*
X258169491Y-135808993D01*
X258189151Y-135803937D01*
X258207838Y-135816333D01*
X258257349Y-135852558D01*
X258335800Y-135911174D01*
X258441304Y-135990742D01*
X258571977Y-136089821D01*
X258725932Y-136206971D01*
X258901284Y-136340755D01*
X259096148Y-136489731D01*
X259308638Y-136652460D01*
X259536868Y-136827503D01*
X259778952Y-137013420D01*
X260033007Y-137208771D01*
X260297144Y-137412117D01*
X260474094Y-137548473D01*
X260860594Y-137846732D01*
X261214089Y-138120182D01*
X261534614Y-138368848D01*
X261822205Y-138592758D01*
X262076895Y-138791939D01*
X262298720Y-138966420D01*
X262487714Y-139116226D01*
X262643913Y-139241387D01*
X262767351Y-139341929D01*
X262858062Y-139417879D01*
X262916083Y-139469265D01*
X262925469Y-139478262D01*
X263142284Y-139719934D01*
X263325934Y-139984158D01*
X263475467Y-140267585D01*
X263589929Y-140566867D01*
X263668369Y-140878655D01*
X263709835Y-141199598D01*
X263713372Y-141526349D01*
X263678030Y-141855559D01*
X263646758Y-142014434D01*
X263561050Y-142343913D01*
X263459571Y-142640134D01*
X263339089Y-142909225D01*
X263196372Y-143157313D01*
X263028187Y-143390527D01*
X262831302Y-143614995D01*
X262768852Y-143678852D01*
X262540176Y-143889783D01*
X262306451Y-144068126D01*
X262060229Y-144218105D01*
X261794064Y-144343945D01*
X261500509Y-144449872D01*
X261314692Y-144503869D01*
X261093075Y-144556057D01*
X260870026Y-144594906D01*
X260654467Y-144619499D01*
X260455323Y-144628920D01*
X260281517Y-144622253D01*
X260226077Y-144615623D01*
X260180408Y-144608944D01*
X260108719Y-144598488D01*
X260025894Y-144586425D01*
X260019405Y-144585480D01*
X259748249Y-144527132D01*
X259474492Y-144432446D01*
X259205455Y-144305212D01*
X258948461Y-144149216D01*
X258710830Y-143968248D01*
X258563249Y-143832069D01*
X258532587Y-143797833D01*
X258478886Y-143733732D01*
X258403620Y-143641656D01*
X258308261Y-143523495D01*
X258194282Y-143381137D01*
X258063156Y-143216473D01*
X257916356Y-143031392D01*
X257755355Y-142827783D01*
X257581625Y-142607537D01*
X257396640Y-142372542D01*
X257201872Y-142124687D01*
X256998795Y-141865864D01*
X256788880Y-141597960D01*
X256710462Y-141497754D01*
X257973352Y-141497754D01*
X257993211Y-141822574D01*
X258051356Y-142136388D01*
X258145632Y-142436612D01*
X258273889Y-142720665D01*
X258433974Y-142985965D01*
X258623734Y-143229930D01*
X258841018Y-143449978D01*
X259083673Y-143643527D01*
X259349548Y-143807995D01*
X259636489Y-143940800D01*
X259942344Y-144039361D01*
X260125346Y-144079415D01*
X260257471Y-144101531D01*
X260377100Y-144116400D01*
X260507963Y-144126817D01*
X260547997Y-144129212D01*
X260594715Y-144128661D01*
X260670801Y-144124326D01*
X260764544Y-144116978D01*
X260837337Y-144110162D01*
X261163972Y-144059294D01*
X261468808Y-143973826D01*
X261754387Y-143852564D01*
X262023253Y-143694315D01*
X262277949Y-143497884D01*
X262418004Y-143368136D01*
X262607072Y-143167965D01*
X262762954Y-142970226D01*
X262891959Y-142765153D01*
X263000395Y-142542978D01*
X263075013Y-142350790D01*
X263133003Y-142167512D01*
X263173302Y-141991603D01*
X263198077Y-141809460D01*
X263209494Y-141607479D01*
X263210868Y-141497754D01*
X263192023Y-141164134D01*
X263134761Y-140845759D01*
X263039146Y-140542781D01*
X262905237Y-140255355D01*
X262733098Y-139983634D01*
X262522791Y-139727770D01*
X262477426Y-139679828D01*
X262230736Y-139452678D01*
X261966623Y-139262925D01*
X261685806Y-139110877D01*
X261389005Y-138996839D01*
X261076939Y-138921118D01*
X260750329Y-138884020D01*
X260598087Y-138880008D01*
X260286101Y-138895531D01*
X259994022Y-138943467D01*
X259713874Y-139025713D01*
X259437683Y-139144169D01*
X259392796Y-139166884D01*
X259111959Y-139334527D01*
X258857765Y-139532275D01*
X258631988Y-139757213D01*
X258436401Y-140006429D01*
X258272778Y-140277009D01*
X258142893Y-140566042D01*
X258048520Y-140870614D01*
X257991433Y-141187813D01*
X257973352Y-141497754D01*
X256710462Y-141497754D01*
X256573602Y-141322867D01*
X256354432Y-141042472D01*
X256132845Y-140758666D01*
X255910311Y-140473337D01*
X255688306Y-140188377D01*
X255468301Y-139905674D01*
X255251768Y-139627117D01*
X255040183Y-139354597D01*
X254835016Y-139090002D01*
X254637741Y-138835223D01*
X254449831Y-138592148D01*
X254272758Y-138362667D01*
X254107996Y-138148671D01*
X253957017Y-137952047D01*
X253821295Y-137774687D01*
X253702302Y-137618479D01*
X253601511Y-137485312D01*
X253520394Y-137377077D01*
X253460426Y-137295663D01*
X253423078Y-137242959D01*
X253409827Y-137220877D01*
X253408484Y-137189828D01*
X253416145Y-137167300D01*
X253436838Y-137153512D01*
X253474588Y-137148680D01*
X253533421Y-137153022D01*
X253617365Y-137166757D01*
X253730446Y-137190103D01*
X253876691Y-137223278D01*
X254003203Y-137252998D01*
X254170319Y-137292045D01*
X254301452Y-137321402D01*
X254400623Y-137341794D01*
X254471849Y-137353945D01*
X254519149Y-137358580D01*
X254546543Y-137356423D01*
X254554767Y-137352453D01*
X254579725Y-137322701D01*
X254583929Y-137309591D01*
X254571781Y-137291043D01*
X254536312Y-137241388D01*
X254478986Y-137162602D01*
X254401266Y-137056658D01*
X254304614Y-136925529D01*
X254190495Y-136771191D01*
X254060371Y-136595616D01*
X253915707Y-136400779D01*
X253757963Y-136188654D01*
X253588606Y-135961214D01*
X253409096Y-135720434D01*
X253220898Y-135468288D01*
X253025476Y-135206750D01*
X252990879Y-135160479D01*
X252753170Y-134842432D01*
X252539228Y-134555840D01*
X252347929Y-134299158D01*
X252178151Y-134070839D01*
X252028772Y-133869339D01*
X251898670Y-133693111D01*
X251786721Y-133540609D01*
X251691803Y-133410287D01*
X251612794Y-133300599D01*
X251548572Y-133210001D01*
X251498013Y-133136945D01*
X251459995Y-133079886D01*
X251433397Y-133037278D01*
X251417094Y-133007576D01*
X251409965Y-132989232D01*
X251409659Y-132982890D01*
X251438086Y-132934476D01*
X251486062Y-132920366D01*
X251531694Y-132934680D01*
G37*
%TO.C,PW_L1*%
G36*
X197050564Y-172321939D02*
G01*
X197077437Y-172323982D01*
X197103919Y-172327347D01*
X197129978Y-172332001D01*
X197155579Y-172337910D01*
X197180690Y-172345040D01*
X197205277Y-172353360D01*
X197229308Y-172362835D01*
X197252748Y-172373432D01*
X197275564Y-172385118D01*
X197297724Y-172397859D01*
X197319194Y-172411623D01*
X197339941Y-172426377D01*
X197359931Y-172442086D01*
X197379132Y-172458718D01*
X197397509Y-172476239D01*
X197415031Y-172494617D01*
X197431663Y-172513818D01*
X197447372Y-172533808D01*
X197462126Y-172554555D01*
X197475890Y-172576025D01*
X197488632Y-172598185D01*
X197500318Y-172621001D01*
X197510915Y-172644441D01*
X197520390Y-172668472D01*
X197528709Y-172693059D01*
X197535840Y-172718170D01*
X197541749Y-172743771D01*
X197546402Y-172769830D01*
X197549768Y-172796312D01*
X197551811Y-172823186D01*
X197552500Y-172850417D01*
X197552500Y-174649583D01*
X197551811Y-174676814D01*
X197549768Y-174703687D01*
X197546402Y-174730170D01*
X197541749Y-174756228D01*
X197535840Y-174781829D01*
X197528709Y-174806940D01*
X197520390Y-174831528D01*
X197510915Y-174855558D01*
X197500318Y-174878998D01*
X197488632Y-174901814D01*
X197475890Y-174923974D01*
X197462126Y-174945444D01*
X197447372Y-174966191D01*
X197431663Y-174986181D01*
X197415031Y-175005382D01*
X197397509Y-175023760D01*
X197379132Y-175041281D01*
X197359931Y-175057913D01*
X197339941Y-175073622D01*
X197319194Y-175088376D01*
X197297724Y-175102140D01*
X197275564Y-175114882D01*
X197252748Y-175126568D01*
X197229308Y-175137165D01*
X197205277Y-175146640D01*
X197180690Y-175154959D01*
X197155579Y-175162090D01*
X197129978Y-175167999D01*
X197103919Y-175172653D01*
X197077437Y-175176018D01*
X197050564Y-175178061D01*
X197023333Y-175178750D01*
X193636667Y-175178750D01*
X193609436Y-175178061D01*
X193582562Y-175176018D01*
X193556080Y-175172653D01*
X193530021Y-175167999D01*
X193504420Y-175162090D01*
X193479309Y-175154959D01*
X193454722Y-175146640D01*
X193430691Y-175137165D01*
X193407251Y-175126568D01*
X193384435Y-175114882D01*
X193362275Y-175102140D01*
X193340805Y-175088376D01*
X193320058Y-175073622D01*
X193300068Y-175057913D01*
X193280867Y-175041281D01*
X193262489Y-175023760D01*
X193244968Y-175005382D01*
X193228336Y-174986181D01*
X193212627Y-174966191D01*
X193197873Y-174945444D01*
X193184109Y-174923974D01*
X193171368Y-174901814D01*
X193159682Y-174878998D01*
X193149085Y-174855558D01*
X193139610Y-174831528D01*
X193131290Y-174806940D01*
X193124160Y-174781829D01*
X193118251Y-174756228D01*
X193113597Y-174730170D01*
X193110232Y-174703687D01*
X193108189Y-174676814D01*
X193107500Y-174649583D01*
X193107500Y-173079018D01*
X193636762Y-173079018D01*
X193636865Y-173112552D01*
X193638217Y-173177528D01*
X193638217Y-174366289D01*
X193637768Y-174399092D01*
X193637527Y-174415668D01*
X193637562Y-174432272D01*
X193638085Y-174448838D01*
X193638597Y-174457087D01*
X193639311Y-174465302D01*
X193640254Y-174473475D01*
X193641454Y-174481598D01*
X193642936Y-174489662D01*
X193644728Y-174497660D01*
X193647635Y-174508038D01*
X193651195Y-174518242D01*
X193655380Y-174528246D01*
X193660162Y-174538024D01*
X193665513Y-174547551D01*
X193671406Y-174556802D01*
X193677812Y-174565750D01*
X193684703Y-174574371D01*
X193692053Y-174582640D01*
X193699832Y-174590530D01*
X193708013Y-174598016D01*
X193716568Y-174605073D01*
X193725470Y-174611676D01*
X193734689Y-174617798D01*
X193744200Y-174623415D01*
X193753972Y-174628501D01*
X193763390Y-174632717D01*
X193772977Y-174636329D01*
X193782716Y-174639385D01*
X193792589Y-174641928D01*
X193802581Y-174644006D01*
X193812674Y-174645664D01*
X193822850Y-174646947D01*
X193833094Y-174647900D01*
X193843387Y-174648571D01*
X193853714Y-174649004D01*
X193874397Y-174649340D01*
X193915409Y-174649170D01*
X195162879Y-174649170D01*
X195201570Y-174649552D01*
X195220993Y-174649321D01*
X195230682Y-174648962D01*
X195240339Y-174648387D01*
X195249953Y-174647558D01*
X195259511Y-174646433D01*
X195269002Y-174644975D01*
X195278412Y-174643143D01*
X195287731Y-174640897D01*
X195296946Y-174638199D01*
X195306044Y-174635008D01*
X195315014Y-174631285D01*
X195320283Y-174628804D01*
X195325464Y-174626142D01*
X195330556Y-174623308D01*
X195335559Y-174620311D01*
X195340470Y-174617162D01*
X195345290Y-174613868D01*
X195350016Y-174610440D01*
X195354649Y-174606886D01*
X195359186Y-174603217D01*
X195363626Y-174599441D01*
X195367970Y-174595567D01*
X195372215Y-174591606D01*
X195376360Y-174587566D01*
X195380404Y-174583456D01*
X195384347Y-174579286D01*
X195388187Y-174575066D01*
X195393672Y-174568583D01*
X195398730Y-174561915D01*
X195403378Y-174555071D01*
X195407634Y-174548062D01*
X195411512Y-174540895D01*
X195415031Y-174533582D01*
X195421054Y-174518550D01*
X195425835Y-174503042D01*
X195429507Y-174487133D01*
X195432201Y-174470897D01*
X195434050Y-174454409D01*
X195435186Y-174437746D01*
X195435741Y-174420981D01*
X195435639Y-174387449D01*
X195434288Y-174322474D01*
X195434288Y-173865760D01*
X195965000Y-173865760D01*
X195965055Y-173868093D01*
X195965218Y-173870372D01*
X195965488Y-173872598D01*
X195965865Y-173874769D01*
X195966349Y-173876888D01*
X195966941Y-173878953D01*
X195967639Y-173880964D01*
X195968445Y-173882921D01*
X195969358Y-173884825D01*
X195970377Y-173886676D01*
X195971505Y-173888473D01*
X195972739Y-173890216D01*
X195974080Y-173891906D01*
X195975529Y-173893542D01*
X195977085Y-173895124D01*
X195978748Y-173896653D01*
X195980499Y-173898113D01*
X195982313Y-173899479D01*
X195984190Y-173900752D01*
X195986128Y-173901932D01*
X195988129Y-173903018D01*
X195990191Y-173904011D01*
X195992315Y-173904909D01*
X195994501Y-173905714D01*
X195996748Y-173906424D01*
X195999057Y-173907040D01*
X196001427Y-173907562D01*
X196003858Y-173907989D01*
X196006350Y-173908322D01*
X196008903Y-173908560D01*
X196011517Y-173908702D01*
X196014191Y-173908750D01*
X196972174Y-173908750D01*
X196974856Y-173908702D01*
X196977493Y-173908560D01*
X196980084Y-173908322D01*
X196982630Y-173907989D01*
X196985130Y-173907562D01*
X196987585Y-173907040D01*
X196989993Y-173906424D01*
X196992356Y-173905714D01*
X196994672Y-173904909D01*
X196996942Y-173904011D01*
X196999166Y-173903018D01*
X197001344Y-173901932D01*
X197003474Y-173900752D01*
X197005558Y-173899479D01*
X197007595Y-173898113D01*
X197009585Y-173896653D01*
X197011248Y-173895124D01*
X197012804Y-173893542D01*
X197014253Y-173891906D01*
X197015594Y-173890216D01*
X197016828Y-173888473D01*
X197017955Y-173886676D01*
X197018975Y-173884825D01*
X197019888Y-173882921D01*
X197020694Y-173880964D01*
X197021392Y-173878953D01*
X197021984Y-173876888D01*
X197022468Y-173874769D01*
X197022845Y-173872598D01*
X197023115Y-173870372D01*
X197023278Y-173868093D01*
X197023333Y-173865760D01*
X197023333Y-173740073D01*
X197023278Y-173737740D01*
X197023115Y-173735461D01*
X197022845Y-173733236D01*
X197022468Y-173731064D01*
X197021984Y-173728945D01*
X197021392Y-173726881D01*
X197020694Y-173724869D01*
X197019888Y-173722912D01*
X197018975Y-173721008D01*
X197017955Y-173719157D01*
X197016828Y-173717361D01*
X197015594Y-173715617D01*
X197014253Y-173713928D01*
X197012804Y-173712292D01*
X197011248Y-173710709D01*
X197009585Y-173709180D01*
X197007595Y-173707720D01*
X197005558Y-173706354D01*
X197003474Y-173705081D01*
X197001344Y-173703901D01*
X196999166Y-173702815D01*
X196996942Y-173701822D01*
X196994672Y-173700924D01*
X196992356Y-173700119D01*
X196989993Y-173699409D01*
X196987585Y-173698793D01*
X196985130Y-173698271D01*
X196982630Y-173697844D01*
X196980084Y-173697511D01*
X196977493Y-173697274D01*
X196974856Y-173697131D01*
X196972174Y-173697083D01*
X196014191Y-173697083D01*
X196011517Y-173697131D01*
X196008903Y-173697274D01*
X196006350Y-173697511D01*
X196003858Y-173697844D01*
X196001427Y-173698271D01*
X195999057Y-173698793D01*
X195996748Y-173699409D01*
X195994501Y-173700119D01*
X195992315Y-173700924D01*
X195990191Y-173701822D01*
X195988129Y-173702815D01*
X195986128Y-173703901D01*
X195984190Y-173705081D01*
X195982313Y-173706354D01*
X195980499Y-173707720D01*
X195978748Y-173709180D01*
X195977085Y-173710709D01*
X195975529Y-173712292D01*
X195974080Y-173713928D01*
X195972739Y-173715617D01*
X195971505Y-173717361D01*
X195970377Y-173719157D01*
X195969358Y-173721008D01*
X195968445Y-173722912D01*
X195967639Y-173724869D01*
X195966941Y-173726881D01*
X195966349Y-173728945D01*
X195965865Y-173731064D01*
X195965488Y-173733236D01*
X195965218Y-173735461D01*
X195965055Y-173737740D01*
X195965000Y-173740073D01*
X195965000Y-173865760D01*
X195434288Y-173865760D01*
X195434288Y-173740073D01*
X195434288Y-173133707D01*
X195434737Y-173100904D01*
X195434977Y-173084329D01*
X195434942Y-173067726D01*
X195434417Y-173051160D01*
X195433905Y-173042912D01*
X195433190Y-173034697D01*
X195432245Y-173026525D01*
X195431045Y-173018404D01*
X195429562Y-173010341D01*
X195427769Y-173002346D01*
X195424861Y-172991966D01*
X195421301Y-172981761D01*
X195417116Y-172971757D01*
X195412334Y-172961978D01*
X195406983Y-172952450D01*
X195401090Y-172943199D01*
X195394684Y-172934250D01*
X195387793Y-172925629D01*
X195380444Y-172917360D01*
X195372665Y-172909470D01*
X195364484Y-172901984D01*
X195355929Y-172894927D01*
X195347028Y-172888325D01*
X195337809Y-172882203D01*
X195328300Y-172876586D01*
X195318528Y-172871501D01*
X195309109Y-172867285D01*
X195299522Y-172863672D01*
X195289782Y-172860616D01*
X195279908Y-172858072D01*
X195269916Y-172855994D01*
X195259824Y-172854337D01*
X195249647Y-172853054D01*
X195239404Y-172852100D01*
X195229111Y-172851429D01*
X195218785Y-172850996D01*
X195198102Y-172850661D01*
X195157089Y-172850830D01*
X193918820Y-172850830D01*
X193877926Y-172850441D01*
X193857333Y-172850520D01*
X193847050Y-172850793D01*
X193836795Y-172851284D01*
X193826583Y-172852040D01*
X193816427Y-172853109D01*
X193806342Y-172854536D01*
X193796343Y-172856370D01*
X193786443Y-172858658D01*
X193776658Y-172861445D01*
X193767001Y-172864780D01*
X193757486Y-172868710D01*
X193752218Y-172871191D01*
X193747037Y-172873854D01*
X193741945Y-172876689D01*
X193736943Y-172879686D01*
X193732031Y-172882837D01*
X193727211Y-172886131D01*
X193722485Y-172889560D01*
X193717852Y-172893114D01*
X193713315Y-172896784D01*
X193708874Y-172900560D01*
X193704530Y-172904434D01*
X193700285Y-172908396D01*
X193696140Y-172912436D01*
X193692095Y-172916545D01*
X193688153Y-172920714D01*
X193684313Y-172924934D01*
X193678828Y-172931417D01*
X193673770Y-172938084D01*
X193669121Y-172944928D01*
X193664866Y-172951937D01*
X193660987Y-172959103D01*
X193657469Y-172966416D01*
X193651446Y-172981448D01*
X193646665Y-172996956D01*
X193642994Y-173012865D01*
X193640301Y-173029102D01*
X193638452Y-173045589D01*
X193637317Y-173062253D01*
X193636762Y-173079018D01*
X193107500Y-173079018D01*
X193107500Y-172850417D01*
X193108189Y-172823186D01*
X193110232Y-172796312D01*
X193113597Y-172769830D01*
X193118251Y-172743771D01*
X193124160Y-172718170D01*
X193131290Y-172693059D01*
X193139610Y-172668472D01*
X193149085Y-172644441D01*
X193159682Y-172621001D01*
X193171368Y-172598185D01*
X193184109Y-172576025D01*
X193197873Y-172554555D01*
X193212627Y-172533808D01*
X193228336Y-172513818D01*
X193244968Y-172494617D01*
X193262489Y-172476239D01*
X193280867Y-172458718D01*
X193300068Y-172442086D01*
X193320058Y-172426377D01*
X193340805Y-172411623D01*
X193362275Y-172397859D01*
X193384435Y-172385118D01*
X193407251Y-172373432D01*
X193430691Y-172362835D01*
X193454722Y-172353360D01*
X193479309Y-172345040D01*
X193504420Y-172337910D01*
X193530021Y-172332001D01*
X193556080Y-172327347D01*
X193582562Y-172323982D01*
X193609436Y-172321939D01*
X193636667Y-172321250D01*
X197023333Y-172321250D01*
X197050564Y-172321939D01*
G37*
G36*
X189531031Y-172323762D02*
G01*
X189603588Y-172329279D01*
X189675091Y-172338365D01*
X189745449Y-172350930D01*
X189814573Y-172366884D01*
X189882373Y-172386137D01*
X189948758Y-172408599D01*
X190013640Y-172434181D01*
X190076928Y-172462793D01*
X190138533Y-172494346D01*
X190198365Y-172528748D01*
X190256333Y-172565911D01*
X190312350Y-172605745D01*
X190366323Y-172648160D01*
X190418165Y-172693067D01*
X190467785Y-172740374D01*
X190515093Y-172789994D01*
X190559999Y-172841836D01*
X190602414Y-172895809D01*
X190642248Y-172951825D01*
X190679412Y-173009794D01*
X190713814Y-173069626D01*
X190745367Y-173131231D01*
X190773979Y-173194519D01*
X190799561Y-173259401D01*
X190822024Y-173325787D01*
X190841277Y-173393586D01*
X190857230Y-173462710D01*
X190869795Y-173533069D01*
X190878881Y-173604572D01*
X190884399Y-173677130D01*
X190886258Y-173750653D01*
X190884399Y-173824176D01*
X190878881Y-173896734D01*
X190869795Y-173968236D01*
X190857230Y-174038594D01*
X190841277Y-174107718D01*
X190822024Y-174175518D01*
X190799561Y-174241903D01*
X190773979Y-174306785D01*
X190745367Y-174370073D01*
X190713814Y-174431678D01*
X190679412Y-174491510D01*
X190642248Y-174549478D01*
X190602414Y-174605495D01*
X190559999Y-174659469D01*
X190515093Y-174711310D01*
X190467785Y-174760930D01*
X190418165Y-174808238D01*
X190366323Y-174853144D01*
X190312350Y-174895559D01*
X190256333Y-174935394D01*
X190198365Y-174972557D01*
X190138533Y-175006960D01*
X190076928Y-175038512D01*
X190013640Y-175067124D01*
X189948758Y-175092706D01*
X189882373Y-175115169D01*
X189814573Y-175134422D01*
X189745449Y-175150376D01*
X189675091Y-175162940D01*
X189603588Y-175172026D01*
X189531031Y-175177544D01*
X189457508Y-175179403D01*
X187870008Y-175179403D01*
X187796485Y-175177544D01*
X187723927Y-175172026D01*
X187652424Y-175162940D01*
X187582065Y-175150376D01*
X187512941Y-175134422D01*
X187445142Y-175115169D01*
X187378756Y-175092706D01*
X187313874Y-175067124D01*
X187250586Y-175038512D01*
X187188981Y-175006960D01*
X187129149Y-174972557D01*
X187071180Y-174935394D01*
X187015164Y-174895559D01*
X186961190Y-174853144D01*
X186909349Y-174808238D01*
X186859729Y-174760930D01*
X186812421Y-174711310D01*
X186767515Y-174659469D01*
X186725100Y-174605495D01*
X186685266Y-174549478D01*
X186648103Y-174491510D01*
X186613700Y-174431678D01*
X186582148Y-174370073D01*
X186553536Y-174306785D01*
X186527954Y-174241903D01*
X186505492Y-174175518D01*
X186486239Y-174107718D01*
X186470285Y-174038594D01*
X186457720Y-173968236D01*
X186448634Y-173896734D01*
X186447429Y-173880881D01*
X186970425Y-173880881D01*
X186970479Y-173883573D01*
X186970640Y-173886202D01*
X186970909Y-173888771D01*
X186971285Y-173891277D01*
X186971768Y-173893722D01*
X186972358Y-173896104D01*
X186973056Y-173898426D01*
X186973861Y-173900685D01*
X186974773Y-173902882D01*
X186975793Y-173905018D01*
X186976921Y-173907092D01*
X186978156Y-173909105D01*
X186979498Y-173911055D01*
X186980948Y-173912944D01*
X186982505Y-173914771D01*
X186984170Y-173916536D01*
X186986161Y-173918216D01*
X186988199Y-173919787D01*
X186990283Y-173921248D01*
X186992414Y-173922601D01*
X186994592Y-173923846D01*
X186996815Y-173924981D01*
X186999086Y-173926008D01*
X187001402Y-173926926D01*
X187003765Y-173927736D01*
X187006173Y-173928438D01*
X187008628Y-173929031D01*
X187011128Y-173929517D01*
X187013674Y-173929894D01*
X187016265Y-173930164D01*
X187018902Y-173930325D01*
X187021584Y-173930379D01*
X187371744Y-173930379D01*
X187371744Y-174283227D01*
X187371799Y-174285919D01*
X187371961Y-174288549D01*
X187372229Y-174291118D01*
X187372605Y-174293625D01*
X187373088Y-174296070D01*
X187373679Y-174298454D01*
X187374376Y-174300775D01*
X187375181Y-174303035D01*
X187376093Y-174305233D01*
X187377113Y-174307369D01*
X187378240Y-174309444D01*
X187379474Y-174311456D01*
X187380817Y-174313406D01*
X187382267Y-174315293D01*
X187383825Y-174317119D01*
X187385490Y-174318883D01*
X187387242Y-174320563D01*
X187389057Y-174322134D01*
X187390934Y-174323596D01*
X187392873Y-174324950D01*
X187394874Y-174326194D01*
X187396937Y-174327331D01*
X187399062Y-174328359D01*
X187401249Y-174329278D01*
X187403497Y-174330089D01*
X187405806Y-174330792D01*
X187408176Y-174331386D01*
X187410608Y-174331872D01*
X187413100Y-174332250D01*
X187415653Y-174332520D01*
X187418266Y-174332682D01*
X187420940Y-174332736D01*
X187582173Y-174332736D01*
X187584607Y-174332682D01*
X187586997Y-174332520D01*
X187589342Y-174332250D01*
X187591642Y-174331872D01*
X187593897Y-174331386D01*
X187596107Y-174330792D01*
X187598270Y-174330089D01*
X187600388Y-174329278D01*
X187602460Y-174328359D01*
X187604486Y-174327331D01*
X187606465Y-174326194D01*
X187608398Y-174324950D01*
X187610284Y-174323596D01*
X187612123Y-174322134D01*
X187613914Y-174320563D01*
X187615659Y-174318883D01*
X187617562Y-174317119D01*
X187619341Y-174315293D01*
X187620998Y-174313406D01*
X187622531Y-174311456D01*
X187623942Y-174309444D01*
X187625230Y-174307369D01*
X187626394Y-174305233D01*
X187627437Y-174303035D01*
X187628356Y-174300775D01*
X187629153Y-174298454D01*
X187629827Y-174296070D01*
X187630379Y-174293625D01*
X187630809Y-174291118D01*
X187631116Y-174288549D01*
X187631301Y-174285919D01*
X187631364Y-174283227D01*
X187631364Y-173930379D01*
X187979567Y-173930379D01*
X187982241Y-173930325D01*
X187984855Y-173930164D01*
X187987408Y-173929894D01*
X187989900Y-173929517D01*
X187992331Y-173929031D01*
X187994701Y-173928438D01*
X187997010Y-173927736D01*
X187999257Y-173926926D01*
X188001443Y-173926008D01*
X188003567Y-173924981D01*
X188005629Y-173923846D01*
X188007630Y-173922601D01*
X188009568Y-173921248D01*
X188011444Y-173919787D01*
X188013259Y-173918216D01*
X188015010Y-173916536D01*
X188016675Y-173914771D01*
X188018232Y-173912944D01*
X188019682Y-173911055D01*
X188021025Y-173909105D01*
X188022260Y-173907092D01*
X188023388Y-173905018D01*
X188024408Y-173902882D01*
X188025321Y-173900685D01*
X188026127Y-173898426D01*
X188026825Y-173896104D01*
X188027415Y-173893722D01*
X188027899Y-173891277D01*
X188028275Y-173888771D01*
X188028543Y-173886202D01*
X188028704Y-173883573D01*
X188028758Y-173880881D01*
X188028758Y-173750653D01*
X188557925Y-173750653D01*
X188559095Y-173796945D01*
X188562569Y-173842630D01*
X188568290Y-173887650D01*
X188576201Y-173931950D01*
X188586246Y-173975472D01*
X188598368Y-174018161D01*
X188612511Y-174059959D01*
X188628619Y-174100810D01*
X188646634Y-174140659D01*
X188666500Y-174179447D01*
X188688161Y-174217119D01*
X188711560Y-174253618D01*
X188736641Y-174288887D01*
X188763346Y-174322871D01*
X188791621Y-174355512D01*
X188821407Y-174386754D01*
X188852649Y-174416540D01*
X188885290Y-174444814D01*
X188919274Y-174471520D01*
X188954543Y-174496601D01*
X188991042Y-174520000D01*
X189028714Y-174541661D01*
X189067502Y-174561527D01*
X189107350Y-174579542D01*
X189148202Y-174595650D01*
X189190000Y-174609793D01*
X189232689Y-174621915D01*
X189276211Y-174631960D01*
X189320511Y-174639871D01*
X189365531Y-174645592D01*
X189411216Y-174649066D01*
X189457508Y-174650236D01*
X189503800Y-174649066D01*
X189549485Y-174645592D01*
X189594505Y-174639871D01*
X189638805Y-174631960D01*
X189682327Y-174621915D01*
X189725016Y-174609793D01*
X189766814Y-174595650D01*
X189807665Y-174579542D01*
X189847513Y-174561527D01*
X189886302Y-174541661D01*
X189923974Y-174520000D01*
X189960472Y-174496601D01*
X189995742Y-174471520D01*
X190029725Y-174444814D01*
X190062367Y-174416540D01*
X190093609Y-174386754D01*
X190123395Y-174355512D01*
X190151669Y-174322871D01*
X190178375Y-174288887D01*
X190203456Y-174253618D01*
X190226855Y-174217119D01*
X190248516Y-174179447D01*
X190268382Y-174140659D01*
X190286397Y-174100810D01*
X190302505Y-174059959D01*
X190316648Y-174018161D01*
X190328770Y-173975472D01*
X190338815Y-173931950D01*
X190346726Y-173887650D01*
X190352447Y-173842630D01*
X190355921Y-173796945D01*
X190357091Y-173750653D01*
X190355921Y-173704361D01*
X190352447Y-173658676D01*
X190346726Y-173613655D01*
X190338815Y-173569356D01*
X190328770Y-173525833D01*
X190316648Y-173483144D01*
X190302505Y-173441346D01*
X190286397Y-173400495D01*
X190268382Y-173360646D01*
X190248516Y-173321858D01*
X190226855Y-173284186D01*
X190203456Y-173247687D01*
X190178375Y-173212418D01*
X190151669Y-173178434D01*
X190123395Y-173145793D01*
X190093609Y-173114552D01*
X190062367Y-173084765D01*
X190029725Y-173056491D01*
X189995742Y-173029785D01*
X189960472Y-173004704D01*
X189923974Y-172981305D01*
X189886302Y-172959645D01*
X189847513Y-172939778D01*
X189807665Y-172921763D01*
X189766814Y-172905656D01*
X189725016Y-172891513D01*
X189682327Y-172879391D01*
X189638805Y-172869346D01*
X189594505Y-172861435D01*
X189549485Y-172855714D01*
X189503800Y-172852240D01*
X189457508Y-172851070D01*
X189411216Y-172852240D01*
X189365531Y-172855714D01*
X189320511Y-172861435D01*
X189276211Y-172869346D01*
X189232689Y-172879391D01*
X189190000Y-172891513D01*
X189148202Y-172905656D01*
X189107350Y-172921763D01*
X189067502Y-172939778D01*
X189028714Y-172959645D01*
X188991042Y-172981305D01*
X188954543Y-173004704D01*
X188919274Y-173029785D01*
X188885290Y-173056491D01*
X188852649Y-173084765D01*
X188821407Y-173114552D01*
X188791621Y-173145793D01*
X188763346Y-173178434D01*
X188736641Y-173212418D01*
X188711560Y-173247687D01*
X188688161Y-173284186D01*
X188666500Y-173321858D01*
X188646634Y-173360646D01*
X188628619Y-173400495D01*
X188612511Y-173441346D01*
X188598368Y-173483144D01*
X188586246Y-173525833D01*
X188576201Y-173569356D01*
X188568290Y-173613655D01*
X188562569Y-173658676D01*
X188559095Y-173704361D01*
X188557925Y-173750653D01*
X188028758Y-173750653D01*
X188028758Y-173736186D01*
X188028704Y-173733494D01*
X188028543Y-173730863D01*
X188028275Y-173728295D01*
X188027899Y-173725788D01*
X188027415Y-173723343D01*
X188026825Y-173720959D01*
X188026127Y-173718637D01*
X188025321Y-173716377D01*
X188024408Y-173714179D01*
X188023388Y-173712043D01*
X188022260Y-173709969D01*
X188021025Y-173707957D01*
X188019682Y-173706007D01*
X188018232Y-173704119D01*
X188016675Y-173702294D01*
X188015010Y-173700530D01*
X188013259Y-173698850D01*
X188011444Y-173697279D01*
X188009568Y-173695817D01*
X188007630Y-173694463D01*
X188005629Y-173693218D01*
X188003567Y-173692082D01*
X188001443Y-173691054D01*
X187999257Y-173690135D01*
X187997010Y-173689324D01*
X187994701Y-173688621D01*
X187992331Y-173688027D01*
X187989900Y-173687541D01*
X187987408Y-173687162D01*
X187984855Y-173686893D01*
X187982241Y-173686731D01*
X187979567Y-173686677D01*
X187631364Y-173686677D01*
X187631364Y-173323909D01*
X187631301Y-173321218D01*
X187631116Y-173318588D01*
X187630809Y-173316020D01*
X187630379Y-173313513D01*
X187629827Y-173311068D01*
X187629153Y-173308684D01*
X187628356Y-173306363D01*
X187627437Y-173304102D01*
X187626394Y-173301904D01*
X187625230Y-173299768D01*
X187623942Y-173297693D01*
X187622531Y-173295681D01*
X187620998Y-173293730D01*
X187619341Y-173291842D01*
X187617562Y-173290016D01*
X187615659Y-173288252D01*
X187613914Y-173286574D01*
X187612123Y-173285004D01*
X187610284Y-173283543D01*
X187608398Y-173282190D01*
X187606465Y-173280945D01*
X187604486Y-173279809D01*
X187602460Y-173278781D01*
X187600388Y-173277862D01*
X187598270Y-173277051D01*
X187596107Y-173276348D01*
X187593897Y-173275754D01*
X187591642Y-173275267D01*
X187589342Y-173274889D01*
X187586997Y-173274619D01*
X187584607Y-173274457D01*
X187582173Y-173274403D01*
X187420940Y-173274403D01*
X187418266Y-173274457D01*
X187415653Y-173274619D01*
X187413100Y-173274889D01*
X187410608Y-173275267D01*
X187408176Y-173275754D01*
X187405806Y-173276348D01*
X187403497Y-173277051D01*
X187401249Y-173277862D01*
X187399062Y-173278781D01*
X187396937Y-173279809D01*
X187394874Y-173280945D01*
X187392873Y-173282189D01*
X187390934Y-173283542D01*
X187389057Y-173285004D01*
X187387242Y-173286574D01*
X187385490Y-173288252D01*
X187383825Y-173290016D01*
X187382267Y-173291842D01*
X187380817Y-173293730D01*
X187379474Y-173295681D01*
X187378240Y-173297693D01*
X187377113Y-173299768D01*
X187376093Y-173301904D01*
X187375181Y-173304102D01*
X187374376Y-173306363D01*
X187373679Y-173308684D01*
X187373088Y-173311068D01*
X187372605Y-173313513D01*
X187372229Y-173316020D01*
X187371961Y-173318588D01*
X187371799Y-173321218D01*
X187371744Y-173323909D01*
X187371744Y-173686677D01*
X187021584Y-173686677D01*
X187018902Y-173686731D01*
X187016265Y-173686893D01*
X187013674Y-173687162D01*
X187011128Y-173687541D01*
X187008628Y-173688027D01*
X187006173Y-173688621D01*
X187003765Y-173689324D01*
X187001402Y-173690135D01*
X186999086Y-173691054D01*
X186996815Y-173692082D01*
X186994592Y-173693218D01*
X186992414Y-173694463D01*
X186990283Y-173695817D01*
X186988199Y-173697279D01*
X186986161Y-173698850D01*
X186984170Y-173700530D01*
X186982505Y-173702294D01*
X186980948Y-173704119D01*
X186979498Y-173706007D01*
X186978156Y-173707957D01*
X186976920Y-173709969D01*
X186975793Y-173712043D01*
X186974773Y-173714179D01*
X186973860Y-173716377D01*
X186973055Y-173718637D01*
X186972357Y-173720959D01*
X186971766Y-173723343D01*
X186971283Y-173725788D01*
X186970908Y-173728295D01*
X186970639Y-173730863D01*
X186970478Y-173733494D01*
X186970425Y-173736186D01*
X186970425Y-173880881D01*
X186447429Y-173880881D01*
X186443117Y-173824176D01*
X186441258Y-173750653D01*
X186441624Y-173736186D01*
X186443117Y-173677130D01*
X186448634Y-173604572D01*
X186457720Y-173533069D01*
X186470285Y-173462710D01*
X186486239Y-173393586D01*
X186505492Y-173325787D01*
X186527954Y-173259401D01*
X186553536Y-173194519D01*
X186582148Y-173131231D01*
X186613700Y-173069626D01*
X186648103Y-173009794D01*
X186685266Y-172951825D01*
X186725100Y-172895809D01*
X186767515Y-172841835D01*
X186812421Y-172789994D01*
X186859729Y-172740374D01*
X186909349Y-172693066D01*
X186961190Y-172648160D01*
X187015164Y-172605745D01*
X187071180Y-172565911D01*
X187129149Y-172528748D01*
X187188981Y-172494345D01*
X187250586Y-172462793D01*
X187313874Y-172434181D01*
X187378756Y-172408599D01*
X187445142Y-172386137D01*
X187512941Y-172366884D01*
X187582065Y-172350930D01*
X187652424Y-172338365D01*
X187723927Y-172329279D01*
X187796485Y-172323762D01*
X187870008Y-172321903D01*
X189457508Y-172321903D01*
X189531031Y-172323762D01*
G37*
%TD*%
M02*
