<svg width="675" height="672" viewBox="0 0 675 672" fill="none" xmlns="http://www.w3.org/2000/svg">
<path d="M76.2158 111.76C73.7095 108.409 77.7919 104.116 81.2649 106.45L401.467 321.784C404.095 323.551 407.587 321.433 407.234 318.287L399.552 249.79C399.188 246.542 402.889 244.441 405.492 246.418L618.989 411.221C634.026 422.644 646.41 437.189 655.291 453.853C670.718 482.802 674.701 516.489 666.447 548.227L663.823 558.315C650.262 610.455 609.55 651.167 557.41 664.728L547.628 667.273C515.694 675.578 481.798 671.573 452.669 656.054C436.179 647.267 421.748 635.069 410.337 620.272L173.051 315.791C170.913 313.018 173.442 309.098 176.849 309.904L224.692 321.239C228.072 322.04 230.604 318.179 228.524 315.396L76.2158 111.76ZM429.606 430.362C379.802 480.166 379.803 560.915 429.606 610.719C479.411 660.523 560.159 660.523 609.963 610.719C659.767 560.915 659.767 480.166 609.963 430.362C560.159 380.559 479.41 380.559 429.606 430.362Z" fill="black"/>
<path d="M150.145 256.133L155.704 268.601L169.278 270.053L156.81 275.612L155.357 289.186L149.798 276.718L136.225 275.266L148.692 269.707L150.145 256.133Z" fill="black"/>
<path d="M220.915 500.291L221.579 521.857L235.939 537.959L214.373 538.623L198.271 552.983L197.607 531.418L183.247 515.315L204.812 514.651L220.915 500.291Z" fill="black"/>
<path d="M120.369 0.649017L138.913 19.5197L165.361 18.8495L146.491 37.3933L147.161 63.8419L128.617 44.9712L102.168 45.6414L121.039 27.0976L120.369 0.649017Z" fill="black"/>
<path d="M614.877 253.739L639.525 279.361L674.775 274.733L649.153 299.381L653.781 334.631L629.133 309.009L593.883 313.637L619.505 288.989L614.877 253.739Z" fill="black"/>
<path d="M37.3632 373.094L50.3729 403.116L82.2559 410.465L52.2344 423.475L44.8849 455.358L31.8752 425.337L-0.0078125 417.987L30.0137 404.977L37.3632 373.094Z" fill="black"/>
<path d="M320.298 164.765L351.923 179.783L380.877 161.701L366.735 192.77L385.758 222.161L354.132 207.144L325.178 225.225L339.32 194.156L320.298 164.765Z" fill="black"/>
<path d="M75.9262 176.848L87.1729 196.915L109.728 201.44L89.6602 212.687L85.1352 235.242L73.8885 215.174L51.3336 210.649L71.4012 199.403L75.9262 176.848Z" fill="black"/>
</svg>
